<svg xmlns="http://www.w3.org/2000/svg" viewBox="0 0 100 100">
  <path fill="#000000" d="M98.343,84.737L53.363,10.752C52.429,9.164,51.308,8.313,50,8.195c-1.308-0.118-2.428,0.571-3.363,2.067L1.657,84.946
	c-0.98,1.496-1.155,3.035-0.525,4.624c0.631,1.59,1.81,2.382,3.538,2.382h90.66c1.729,0,2.907-0.828,3.537-2.486
	C99.498,87.809,99.322,86.233,98.343,84.737z M53.764,27.389L52.666,65.12h-5.333l-1.1-37.731H53.764z M49.922,81.121
	c-2.669,0-4.551-2.117-4.551-4.863c0-2.823,1.962-4.865,4.706-4.865c2.746,0,4.551,2.04,4.551,4.865
	C54.628,79.004,52.823,81.121,49.922,81.121z"/>
</svg>
