<svg xmlns="http://www.w3.org/2000/svg" viewBox="0 0 100 100">
  <path d="M0 91.458q0 1.667 1.208 2.917t2.958 1.25h91.667q1.75 0 2.958-1.25t1.208-2.917v-8.333q0-1.75-1.208-2.958t-2.958-1.208h-91.667q-1.75 0-2.958 1.208t-1.208 2.958v8.333zM0 66.458q0 1.667 1.208 2.917t2.958 1.25h66.667q1.75 0 2.958-1.25t1.208-2.917v-8.333q0-1.75-1.208-2.958t-2.958-1.208h-66.667q-1.75 0-2.958 1.208t-1.208 2.958v8.333zM0 41.458q0 1.667 1.208 2.917t2.958 1.25h83.333q1.75 0 2.958-1.25t1.208-2.917v-8.333q0-1.75-1.208-2.958t-2.958-1.208h-83.333q-1.75 0-2.958 1.208t-1.208 2.958v8.333zM0 16.458q0 1.667 1.208 2.917t2.958 1.25h50q1.75 0 2.958-1.25t1.208-2.917v-8.333q0-1.75-1.208-2.958t-2.958-1.208h-50q-1.75 0-2.958 1.208t-1.208 2.958v8.333z" fill="#000000"/>
</svg>
