<?xml version="1.0" encoding="utf-8"?>
<!-- Generated by IcoMoon.io -->
<!DOCTYPE svg PUBLIC "-//W3C//DTD SVG 1.1//EN" "http://www.w3.org/Graphics/SVG/1.1/DTD/svg11.dtd">
<svg version="1.1" xmlns="http://www.w3.org/2000/svg" xmlns:xlink="http://www.w3.org/1999/xlink" width="100" height="100" viewBox="0 0 100 100">
<g>
</g>
	<path d="M76.459 26c-11.116 0-21.31 10.439-26.459 16.753-5.15-6.314-15.343-16.753-26.459-16.753-12.981 0-23.541 10.561-23.541 23.542s10.56 23.542 23.541 23.542c11.116 0 21.309-10.439 26.459-16.754 5.148 6.314 15.342 16.754 26.459 16.754 12.98 0 23.541-10.561 23.541-23.542s-10.561-23.542-23.541-23.542zM23.541 64.909c-8.473 0-15.367-6.895-15.367-15.367 0-8.474 6.894-15.368 15.367-15.368 7.895 0 16.97 9.623 21.403 15.368-4.434 5.747-13.508 15.367-21.403 15.367zM76.459 64.909c-7.897 0-16.975-9.627-21.406-15.372 4.423-5.746 13.482-15.365 21.406-15.365 8.474 0 15.366 6.894 15.366 15.368 0 8.475-6.892 15.369-15.366 15.369z" fill="#000000" />
</svg>
