<?xml version="1.0" encoding="utf-8"?>
<!-- Generator: Adobe Illustrator 15.0.0, SVG Export Plug-In . SVG Version: 6.00 Build 0)  -->
<!DOCTYPE svg PUBLIC "-//W3C//DTD SVG 1.1//EN" "http://www.w3.org/Graphics/SVG/1.1/DTD/svg11.dtd">
<svg version="1.1" id="Calque_1" xmlns="http://www.w3.org/2000/svg" xmlns:xlink="http://www.w3.org/1999/xlink" x="0px" y="0px"
	 width="100px" height="100px" viewBox="0 0 100 100" enable-background="new 0 0 100 100" xml:space="preserve">
<path fill="#454545" d="M78.791,1.625c0,6.639-2.355,12.314-7.067,17.024c-4.708,4.712-10.387,7.067-17.023,7.067
	c0-6.639,2.355-12.314,7.067-17.024C66.476,3.981,72.154,1.625,78.791,1.625z M34.624,17.686h8.03c1.124,0,2.196,0.375,3.212,1.125
	c1.017,0.75,1.713,1.633,2.089,2.649l6.343,15.581c0.27-0.056,0.697-0.134,1.285-0.241c1.82-0.321,3.264-0.577,4.336-0.765
	c1.073-0.189,2.679-0.375,4.818-0.562c2.139-0.187,3.896-0.213,5.258-0.08c1.363,0.132,2.999,0.4,4.899,0.803
	c1.9,0.399,3.413,1.018,4.539,1.846c1.123,0.832,2.262,1.955,3.417,3.372c1.146,1.421,1.926,3.134,2.327,5.139
	c0.401,2.008,0.532,4.473,0.401,7.391c-0.132,2.917-0.656,6.173-1.569,9.759c-0.054,0.373-0.132,0.896-0.241,1.565
	c-0.107,0.671-0.401,2.011-0.881,4.015c-0.483,2.008-1.032,3.962-1.645,5.867c-0.614,1.9-1.487,4.081-2.612,6.542
	c-1.126,2.466-2.375,4.688-3.736,6.666c-1.365,1.979-3.077,3.856-5.139,5.622c-2.064,1.766-4.272,3.105-6.628,4.015
	c-0.696,0.268-1.822,0.401-3.372,0.401c-1.553,0-3.307-0.065-5.258-0.204c-1.954-0.131-3.224-0.199-3.817-0.199
	c-0.749,0-2.074,0.093-3.975,0.278c-1.904,0.186-3.588,0.279-5.063,0.279c-1.468,0-2.635-0.188-3.495-0.561
	c-3.049-1.34-5.847-3.442-8.388-6.303c-2.541-2.864-4.548-5.848-6.022-8.955c-1.475-3.109-2.717-6.108-3.733-8.995
	c-1.017-2.889-1.713-5.298-2.09-7.227l-0.562-2.811c-0.803-3.375-1.283-6.453-1.445-9.235c-0.16-2.786-0.042-5.154,0.36-7.108
	c0.399-1.957,1.095-3.67,2.086-5.138c0.991-1.475,2.052-2.639,3.171-3.498c1.123-0.856,2.513-1.54,4.175-2.045
	c1.663-0.505,3.228-0.853,4.699-1.045c1.468-0.189,3.143-0.245,5.019-0.16c1.875,0.083,3.469,0.205,4.78,0.362
	c1.308,0.159,2.792,0.374,4.455,0.644L32.849,21.055c-0.64-0.963-0.788-1.767-0.439-2.409c0.351-0.642,1.085-0.963,2.211-0.963
	L34.624,17.686z"/>
</svg>
