<svg xmlns="http://www.w3.org/2000/svg" viewBox="0 0 100 100">
	<path d="M99.665 42.856v-7.104h-10.779v-10.636h-3.4v-10.348h-3.548v-3.79h-63.863v3.79h-3.548v10.348h-3.696v10.636h-10.496v7.104h7.096v3.696h-3.4v42.471h14.044v-7.139h63.789v7.139h14.044v-7.139h0.074v-35.332h-3.4v-3.696h7.083zM21.548 21.537h3.357v-3.357h50.147v3.356h3.554v14.215h-57.058v-14.214zM25.115 60.706h-10.589v-10.706h3.548v3.444h3.493v3.631h3.548v3.631zM64.198 74.898h-28.384v-7.207h28.383v7.207zM85.486 60.706h-10.589v-3.631h3.548v-3.631h3.493v-3.444h3.548v10.706z" fill="#000000" />
</svg>
