<?xml version="1.0" encoding="utf-8"?>
<!-- Generator: Adobe Illustrator 15.0.0, SVG Export Plug-In . SVG Version: 6.00 Build 0)  -->
<!DOCTYPE svg PUBLIC "-//W3C//DTD SVG 1.1//EN" "http://www.w3.org/Graphics/SVG/1.1/DTD/svg11.dtd">
<svg version="1.1" id="Calque_1" xmlns="http://www.w3.org/2000/svg" xmlns:xlink="http://www.w3.org/1999/xlink" x="0px" y="0px"
	 width="100px" height="100px" viewBox="0 0 100 100" enable-background="new 0 0 100 100" xml:space="preserve">
<path fill="#454545" d="M49.881,1.621c2.049,0,3.811,0.737,5.285,2.21c1.476,1.473,2.21,3.235,2.21,5.284v5.848
	c2.299,1.3,4.123,3.099,5.476,5.399c1.35,2.301,2.024,4.8,2.024,7.5v3.749h-29.99v-3.749c0-2.701,0.675-5.2,2.025-7.5
	c1.349-2.299,3.174-4.098,5.473-5.399V9.116c0-2.049,0.737-3.812,2.212-5.284c1.471-1.473,3.233-2.21,5.283-2.21H49.881z
	 M34.886,39.108h29.99c2.702,0,5.201,0.675,7.501,2.025c2.295,1.349,4.099,3.174,5.4,5.473H64.883v7.498h14.994v7.5H64.883v7.498
	h14.994v7.5H64.883v7.497h14.994c0,4.148-1.463,7.686-4.386,10.609c-2.924,2.92-6.46,4.383-10.608,4.383H34.892
	c-4.146,0-7.682-1.463-10.605-4.383c-2.924-2.924-4.386-6.461-4.386-10.609V54.109c0-4.149,1.462-7.685,4.386-10.609
	s6.46-4.386,10.605-4.386L34.886,39.108z"/>
</svg>
