<?xml version="1.0" encoding="utf-8"?>
<!-- Generated by IcoMoon.io -->
<!DOCTYPE svg PUBLIC "-//W3C//DTD SVG 1.1//EN" "http://www.w3.org/Graphics/SVG/1.1/DTD/svg11.dtd">
<svg version="1.1" xmlns="http://www.w3.org/2000/svg" xmlns:xlink="http://www.w3.org/1999/xlink" width="100" height="100" viewBox="0 0 100 100">
<g>
</g>
	<path d="M3.438 50q0-12.656 6.25-23.359t16.953-16.953 23.359-6.25 23.359 6.25 16.953 16.953 6.25 23.359-6.25 23.359-16.953 16.953-23.359 6.25-23.359-6.25-16.953-16.953-6.25-23.359zM17.656 50q0 8.984 4.844 16.797l44.375-44.297q-7.813-4.844-16.875-4.844-13.359 0-22.852 9.492t-9.492 22.852zM33.672 77.734q7.578 4.609 16.328 4.609 13.359 0 22.852-9.492t9.492-22.852q0-8.75-4.609-16.328z" fill="#000000" />
</svg>
