<svg xmlns="http://www.w3.org/2000/svg" viewBox="0 0 100 100">
  <path fill="#000000" d="M42.159,15.346h13.683c3.504,0,6.923,0.761,10.24,2.28c3.324,1.52,6.224,3.533,8.703,6.035
	c2.479,2.503,4.574,5.368,6.283,8.595c1.705,3.229,2.837,6.549,3.401,9.964c0.839,0.657,1.659,1.121,2.454,1.399
	c1.45,0.471,2.96,0.318,4.528-0.456c1.565-0.772,2.583-1.908,3.049-3.404c0.468-1.591,0.118-3.249-1.054-4.981
	c-0.886-1.261-1.097-2.266-0.63-3.015c0.231-0.375,0.524-0.634,0.877-0.774s0.795-0.117,1.331,0.071
	c0.536,0.187,1.085,0.563,1.646,1.124c1.92,2.06,2.831,4.514,2.738,7.368c-0.141,2.945-1.217,5.435-3.228,7.47
	c-2.012,2.037-4.443,3.053-7.297,3.053h-4.351c-0.326,2.573-1.146,5.308-2.454,8.21c-1.31,2.9-2.619,5.239-3.925,7.014
	l-2.738,16.421c-0.145,0.936-0.608,1.739-1.404,2.419c-0.791,0.68-1.684,1.021-2.665,1.021h-7.014c-0.981,0-1.752-0.341-2.315-1.021
	c-0.563-0.68-0.771-1.483-0.634-2.419l0.843-4.911c-2.29,0.657-4.42,0.981-6.387,0.981h-13.68c-1.122,0-2.641-0.186-4.562-0.561
	l-0.77,4.49c-0.141,0.936-0.608,1.739-1.403,2.419c-0.795,0.68-1.681,1.021-2.667,1.021h-7.017c-0.979,0-1.752-0.341-2.313-1.021
	c-0.562-0.68-0.774-1.483-0.63-2.419l1.821-11.016c-3.93-3.463-6.923-7.558-8.981-12.277L4.484,54.703
	C3.595,54.377,2.825,53.77,2.17,52.88c-0.658-0.886-0.985-1.821-0.985-2.807v-3.511c0-0.979,0.337-1.808,1.016-2.488
	c0.68-0.68,1.51-1.017,2.492-1.017h8.703c0.514-4.072,1.821-7.955,3.926-11.646l-7.787-6.665c-0.749-0.654-1.041-1.204-0.879-1.646
	c0.162-0.443,0.736-0.666,1.718-0.667h14.241c5.425-4.724,11.272-7.086,17.54-7.086H42.159z M55.562,22.01H38.018
	c-0.467,0-0.876,0.176-1.229,0.527c-0.349,0.352-0.524,0.761-0.524,1.23v3.509c0,0.469,0.175,0.878,0.524,1.23
	c0.352,0.351,0.761,0.527,1.229,0.527h17.544c0.468,0,0.876-0.176,1.228-0.527c0.35-0.352,0.524-0.761,0.524-1.23v-3.509
	c0-0.469-0.175-0.878-0.524-1.23C56.438,22.186,56.029,22.01,55.562,22.01z"/>
</svg>
