<svg xmlns="http://www.w3.org/2000/svg" viewBox="0 0 100 100">
  <path fill="#000000" d="M17.618,6.18h64.357c4.45,0,8.244,1.568,11.383,4.704c3.137,3.138,4.706,6.932,4.706,11.383v16.089h-8.049
	c0-2.198-0.788-4.088-2.37-5.669c-1.58-1.582-3.472-2.373-5.67-2.373H61.862c-2.199,0-4.089,0.791-5.671,2.373
	c-1.578,1.581-2.369,3.471-2.369,5.669h-8.045c0-2.198-0.791-4.088-2.37-5.669c-1.582-1.582-3.473-2.373-5.672-2.373H17.624
	c-2.198,0-4.089,0.791-5.671,2.373c-1.582,1.581-2.37,3.471-2.37,5.669H1.535V22.267c0-4.451,1.569-8.245,4.707-11.383
	C9.378,7.749,13.173,6.18,17.624,6.18H17.618z M9.573,46.401h80.446c2.199,0,4.09,0.792,5.67,2.371
	c1.583,1.582,2.375,3.473,2.375,5.671v24.131H1.528V54.442c0-2.198,0.791-4.089,2.37-5.671c1.582-1.579,3.469-2.371,5.668-2.371
	H9.573z M25.662,86.625v4.022c0,1.125-0.389,2.076-1.167,2.855c-0.778,0.777-1.73,1.166-2.856,1.166h-8.044
	c-1.126,0-2.078-0.389-2.856-1.166c-0.778-0.779-1.167-1.73-1.167-2.855v-4.022H25.662z M90.019,86.625v4.022
	c0,1.125-0.389,2.076-1.167,2.855c-0.777,0.777-1.729,1.166-2.855,1.166h-8.045c-1.125,0-2.078-0.389-2.855-1.166
	c-0.777-0.779-1.166-1.73-1.166-2.855v-4.022H90.019z"/>
</svg>
