<svg xmlns="http://www.w3.org/2000/svg" viewBox="0 0 100 100">
  <path d="M8.906 68.359q0-1.641 1.055-2.773t2.617-1.133h1.406l9.141-13.516 4.922-25.547q1.172-6.016 5.938-10.938t11.25-6.484l-1.406-2.5q-0.469-1.484 0.234-2.5t2.266-1.016h7.344q1.563 0 2.266 0.82t0.234 2.305q-1.406 2.813-1.406 2.891 6.484 1.484 11.25 6.445t5.937 10.977l4.922 25.547 9.219 13.516h1.328q1.563 0 2.617 1.133t1.055 2.773q0 1.563-1.016 3.125t-2.422 2.109q-0.625 0.234-1.797 0.664t-5.078 1.563-8.047 1.953-10.352 1.523-12.383 0.703q-9.766 0-19.18-1.602t-13.945-3.164l-4.531-1.563q-1.406-0.547-2.422-2.148t-1.016-3.164zM41.953 87.109q0.938 3.828 3.125 6.211t4.922 2.383 4.922-2.383 3.047-6.211q-3.75 0.469-7.969 0.469t-8.047-0.469z" fill="#000000"/>
</svg>
