<svg xmlns="http://www.w3.org/2000/svg" viewBox="0 0 100 100">
  <path fill="#000000" d="M49.81,1.121c2.352,0,4.667,1.34,6.946,4.018s4.056,5.758,5.333,9.237c1.276,3.479,1.915,6.572,1.915,9.276
	c0,3.905-1.39,7.248-4.169,10.027c-2.779,2.778-6.12,4.168-10.025,4.168c-3.905,0-7.248-1.39-10.025-4.168
	c-2.779-2.78-4.168-6.122-4.168-10.027c0-3.103,0.851-6.684,2.553-10.741l10.814,10.741l8.336-8.338L45.079,3.075
	c1.702-1.3,3.282-1.951,4.733-1.951L49.81,1.121z M49.96,38.821h3.455c1.702,0,3.092,0.714,4.168,2.14
	c1.075,1.427,1.614,3.592,1.614,6.496c0,3.806,0.976,8.386,2.928,13.745H37.794c1.953-5.358,2.929-9.938,2.929-13.745
	c0-2.903,0.539-5.069,1.615-6.496c1.076-1.426,2.491-2.14,4.243-2.14H49.96z M23.526,68.71h52.569c1.052,0,1.94,0.363,2.666,1.09
	c0.726,0.726,1.089,1.614,1.089,2.666c0,1.05-0.363,1.939-1.089,2.665c-0.726,0.727-1.614,1.09-2.666,1.09h-0.976l10.36,7.51H14.135
	l10.289-7.51h-0.901c-1.052,0-1.94-0.363-2.666-1.09c-0.726-0.726-1.089-1.615-1.089-2.665c0-1.052,0.364-1.94,1.089-2.666
	c0.726-0.727,1.614-1.09,2.666-1.09H23.526z M8.505,91.24h82.609c1.049,0,1.937,0.362,2.666,1.089
	c0.726,0.726,1.09,1.614,1.09,2.666v3.755H4.75v-3.755c0-1.052,0.363-1.94,1.089-2.666C6.565,91.603,7.454,91.24,8.505,91.24z"/>
</svg>
