<?xml version="1.0" encoding="utf-8"?>
<!-- Generator: Adobe Illustrator 15.0.0, SVG Export Plug-In . SVG Version: 6.00 Build 0)  -->
<!DOCTYPE svg PUBLIC "-//W3C//DTD SVG 1.1//EN" "http://www.w3.org/Graphics/SVG/1.1/DTD/svg11.dtd">
<svg version="1.1" id="Calque_1" xmlns="http://www.w3.org/2000/svg" xmlns:xlink="http://www.w3.org/1999/xlink" x="0px" y="0px"
	 width="100px" height="100px" viewBox="0 0 100 100" enable-background="new 0 0 100 100" xml:space="preserve">
<path fill="#454545" d="M52.53,1.454h12.168c0.54,0,1.016,0.203,1.42,0.61c0.409,0.407,0.612,0.881,0.612,1.421v8.843
	c4.274,1.785,7.814,4.152,10.625,7.1c2.814,2.949,4.247,6.424,4.305,10.426c0.051,2.487-0.355,4.773-1.218,6.858
	c-0.869,2.083-1.921,3.731-3.167,4.947c-1.244,1.218-2.486,2.244-3.729,3.081c-1.244,0.843-2.3,1.422-3.165,1.742l-1.378,0.489
	c0.323,0,0.729,0.041,1.216,0.121c0.488,0.082,1.434,0.323,2.84,0.729c1.407,0.409,2.757,0.88,4.057,1.422
	c1.299,0.541,2.732,1.353,4.296,2.433c1.572,1.081,2.922,2.298,4.057,3.652c1.138,1.353,2.099,3.082,2.882,5.193
	c0.783,2.107,1.176,4.38,1.176,6.813c0,3.188-0.312,6.044-0.933,8.556c-0.624,2.517-1.394,4.583-2.313,6.208
	c-0.915,1.626-2.104,3.004-3.567,4.136c-1.464,1.135-2.803,1.987-4.019,2.561c-1.214,0.571-2.688,1.002-4.42,1.297
	c-1.734,0.294-3.071,0.473-4.02,0.529c-0.944,0.056-2.12,0.085-3.526,0.081v6.085c0,0.54-0.204,1.014-0.609,1.42
	c-0.407,0.405-0.88,0.609-1.423,0.609H52.527c-0.541,0-1.014-0.204-1.423-0.609c-0.406-0.406-0.608-0.88-0.608-1.42v-6.085h-8.113
	v6.085c0,0.54-0.203,1.014-0.608,1.42c-0.409,0.405-0.881,0.609-1.423,0.609H28.183c-0.542,0-1.017-0.204-1.423-0.609
	c-0.406-0.406-0.608-0.88-0.608-1.42v-6.085H11.955c-0.542,0-1.014-0.202-1.419-0.61c-0.409-0.409-0.612-0.882-0.612-1.423V76.501
	c0-0.54,0.203-1.016,0.612-1.422c0.406-0.405,0.877-0.607,1.419-0.607h6.085V25.795h-6.085c-0.542,0-1.014-0.202-1.419-0.609
	c-0.409-0.407-0.612-0.881-0.612-1.422V11.595c0-0.541,0.203-1.014,0.612-1.421c0.406-0.408,0.877-0.61,1.419-0.61h14.197V3.479
	c0-0.54,0.203-1.014,0.608-1.421s0.881-0.61,1.423-0.61h12.169c0.542,0,1.014,0.203,1.423,0.61c0.406,0.407,0.608,0.881,0.608,1.421
	v6.084h8.113V3.479c0-0.54,0.202-1.014,0.608-1.421c0.409-0.407,0.882-0.61,1.423-0.61L52.53,1.454z M34.277,25.792v16.223h21.337
	c1.511,0,2.823-0.282,3.932-0.848c1.109-0.565,1.921-1.243,2.435-2.029c0.513-0.786,0.918-1.569,1.216-2.352
	c0.299-0.783,0.444-1.472,0.444-2.067l0.082-0.812c0-0.215-0.013-0.512-0.038-0.891s-0.189-1.029-0.488-1.948
	c-0.298-0.919-0.703-1.731-1.216-2.435c-0.514-0.703-1.325-1.351-2.435-1.946c-1.108-0.595-2.421-0.893-3.932-0.893H34.277V25.792z
	 M34.277,58.241v16.224h29.45c1.512,0,2.822-0.281,3.932-0.85c1.109-0.563,1.921-1.241,2.435-2.027
	c0.513-0.785,0.918-1.568,1.218-2.352c0.297-0.786,0.442-1.47,0.442-2.065l0.082-0.812c0-0.217-0.013-0.514-0.038-0.895
	c-0.025-0.38-0.189-1.026-0.486-1.945c-0.3-0.919-0.705-1.73-1.218-2.434c-0.514-0.703-1.325-1.353-2.435-1.949
	c-1.109-0.592-2.42-0.89-3.932-0.89h-29.45V58.241z"/>
</svg>
