<svg xmlns="http://www.w3.org/2000/svg" viewBox="0 0 100 100">
  <path fill="#000000" d="M11.416,2.363h78.079c1.214,0,2.243,0.419,3.082,1.258c0.838,0.84,1.258,1.866,1.258,3.082v43.375
	c0,1.213-0.42,2.243-1.258,3.082c-0.839,0.839-1.868,1.259-3.082,1.259H11.416c-1.214,0-2.243-0.42-3.082-1.259
	c-0.839-0.839-1.258-1.868-1.258-3.082V6.703c0-1.215,0.419-2.241,1.258-3.082C9.173,2.782,10.202,2.363,11.416,2.363z
	 M9.246,63.091H91.66c0.578,0,1.088,0.216,1.52,0.647c0.432,0.433,0.651,0.941,0.651,1.52v4.34c0,0.578-0.22,1.083-0.651,1.519
	c-0.432,0.432-0.941,0.647-1.52,0.647H67.108L86.54,91.197c0.753,0.753,1.13,1.663,1.13,2.732c0,1.071-0.377,1.993-1.13,2.773
	c-0.75,0.782-1.666,1.173-2.732,1.173c-1.068,0-1.979-0.379-2.732-1.127l-7.638-7.639H27.98l-7.549,7.639
	c-0.75,0.748-1.677,1.127-2.773,1.127c-1.096,0-2.023-0.391-2.774-1.173c-0.755-0.78-1.13-1.702-1.13-2.773
	c0-1.069,0.375-1.979,1.13-2.732l19.431-19.434H9.242c-0.578,0-1.086-0.216-1.518-0.647c-0.436-0.436-0.652-0.94-0.652-1.519v-4.34
	c0-0.578,0.216-1.087,0.652-1.52c0.432-0.432,0.94-0.647,1.518-0.647H9.246z M45.34,71.764l-8.679,8.681h28.11l-8.68-8.681H45.333
	H45.34z"/>
</svg>
