<svg xmlns="http://www.w3.org/2000/svg" viewBox="0 0 100 100">
  <path d="M9.635 98.74v-7.185q3.31-0.565 5.691-2.624t2.381-5.288v-66.763q0-2.26-0.081-3.189t-0.444-2.099-1.251-1.695-2.341-1.13-3.956-1.171v-5.732l38.023 0.081q9.688 0 17.195 7.104t7.508 18.406q0 4.44-0.928 8.194t-2.26 5.974-2.704 3.835-2.26 2.26l-0.969 0.565q0.646 0.242 1.736 0.727t3.875 2.543 4.884 4.682 3.835 7.387 1.736 10.414q0 6.781-4.763 12.634t-11.463 8.961-13.078 3.108h-40.365zM33.854 82.594h12.997q7.185 0 12.352-3.915t5.167-10.697q0-7.266-5.046-12.473t-12.634-5.207h-12.836v32.292zM33.854 42.23h11.221q6.135 0 10.495-4.965t4.359-11.181q0-6.62-6.781-10.535t-19.294-3.915v30.596z" fill="#000000"/>
</svg>
