<svg xmlns="http://www.w3.org/2000/svg" viewBox="0 0 100 100">
  <g>
    <path d="M59.858,81.047c0-11.726,9.506-21.231,21.232-21.231c3.103,0,6.04,0.682,8.697,1.876v-5.346H0v20.353h0
		c0,2.046,0.736,3.805,2.208,5.275c1.471,1.472,3.229,2.207,5.275,2.207h52.632C59.964,83.155,59.858,82.114,59.858,81.047z"/>
    <path d="M37.41,46.769h14.965v7.482h37.412V24.322c0-2.045-0.735-3.803-2.207-5.275c-1.472-1.471-3.229-2.207-5.275-2.207H59.857
		V9.358c0-2.045-0.735-3.804-2.206-5.275c-1.472-1.472-3.229-2.207-5.275-2.207H37.411c-2.045,0-3.804,0.735-5.275,2.207
		c-1.471,1.471-2.207,3.23-2.207,5.275v7.482H7.482c-2.045,0-3.804,0.735-5.275,2.207C0.735,20.519,0,22.277,0,24.322v29.929h37.41
		V46.769z M37.412,9.358h14.964v7.482H37.412V9.358z"/>
  </g>
  <path d="M81.091,63.013c-9.961,0-18.034,8.074-18.034,18.034c0,9.961,8.073,18.034,18.034,18.034c9.96,0,18.034-8.073,18.034-18.034
	C99.125,71.087,91.051,63.013,81.091,63.013z M73.091,83.922c-1.588,0-2.875-1.287-2.875-2.875s1.287-2.875,2.875-2.875
	s2.875,1.287,2.875,2.875S74.679,83.922,73.091,83.922z M81.091,83.922c-1.588,0-2.875-1.287-2.875-2.875s1.287-2.875,2.875-2.875
	s2.875,1.287,2.875,2.875S82.679,83.922,81.091,83.922z M89.091,83.922c-1.588,0-2.875-1.287-2.875-2.875s1.287-2.875,2.875-2.875
	s2.875,1.287,2.875,2.875S90.679,83.922,89.091,83.922z"/>
</svg>
