<?xml version="1.0" encoding="utf-8"?>
<!-- Generator: Adobe Illustrator 15.0.0, SVG Export Plug-In . SVG Version: 6.00 Build 0)  -->
<!DOCTYPE svg PUBLIC "-//W3C//DTD SVG 1.1//EN" "http://www.w3.org/Graphics/SVG/1.1/DTD/svg11.dtd">
<svg version="1.1" id="Calque_1" xmlns="http://www.w3.org/2000/svg" xmlns:xlink="http://www.w3.org/1999/xlink" x="0px" y="0px"
	 width="100px" height="100px" viewBox="0 0 100 100" enable-background="new 0 0 100 100" xml:space="preserve">
<g>
	<path d="M59.858,81.047c0-11.726,9.506-21.231,21.232-21.231c3.103,0,6.04,0.682,8.697,1.876v-5.346H0v20.353h0
		c0,2.046,0.736,3.805,2.208,5.275c1.471,1.472,3.229,2.207,5.275,2.207h52.632C59.964,83.155,59.858,82.114,59.858,81.047z"/>
	<path d="M37.41,46.769h14.965v7.482h37.412V24.322c0-2.045-0.735-3.803-2.207-5.275c-1.472-1.471-3.229-2.207-5.275-2.207H59.857
		V9.358c0-2.045-0.735-3.804-2.206-5.275c-1.472-1.472-3.229-2.207-5.275-2.207H37.411c-2.045,0-3.804,0.735-5.275,2.207
		c-1.471,1.471-2.207,3.23-2.207,5.275v7.482H7.482c-2.045,0-3.804,0.735-5.275,2.207C0.735,20.519,0,22.277,0,24.322v29.929h37.41
		V46.769z M37.412,9.358h14.964v7.482H37.412V9.358z"/>
</g>
<g>
	<path d="M91.537,75.279c-0.053-0.063-0.098-0.097-0.201-0.127c-0.055-0.06-0.544,0.004-1.044,0.194l-1.554,0.562l-1.258,5.82
		c0.133-0.035,0.268-0.076,0.399-0.125c0.956-0.373,1.802-1.068,2.437-1.883c0.648-0.832,1.121-1.813,1.328-2.777
		c0.106-0.475,0.129-0.959,0.047-1.301C91.656,75.473,91.6,75.345,91.537,75.279z"/>
	<ellipse cx="81.116" cy="71.535" rx="6.636" ry="1.043"/>
	<path d="M81.091,63.013c-9.961,0-18.034,8.074-18.034,18.034c0,9.961,8.073,18.034,18.034,18.034
		c9.96,0,18.034-8.073,18.034-18.034C99.125,71.087,91.051,63.013,81.091,63.013z M93.628,77.429
		c-0.377,1.321-1.078,2.454-1.955,3.423c-0.897,0.973-2.017,1.742-3.312,2.147c-0.386,0.123-0.791,0.202-1.213,0.237l-0.201,0.949
		c-0.398,1.838-2.256,3.323-4.152,3.338c0.004,1.387,0.15,2.668,0.755,3.78c1.183,0.21,1.959,0.565,1.959,0.974v1.352
		c0,0.646-1.968,1.169-4.396,1.169c-2.424,0-4.395-0.522-4.395-1.169v-1.352c0-0.407,0.78-0.763,1.959-0.973
		c0.607-1.111,0.752-2.394,0.755-3.781c-1.896-0.014-3.751-1.5-4.147-3.336l-0.203-0.947c-0.438-0.03-0.862-0.112-1.264-0.24
		c-1.295-0.405-2.414-1.176-3.311-2.148c-0.878-0.969-1.579-2.102-1.956-3.422c-0.17-0.664-0.293-1.379-0.146-2.195
		c0.08-0.403,0.23-0.842,0.541-1.248c0.303-0.403,0.774-0.717,1.236-0.86l0.088-0.028l0.021-0.01l0.076-0.016l0.025-0.008
		l0.125-0.023c0.163-0.028,0.314-0.037,0.424-0.036c0.236,0.001,0.457,0.026,0.648,0.067c0.391,0.074,0.714,0.183,1.021,0.297
		c0.125,0.048,0.242,0.101,0.361,0.15l-0.365-1.695c-0.035-0.082-0.054-0.168-0.054-0.25c0-1.258,3.833-2.278,8.558-2.278
		c4.729,0,8.562,1.021,8.562,2.278c0,0.082-0.019,0.166-0.054,0.25l-0.36,1.673c0.104-0.043,0.201-0.089,0.308-0.127
		c0.309-0.113,0.633-0.222,1.025-0.298c0.189-0.041,0.409-0.065,0.645-0.066c0.11-0.001,0.262,0.008,0.424,0.036l0.127,0.022
		l0.025,0.008l0.075,0.017l0.022,0.009L92,73.126c0.462,0.144,0.934,0.458,1.234,0.86c0.312,0.406,0.463,0.845,0.541,1.248
		C93.924,76.051,93.801,76.765,93.628,77.429z"/>
	<path d="M71.892,75.347c-0.5-0.192-0.991-0.254-1.044-0.194c-0.104,0.031-0.148,0.063-0.201,0.127
		c-0.063,0.066-0.119,0.193-0.154,0.363c-0.082,0.344-0.06,0.827,0.047,1.301c0.209,0.965,0.68,1.944,1.328,2.777
		c0.635,0.814,1.479,1.51,2.436,1.883c0.15,0.053,0.303,0.1,0.453,0.139l-1.257-5.816L71.892,75.347z"/>
</g>
</svg>
