<svg xmlns="http://www.w3.org/2000/svg" viewBox="0 0 100 100"><path d="M59.858 81.047c0-11.726 9.506-21.231 21.232-21.231 3.103 0 6.04.682 8.697 1.876v-5.346H0v20.353c0 2.046.736 3.805 2.208 5.275 1.471 1.472 3.229 2.207 5.275 2.207h52.632c-.151-1.026-.257-2.067-.257-3.134zM37.41 46.769h14.965v7.482h37.412V24.322c0-2.045-.735-3.803-2.207-5.275-1.472-1.471-3.229-2.207-5.275-2.207H59.857V9.358c0-2.045-.735-3.804-2.206-5.275-1.472-1.472-3.229-2.207-5.275-2.207H37.411c-2.045 0-3.804.735-5.275 2.207-1.471 1.471-2.207 3.23-2.207 5.275v7.482H7.482c-2.045 0-3.804.735-5.275 2.207C.735 20.519 0 22.277 0 24.322v29.929h37.41v-7.482zm.002-37.411h14.964v7.482H37.412V9.358z"/><g><path d="M91.537 75.279a.353.353 0 00-.201-.127c-.055-.06-.544.004-1.044.194l-1.554.562-1.258 5.82c.133-.035.268-.076.399-.125.956-.373 1.802-1.068 2.437-1.883.648-.832 1.121-1.813 1.328-2.777.106-.475.129-.959.047-1.301-.035-.169-.091-.297-.154-.363z"/><ellipse cx="81.116" cy="71.535" rx="6.636" ry="1.043"/><path d="M81.091 63.013c-9.961 0-18.034 8.074-18.034 18.034 0 9.961 8.073 18.034 18.034 18.034 9.96 0 18.034-8.073 18.034-18.034 0-9.96-8.074-18.034-18.034-18.034zm12.537 14.416c-.377 1.321-1.078 2.454-1.955 3.423-.897.973-2.017 1.742-3.312 2.147a5.476 5.476 0 01-1.213.237l-.201.949c-.398 1.838-2.256 3.323-4.152 3.338.004 1.387.15 2.668.755 3.78 1.183.21 1.959.565 1.959.974v1.352c0 .646-1.968 1.169-4.396 1.169-2.424 0-4.395-.522-4.395-1.169v-1.352c0-.407.78-.763 1.959-.973.607-1.111.752-2.394.755-3.781-1.896-.014-3.751-1.5-4.147-3.336l-.203-.947a5.376 5.376 0 01-1.264-.24c-1.295-.405-2.414-1.176-3.311-2.148-.878-.969-1.579-2.102-1.956-3.422-.17-.664-.293-1.379-.146-2.195.08-.403.23-.842.541-1.248a2.541 2.541 0 011.236-.86l.088-.028.021-.01.076-.016.025-.008.125-.023c.163-.028.314-.037.424-.036.236.001.457.026.648.067.391.074.714.183 1.021.297.125.048.242.101.361.15l-.365-1.695a.643.643 0 01-.054-.25c0-1.258 3.833-2.278 8.558-2.278 4.729 0 8.562 1.021 8.562 2.278a.651.651 0 01-.054.25l-.36 1.673c.104-.043.201-.089.308-.127a6.466 6.466 0 011.025-.298c.189-.041.409-.065.645-.066.11-.001.262.008.424.036l.127.022.025.008.075.017.022.009.091.027c.462.144.934.458 1.234.86.312.406.463.845.541 1.248.149.817.026 1.531-.147 2.195z"/><path d="M71.892 75.347c-.5-.192-.991-.254-1.044-.194a.35.35 0 00-.201.127c-.063.066-.119.193-.154.363-.082.344-.06.827.047 1.301.209.965.68 1.944 1.328 2.777.635.814 1.479 1.51 2.436 1.883.15.053.303.1.453.139L73.5 75.927l-1.608-.58z"/></g></svg>
