<?xml version="1.0" encoding="utf-8"?>
<!-- Generated by IcoMoon.io -->
<!DOCTYPE svg PUBLIC "-//W3C//DTD SVG 1.1//EN" "http://www.w3.org/Graphics/SVG/1.1/DTD/svg11.dtd">
<svg version="1.1" xmlns="http://www.w3.org/2000/svg" xmlns:xlink="http://www.w3.org/1999/xlink" width="100" height="100" viewBox="0 0 100 100">
<g>
</g>
	<path d="M0 85.208v-16.667h100v16.667q0 3.417-2.458 5.875t-5.875 2.458h-83.333q-3.417 0-5.875-2.458t-2.458-5.875zM0 60.208v-33.333q0-3.417 2.458-5.875t5.875-2.458h25v-8.333q0-3.417 2.458-5.875t5.875-2.458h16.667q3.417 0 5.875 2.458t2.458 5.875v8.333h25q3.417 0 5.875 2.458t2.458 5.875v33.333h-41.667v-8.333h-16.667v8.333h-41.667zM41.667 18.542h16.667v-8.333h-16.667v8.333z" fill="#000000" />
</svg>
