<svg xmlns="http://www.w3.org/2000/svg" viewBox="0 0 100 100">
	<path d="M-11.542 48.75v-4.167q0-2 2.083-4.083t4.167-3.167l2.083-1.083v20.833l-0.917-0.458t-2-1.167-2.5-1.792-2-2.292-0.917-2.625zM5.208 57.083v-22.75t0.042-0.583 0.125-0.458 0.167-0.417 0.25-0.333 0.375-0.292 0.5-0.125 0.625-0.042h16.667l56.25-20.833v70.833l-56.25-16.667h-3.167l3.917 23q0.167 1-0.25 1.458t-0.917 0.5-1.75 0.042h-7.583q-1.667 0-2.875-1.167t-1.542-2.917q-4.583-28.083-4.583-29.25zM88.542 82.083v-70.833q0-1.75 1.208-2.958t2.958-1.208q1.667 0 2.917 1.208t1.25 2.958v70.833q0 1.667-1.25 2.917t-2.917 1.25q-1.75 0-2.958-1.25t-1.208-2.917z" fill="#000000" />
</svg>
