<svg xmlns="http://www.w3.org/2000/svg" viewBox="0 0 100 100">
	<path d="M0 82.083q0 3.417 2.458 5.875t5.875 2.458h83.333q3.417 0 5.875-2.458t2.458-5.875v-50q0-3.417-2.458-5.875t-5.875-2.458h-12.5q-0.333-0.667-0.958-1.792t-2.75-4-4.417-5.083-5.75-4-6.958-1.792h-16.667q-3.417 0-6.833 1.708t-5.833 4.167-4.333 4.917-2.833 4.208l-1 1.667h-12.5q-3.417 0-5.875 2.458t-2.458 5.875v50zM29.667 57.083q0-8.333 6-14.333t14.333-6 14.333 6 6 14.333-6 14.333-14.333 6-14.333-6-6-14.333zM41.167 57.083q0 3.667 2.583 6.25t6.25 2.583 6.25-2.583 2.583-6.25-2.583-6.25-6.25-2.583-6.25 2.583-2.583 6.25zM75 40.417v-8.333h8.333v8.333h-8.333z" fill="#000000" />
</svg>
