<svg xmlns="http://www.w3.org/2000/svg" viewBox="0 0 100 100">
	<path fill="#000000" d="M93.8,53.9c0-1.7-0.4-3.4-1.1-4.9c-0.1-0.4-0.2-0.8-0.3-1.2l-7.6-18.9l-0.1-0.2c-2.7-7.9-6.5-15.3-16.1-15.3H32
		c-9.9,0-13.3,7.5-16.1,15.2L8,47.7c-1.2,1.8-1.8,4-1.8,6.2v5.9c0,0.9,0.1,1.8,0.3,2.7c-0.2,0.5-0.3,1.1-0.3,1.7v17.5
		c0,2.6,2.1,4.6,4.6,4.6h9.6c2.6,0,4.6-2.1,4.6-4.6v-8.7h50.4v8.7c0,2.6,2.1,4.6,4.6,4.6h9.1c2.6,0,4.6-2.1,4.6-4.6V64
		c0-0.6-0.1-1.1-0.3-1.7c0.2-0.9,0.3-1.7,0.3-2.7L93.8,53.9L93.8,53.9L93.8,53.9z M21.6,30.6c3-8.6,5.5-11.2,10.4-11.2h36.8
		c4.9,0,7.6,2.9,10.4,11.1l5.6,11.3c-1.8-0.7-3.8-1-5.9-1H21.2c-1.9,0-3.7,0.3-5.4,0.9L21.6,30.6z M26.4,62H16.2
		c-1.8,0-3.3-1.5-3.3-3.3c0-1.8,1.5-3.3,3.3-3.3h10.2c1.8,0,3.3,1.5,3.3,3.3C29.7,60.5,28.2,62,26.4,62z M62.2,61.3H38.6
		c-1.2,0-2.1-0.9-2.1-2.1c0-1.2,0.9-2.1,2.1-2.1h23.6c1.2,0,2.1,0.9,2.1,2.1C64.3,60.4,63.4,61.3,62.2,61.3z M83.5,62H73.4
		c-1.8,0-3.3-1.5-3.3-3.3c0-1.8,1.5-3.3,3.3-3.3h10.2c1.8,0,3.3,1.5,3.3,3.3C86.8,60.5,85.4,62,83.5,62z"/>
</svg>
