<svg xmlns="http://www.w3.org/2000/svg" viewBox="0 0 100 100">
<g>
	<path d="M93.9,29.2c-0.4,0-0.7,0.1-1.1,0.2l-4.1,1.1L84.4,20c-1.2-3-4.8-5.4-8-5.4H36.3c-3.2,0-6.8,2.4-8,5.4L24,30.4L20,29.3
		c-0.4-0.1-0.7-0.2-1.1-0.2c-1.9,0-3.4,1.5-3.4,3.5v2.4c0,0.1,0,0.2,0,0.3c-1.7,1.1-3.3,2.3-4.7,3.8c-5.1,5.1-7.9,11.9-7.9,19.1
		c0,7.2,2.8,14,7.9,19.1c5.1,5.1,11.9,7.9,19.1,7.9c7.2,0,14-2.8,19.1-7.9c3-3,5.2-6.5,6.5-10.4h25.2v5.2c0,2.4,1.9,4.3,4.3,4.3h5.7
		c2.4,0,4.3-1.9,4.3-4.3V51.5c0-3-0.9-7.6-2-10.4l-0.7-1.7h0.5c2.4,0,4.3-1.9,4.3-4.3v-2.4C97.3,30.7,95.8,29.2,93.9,29.2z
		 M33.6,21.3c0.7-1.8,2.9-3.2,4.8-3.2h35.9c1.9,0,4.1,1.4,4.8,3.2l6.5,15.8c0.7,1.8-0.2,3.2-2.2,3.2H50.1c-0.3-0.4-0.7-0.8-1.1-1.1
		c-5.1-5.1-11.9-7.9-19.1-7.9c-0.1,0-0.3,0-0.4,0L33.6,21.3z M29.9,77.3c-5.1,0-9.8-2-13.4-5.6c-3.6-3.6-5.6-8.3-5.6-13.4
		c0-5.1,2-9.8,5.6-13.4c3.6-3.6,8.3-5.6,13.4-5.6s9.8,2,13.4,5.6c3.6,3.6,5.6,8.3,5.6,13.4s-2,9.8-5.6,13.4
		C39.7,75.4,35,77.3,29.9,77.3z M86.8,57.1c0,1-0.8,1.7-1.7,1.7H72.7c-1,0-1.7-0.8-1.7-1.7v-5.9c0-1,0.8-1.7,1.7-1.7H85
		c1,0,1.7,0.8,1.7,1.7V57.1z"/>
	<path d="M41.7,55.9l-1.5-0.2c-0.2-0.8-0.5-1.5-0.9-2.2l0.9-1.2c0.4-0.6,0.4-1.3-0.1-1.9l-2-2c-0.5-0.5-1.3-0.5-1.9-0.1l-1.1,0.9
		c-0.7-0.4-1.5-0.7-2.3-1L32.7,47c-0.1-0.7-0.7-1.2-1.4-1.2h-2.8c-0.7,0-1.3,0.5-1.4,1.2L27,48.4c-0.8,0.2-1.6,0.6-2.4,1l-1.2-0.9
		c-0.5-0.4-1.4-0.4-1.9,0.1l-2,2c-0.5,0.5-0.5,1.3-0.1,1.9l1,1.2c-0.4,0.7-0.7,1.5-0.9,2.2L18.1,56c-0.7,0.1-1.2,0.7-1.2,1.4l0,2.8
		c0,0.7,0.5,1.3,1.2,1.4l1.7,0.2c0.2,0.7,0.5,1.4,0.8,2l-1,1.3c-0.4,0.6-0.4,1.3,0.1,1.9l2,2c0.3,0.3,0.6,0.4,1,0.4
		c0.3,0,0.6-0.1,0.9-0.3l1.3-1c0.7,0.4,1.4,0.7,2.1,0.9l0.2,1.7c0.1,0.7,0.7,1.2,1.4,1.2h2.8c0.7,0,1.3-0.5,1.4-1.2l0.2-1.6
		c0.8-0.2,1.5-0.5,2.3-0.9l1.3,1c0.2,0.2,0.6,0.3,0.9,0.3c0.4,0,0.7-0.1,1-0.4l2-2c0.5-0.5,0.5-1.3,0.1-1.9l-1-1.2
		c0.4-0.7,0.7-1.5,0.9-2.2l1.5-0.2c0.7-0.1,1.2-0.7,1.2-1.4l0-2.8C42.9,56.6,42.4,56,41.7,55.9z M36.2,58.8c0,3.5-2.8,6.3-6.3,6.3
		s-6.3-2.8-6.3-6.3c0-3.5,2.8-6.3,6.3-6.3S36.2,55.3,36.2,58.8z"/>
</g>
</svg>
