<?xml version="1.0" encoding="utf-8"?>
<!-- Generator: Adobe Illustrator 15.0.0, SVG Export Plug-In . SVG Version: 6.00 Build 0)  -->
<!DOCTYPE svg PUBLIC "-//W3C//DTD SVG 1.1//EN" "http://www.w3.org/Graphics/SVG/1.1/DTD/svg11.dtd">
<svg version="1.1" id="Calque_1" xmlns="http://www.w3.org/2000/svg" xmlns:xlink="http://www.w3.org/1999/xlink" x="0px" y="0px"
	 width="100px" height="100px" viewBox="0 0 100 100" enable-background="new 0 0 100 100" xml:space="preserve">
<path fill="#454545" d="M84.5,15.504c6.227,6.225,10.447,13.532,12.658,21.919c2.221,8.385,2.221,16.772,0,25.157
	c-2.211,8.383-6.432,15.693-12.658,21.919c-4.658,4.657-10.027,8.201-16.113,10.644C62.297,97.579,56.168,98.8,50,98.8
	c-6.171,0-12.296-1.221-18.385-3.657c-6.089-2.442-11.456-5.986-16.116-10.644C9.275,78.273,5.053,70.967,2.841,62.58
	c-2.219-8.385-2.219-16.772,0-25.157c2.212-8.385,6.434-15.691,12.657-21.919c4.66-4.655,10.027-8.202,16.116-10.644
	C37.704,2.421,43.829,1.2,50,1.2c6.168,0,12.297,1.221,18.387,3.66C74.473,7.302,79.842,10.849,84.5,15.504z M39.57,10.876
	c-0.228,0-0.45,0.027-0.671,0.084c-6.793,1.907-12.664,5.345-17.631,10.309c-4.961,4.964-8.4,10.84-10.308,17.628
	c-0.226,0.675-0.154,1.315,0.212,1.933c0.364,0.615,0.882,1.01,1.554,1.176l3.031,0.758c0.167,0.06,0.364,0.087,0.589,0.087
	c1.291,0,2.105-0.616,2.438-1.853c1.516-5.384,4.264-10.041,8.245-13.969c3.929-3.98,8.585-6.729,13.971-8.242
	c0.616-0.169,1.106-0.547,1.474-1.137c0.363-0.59,0.462-1.22,0.292-1.893l-0.758-2.945c-0.17-0.73-0.558-1.264-1.177-1.6
	C40.44,10.989,40.016,10.876,39.57,10.876z M42.596,23.075c-0.223,0-0.476,0.057-0.755,0.168c-4.487,1.347-8.372,3.659-11.65,6.941
	c-3.285,3.281-5.597,7.166-6.946,11.654c-0.221,0.727-0.166,1.399,0.167,2.016c0.339,0.615,0.871,1.01,1.603,1.178l2.859,0.757
	c0.228,0.06,0.451,0.087,0.674,0.087c1.236,0,2.02-0.59,2.357-1.769c1.012-3.255,2.65-6.015,4.922-8.288
	c2.27-2.271,5.006-3.911,8.205-4.922c0.672-0.168,1.177-0.547,1.513-1.135c0.335-0.59,0.423-1.193,0.253-1.809l-0.755-2.943
	c-0.173-0.674-0.562-1.206-1.177-1.602c-0.395-0.224-0.817-0.337-1.264-0.337L42.596,23.075z M60.061,39.943
	c-2.779-2.774-6.131-4.165-10.057-4.165c-3.926,0-7.278,1.391-10.058,4.165c-2.773,2.776-4.163,6.13-4.163,10.056
	c0,3.928,1.39,7.28,4.163,10.057c2.779,2.776,6.132,4.166,10.058,4.166c3.926,0,7.278-1.39,10.057-4.166
	c2.771-2.776,4.162-6.129,4.162-10.057C64.223,46.073,62.832,42.72,60.061,39.943z M71.457,54.124c-1.234,0-2.018,0.589-2.355,1.766
	c-1.012,3.254-2.65,6.019-4.922,8.289c-2.27,2.273-5.035,3.886-8.289,4.837c-0.615,0.225-1.092,0.632-1.43,1.222
	c-0.334,0.59-0.42,1.191-0.25,1.807l0.754,2.942c0.172,0.676,0.559,1.21,1.178,1.603c0.393,0.224,0.814,0.337,1.262,0.337
	c0.229,0,0.48-0.056,0.758-0.167c4.486-1.345,8.369-3.661,11.654-6.942c3.279-3.281,5.596-7.166,6.939-11.652
	c0.227-0.728,0.154-1.402-0.211-2.019c-0.367-0.617-0.885-1.009-1.557-1.177l-2.861-0.754c-0.223-0.06-0.449-0.088-0.674-0.088
	L71.457,54.124z M83.658,57.152c-1.289,0-2.104,0.618-2.436,1.854c-1.516,5.381-4.264,10.041-8.246,13.966
	c-3.928,3.982-8.584,6.73-13.969,8.246c-0.617,0.166-1.107,0.548-1.475,1.133c-0.363,0.592-0.461,1.221-0.291,1.896L58,87.188
	c0.168,0.731,0.555,1.265,1.178,1.602c0.391,0.224,0.811,0.338,1.26,0.338c0.225,0,0.449-0.028,0.672-0.084
	c6.789-1.909,12.664-5.347,17.629-10.311c4.963-4.964,8.402-10.839,10.309-17.627c0.223-0.675,0.154-1.319-0.215-1.935
	c-0.363-0.616-0.881-1.008-1.553-1.178l-3.029-0.756C84.084,57.181,83.885,57.152,83.658,57.152z"/>
</svg>
