<?xml version="1.0" encoding="utf-8"?>
<!-- Generator: Adobe Illustrator 21.0.0, SVG Export Plug-In . SVG Version: 6.00 Build 0)  -->
<svg version="1.1" id="Calque_1" xmlns="http://www.w3.org/2000/svg" xmlns:xlink="http://www.w3.org/1999/xlink" x="0px" y="0px"
	 viewBox="0 0 102 100" style="enable-background:new 0 0 102 100;" xml:space="preserve">
<path d="M52.7,43.4c-0.5-0.2-11.2-22.1-11.2-22.1H16.2l20.2,35.3L52.7,43.4L52.7,43.4z M44,69.2h17.7L84.5,49H64.2L44,69.2L44,69.2z
	 M57.9,44.7h7.2L48.6,15.3c-5.2-6.6-7.5,0.5,2.9,17.9L57.9,44.7L57.9,44.7z M89.5,49c-4.1,4.7-12.6,12.6-12.6,12.6l5.1,5
	c0,0,11.5-11.3,15.2-15.1C101.2,47.7,94.7,43,89.5,49L89.5,49z M45.8,79.9l-5.2-9.2l-5,4.1l5.9,10.4c0.9,1.6,2.8,2.1,4.2,1
	c1.4-1,1.8-3.2,0.9-4.8L45.8,79.9L45.8,79.9z M54.4,80.8c-1.4,1.1-1.7,3.3-0.7,4.8c1,1.5,2.9,1.9,4.2,0.8l12.4-10.1L67,70.5
	L54.4,80.8L54.4,80.8z M76.6,64.9h-7.2l11.5,20.4c0.9,1.6,2.8,2.1,4.2,1c1.4-1,1.8-3.2,0.9-4.8L76.6,64.9L76.6,64.9z M14.8,38
	l13.8,24.3l5-4.1l-24.4-43c-0.9-1.6-2.8-2.1-4.2-1.1c-0.2,0.1-0.3,0.3-0.5,0.4c0,0-0.1,0.1-0.1,0.1c-0.1,0.1-0.2,0.3-0.3,0.4
	c0,0.1-0.1,0.1-0.1,0.2c-0.1,0.1-0.1,0.3-0.2,0.4c0,0.1,0,0.1-0.1,0.2c0,0.1-0.1,0.3-0.1,0.4c0,0,0,0,0,0h0c-0.1,0.8,0,1.8,0.4,2.5
	L14.8,38L14.8,38z M57.2,48.1L57.1,48h0c-1-1.5-2.8-1.8-4.2-0.7l-37.8,31c-1.4,1.1-1.7,3.3-0.7,4.8c0.1,0.2,0.3,0.4,0.4,0.6l0,0h0
	c1,1,2.6,1.2,3.8,0.2l37.8-31C57.8,51.8,58.2,49.6,57.2,48.1L57.2,48.1z"/>
</svg>
