<?xml version="1.0" encoding="utf-8"?>
<!-- Generated by IcoMoon.io -->
<!DOCTYPE svg PUBLIC "-//W3C//DTD SVG 1.1//EN" "http://www.w3.org/Graphics/SVG/1.1/DTD/svg11.dtd">
<svg version="1.1" xmlns="http://www.w3.org/2000/svg" xmlns:xlink="http://www.w3.org/1999/xlink" width="100" height="100" viewBox="0 0 100 100">
<g>
</g>
	<path d="M2.031 48.32q0 6.25 4.414 10.703t10.586 4.453h17.344v-23.438h31.25v23.438h10q9.375 0 16.016-6.758t6.641-16.211-6.641-16.172-16.016-6.719q-3.594 0-7.031 1.094-3.438-7.578-10.508-12.227t-15.664-4.648q-11.875 0-20.313 8.398t-8.438 20.352q0 1.953 0.156 2.891-5.156 1.094-8.477 5.273t-3.32 9.57zM26.563 71.289h15.625v-23.438h15.625v23.438h15.625l-23.438 23.438z" fill="#000000" />
</svg>
