<?xml version="1.0" encoding="utf-8"?>
<!-- Generator: Adobe Illustrator 21.0.0, SVG Export Plug-In . SVG Version: 6.00 Build 0)  -->
<svg version="1.1" id="Calque_1" xmlns="http://www.w3.org/2000/svg" xmlns:xlink="http://www.w3.org/1999/xlink" x="0px" y="0px"
	 viewBox="0 0 102 100" style="enable-background:new 0 0 102 100;" xml:space="preserve">
<path d="M54.4,31.1h-4v8.1h4V31.1z M43.6,45.9h-8.1V50h8.1C43.6,50,43.6,45.9,43.6,45.9z M18.7,96h12.4v-5H18.7L18.7,96L18.7,96z
	 M70.9,96h12.4v-5H70.9L70.9,96L70.9,96z M65.6,37.4l-2.8-2.9l-5.7,5.7l2.8,2.9L65.6,37.4L65.6,37.4z M39.1,58.5l2.8,2.9l5.7-5.7
	l-2.8-2.9L39.1,58.5L39.1,58.5z M80.8,16.4H21.2v59.7h59.7L80.8,16.4L80.8,16.4z M52.2,68.6c-11.7,0-21.1-9.5-21.1-21.1
	s9.5-21.1,21.1-21.1c11.7,0,21.1,9.5,21.1,21.1S63.9,68.6,52.2,68.6L52.2,68.6z M61.1,50h8.1v-4.1h-8.1V50z M87.3,4H14.7
	c-3.3,0-6,2.7-6,6v72.9c0,3.3,1.7,5.6,5,5.6h74.6c3.3,0,5-2.3,5-5.6V10C93.3,6.7,90.6,4,87.3,4z M85.8,81.1H16.2V11.5h69.6
	L85.8,81.1L85.8,81.1z M57.1,55.6l5.7,5.7l2.8-2.9l-5.7-5.7L57.1,55.6L57.1,55.6z M50.3,64.9h4v-8.1h-4V64.9z M52.2,41.3
	c-3.4,0-6.2,2.8-6.2,6.2s2.8,6.2,6.2,6.2s6.2-2.8,6.2-6.2S55.7,41.3,52.2,41.3L52.2,41.3z M47.6,40.3l-5.7-5.7l-2.8,2.9l5.7,5.7
	C44.8,43.2,47.6,40.3,47.6,40.3z"/>
</svg>
