<?xml version="1.0" encoding="utf-8"?>
<!-- Generated by IcoMoon.io -->
<!DOCTYPE svg PUBLIC "-//W3C//DTD SVG 1.1//EN" "http://www.w3.org/Graphics/SVG/1.1/DTD/svg11.dtd">
<svg version="1.1" xmlns="http://www.w3.org/2000/svg" xmlns:xlink="http://www.w3.org/1999/xlink" width="100" height="100" viewBox="0 0 100 100">
<g>
</g>
	<path d="M2.167 50.229q0 2.75 0.5 6.167l12.583 3.167 0.167 0.5q1.167 4.083 3.167 7.75l0.25 0.417-6.667 11.167q3.75 4.917 8.75 8.75l11.083-6.75 0.417 0.25q3.75 2.167 7.833 3.25l0.417 0.167 3.167 12.583q3.333 0.417 6.167 0.417 2.25 0 6.167-0.417l3.167-12.583 0.5-0.167q3.833-1.083 7.75-3.25l0.417-0.25 11.167 6.75q4.667-3.667 8.667-8.75l-6.667-11.167 0.25-0.417q2-3.667 3.25-7.75l0.083-0.5 12.667-3.167q0.417-3.333 0.417-6.167 0-2.333-0.417-6.083l-12.667-3.167-0.083-0.5q-1.333-4.25-3.25-7.75l-0.25-0.417 6.667-11.167q-3.667-4.833-8.667-8.75l-11.167 6.75-0.417-0.25q-3.75-2.083-7.75-3.25l-0.5-0.083-3.167-12.667q-3.333-0.417-6.167-0.417-2.25 0-6.167 0.417l-3.167 12.667-0.417 0.083q-4.167 1.167-7.833 3.25l-0.417 0.25-11.083-6.75q-4.917 3.917-8.75 8.75l6.667 11.167-0.25 0.417q-2.083 3.917-3.167 7.75l-0.167 0.5-12.583 3.167q-0.5 4-0.5 6.083zM32.083 50.229q0-7.333 5.25-12.583t12.667-5.25 12.667 5.25 5.25 12.583q0 7.417-5.25 12.667t-12.667 5.25-12.667-5.25-5.25-12.667z" fill="#000000" />
</svg>
