<?xml version="1.0" encoding="utf-8"?>
<!-- Generated by IcoMoon.io -->
<!DOCTYPE svg PUBLIC "-//W3C//DTD SVG 1.1//EN" "http://www.w3.org/Graphics/SVG/1.1/DTD/svg11.dtd">
<svg version="1.1" xmlns="http://www.w3.org/2000/svg" xmlns:xlink="http://www.w3.org/1999/xlink" width="100" height="100" viewBox="0 0 100 100">
<g>
</g>
	<path d="M3.125 62.292v-25q0-13.583 9.792-23.458t23.542-9.875h25q13.583 0 23.458 9.917t9.875 23.417v25q0 13.75-9.792 23.542t-23.542 9.792h-25q-13.75 0-23.542-9.792t-9.792-23.542zM19.792 70.625q0 3.417 2.458 5.875t5.875 2.458h41.667q3.417 0 5.875-2.458t2.458-5.875v-41.667q0-3.417-2.458-5.875t-5.875-2.458h-41.667q-3.417 0-5.875 2.458t-2.458 5.875v41.667zM28.125 37.292l20.833 27.75 20.833-27.75h-41.667z" fill="#000000" />
</svg>
