<svg xmlns="http://www.w3.org/2000/svg" viewBox="0 0 100 100">
	<path d="M0 70.625q0 3.417 2.458 5.875t5.875 2.458h25q3.417 0 5.875-2.458t2.458-5.875v-41.667q0-3.417-2.458-5.875t-5.875-2.458h-25q-3.417 0-5.875 2.458t-2.458 5.875v41.667zM8.333 87.292h33.333l16.667-16.667h8.75l24.583-8.167v24.833h-35.417l-8.333 8.333h-31.25zM8.333 70.625v-16.667h25v16.667h-25zM8.333 45.625v-16.667h25v16.667h-25zM8.333 12.292h33.333l16.667 16.667v8.167l24.583-8.167h8.75v-16.667h-35.417l-8.333-8.333h-31.25zM58.333 62.125v-13.583l33.333-11.083v13.583z" fill="#000000" />
</svg>
