<?xml version="1.0" encoding="utf-8"?>
<!-- Generator: Adobe Illustrator 15.0.0, SVG Export Plug-In . SVG Version: 6.00 Build 0)  -->
<!DOCTYPE svg PUBLIC "-//W3C//DTD SVG 1.1//EN" "http://www.w3.org/Graphics/SVG/1.1/DTD/svg11.dtd">
<svg version="1.1" id="Calque_1" xmlns="http://www.w3.org/2000/svg" xmlns:xlink="http://www.w3.org/1999/xlink" x="0px" y="0px"
	 width="100px" height="100px" viewBox="0 0 100 100" enable-background="new 0 0 100 100" xml:space="preserve">
<path fill="#454545" d="M50,0.976c6.636,0,12.98,1.299,19.04,3.897c6.056,2.6,11.27,6.084,15.637,10.451
	c4.368,4.37,7.855,9.582,10.453,15.637c2.6,6.055,3.896,12.402,3.896,19.038c0,6.637-1.296,12.984-3.896,19.04
	c-2.598,6.053-6.085,11.267-10.453,15.638c-4.367,4.371-9.581,7.854-15.637,10.453c-6.053,2.596-12.397,3.895-19.037,3.895
	c-6.64,0.007-12.984-1.296-19.036-3.895c-6.057-2.604-11.27-6.086-15.641-10.453c-4.371-4.368-7.855-9.578-10.451-15.635
	c-2.598-6.056-3.897-12.403-3.9-19.039c0-6.637,1.299-12.984,3.9-19.039c2.599-6.058,6.086-11.27,10.451-15.64
	c4.367-4.367,9.58-7.852,15.641-10.451c6.056-2.599,12.403-3.897,19.036-3.897H50z M50,15.077c-6.306,0-12.139,1.562-17.504,4.687
	c-5.363,3.121-9.607,7.366-12.734,12.733c-3.123,5.364-4.686,11.2-4.686,17.502c0.003,6.303,1.564,12.139,4.686,17.504
	c3.123,5.366,7.368,9.61,12.734,12.728C37.865,83.354,43.7,84.917,50,84.923c6.299,0.004,12.135-1.562,17.504-4.692
	c5.366-3.129,9.61-7.371,12.728-12.728c3.123-5.359,4.686-11.191,4.692-17.504c0.007-6.312-1.556-12.145-4.692-17.502
	c-3.13-5.357-7.375-9.603-12.728-12.733C62.147,16.63,56.313,15.068,50,15.077z M66.59,41.703H41.705v16.591H66.59v8.296H41.705
	l-8.296-8.296V41.703l8.296-8.295H66.59V41.703z"/>
</svg>
