<?xml version="1.0" encoding="utf-8"?>
<!-- Generator: Adobe Illustrator 15.0.0, SVG Export Plug-In . SVG Version: 6.00 Build 0)  -->
<!DOCTYPE svg PUBLIC "-//W3C//DTD SVG 1.1//EN" "http://www.w3.org/Graphics/SVG/1.1/DTD/svg11.dtd">
<svg version="1.1" id="Calque_1" xmlns="http://www.w3.org/2000/svg" xmlns:xlink="http://www.w3.org/1999/xlink" x="0px" y="0px"
	 width="100px" height="100px" viewBox="0 0 100 100" enable-background="new 0 0 100 100" xml:space="preserve">
<path fill="#454545" d="M58.823,1.459h8.825c1.236,0,2.283,0.426,3.135,1.279c0.855,0.855,1.282,1.899,1.282,3.135v4.412h4.411
	c1.237,0,2.278,0.427,3.133,1.28c0.854,0.854,1.281,1.899,1.281,3.135v8.827c0,1.234-0.427,2.279-1.281,3.133
	c-0.854,0.855-1.896,1.282-3.133,1.282H49.999c-1.238,0-2.279-0.427-3.133-1.282c-0.855-0.854-1.283-1.898-1.283-3.133V14.7
	c0-1.235,0.428-2.28,1.283-3.135c0.854-0.854,1.895-1.28,3.133-1.28h4.411V5.873c0-1.235,0.427-2.279,1.28-3.135
	c0.854-0.854,1.899-1.279,3.135-1.279H58.823z M89.714,23.521v-13.24c2.412,0,4.488,0.869,6.223,2.605
	c1.739,1.736,2.605,3.81,2.605,6.223v70.607c0,2.412-0.866,4.482-2.605,6.218c-1.734,1.738-3.811,2.605-6.223,2.605H36.76
	c-0.062,0-0.649-0.116-1.765-0.352l21.711-21.712l-28.77-28.771V19.109c0-2.413,0.869-4.486,2.605-6.223
	c1.735-1.736,3.811-2.605,6.221-2.605v13.24c0,3.646,1.293,6.766,3.882,9.354c2.589,2.593,5.708,3.886,9.357,3.886h26.478
	c3.646,0,6.769-1.297,9.356-3.886c2.59-2.587,3.883-5.706,3.883-9.354H89.714z M37.817,76.477L19.11,95.187V80.886H1.458v-8.823
	H19.11V57.764L37.817,76.477z"/>
</svg>
