<?xml version="1.0" encoding="utf-8"?>
<!-- Generated by IcoMoon.io -->
<!DOCTYPE svg PUBLIC "-//W3C//DTD SVG 1.1//EN" "http://www.w3.org/Graphics/SVG/1.1/DTD/svg11.dtd">
<svg version="1.1" xmlns="http://www.w3.org/2000/svg" xmlns:xlink="http://www.w3.org/1999/xlink" width="100" height="100" viewBox="0 0 100 100">
<g>
</g>
	<path d="M8.008 41.016v-31.25l3.906-7.813 3.906 7.813v23.438h7.813v-23.438l3.906-7.813 3.906 7.813v23.438h7.813v-23.438l3.906-7.813 3.906 7.813v31.25l-7.813 15.859v34.922q0 1.641-1.133 2.773t-2.773 1.133h-15.625q-1.641 0-2.773-1.133t-1.133-2.773v-34.922zM62.695 49.063q0 2.266 0.82 4.336t1.953 3.359 2.266 2.227 1.992 1.406l0.781 0.391v31.016q0 1.641 1.133 2.773t2.773 1.133h15.625q1.641 0 2.773-1.133t1.133-2.773v-86.406q0-2.422-1.406-3.164t-3.438 0.586l-21.563 9.063q-1.953 1.328-3.398 4.023t-1.445 5.117v28.047z" fill="#000000" />
</svg>
