<svg xmlns="http://www.w3.org/2000/svg" viewBox="0 0 100 100">
	<path d="M3.125 50.313q0-12.656 6.25-23.359t16.953-16.953 23.359-6.25 23.359 6.25 16.953 16.953 6.25 23.359-6.25 23.359-16.953 16.953-23.359 6.25-23.359-6.25-16.953-16.953-6.25-23.359zM17.344 50.313q0 13.438 9.492 22.891t22.852 9.453 22.852-9.453 9.492-22.891q0-13.359-9.492-22.852t-22.852-9.492-22.852 9.492-9.492 22.852zM25.859 45.703q0-1.797 1.211-3.008t3.008-1.211 3.047 1.25 1.25 2.969q0 1.797-1.25 3.047t-3.047 1.25q-1.719 0-2.969-1.25t-1.25-3.047zM34.375 30.469q0-1.719 1.25-3.008t3.047-1.289q1.719 0 2.969 1.25t1.25 3.047-1.25 3.047-2.969 1.25q-1.797 0-3.047-1.289t-1.25-3.008zM43.281 49.297q0-2.5 1.602-4.414t4.023-2.305l9.609-9.922q-0.703-1.094-0.703-2.188 0-1.719 1.25-3.008t3.047-1.289q1.719 0 2.969 1.25t1.25 3.047-1.25 3.047-2.969 1.25q-1.094 0-2.266-0.781l-4.297 11.328q1.328 1.719 1.328 3.984 0 2.813-1.992 4.805t-4.805 1.992-4.805-1.992-1.992-4.805zM65.625 45.703q0-1.719 1.25-2.969t3.047-1.25 3.008 1.211 1.211 3.008-1.25 3.047-2.969 1.25q-1.797 0-3.047-1.25t-1.25-3.047z" fill="#000000" />
</svg>
