<svg xmlns="http://www.w3.org/2000/svg" viewBox="0 0 100 100">
	<path d="M1.643 50.303q0-9.849 3.835-18.81t10.293-15.419 15.419-10.293 18.81-3.835 18.81 3.835 15.419 10.293 10.293 15.419 3.835 18.81-3.835 18.81-10.293 15.419-15.419 10.293-18.81 3.835-18.81-3.835-15.419-10.293-10.293-15.419-3.835-18.81zM16.74 50.303q0 13.724 9.768 23.492t23.492 9.768 23.492-9.768 9.768-23.492-9.768-23.492-23.492-9.768-23.492 9.768-9.768 23.492zM29.818 50.303h12.109v-24.219h16.146v24.219h12.109l-20.182 24.219z" fill="#000000" />
</svg>
