<?xml version="1.0" encoding="utf-8"?>
<!-- Generator: Adobe Illustrator 15.0.0, SVG Export Plug-In . SVG Version: 6.00 Build 0)  -->
<!DOCTYPE svg PUBLIC "-//W3C//DTD SVG 1.1//EN" "http://www.w3.org/Graphics/SVG/1.1/DTD/svg11.dtd">
<svg version="1.1" id="Calque_1" xmlns="http://www.w3.org/2000/svg" xmlns:xlink="http://www.w3.org/1999/xlink" x="0px" y="0px"
	 width="100px" height="100px" viewBox="0 0 100 100" enable-background="new 0 0 100 100" xml:space="preserve">
<path fill="#454545" d="M41.707,0.254h16.581c1.163,0,2.144,0.402,2.943,1.203c0.8,0.805,1.202,1.785,1.202,2.943v37.305h15.835
	c1.108,0,1.812,0.317,2.111,0.952c0.305,0.635,0.098,1.396-0.621,2.284L52.646,78.104c-0.716,0.883-1.6,1.324-2.649,1.324
	c-1.052,0-1.936-0.441-2.654-1.324l-27.11-33.162c-0.718-0.885-0.926-1.646-0.624-2.284c0.305-0.635,1.01-0.952,2.117-0.952h15.837
	V4.401c0-1.162,0.401-2.142,1.201-2.943C39.566,0.658,40.547,0.256,41.707,0.254L41.707,0.254z M89.377,66.576h4.146
	c0.554,0,1.036,0.209,1.453,0.625c0.418,0.418,0.626,0.902,0.626,1.455v29.016c0,0.553-0.208,1.037-0.626,1.451
	c-0.417,0.416-0.899,0.623-1.453,0.623H6.472c-0.55,0-1.036-0.207-1.45-0.623c-0.415-0.414-0.622-0.898-0.622-1.451V68.656
	c0-0.553,0.207-1.037,0.622-1.455c0.414-0.416,0.9-0.625,1.45-0.625h4.146c0.553,0,1.037,0.209,1.454,0.625
	c0.417,0.418,0.625,0.902,0.625,1.455v14.51h74.614v-14.51c0-0.553,0.207-1.037,0.622-1.455c0.415-0.416,0.899-0.625,1.451-0.625
	H89.377z"/>
</svg>
