<?xml version="1.0" encoding="utf-8"?>
<!-- Generated by IcoMoon.io -->
<!DOCTYPE svg PUBLIC "-//W3C//DTD SVG 1.1//EN" "http://www.w3.org/Graphics/SVG/1.1/DTD/svg11.dtd">
<svg version="1.1" xmlns="http://www.w3.org/2000/svg" xmlns:xlink="http://www.w3.org/1999/xlink" width="100" height="100" viewBox="0 0 100 100">
<g>
</g>
	<path d="M1.643 50.303q0-9.849 3.835-18.81t10.293-15.419 15.419-10.293 18.81-3.835 18.81 3.835 15.419 10.293 10.293 15.419 3.835 18.81-3.835 18.81-10.293 15.419-15.419 10.293-18.81 3.835-18.81-3.835-15.419-10.293-10.293-15.419-3.835-18.81zM16.74 50.303q0 13.724 9.768 23.492t23.492 9.768 23.492-9.768 9.768-23.492-9.768-23.492-23.492-9.768-23.492 9.768-9.768 23.492zM29.818 50.303h12.109v-24.219h16.146v24.219h12.109l-20.182 24.219z" fill="#000000" />
</svg>
