<svg xmlns="http://www.w3.org/2000/svg" viewBox="0 0 100 100">
	<path d="M1.375 17.542q0.042 1.792 1.333 7.5t3.875 11.667 8.667 14.792 14.583 17.333q8.583 8.583 17.292 14.667t15 8.625 11.417 3.917 7.708 1.375l2.583-0.083 13.583-13.5q1.417-1.5 1.125-3.417t-1.875-3.083l-16-11.333q-1.583-1.167-3.75-1t-3.5 1.583l-9.833 9.833q-11.833-8.417-22.333-18.917t-18.917-22.333l9.833-9.833q1.417-1.417 1.667-3.458t-0.917-3.708l-11.583-16.167q-1.167-1.583-3.042-1.833t-3.375 1.167l-13.5 13.5q-0.083 0.917-0.042 2.708z" fill="#000000" />
</svg>
