<?xml version="1.0" encoding="utf-8"?>
<!-- Generated by IcoMoon.io -->
<!DOCTYPE svg PUBLIC "-//W3C//DTD SVG 1.1//EN" "http://www.w3.org/Graphics/SVG/1.1/DTD/svg11.dtd">
<svg version="1.1" xmlns="http://www.w3.org/2000/svg" xmlns:xlink="http://www.w3.org/1999/xlink" width="103" height="100" viewBox="0 0 103 100">
<g>
</g>
	<path d="M0 62.292v-25q0-13.75 9.792-23.542t23.542-9.792q30.5 0.5 33.083 1.167l-15.5 15.5h-25.917q-3.417 0-5.875 2.458t-2.458 5.875v41.667q0 3.417 2.458 5.875t5.875 2.458h41.667q3.417 0 5.875-2.458t2.458-5.875v-10.417l16.667-16.667v18.75q0 13.75-9.792 23.542t-23.542 9.792h-25q-13.75 0-23.542-9.792t-9.792-23.542zM36.333 67.208l13.417-4.167 34.333-34.333-9.5-9.417-33.75 33.75zM82.917 11.042l9.417 9.417 9.417-9.417-1.75-7.083-7.667-2.333z" fill="#000000" />
</svg>
