<svg xmlns="http://www.w3.org/2000/svg" viewBox="0 0 100 100">
    <path fill="#000000" d="M99,32.464L50.767,53.859l-28.574-12.85l-5.896,4.537V62.48l7.563,11.34v15.045L12.515,77.676L1.172,88.938
	V73.818l7.563-11.342v-18.9c0-0.201-0.016-0.466-0.041-0.794c-0.025-0.327-0.025-0.566,0-0.718s0.051-0.356,0.075-0.604
	c0.025-0.252,0.101-0.454,0.228-0.608c0.125-0.154,0.289-0.306,0.49-0.456l3.554-3.025L1.928,32.458l48.536-21.396L99,32.464z
	 M76.773,61.721L50.313,74.271l-26.46-12.551V50.608l26.46,12.474l26.461-12.474V61.721z"/>
</svg>
