<svg xmlns="http://www.w3.org/2000/svg" viewBox="0 0 100 100">
  <path fill="#000000" d="M38.867,1.024h22.262c0.594,0,1.115,0.221,1.559,0.666c0.443,0.447,0.67,0.965,0.67,1.561v13.356
	c0,0.594-0.227,1.114-0.67,1.56c-0.443,0.444-0.965,0.668-1.559,0.668H38.867c-0.596,0-1.111-0.224-1.559-0.668
	c-0.446-0.445-0.668-0.966-0.668-1.56V3.251c0-0.596,0.222-1.113,0.668-1.561C37.755,1.245,38.271,1.024,38.867,1.024z
	 M38.867,27.737h22.262c0.594,0,1.115,0.222,1.559,0.666c0.443,0.447,0.67,0.966,0.67,1.561v13.355c0,0.594-0.227,1.115-0.67,1.559
	c-0.443,0.447-0.965,0.672-1.559,0.672H38.867c-0.596,0-1.111-0.225-1.559-0.672c-0.446-0.443-0.668-0.965-0.668-1.559V29.964
	c0-0.595,0.222-1.113,0.668-1.561C37.755,27.959,38.271,27.737,38.867,27.737z M74.486,27.737h22.262
	c0.596,0,1.111,0.222,1.559,0.666c0.447,0.447,0.668,0.966,0.668,1.561v13.355c0,0.594-0.221,1.115-0.668,1.559
	c-0.447,0.447-0.963,0.672-1.559,0.672H74.486c-0.594,0-1.115-0.225-1.559-0.672c-0.443-0.443-0.67-0.965-0.67-1.559V29.964
	c0-0.595,0.227-1.113,0.67-1.561C73.371,27.959,73.893,27.737,74.486,27.737z M3.251,54.452h22.263c0.593,0,1.115,0.222,1.559,0.665
	c0.443,0.446,0.669,0.965,0.669,1.559v13.356c0,0.594-0.226,1.115-0.669,1.559c-0.443,0.447-0.966,0.672-1.559,0.672H3.251
	c-0.596,0-1.111-0.225-1.559-0.672c-0.446-0.443-0.668-0.965-0.668-1.559V56.676c0-0.594,0.222-1.112,0.668-1.559
	C2.14,54.674,2.656,54.452,3.251,54.452L3.251,54.452z M38.867,54.452h22.262c0.594,0,1.115,0.222,1.559,0.665
	c0.443,0.446,0.67,0.965,0.67,1.559v13.356c0,0.594-0.227,1.115-0.67,1.559c-0.443,0.447-0.965,0.672-1.559,0.672H38.867
	c-0.596,0-1.111-0.225-1.559-0.672c-0.446-0.443-0.668-0.965-0.668-1.559V56.676c0-0.594,0.222-1.112,0.668-1.559
	C37.755,54.674,38.271,54.452,38.867,54.452z M74.486,54.452h22.262c0.596,0,1.111,0.222,1.559,0.665
	c0.447,0.446,0.668,0.965,0.668,1.559v13.356c0,0.594-0.221,1.115-0.668,1.559c-0.447,0.447-0.963,0.672-1.559,0.672H74.486
	c-0.594,0-1.115-0.225-1.559-0.672c-0.443-0.443-0.67-0.965-0.67-1.559V56.676c0-0.594,0.227-1.112,0.67-1.559
	C73.371,54.674,73.893,54.452,74.486,54.452z M3.251,81.165h22.263c0.593,0,1.115,0.222,1.559,0.665
	c0.443,0.446,0.669,0.965,0.669,1.559v13.356c0,0.594-0.226,1.115-0.669,1.559c-0.443,0.447-0.966,0.672-1.559,0.672H3.251
	c-0.596,0-1.111-0.225-1.559-0.672c-0.446-0.443-0.668-0.965-0.668-1.559V83.389c0-0.594,0.222-1.112,0.668-1.559
	C2.14,81.387,2.656,81.165,3.251,81.165L3.251,81.165z M38.867,81.165h22.262c0.594,0,1.115,0.222,1.559,0.665
	c0.443,0.446,0.67,0.965,0.67,1.559v13.356c0,0.594-0.227,1.115-0.67,1.559c-0.443,0.447-0.965,0.672-1.559,0.672H38.867
	c-0.596,0-1.111-0.225-1.559-0.672c-0.446-0.443-0.668-0.965-0.668-1.559V83.389c0-0.594,0.222-1.112,0.668-1.559
	C37.755,81.387,38.271,81.165,38.867,81.165z M74.486,81.165h22.262c0.596,0,1.111,0.222,1.559,0.665
	c0.447,0.446,0.668,0.965,0.668,1.559v13.356c0,0.594-0.221,1.115-0.668,1.559c-0.447,0.447-0.963,0.672-1.559,0.672H74.486
	c-0.594,0-1.115-0.225-1.559-0.672c-0.443-0.443-0.67-0.965-0.67-1.559V83.389c0-0.594,0.227-1.112,0.67-1.559
	C73.371,81.387,73.893,81.165,74.486,81.165z"/>
</svg>
