<?xml version="1.0" encoding="utf-8"?>
<!-- Generator: Adobe Illustrator 15.0.0, SVG Export Plug-In . SVG Version: 6.00 Build 0)  -->
<!DOCTYPE svg PUBLIC "-//W3C//DTD SVG 1.1//EN" "http://www.w3.org/Graphics/SVG/1.1/DTD/svg11.dtd">
<svg version="1.1" id="Calque_1" xmlns="http://www.w3.org/2000/svg" xmlns:xlink="http://www.w3.org/1999/xlink" x="0px" y="0px"
	 width="100px" height="100px" viewBox="0 0 100 100" enable-background="new 0 0 100 100" xml:space="preserve">
<path fill="#454545" d="M40.271,2.857l56.705,56.788c1.718,1.719,2.579,3.811,2.579,6.275c0,2.467-0.861,4.559-2.579,6.279
	L86.085,83.088H46.091L3.105,40.019c-1.776-1.719-2.66-3.81-2.66-6.275c0-2.465,0.884-4.558,2.66-6.276l24.528-24.61
	c1.719-1.719,3.81-2.578,6.275-2.578c2.465,0,4.586,0.859,6.358,2.578H40.271z M9.342,33.704l28.435,28.437L62.97,36.862
	L34.616,8.511L9.342,33.704z M21.147,91.406h66.516c1.163,0,2.148,0.402,2.949,1.209c0.806,0.805,1.209,1.787,1.209,2.949v4.156
	h-74.83v-4.156c0-1.162,0.4-2.148,1.201-2.949C18.997,91.809,19.981,91.406,21.147,91.406z"/>
</svg>
