<svg xmlns="http://www.w3.org/2000/svg" viewBox="0 0 100 100">
  <path d="M2.083 58.646l8.333-8.333h9.417q0-3.917 0.417-8.333h-18.167l8.333-8.333h11.25q3.083-13.917 9.333-21.417 9.75-11.75 24.75-11.75 20.167 0 29.5 15.75 5 8.583 5.5 17.417h-15.083q0-4.583-2.125-8.25t-5.292-5.667-6.25-3.042-5.583-1.042q-2 0-4.375 0.833t-5.208 2.667-5.458 5.583-4.208 8.917h31.583l-8.333 8.333h-25q-0.5 3.833-0.5 8.333h33.833l-8.333 8.333h-25q0.75 6.167 2.75 11t4.375 7.583 5.167 4.542 4.917 2.417 3.875 0.625q2.417 0 5.5-1.083t6.25-3.083 5.292-5.625 2.125-8.042h14.5q-2.583 14.333-10.667 23.167-8.917 9.75-22.833 9.75-17.083 0-27-13.167-3-3.833-5.75-10.958t-3.75-17.125h-18.083z" fill="#000000"/>
</svg>
