<?xml version="1.0" encoding="utf-8"?>
<!-- Generated by IcoMoon.io -->
<!DOCTYPE svg PUBLIC "-//W3C//DTD SVG 1.1//EN" "http://www.w3.org/Graphics/SVG/1.1/DTD/svg11.dtd">
<svg version="1.1" xmlns="http://www.w3.org/2000/svg" xmlns:xlink="http://www.w3.org/1999/xlink" width="100" height="100" viewBox="0 0 100 100">
<g>
</g>
	<path d="M4.922 48.828q0-9.219 3.555-17.539t9.609-14.375 14.375-9.609 17.539-3.555 17.539 3.555 14.375 9.609 9.609 14.375 3.555 17.539-3.555 17.539-9.609 14.375-14.375 9.609-17.539 3.555-17.539-3.555-14.375-9.609-9.609-14.375-3.555-17.539zM38.75 29.219l4.531 23.594q0.313 1.563 1.68 2.695t2.93 1.133h4.219q1.563 0 2.93-1.133t1.68-2.695l4.531-23.594q0.313-1.563-0.625-2.695t-2.5-1.133h-16.172q-1.641 0-2.578 1.133t-0.625 2.695zM42.188 72.266h15.625v-7.813h-15.625v7.813z" fill="#000000" />
</svg>
