<?xml version="1.0" encoding="utf-8"?>
<!-- Generated by IcoMoon.io -->
<!DOCTYPE svg PUBLIC "-//W3C//DTD SVG 1.1//EN" "http://www.w3.org/Graphics/SVG/1.1/DTD/svg11.dtd">
<svg version="1.1" xmlns="http://www.w3.org/2000/svg" xmlns:xlink="http://www.w3.org/1999/xlink" width="119" height="100" viewBox="0 0 119 100">
<g>
</g>
	<path d="M4.292 48.75l2.167-3.333q0.5-0.833 1.667-2.5t4.083-5.292 6.208-7.125 8.083-7.5 9.708-6.958 11.042-4.917 12.125-1.958q5.083 0 10.083 1.417l3.083-11.833h12.333l-26.167 100h-12.333l3.083-11.917q-6.833-1.75-13.75-5.958t-11.667-8.5-9.125-9.333-6-7.375-2.458-3.583zM19.375 48.75q17.5 23.5 32.75 28l3.083-11.75q-8.917-1.5-14.875-8.458t-5.958-16.125q0-7.083 3.833-13.167-8.5 7.25-18.833 21.5zM40.792 44.083q4.083 10.333 12.833 15.917l3.917-3.917 1.917-7.25q-2.5-2.333-4.917-5.75t-3.667-5.667l-1.167-2.167zM74.375 85.333l3.167-12.083q1.833-1.25 3.708-2.833t3.833-3.667 3.375-3.667 3.417-4.208 2.792-3.625 2.75-3.667 2.042-2.833q-8.083-10.583-11.667-14.583l3.25-12.167q5.583 4.5 10.958 10.458t7.292 8.625 3 4.333l2.167 3.333-2.167 3.333q-0.583 1-2.125 3.167t-5.292 6.625-7.958 8.542-10.333 8.333-12.208 6.583z" fill="#000000" />
</svg>
