<?xml version="1.0" encoding="utf-8"?>
<!-- Generated by IcoMoon.io -->
<!DOCTYPE svg PUBLIC "-//W3C//DTD SVG 1.1//EN" "http://www.w3.org/Graphics/SVG/1.1/DTD/svg11.dtd">
<svg version="1.1" xmlns="http://www.w3.org/2000/svg" xmlns:xlink="http://www.w3.org/1999/xlink" width="113" height="100" viewBox="0 0 113 100">
<g>
</g>
	<path d="M1.167 48.75l2.167-3.333q0.5-0.833 1.667-2.5t4.083-5.292 6.208-7.125 8.083-7.5 9.708-6.958 11.042-4.917 12.125-1.958 12.125 1.958 11.042 4.917 9.708 6.958 8.083 7.5 6.208 7.125 4.083 5.292 1.667 2.5l2.167 3.333-2.167 3.333q-0.5 0.833-1.667 2.5t-4.083 5.292-6.208 7.125-8.083 7.5-9.708 6.958-11.042 4.917-12.125 1.958-12.125-1.958-11.042-4.917-9.708-6.958-8.083-7.5-6.208-7.125-4.083-5.292-1.667-2.5zM16.25 48.75q0.583 0.833 3.375 4.833t4.667 6.542 5.667 6.458 7.292 6.25 8.583 4.125 10.417 1.792 10.292-1.667 8.375-3.792 7.125-5.958 5.542-6.292 4.833-6.792 3.917-5.5q-0.083-0.083-2.375-3.125t-3.5-4.583-3.625-4.417-4.792-5.292-4.875-4.5q4.083 6.167 4.083 13.583 0 10.333-7.333 17.667t-17.667 7.333-17.667-7.333-7.333-17.667q0-7.083 3.833-13.167-8.5 7.25-18.833 21.5zM37.667 44.083q4.083 10.333 12.833 15.917l8.75-8.75q-3.083-2-6.25-6t-4.75-7l-1.667-3z" fill="#000000" />
</svg>
