<svg xmlns="http://www.w3.org/2000/svg" viewBox="0 0 100 100"><path d="M34.25 80.5l6.115-9.338-5.541-8.558h4.223l3.59 5.749 3.516-5.749h4.187l-5.566 8.691 6.116 9.204h-4.36l-3.968-6.189-3.978 6.19H34.25zM52.842 80.5V62.751h3.613v14.733h8.984V80.5H52.842zM67.099 74.678l3.516-.342c.212 1.18.641 2.046 1.288 2.6.646.554 1.52.83 2.618.83 1.164 0 2.04-.246 2.631-.738.59-.492.885-1.068.885-1.728 0-.423-.124-.783-.372-1.08-.249-.297-.682-.556-1.301-.775-.423-.146-1.387-.407-2.893-.781-1.937-.48-3.296-1.07-4.077-1.771-1.099-.984-1.647-2.185-1.647-3.601 0-.911.258-1.764.774-2.558.517-.793 1.262-1.397 2.234-1.813.972-.415 2.146-.623 3.521-.623 2.246 0 3.937.493 5.072 1.478 1.135.984 1.731 2.299 1.788 3.942l-3.613.159c-.154-.92-.486-1.581-.995-1.983-.509-.403-1.271-.604-2.288-.604-1.051 0-1.872.216-2.467.647a1.302 1.302 0 00-.573 1.11c0 .423.179.785.537 1.087.456.382 1.563.781 3.32 1.195 1.758.416 3.058.845 3.9 1.288a5.04 5.04 0 011.978 1.819c.476.769.714 1.719.714 2.85a5.276 5.276 0 01-.854 2.881c-.569.896-1.375 1.562-2.417 1.996-1.042.436-2.34.653-3.894.653-2.263 0-4-.522-5.213-1.568s-1.936-2.568-2.172-4.57z"/><g><path d="M29 85.75v-28.5h53.291V42.231H49.999V1.866H11.653c-.592 0-1.076.188-1.453.565-.377.377-.565.861-.565 1.453v92.839c0 .592.188 1.076.565 1.453.376.377.861.565 1.453.565h68.621c.592 0 1.076-.188 1.453-.565.376-.377.564-.861.564-1.453V85.75H29z"/><path d="M58.072 9.938v24.219h24.22z"/></g></svg>
