<svg xmlns="http://www.w3.org/2000/svg" viewBox="0 0 100 100"><path d="M32.903 62.604h6.044c1.363 0 2.402.114 3.117.342a5.43 5.43 0 012.469 1.647c.686.79 1.207 1.757 1.564 2.899.357 1.144.536 2.554.536 4.229 0 1.474-.167 2.743-.503 3.809-.41 1.303-.994 2.356-1.754 3.162-.574.61-1.348 1.086-2.324 1.428-.73.253-1.706.379-2.927.379h-6.223V62.604zm3.307 3.028v11.853h2.469c.923 0 1.59-.057 2-.17a2.971 2.971 0 001.335-.745c.354-.35.642-.926.866-1.728.224-.801.335-1.894.335-3.277s-.111-2.445-.335-3.186c-.224-.741-.536-1.318-.938-1.734-.402-.414-.913-.695-1.531-.842-.462-.114-1.367-.171-2.715-.171H36.21zM48.768 71.662c0-1.823.25-3.353.749-4.59a8.517 8.517 0 011.525-2.453c.645-.725 1.351-1.262 2.117-1.611 1.021-.473 2.197-.709 3.53-.709 2.414 0 4.345.818 5.793 2.454 1.449 1.636 2.174 3.91 2.174 6.823 0 2.89-.72 5.15-2.156 6.781-1.438 1.632-3.359 2.447-5.766 2.447-2.436 0-4.372-.812-5.81-2.435-1.438-1.623-2.156-3.858-2.156-6.707zm3.408-.122c0 2.026.428 3.563 1.284 4.608s1.944 1.568 3.263 1.568 2.4-.519 3.245-1.557c.846-1.037 1.269-2.594 1.269-4.669 0-2.051-.412-3.581-1.234-4.59-.823-1.009-1.916-1.514-3.279-1.514s-2.462.511-3.296 1.532-1.252 2.563-1.252 4.622zM77.716 73.92l3.206 1.111c-.491 1.953-1.309 3.404-2.452 4.352-1.144.948-2.594 1.422-4.352 1.422-2.175 0-3.963-.812-5.362-2.435-1.4-1.624-2.101-3.844-2.101-6.659 0-2.979.703-5.292 2.111-6.939 1.407-1.648 3.259-2.473 5.553-2.473 2.003 0 3.631.647 4.882 1.941.745.765 1.304 1.863 1.676 3.296l-3.273.854c-.193-.928-.598-1.66-1.212-2.197s-1.361-.806-2.24-.806c-1.214 0-2.199.476-2.955 1.429-.756.951-1.134 2.494-1.134 4.626 0 2.263.372 3.874 1.117 4.834s1.713 1.44 2.905 1.44c.878 0 1.635-.305 2.268-.916.632-.609 1.087-1.57 1.363-2.88z"/><g><path d="M29 85.75v-28.5h53.291V42.231H49.999V1.866H11.653c-.592 0-1.076.188-1.453.565-.377.377-.565.861-.565 1.453v92.839c0 .592.188 1.076.565 1.453.376.377.861.565 1.453.565h68.621c.592 0 1.076-.188 1.453-.565.376-.377.564-.861.564-1.453V85.75H29z"/><path d="M58.072 9.938v24.219h24.22z"/></g></svg>
