<svg xmlns="http://www.w3.org/2000/svg" viewBox="0 0 100 100"><path d="M33.068 80.5V62.604h5.799c2.197 0 3.63.09 4.297.269 1.025.269 1.884.853 2.576 1.752.691.899 1.037 2.061 1.037 3.484 0 1.1-.199 2.022-.598 2.771-.399.749-.906 1.337-1.521 1.764-.614.428-1.239.71-1.874.849-.862.171-2.111.257-3.747.257h-2.356v6.75h-3.613zm3.614-14.868v5.078h1.979c1.424 0 2.376-.094 2.855-.28.48-.188.856-.48 1.13-.879.272-.399.409-.863.409-1.393 0-.65-.191-1.188-.574-1.611a2.497 2.497 0 00-1.453-.793c-.431-.081-1.298-.122-2.6-.122h-1.746zM49.731 62.604h6.604c1.488 0 2.624.114 3.405.342 1.05.31 1.949.858 2.698 1.647.748.79 1.318 1.757 1.709 2.899.391 1.144.586 2.554.586 4.229 0 1.474-.184 2.743-.55 3.809-.447 1.303-1.087 2.356-1.917 3.162-.626.61-1.473 1.086-2.539 1.428-.797.253-1.863.379-3.197.379h-6.8V62.604zm3.614 3.028v11.853h2.698c1.009 0 1.737-.057 2.185-.17.586-.146 1.072-.396 1.459-.745.386-.35.702-.926.946-1.728.244-.801.365-1.894.365-3.277s-.121-2.445-.365-3.186c-.244-.741-.586-1.318-1.025-1.734-.439-.414-.997-.695-1.673-.842-.505-.114-1.493-.171-2.966-.171h-1.624zM67.822 80.5V62.604H80.09v3.027h-8.654v4.235h7.471v3.027h-7.471V80.5h-3.614z"/><g><path d="M29 85.75v-28.5h53.291V42.231H49.999V1.866H11.653c-.592 0-1.076.188-1.453.565-.377.377-.565.861-.565 1.453v92.839c0 .592.188 1.076.565 1.453.376.377.861.565 1.453.565h68.621c.592 0 1.076-.188 1.453-.565.376-.377.564-.861.564-1.453V85.75H29z"/><path d="M58.072 9.938v24.219h24.22z"/></g></svg>
