<?xml version="1.0" encoding="utf-8"?>
<!-- Generator: Adobe Illustrator 15.0.0, SVG Export Plug-In . SVG Version: 6.00 Build 0)  -->
<!DOCTYPE svg PUBLIC "-//W3C//DTD SVG 1.1//EN" "http://www.w3.org/Graphics/SVG/1.1/DTD/svg11.dtd">
<svg version="1.1" id="Calque_1" xmlns="http://www.w3.org/2000/svg" xmlns:xlink="http://www.w3.org/1999/xlink" x="0px" y="0px"
	 width="100px" height="100px" viewBox="0 0 100 100" enable-background="new 0 0 100 100" xml:space="preserve">
<g>
	<path d="M33.068,80.5V62.604h5.799c2.197,0,3.63,0.09,4.297,0.269c1.025,0.269,1.884,0.853,2.576,1.752
		c0.691,0.899,1.037,2.061,1.037,3.484c0,1.1-0.199,2.022-0.598,2.771c-0.399,0.749-0.906,1.337-1.521,1.764
		c-0.614,0.428-1.239,0.71-1.874,0.849c-0.862,0.171-2.111,0.257-3.747,0.257h-2.356v6.75H33.068z M36.682,65.632v5.078h1.979
		c1.424,0,2.376-0.094,2.855-0.28c0.48-0.188,0.856-0.48,1.13-0.879c0.272-0.399,0.409-0.863,0.409-1.393
		c0-0.65-0.191-1.188-0.574-1.611c-0.383-0.423-0.867-0.688-1.453-0.793c-0.431-0.081-1.298-0.122-2.6-0.122H36.682z"/>
	<path d="M49.731,62.604h6.604c1.488,0,2.624,0.114,3.405,0.342c1.05,0.31,1.949,0.858,2.698,1.647
		c0.748,0.79,1.318,1.757,1.709,2.899c0.391,1.144,0.586,2.554,0.586,4.229c0,1.474-0.184,2.743-0.55,3.809
		c-0.447,1.303-1.087,2.356-1.917,3.162c-0.626,0.61-1.473,1.086-2.539,1.428c-0.797,0.253-1.863,0.379-3.197,0.379h-6.8V62.604z
		 M53.345,65.632v11.853h2.698c1.009,0,1.737-0.057,2.185-0.17c0.586-0.146,1.072-0.396,1.459-0.745
		c0.386-0.35,0.702-0.926,0.946-1.728c0.244-0.801,0.365-1.894,0.365-3.277s-0.121-2.445-0.365-3.186
		c-0.244-0.741-0.586-1.318-1.025-1.734c-0.439-0.414-0.997-0.695-1.673-0.842c-0.505-0.114-1.493-0.171-2.966-0.171H53.345z"/>
	<path d="M67.822,80.5V62.604H80.09v3.027h-8.654v4.235h7.471v3.027h-7.471V80.5H67.822z"/>
</g>
<g>
	<path d="M29,85.75v-28.5h53.291V42.231H49.999V1.866H11.653c-0.592,0-1.076,0.188-1.453,0.565C9.823,2.808,9.635,3.292,9.635,3.884
		v92.839c0,0.592,0.188,1.076,0.565,1.453c0.376,0.377,0.861,0.565,1.453,0.565h68.621c0.592,0,1.076-0.188,1.453-0.565
		c0.376-0.377,0.564-0.861,0.564-1.453V85.75H29z"/>
	<polygon points="58.072,9.938 58.072,34.157 82.292,34.157 	"/>
</g>
</svg>
