<?xml version="1.0" encoding="utf-8"?>
<!-- Generator: Adobe Illustrator 15.0.0, SVG Export Plug-In . SVG Version: 6.00 Build 0)  -->
<!DOCTYPE svg PUBLIC "-//W3C//DTD SVG 1.1//EN" "http://www.w3.org/Graphics/SVG/1.1/DTD/svg11.dtd">
<svg version="1.1" id="Calque_1" xmlns="http://www.w3.org/2000/svg" xmlns:xlink="http://www.w3.org/1999/xlink" x="0px" y="0px"
	 width="100px" height="100px" viewBox="0 0 100 100" enable-background="new 0 0 100 100" xml:space="preserve">
<g>
	<path d="M32.903,62.604h6.044c1.363,0,2.402,0.114,3.117,0.342c0.96,0.31,1.784,0.858,2.469,1.647
		c0.686,0.79,1.207,1.757,1.564,2.899c0.357,1.144,0.536,2.554,0.536,4.229c0,1.474-0.167,2.743-0.503,3.809
		c-0.41,1.303-0.994,2.356-1.754,3.162c-0.574,0.61-1.348,1.086-2.324,1.428c-0.73,0.253-1.706,0.379-2.927,0.379h-6.223V62.604z
		 M36.21,65.632v11.853h2.469c0.923,0,1.59-0.057,2-0.17c0.537-0.146,0.981-0.396,1.335-0.745c0.354-0.35,0.642-0.926,0.866-1.728
		c0.224-0.801,0.335-1.894,0.335-3.277s-0.111-2.445-0.335-3.186c-0.224-0.741-0.536-1.318-0.938-1.734
		c-0.402-0.414-0.913-0.695-1.531-0.842c-0.462-0.114-1.367-0.171-2.715-0.171H36.21z"/>
	<path d="M48.768,71.662c0-1.823,0.25-3.353,0.749-4.59c0.373-0.911,0.881-1.729,1.525-2.453c0.645-0.725,1.351-1.262,2.117-1.611
		c1.021-0.473,2.197-0.709,3.53-0.709c2.414,0,4.345,0.818,5.793,2.454c1.449,1.636,2.174,3.91,2.174,6.823
		c0,2.89-0.72,5.15-2.156,6.781c-1.438,1.632-3.359,2.447-5.766,2.447c-2.436,0-4.372-0.812-5.81-2.435
		C49.486,76.746,48.768,74.511,48.768,71.662z M52.176,71.54c0,2.026,0.428,3.563,1.284,4.608s1.944,1.568,3.263,1.568
		s2.4-0.519,3.245-1.557c0.846-1.037,1.269-2.594,1.269-4.669c0-2.051-0.412-3.581-1.234-4.59c-0.823-1.009-1.916-1.514-3.279-1.514
		s-2.462,0.511-3.296,1.532S52.176,69.481,52.176,71.54z"/>
	<path d="M77.716,73.92l3.206,1.111c-0.491,1.953-1.309,3.404-2.452,4.352c-1.144,0.948-2.594,1.422-4.352,1.422
		c-2.175,0-3.963-0.812-5.362-2.435c-1.4-1.624-2.101-3.844-2.101-6.659c0-2.979,0.703-5.292,2.111-6.939
		c1.407-1.648,3.259-2.473,5.553-2.473c2.003,0,3.631,0.647,4.882,1.941c0.745,0.765,1.304,1.863,1.676,3.296l-3.273,0.854
		c-0.193-0.928-0.598-1.66-1.212-2.197s-1.361-0.806-2.24-0.806c-1.214,0-2.199,0.476-2.955,1.429
		c-0.756,0.951-1.134,2.494-1.134,4.626c0,2.263,0.372,3.874,1.117,4.834s1.713,1.44,2.905,1.44c0.878,0,1.635-0.305,2.268-0.916
		C76.985,76.191,77.44,75.23,77.716,73.92z"/>
</g>
<g>
	<path d="M29,85.75v-28.5h53.291V42.231H49.999V1.866H11.653c-0.592,0-1.076,0.188-1.453,0.565C9.823,2.808,9.635,3.292,9.635,3.884
		v92.839c0,0.592,0.188,1.076,0.565,1.453c0.376,0.377,0.861,0.565,1.453,0.565h68.621c0.592,0,1.076-0.188,1.453-0.565
		c0.376-0.377,0.564-0.861,0.564-1.453V85.75H29z"/>
	<polygon points="58.072,9.938 58.072,34.157 82.292,34.157 	"/>
</g>
</svg>
