<?xml version="1.0" encoding="utf-8"?>
<!-- Generator: Adobe Illustrator 15.0.0, SVG Export Plug-In . SVG Version: 6.00 Build 0)  -->
<!DOCTYPE svg PUBLIC "-//W3C//DTD SVG 1.1//EN" "http://www.w3.org/Graphics/SVG/1.1/DTD/svg11.dtd">
<svg version="1.1" id="Calque_1" xmlns="http://www.w3.org/2000/svg" xmlns:xlink="http://www.w3.org/1999/xlink" x="0px" y="0px"
	 width="100px" height="100px" viewBox="0 0 100 100" enable-background="new 0 0 100 100" xml:space="preserve">
<g>
	<path d="M34.25,80.5l6.115-9.338l-5.541-8.558h4.223l3.59,5.749l3.516-5.749h4.187l-5.566,8.691l6.116,9.204H46.53l-3.968-6.189
		L38.584,80.5H34.25z"/>
	<path d="M52.842,80.5V62.751h3.613v14.733h8.984V80.5H52.842z"/>
	<path d="M67.099,74.678l3.516-0.342c0.212,1.18,0.641,2.046,1.288,2.6c0.646,0.554,1.52,0.83,2.618,0.83
		c1.164,0,2.04-0.246,2.631-0.738c0.59-0.492,0.885-1.068,0.885-1.728c0-0.423-0.124-0.783-0.372-1.08
		c-0.249-0.297-0.682-0.556-1.301-0.775c-0.423-0.146-1.387-0.407-2.893-0.781c-1.937-0.48-3.296-1.07-4.077-1.771
		c-1.099-0.984-1.647-2.185-1.647-3.601c0-0.911,0.258-1.764,0.774-2.558c0.517-0.793,1.262-1.397,2.234-1.813
		c0.972-0.415,2.146-0.623,3.521-0.623c2.246,0,3.937,0.493,5.072,1.478c1.135,0.984,1.731,2.299,1.788,3.942l-3.613,0.159
		c-0.154-0.92-0.486-1.581-0.995-1.983c-0.509-0.403-1.271-0.604-2.288-0.604c-1.051,0-1.872,0.216-2.467,0.647
		c-0.382,0.276-0.573,0.646-0.573,1.11c0,0.423,0.179,0.785,0.537,1.087c0.456,0.382,1.563,0.781,3.32,1.195
		c1.758,0.416,3.058,0.845,3.9,1.288c0.842,0.444,1.501,1.05,1.978,1.819c0.476,0.769,0.714,1.719,0.714,2.85
		c0,1.025-0.285,1.986-0.854,2.881c-0.569,0.896-1.375,1.562-2.417,1.996c-1.042,0.436-2.34,0.653-3.894,0.653
		c-2.263,0-4-0.522-5.213-1.568S67.335,76.68,67.099,74.678z"/>
</g>
<g>
	<path d="M29,85.75v-28.5h53.291V42.231H49.999V1.866H11.653c-0.592,0-1.076,0.188-1.453,0.565C9.823,2.808,9.635,3.292,9.635,3.884
		v92.839c0,0.592,0.188,1.076,0.565,1.453c0.376,0.377,0.861,0.565,1.453,0.565h68.621c0.592,0,1.076-0.188,1.453-0.565
		c0.376-0.377,0.564-0.861,0.564-1.453V85.75H29z"/>
	<polygon points="58.072,9.938 58.072,34.157 82.292,34.157 	"/>
</g>
</svg>
