<svg xmlns="http://www.w3.org/2000/svg" viewBox="0 0 100 100">
  <path d="M0 95.625v-91.667h100v91.667h-100zM8.333 87.292h8.333v-8.333h-8.333v8.333zM8.333 70.625h8.333v-8.333h-8.333v8.333zM8.333 53.958h8.333v-8.333h-8.333v8.333zM8.333 37.292h8.333v-8.333h-8.333v8.333zM8.333 20.625h8.333v-8.333h-8.333v8.333zM25 87.292h50v-33.333h-50v33.333zM25 45.625h50v-33.333h-50v33.333zM83.333 87.292h8.333v-8.333h-8.333v8.333zM83.333 70.625h8.333v-8.333h-8.333v8.333zM83.333 53.958h8.333v-8.333h-8.333v8.333zM83.333 37.292h8.333v-8.333h-8.333v8.333zM83.333 20.625h8.333v-8.333h-8.333v8.333z" fill="#000000"/>
</svg>
