<?xml version="1.0" encoding="utf-8"?>
<!-- Generated by IcoMoon.io -->
<!DOCTYPE svg PUBLIC "-//W3C//DTD SVG 1.1//EN" "http://www.w3.org/Graphics/SVG/1.1/DTD/svg11.dtd">
<svg version="1.1" xmlns="http://www.w3.org/2000/svg" xmlns:xlink="http://www.w3.org/1999/xlink" width="100" height="100" viewBox="0 0 100 100">
<g>
</g>
	<path d="M0 95.625v-91.667h100v91.667h-100zM8.333 87.292h8.333v-8.333h-8.333v8.333zM8.333 70.625h8.333v-8.333h-8.333v8.333zM8.333 53.958h8.333v-8.333h-8.333v8.333zM8.333 37.292h8.333v-8.333h-8.333v8.333zM8.333 20.625h8.333v-8.333h-8.333v8.333zM25 87.292h50v-33.333h-50v33.333zM25 45.625h50v-33.333h-50v33.333zM83.333 87.292h8.333v-8.333h-8.333v8.333zM83.333 70.625h8.333v-8.333h-8.333v8.333zM83.333 53.958h8.333v-8.333h-8.333v8.333zM83.333 37.292h8.333v-8.333h-8.333v8.333zM83.333 20.625h8.333v-8.333h-8.333v8.333z" fill="#000000" />
</svg>
