<?xml version="1.0" encoding="utf-8"?>
<!-- Generated by IcoMoon.io -->
<!DOCTYPE svg PUBLIC "-//W3C//DTD SVG 1.1//EN" "http://www.w3.org/Graphics/SVG/1.1/DTD/svg11.dtd">
<svg version="1.1" xmlns="http://www.w3.org/2000/svg" xmlns:xlink="http://www.w3.org/1999/xlink" width="100" height="100" viewBox="0 0 100 100">
<g>
</g>
	<path d="M11.797 66.758q0 2.578 0.391 4.922 0.703 4.375 3.438 9.336t8.203 8.477q2.422 1.641 5 1.25t4.844-1.836 4.453-3.867 3.75-4.805 2.734-4.727q2.5-5.156 3.047-14.414t-1.016-12.305q6.172 6.25 9.531 12.813t2.031 14.375q-0.391 2.578-1.602 5.43t-2.93 6.289q-0.781 1.484-1.133 2.266t-0.938 2.031-0.703 1.836-0.234 1.484 0.195 1.211 0.859 0.742 1.523 0.391 2.383-0.195 3.281-0.625q4.453-1.563 7.109-2.656t6.836-3.477 6.797-5 5.117-6.914 3.672-9.531q2.969-13.438-3.477-26.68t-19.258-21.758q1.719 3.438 3.359 10.078 3.047 12.422-2.5 12.031-1.172-0.156-2.578-0.703-6.172-2.578-9.414-7.813t-3.438-13.711 3.789-20.117q-1.016 0.625-2.656 1.836t-5.664 5.195-6.914 8.242-4.688 10.781-0.625 13.008q0.156 0.938 0.625 3.242t0.625 3.359 0.469 3.086 0.273 3.086-0.078 2.617-0.469 2.461-1.055 1.875-1.641 1.602-2.422 0.938q-2.969 0.781-5.234-1.016t-3.164-4.805-1.172-6.367 0.82-5.859q-4.062 3.594-6.523 7.891t-3.047 8.359-0.586 6.641z" fill="#000000" />
</svg>
