<?xml version="1.0" encoding="utf-8"?>
<!-- Generated by IcoMoon.io -->
<!DOCTYPE svg PUBLIC "-//W3C//DTD SVG 1.1//EN" "http://www.w3.org/Graphics/SVG/1.1/DTD/svg11.dtd">
<svg version="1.1" xmlns="http://www.w3.org/2000/svg" xmlns:xlink="http://www.w3.org/1999/xlink" width="100" height="100" viewBox="0 0 100 100">
<g>
</g>
	<path d="M18.083 55.5q0.667 1.583 2.583 1.583h25.167q-12.917 36.5-13.333 38.167-0.417 1.75 0.333 2.667l0.75 0.667h0.75q1.167 0 2.167-1.25 0.917-1.083 22.875-26.792t22.042-25.708q1.167-1.583 0.417-3-0.667-1.417-2.583-1.417l-25.083 0.083q0.083-0.333 6.5-18.292t6.583-18.958q0.167-1.25-0.417-2.25l-0.75-0.75h-0.75q-1.25 0-2.083 1.333-0.333 0.5-8.167 9.292t-19.042 21.417-17.458 19.792q-1.333 1.583-0.5 3.417z" fill="#000000" />
</svg>
