<svg xmlns="http://www.w3.org/2000/svg"   viewBox="0 0 109 100">
  <path d="M0 86.25v-83.333q0-1.667 1.208-2.917t2.958-1.25h20.833v25h41.667v-25h8.333l16.667 16.667v22.417l-8.583 8.583-14.167-14.167-24.833 24.833h-27.417v33.333h-12.5q-1.75 0-2.958-1.208t-1.208-2.958zM50 15.417h8.333v-16.667h-8.333v16.667zM58.333 87.667l14.167-14.167-14.167-14.167 10.583-10.583 14.167 14.167 14.167-14.167 10.583 10.667-14.167 14.083 14.167 14.167-10.583 10.583-14.167-14.167-14.167 14.167z" fill="#000000"/>
</svg>
