<?xml version="1.0" encoding="utf-8"?>
<!-- Generated by IcoMoon.io -->
<!DOCTYPE svg PUBLIC "-//W3C//DTD SVG 1.1//EN" "http://www.w3.org/Graphics/SVG/1.1/DTD/svg11.dtd">
<svg version="1.1" xmlns="http://www.w3.org/2000/svg" xmlns:xlink="http://www.w3.org/1999/xlink" width="100" height="100" viewBox="0 0 100 100">
<g>
</g>
	<path d="M5.841 98.74h29.466v-5.328q-3.31 0-5.813-0.888t-3.956-3.068 0.081-5.732l7.427-18.891h31.565l6.62 17.922q1.292 3.633-0.444 7.145t-6.014 3.512v5.328h33.664v-5.328q-2.745-0.081-5.974-3.471-1.453-1.534-2.664-3.391t-1.695-2.987l-0.484-1.049-31.081-80.568h-7.508l-32.211 81.213q-1.938 3.875-4.198 6.055-0.969 0.969-2.664 2.018t-2.906 1.615l-1.211 0.565v5.328zM35.146 56.68l14.37-36.893 3.713 11.302 9.365 25.591h-27.448z" fill="#000000" />
</svg>
