<svg xmlns="http://www.w3.org/2000/svg" viewBox="0 0 100 100">
  <g>
    <path d="M59.87,98.953l-11.538-1.766l-17.991-3.522l-8.041-8.04l3.997-4.436l1.975-23.52l-6.553-4.963l-3.202-8.601L5.019,40.011
		l-2.085-8.788l8.417-4.548l7.504,3.131l4.901-0.338l-1.233-13.331l5.9,0.253l4.04,3.837l5.585-0.358l2.924-4.104l6.777-4.185
		l1.855-8.037L56.751,1l12.017,9.538l6.526,1.472l2.037,4.689l7.882,1.812l2.432,4.056l9.422,1.708l-3.889,17.072l-9.832,13.185
		l5.404,4.627l0.603,17.152l3.91,1.766l1.577,3.938l-11.598,8.317l-18.672-4.46l-4.922,4.554L59.87,98.953z M31.131,92.187
		l17.478,3.422l9.611,1.473l-0.193-7.337l6.078-5.63L82.9,88.603l9.987-7.158l-0.87-2.175l-4.233-1.906l-0.612-17.446l-6.005-5.141
		l10.524-14.118l3.444-15.107l-8.492-1.541l-2.456-4.093l-8.004-1.842l-2.035-4.684l-6.092-1.374L56.453,2.807L50.97,4.758
		l-1.81,7.834l-7.07,4.367l-3.178,4.46l-7.045,0.454l-4.112-3.907l-3.468-0.15l1.216,13.14l-6.916,0.475l-7.147-2.981l-6.665,3.6
		l1.59,6.696L19.742,42.8l3.317,8.909l6.884,5.215l-2.096,24.938l-3.339,3.706L31.131,92.187z"/>
  </g>
</svg>
