<?xml version="1.0" encoding="utf-8"?>
<!-- Generator: Adobe Illustrator 15.0.0, SVG Export Plug-In . SVG Version: 6.00 Build 0)  -->
<!DOCTYPE svg PUBLIC "-//W3C//DTD SVG 1.1//EN" "http://www.w3.org/Graphics/SVG/1.1/DTD/svg11.dtd">
<svg version="1.1" id="Calque_1" xmlns="http://www.w3.org/2000/svg" xmlns:xlink="http://www.w3.org/1999/xlink" x="0px" y="0px"
	 width="100px" height="100px" viewBox="0 0 100 100" enable-background="new 0 0 100 100" xml:space="preserve">
<path fill="#454545" d="M54.746,1.025c5.008,0,9.794,1.193,14.357,3.579c4.56,2.386,8.241,5.651,11.047,9.795
	c2.801,4.145,4.202,8.542,4.202,13.194H70.666c0-2.387-0.581-4.52-1.746-6.398c-1.16-1.879-2.637-3.323-4.425-4.338
	c-1.793-1.012-3.565-1.786-5.324-2.324c-1.762-0.537-3.414-0.805-4.967-0.805c-2.208,0-4.563,0.434-7.069,1.299
	c-2.502,0.864-4.35,1.924-5.543,3.176c-2.443,2.623-3.668,5.634-3.668,9.035c0,1.549,0.406,3.428,1.212,5.635
	c0.802,2.207,1.592,4.027,2.372,5.457c0.772,1.432,1.877,3.4,3.309,5.902c0.356,0.537,0.625,0.957,0.806,1.252h21.559v8.95H49.559
	c0.479,2.98,0.4,6.408-0.221,10.287c-0.631,3.877-1.567,6.707-2.821,8.496c-2.683,3.695-5.635,7.037-8.854,10.018
	c2.027-0.596,4.5-1.117,7.423-1.566C48.006,81.223,50.123,81,51.433,81c1.907-0.063,4.951,0.416,9.127,1.432
	c4.174,1.014,7.273,1.523,9.3,1.516c4.95,0,9.006-0.891,12.167-2.678l4.472,13.148c-1.848,1.133-3.578,2.041-5.189,2.725
	c-1.611,0.688-3.25,1.148-4.92,1.387c-1.671,0.24-2.922,0.375-3.758,0.404c-0.834,0.025-2.205,0.041-4.118,0.041
	c-1.368,0-3.635-0.508-6.797-1.52c-3.161-1.012-6.47-1.982-9.929-2.904c-3.459-0.928-6.322-1.273-8.59-1.033
	c-2.325,0.18-4.77,0.658-7.334,1.432c-2.564,0.775-4.563,1.523-5.995,2.24l-2.054,0.982l-4.924-12.971
	c0.239-0.182,0.717-0.508,1.432-0.984c0.717-0.479,1.18-0.791,1.389-0.939c0.207-0.15,0.594-0.42,1.16-0.807
	c0.57-0.387,1.031-0.742,1.389-1.07c0.354-0.332,0.786-0.746,1.297-1.252c0.512-0.508,1.033-1.057,1.566-1.658
	c2.863-3.279,4.475-7.049,4.828-11.314c0.36-4.258-0.537-8.51-2.68-12.742h-19.77v-8.95h14.85c-1.369-2.801-2.68-5.904-3.934-9.301
	c-0.416-1.191-0.777-2.431-1.072-3.713c-0.301-1.284-0.479-2.938-0.537-4.965c-0.062-2.025,0.119-4.009,0.537-5.949
	c0.416-1.938,1.297-4.04,2.641-6.305c1.34-2.266,3.086-4.383,5.229-6.351c5.789-5.249,13.627-7.872,23.526-7.872L54.746,1.025z"/>
</svg>
