<svg xmlns="http://www.w3.org/2000/svg" viewBox="0 0 100 100">
  <path d="M3.125 33.203h7.813v15.625h31.25v-23.438h15.625v23.438h31.25v-15.625h7.813v-7.813h-8.672q0.078-0.078 0.078-0.508t-0.117-1.172-0.273-1.367l-2.656-13.437q-0.859-3.047-3.242-4.922t-5.43-1.875q-2.5 0-4.766 1.328l-18.672 11.25q-1.719 1.016-3.125 2.734-1.484-1.875-3.125-2.813l-18.594-11.25q-2.578-1.406-4.844-1.406-3.047 0-5.43 1.797t-3.164 4.766l-2.734 13.828q-0.156 0.625-0.234 1.406t-0.078 1.172v0.469h-8.672v7.813zM10.938 95.703h31.25v-31.25h-31.25v31.25zM18.75 25.391q-0.234 0 1.094-3.75t2.813-7.5l1.406-3.672 16.641 14.922h-21.953zM57.813 95.703v-31.25h31.25v31.25h-31.25zM60.234 25.391l15.781-15.391q0.391 0.938 0.938 2.539t1.797 5 1.953 5.625 0.547 2.227h-21.016z" fill="#000000"/>
</svg>
