<?xml version="1.0" encoding="utf-8"?>
<!-- Generated by IcoMoon.io -->
<!DOCTYPE svg PUBLIC "-//W3C//DTD SVG 1.1//EN" "http://www.w3.org/Graphics/SVG/1.1/DTD/svg11.dtd">
<svg version="1.1" xmlns="http://www.w3.org/2000/svg" xmlns:xlink="http://www.w3.org/1999/xlink" width="100" height="100" viewBox="0 0 100 100">
<g>
</g>
	<path d="M3.516 50.234q0-9.531 3.711-18.164t9.961-14.883 14.883-9.961 18.164-3.711q9.453 0 18.086 3.711t14.883 9.961 9.961 14.883 3.711 18.164q0 12.656-6.25 23.398t-16.992 16.992-23.398 6.25-23.438-6.25-17.031-16.992-6.25-23.398zM22.969 35.938q-0.625 2.578 0.43 7.227t0.586 6.836q0 0.703 1.328 3.438t1.25 4.688q0.938 0 1.797 0.43t1.797 1.172 1.563 1.055q1.875 0.938 8.437 3.281 1.719 0.625 4.141 2.461t4.648 3.008 4.492 0.859q0.625 1.406-1.172 4.297t-1.563 4.453q3.281 5.547 6.797 6.25 0 0.469-0.234 1.211t-0.273 1.133 0.352 1.328q8.125 0.234 17.266-8.75 2.344-2.266 3.672-3.672t2.695-3.828 1.602-4.844q-1.094-0.703-2.891-0.742t-2.813-0.586q-1.094-0.547-3.828-1.172t-4.063-1.484q-0.703 0-3.086 0.039t-3.633 0.117-3.047 0.508-3.047 1.289q-3.906 2.734-5.156 0.938-0.313-0.156-0.273-1.992t0.039-1.992q-0.469-1.016-2.070-1.328t-1.914-0.547q0.156-1.719-0.156-3.203t-1.289-2.188-3.008 1.563q-1.797 1.953-3.281-0.313-1.484-2.188-0.625-4.531 0.469-1.25 1.719-1.719 0.469 0.078 2.031 0.117t2.617 0.313 1.523 1.055q0.938 1.484 2.5 2.93t2.656 2.148l1.094 0.625q0-0.234 0.742-3.086t0.43-4.492q-0.313-1.797 1.133-3.477t1.758-2.461q0.391-1.094 0.781-2.734t0.664-2.422 1.211-1.758 2.656-1.68q-0.469-1.406 0.781-2.891 0.625 0 1.836 0.117t1.914 0.117 1.602-0.352 1.602-1.211q-0.781-1.797-2.383-3.32t-2.969-2.344-3.828-2.070-3.398-1.797q0.859-3.047 0.156-3.438 2.422 1.016 4.531 1.133t3.047-0.273l0.859-0.313q0.547-2.813-1.289-4.18t-5.039-2.227-4.375-1.797q-1.484 0.234-2.891 0-1.172 0.937-2.852 1.641t-2.695 0.938-3.438 0.625-3.047 0.469q-1.172 0.234-3.555-0.039t-3.555 0.195q-1.641 0.547-4.063 2.070t-2.656 2.695q-0.234 0.859 0.508 1.758t0.664 1.445q-0.234 2.656-2.148 7.070t-2.305 6.211zM43.594 25.313q0.234-0.938 1.25-2.344t1.25-1.953q0.781 0.781 1.445 0.781t1.094-0.469 1.133-1.133 1.25-0.977q0 1.875 1.328 5.195t1.328 3.398q-0.703-0.156-2.422-0.391t-2.813-0.391-2.5-0.625-2.344-1.094zM57.188 18.516v0z" fill="#000000" />
</svg>
