<svg xmlns="http://www.w3.org/2000/svg" viewBox="0 0 100 100">
  <path fill="#000000" d="M49.999,0.865c4.824,3.714,8.107,8.037,9.851,12.97c1.746,4.933,1.746,9.866,0,14.8
	c-1.744,4.934-5.027,9.23-9.851,12.883c-4.822-3.656-8.107-7.95-9.853-12.883c-1.745-4.932-1.745-9.865,0-14.8
	S45.176,4.578,49.999,0.865z M20.901,33.041c6.875,0,12.748,2.438,17.623,7.317c4.877,4.878,7.318,10.75,7.318,17.625
	c-6.874,0-12.748-2.441-17.622-7.319C23.342,45.787,20.901,39.911,20.901,33.041z M79.1,33.041c0,6.873-2.439,12.746-7.316,17.623
	c-4.879,4.878-10.754,7.313-17.625,7.319c0-6.875,2.438-12.751,7.316-17.625C66.352,35.48,72.227,33.042,79.1,33.041z
	 M20.901,57.983c6.875,0,12.748,2.436,17.623,7.316c4.877,4.877,7.318,10.75,7.318,17.626c-6.874,0-12.748-2.442-17.622-7.319
	C23.342,70.729,20.901,64.853,20.901,57.983z M79.1,57.983c0,6.872-2.439,12.745-7.316,17.623
	c-4.879,4.877-10.754,7.313-17.625,7.319c0-6.876,2.438-12.751,7.316-17.626C66.352,60.423,72.227,57.983,79.1,57.983z
	 M54.158,83.005v11.971c0,1.164-0.402,2.15-1.209,2.954c-0.805,0.804-1.785,1.205-2.951,1.205c-1.166,0-2.146-0.401-2.951-1.205
	c-0.806-0.804-1.207-1.79-1.207-2.954V83.169c2.219,0.225,3.408,0.334,3.576,0.334c0.938,0,2.521-0.167,4.738-0.498H54.158z"/>
</svg>
