<?xml version="1.0" encoding="utf-8"?>
<!-- Generated by IcoMoon.io -->
<!DOCTYPE svg PUBLIC "-//W3C//DTD SVG 1.1//EN" "http://www.w3.org/Graphics/SVG/1.1/DTD/svg11.dtd">
<svg version="1.1" xmlns="http://www.w3.org/2000/svg" xmlns:xlink="http://www.w3.org/1999/xlink" width="100" height="100" viewBox="0 0 100 100">
<g>
</g>
	<path d="M12.451 55.396q-1.172 2.271 0.439 3.882l8.203 8.057q0.952 0.952 2.344 0.989t2.49-0.769l8.862-6.226q0 3.735-0.037 11.243t-0.037 10.876q0 6.152 2.82 10.107t8.093 3.955 8.13-4.028 2.856-10.181v-7.764l24.829-9.595q1.465-0.439 2.966-1.428t1.501-2.087v-25.049q0-0.513-5.933-6.592t-6.885-6.079h-38.452q-1.245 0-2.6 1.025t-2.087 2.051l-0.732 1.099zM17.944 56.86l17.285-24.829h36.841l6.519 7.324v21.533l-24.902 9.521q-1.465 0.439-2.93 1.465t-1.465 2.124v14.795q0 1.611-1.831 2.271t-3.662 0-1.831-2.271v-34.46t-0.11-0.842-0.366-0.879-0.696-0.513q-1.758-0.952-3.369 0.366l-13.477 10.693zM34.644 17.383v-14.648h43.945v14.648h-43.945z" fill="#000000" />
</svg>
