<?xml version="1.0" encoding="utf-8"?>
<!-- Generated by IcoMoon.io -->
<!DOCTYPE svg PUBLIC "-//W3C//DTD SVG 1.1//EN" "http://www.w3.org/Graphics/SVG/1.1/DTD/svg11.dtd">
<svg version="1.1" xmlns="http://www.w3.org/2000/svg" xmlns:xlink="http://www.w3.org/1999/xlink" width="109" height="100" viewBox="0 0 109 100">
<g>
</g>
	<path d="M0.667 85.208v-50h16.667v50h-16.667zM25.667 78.958v-43.75q0-1.417 1.167-2.958t2.333-2.375l1.167-0.75 30.167-19.167q1.167-0.5 2.083-0.5 1.417 0 2.417 1l9.083 9.333q1.167 1.167 1.167 2.833 0 1.5-0.917 2.667l-7.083 10.083h25.167q7.083 0 11.542 3.167t4.458 9.167-4.542 9.25-11.542 3.25h-8.917l-10.833 28.25q-0.583 1.833-1.708 3.458t-2.375 1.625h-28.417q-0.583 0-7.5-6.75t-6.917-7.833zM34 77.792l8.333 7.417h24.417l10.917-28.25q0.5-1.75 1.625-3.417t2.375-1.667h16.917q1.333 0 2.083-1.25t0.75-3q0-1.667-0.75-2.875t-2.083-1.208h-39.25t-0.542-0.042-0.5-0.083-0.417-0.125-0.458-0.208-0.333-0.333-0.333-0.458q-0.417-1-0.417-1.667 0-1.167 0.833-2.25l12.25-15.25-7.167-6.917-28.25 19.667v41.917z" fill="#000000" />
</svg>
