<?xml version="1.0" encoding="utf-8"?>
<!-- Generated by IcoMoon.io -->
<!DOCTYPE svg PUBLIC "-//W3C//DTD SVG 1.1//EN" "http://www.w3.org/Graphics/SVG/1.1/DTD/svg11.dtd">
<svg version="1.1" xmlns="http://www.w3.org/2000/svg" xmlns:xlink="http://www.w3.org/1999/xlink" width="97" height="100" viewBox="0 0 97 100">
<g>
</g>
	<path d="M10.034 42.932l16.846 26.587q0.293 0.439 0.769 1.135t1.904 1.831 2.673 1.135h38.452q0.952 0 6.885-6.079t5.933-6.592v-25.049q0-1.099-1.465-2.087t-3.003-1.428l-24.829-9.595v-7.764q0-6.152-2.856-10.181t-8.13-4.028-8.057 3.918-2.783 10.144v22.119l-8.862-6.152q-1.099-0.879-2.454-0.842t-2.38 0.989l-8.203 8.057q-1.611 1.611-0.439 3.882zM15.527 41.467l6.079-6.299 13.403 10.693q1.611 1.318 3.442 0.366 0.22-0.073 0.403-0.256l0.293-0.293t0.183-0.366 0.11-0.403 0.073-0.476 0.037-0.476v-34.424q0-1.611 1.831-2.271t3.662 0.037 1.831 2.234v14.795q0 1.172 1.465 2.161t3.003 1.428l24.829 9.521v21.533l-6.519 7.324h-36.841zM32.227 95.593v-14.648h43.945v14.648h-43.945z" fill="#000000" />
</svg>
