<svg xmlns="http://www.w3.org/2000/svg" viewBox="0 0 109 100">
  <path d="M0.958 47.625q0-6 4.5-9.167t11.583-3.167l25.167 0.083-7.083-10.083q-0.917-1.333-0.917-2.667 0-1.75 1.167-2.833l9.083-9.417q1.083-1 2.417-1 0.917 0 2.083 0.5l30.417 19.167q0.583 0.333 1.417 0.875t2.208 2.167 1.375 3.042v43.833q0 1.083-7.167 7.792t-7.833 6.708h-28.417q-1.333 0-2.458-1.667t-1.625-3.417l-10.833-28.25h-8.917q-7 0-11.583-3.25t-4.583-9.25zM9.292 51.792h18.5q1.25 0 2.375 1.708t1.625 3.375l10.917 28.25h24.417l8.917-7.417v-41.833l-28.583-19.75-7.25 6.917 12.083 15.333q0.833 0.917 0.833 2.167 0 0.917-0.417 1.667-0.083 0.25-0.292 0.458l-0.333 0.333t-0.417 0.208-0.458 0.125-0.542 0.083-0.542 0.042h-40.833v8.333zM92.708 85.125v-50h16.667v50h-16.667z" fill="#000000"/>
</svg>
