<?xml version="1.0" encoding="utf-8"?>
<!-- Generator: Adobe Illustrator 15.0.0, SVG Export Plug-In . SVG Version: 6.00 Build 0)  -->
<!DOCTYPE svg PUBLIC "-//W3C//DTD SVG 1.1//EN" "http://www.w3.org/Graphics/SVG/1.1/DTD/svg11.dtd">
<svg version="1.1" id="Calque_1" xmlns="http://www.w3.org/2000/svg" xmlns:xlink="http://www.w3.org/1999/xlink" x="0px" y="0px"
	 width="100px" height="100px" viewBox="0 0 100 100" enable-background="new 0 0 100 100" xml:space="preserve">
<path fill="#454545" d="M23.58,8.483h52.836c6.239,0,11.573,2.216,16.002,6.646c4.432,4.429,6.645,9.762,6.645,16.001v37.739
	c0,6.241-2.213,11.574-6.645,16.006c-4.429,4.428-9.763,6.642-16.002,6.642H23.58c-6.238,0-11.573-2.214-16-6.642
	c-4.429-4.432-6.643-9.765-6.643-16.006V31.13c0-6.239,2.214-11.572,6.643-16.001C12.007,10.699,17.342,8.483,23.58,8.483z
	 M16.033,23.577v52.838h67.931V23.577H16.033z M46.225,68.866h-7.548V53.771h-7.548v15.096H23.58V31.127h7.549v15.097h7.548V31.127
	h7.548V68.866z M76.416,38.675v22.644l-7.548,7.548H53.772V31.127h15.096L76.416,38.675z M61.32,38.675v22.644h7.548V38.675H61.32z"
	/>
</svg>
