<?xml version="1.0" encoding="utf-8"?>
<!-- Generated by IcoMoon.io -->
<!DOCTYPE svg PUBLIC "-//W3C//DTD SVG 1.1//EN" "http://www.w3.org/Graphics/SVG/1.1/DTD/svg11.dtd">
<svg version="1.1" xmlns="http://www.w3.org/2000/svg" xmlns:xlink="http://www.w3.org/1999/xlink" width="100" height="100" viewBox="0 0 100 100">
<g>
</g>
	<path d="M3.125 87.891v-7.813q0-3.203 2.305-5.508t5.508-2.305h78.125q3.203 0 5.508 2.305t2.305 5.508v7.813q0 3.203-2.305 5.508t-5.508 2.305h-78.125q-3.203 0-5.508-2.305t-2.305-5.508zM5.547 64.453l13.437-57.734q0.391-1.719 1.797-3.242t2.969-1.523h52.5q1.484 0 2.93 1.758t1.836 3.555l13.438 57.188h-88.906zM65.625 87.891h7.813v-7.813h-7.813v7.813zM81.25 87.891h7.813v-7.813h-7.813v7.813z" fill="#000000" />
</svg>
