<?xml version="1.0" encoding="utf-8"?>
<!-- Generated by IcoMoon.io -->
<!DOCTYPE svg PUBLIC "-//W3C//DTD SVG 1.1//EN" "http://www.w3.org/Graphics/SVG/1.1/DTD/svg11.dtd">
<svg version="1.1" xmlns="http://www.w3.org/2000/svg" xmlns:xlink="http://www.w3.org/1999/xlink" width="100" height="100" viewBox="0 0 100 100">
<g>
</g>
	<path d="M0 75.833q0 0.917 0.583 1.5t1.5 0.583h4.167q0.917 0 1.5-0.583t0.583-1.5v-25q0-10.583 5.875-19.292t15.375-13.458 20.417-4.75 20.417 4.75 15.375 13.458 5.875 19.292v25q0 0.917 0.583 1.5t1.5 0.583h4.167q0.917 0 1.5-0.583t0.583-1.5v-25q0-9.667-4.125-18.917t-10.917-16.042-16.042-10.917-18.917-4.125-18.917 4.125-16.042 10.917-10.917 16.042-4.125 18.917v25zM16.667 97.083v-38.333q0-0.667 0.5-1.167t1.167-0.5h13.333q0.667 0 1.167 0.5t0.5 1.167v38.333q0 0.667-0.5 1.167t-1.167 0.5h-13.333q-0.667 0-1.167-0.5t-0.5-1.167zM66.667 97.083v-38.333q0-0.667 0.5-1.167t1.167-0.5h13.333q0.667 0 1.167 0.5t0.5 1.167v38.333q0 0.667-0.5 1.167t-1.167 0.5h-13.333q-0.667 0-1.167-0.5t-0.5-1.167z" fill="#000000" />
</svg>
