<?xml version="1.0" encoding="utf-8"?>
<!-- Generated by IcoMoon.io -->
<!DOCTYPE svg PUBLIC "-//W3C//DTD SVG 1.1//EN" "http://www.w3.org/Graphics/SVG/1.1/DTD/svg11.dtd">
<svg version="1.1" xmlns="http://www.w3.org/2000/svg" xmlns:xlink="http://www.w3.org/1999/xlink" width="100" height="100" viewBox="0 0 100 100">
<g>
</g>
	<path d="M3.542 33.417q0-10.917 8.208-19.125t19.208-8.208q11.917 0 20.083 10.75 8.583-10.75 20.5-10.75 10.75 0 18.833 8.208t8.083 19.125q0 3.833-1.458 7.583t-5.083 8.25-6.417 7.458-8.708 8.792q-16.417 15.917-24.417 26.833l-1.417 1.917-1.333-1.917q-3.583-4.833-8.333-10.208t-7.667-8.292-8.417-8.333q-5.917-5.833-8.708-8.792t-6.417-7.458-5.083-8.25-1.458-7.583zM17.708 33.417q0 2.25 2.542 5.833t5.125 6.292 7.917 7.875l1.833 1.833q7.75 7.5 15.833 16.75 6.833-7.667 16.25-16.917l1-1q5.333-5.167 8.125-8.083t5.375-6.583 2.583-6q0-5.917-4-9.958t-8.75-4.042q-6.167 0-11 6.917l-9.833 14.25-9.5-14.5q-4.25-6.667-10.25-6.667-5 0-9.125 4.125t-4.125 9.875z" fill="#000000" />
</svg>
