<svg xmlns="http://www.w3.org/2000/svg" viewBox="0 0 100 100">
  <path d="M79.44 3.46c0-2.017-1.174-3.11-3.191-3.11h-52.595c-2.016 0-3.304 1.093-3.304 3.11v15.55h59.090v-15.55zM91.88 33.227c0-3.615-14.832-7.306-40.16-7.306h-3.651c-25.556 0-40.159 3.775-40.159 7.306v35.544c0 2.016 1.094 3.11 3.11 3.11h6.22v-6.22h-3.11v-9.331h71.531v9.331h-3.11v6.22h6.22c2.016 0 3.11-1.094 3.11-3.11l-0.001-35.544zM39.010 47.001h-21.77v-6.221h21.77v6.221zM23.46 96.76c0 2.017 0.688 3.111 2.704 3.111h47.461c2.016 0 2.705-1.093 2.705-3.111v-34.21h-52.87v34.21zM29.68 68.771h40.43v6.219h-40.43v-6.219zM29.68 78.1h40.43v6.22h-40.43v-6.22zM29.68 87.43h40.43v6.22h-40.43v-6.22z" fill="#000000"/>
</svg>
