<?xml version="1.0" encoding="utf-8"?>
<!-- Generated by IcoMoon.io -->
<!DOCTYPE svg PUBLIC "-//W3C//DTD SVG 1.1//EN" "http://www.w3.org/Graphics/SVG/1.1/DTD/svg11.dtd">
<svg version="1.1" xmlns="http://www.w3.org/2000/svg" xmlns:xlink="http://www.w3.org/1999/xlink" width="100" height="100" viewBox="0 0 100 100">
<g>
</g>
	<path d="M0.083 91.458q0 1.667 1.208 2.917t2.958 1.25h50q1.667 0 2.917-1.25t1.25-2.917v-8.333q0-1.75-1.25-2.958t-2.917-1.208h-50q-1.75 0-2.958 1.208t-1.208 2.958v8.333zM0.083 66.458q0 1.667 1.208 2.917t2.958 1.25h25q1.667 0 2.917-1.25t1.25-2.917v-8.333q0-1.75-1.25-2.958t-2.917-1.208h-25q-1.75 0-2.958 1.208t-1.208 2.958v8.333zM0.083 41.458q0 1.667 1.208 2.917t2.958 1.25h41.667q1.667 0 2.917-1.25t1.25-2.917v-8.333q0-1.75-1.25-2.958t-2.917-1.208h-41.667q-1.75 0-2.958 1.208t-1.208 2.958v8.333zM0.083 16.458q0 1.667 1.208 2.917t2.958 1.25h8.333q1.667 0 2.917-1.25t1.25-2.917v-8.333q0-1.75-1.25-2.958t-2.917-1.208h-8.333q-1.75 0-2.958 1.208t-1.208 2.958v8.333zM66.75 95.625v-91.667h8.333v91.667h-8.333zM77.833 49.792l13.917 10.417v-6.25h16.667v-8.333h-16.667v-6.25z" fill="#000000" />
</svg>
