<?xml version="1.0" encoding="utf-8"?>
<!-- Generated by IcoMoon.io -->
<!DOCTYPE svg PUBLIC "-//W3C//DTD SVG 1.1//EN" "http://www.w3.org/Graphics/SVG/1.1/DTD/svg11.dtd">
<svg version="1.1" xmlns="http://www.w3.org/2000/svg" xmlns:xlink="http://www.w3.org/1999/xlink" width="100" height="100" viewBox="0 0 100 100">
<g>
</g>
	<path d="M-8.417 53.958v-8.333h16.75v-6.25l13.833 10.417-13.833 10.417v-6.25h-16.75zM25 95.625h8.333v-91.667h-8.333v91.667zM41.667 91.458q0 1.667 1.208 2.917t2.958 1.25h50q1.667 0 2.917-1.25t1.25-2.917v-8.333q0-1.75-1.25-2.958t-2.917-1.208h-50q-1.75 0-2.958 1.208t-1.208 2.958v8.333zM41.667 66.458q0 1.667 1.208 2.917t2.958 1.25h25q1.667 0 2.917-1.25t1.25-2.917v-8.333q0-1.75-1.25-2.958t-2.917-1.208h-25q-1.75 0-2.958 1.208t-1.208 2.958v8.333zM41.667 41.458q0 1.667 1.208 2.917t2.958 1.25h41.667q1.667 0 2.917-1.25t1.25-2.917v-8.333q0-1.75-1.25-2.958t-2.917-1.208h-41.667q-1.75 0-2.958 1.208t-1.208 2.958v8.333zM41.667 16.458q0 1.667 1.208 2.917t2.958 1.25h8.333q1.667 0 2.917-1.25t1.25-2.917v-8.333q0-1.75-1.25-2.958t-2.917-1.208h-8.333q-1.75 0-2.958 1.208t-1.208 2.958v8.333z" fill="#000000" />
</svg>
