<?xml version="1.0" encoding="utf-8"?>
<!-- Generator: Adobe Illustrator 21.0.0, SVG Export Plug-In . SVG Version: 6.00 Build 0)  -->
<svg version="1.1" id="Layer_1" xmlns="http://www.w3.org/2000/svg" xmlns:xlink="http://www.w3.org/1999/xlink" x="0px" y="0px"
	 viewBox="0 0 100 100" style="enable-background:new 0 0 100 100;" xml:space="preserve">
<g>
	<path d="M72.4,0H27.6C12.4,0,0,12.4,0,27.6v44.8C0,87.6,12.4,100,27.6,100h44.8c15.2,0,27.6-12.4,27.6-27.6V27.6
		C100,12.4,87.6,0,72.4,0z M91.1,72.4c0,10.3-8.4,18.7-18.7,18.7H27.6c-10.3,0-18.7-8.4-18.7-18.7V27.6c0-10.3,8.4-18.7,18.7-18.7
		h44.8c10.3,0,18.7,8.4,18.7,18.7L91.1,72.4L91.1,72.4z"/>
	<path d="M50,24.2c-14.2,0-25.8,11.6-25.8,25.8c0,14.2,11.6,25.8,25.8,25.8S75.8,64.2,75.8,50C75.8,35.8,64.2,24.2,50,24.2z
		 M50,66.9c-9.3,0-16.9-7.6-16.9-16.9c0-9.3,7.6-16.9,16.9-16.9S66.9,40.7,66.9,50C66.9,59.3,59.3,66.9,50,66.9z"/>
	<path d="M76.8,16.7c-1.7,0-3.4,0.7-4.6,1.9c-1.2,1.2-1.9,2.9-1.9,4.6c0,1.7,0.7,3.4,1.9,4.6c1.2,1.2,2.9,1.9,4.6,1.9
		c1.7,0,3.4-0.7,4.6-1.9c1.2-1.2,1.9-2.9,1.9-4.6c0-1.7-0.7-3.4-1.9-4.6C80.2,17.4,78.6,16.7,76.8,16.7z"/>
</g>
</svg>
