<svg xmlns="http://www.w3.org/2000/svg" viewBox="0 0 100 100"><path d="M72.4 0H27.6C12.4 0 0 12.4 0 27.6v44.8C0 87.6 12.4 100 27.6 100h44.8c15.2 0 27.6-12.4 27.6-27.6V27.6C100 12.4 87.6 0 72.4 0zm18.7 72.4c0 10.3-8.4 18.7-18.7 18.7H27.6c-10.3 0-18.7-8.4-18.7-18.7V27.6c0-10.3 8.4-18.7 18.7-18.7h44.8c10.3 0 18.7 8.4 18.7 18.7v44.8z"/><path d="M50 24.2c-14.2 0-25.8 11.6-25.8 25.8 0 14.2 11.6 25.8 25.8 25.8S75.8 64.2 75.8 50c0-14.2-11.6-25.8-25.8-25.8zm0 42.7c-9.3 0-16.9-7.6-16.9-16.9 0-9.3 7.6-16.9 16.9-16.9S66.9 40.7 66.9 50c0 9.3-7.6 16.9-16.9 16.9zM76.8 16.7c-1.7 0-3.4.7-4.6 1.9-1.2 1.2-1.9 2.9-1.9 4.6 0 1.7.7 3.4 1.9 4.6 1.2 1.2 2.9 1.9 4.6 1.9 1.7 0 3.4-.7 4.6-1.9 1.2-1.2 1.9-2.9 1.9-4.6 0-1.7-.7-3.4-1.9-4.6a6.42 6.42 0 00-4.6-1.9z"/></svg>
