<svg xmlns="http://www.w3.org/2000/svg" viewBox="0 0 100 100">
  <path fill="#000000" d="M57.557,8.43h7.559v15.118h-7.559v7.56h26.455c3.125,0,5.303,0.996,6.539,2.985
	c1.234,1.99,1.145,4.372-0.266,7.144l-4.988,9.979c-2.066,4.18-4.107,7.559-6.123,10.128h-58.35
	c-2.015-2.569-4.056-5.946-6.121-10.128l-4.988-9.979c-1.412-2.771-1.5-5.153-0.266-7.144c1.234-1.989,3.414-2.985,6.538-2.985
	h26.454v-7.56h-7.559V8.43h7.559V0.871h15.116V8.43z M23.546,68.896h52.909c1.057,0,1.951,0.366,2.682,1.096
	c0.73,0.731,1.096,1.626,1.096,2.685c0,1.058-0.365,1.952-1.096,2.683s-1.625,1.096-2.682,1.096h-0.91l10.357,7.559H14.097
	l10.431-7.559h-0.985c-1.059,0-1.953-0.365-2.684-1.096s-1.096-1.625-1.096-2.683c0-1.059,0.365-1.953,1.096-2.685
	c0.73-0.729,1.625-1.096,2.684-1.096H23.546z M8.429,91.571H91.57c1.055,0,1.949,0.363,2.684,1.096
	c0.73,0.73,1.096,1.625,1.096,2.683v3.779H4.65V95.35c0-1.058,0.365-1.952,1.096-2.683C6.476,91.935,7.371,91.571,8.429,91.571z"/>
</svg>
