<?xml version="1.0" encoding="utf-8"?>
<!-- Generator: Adobe Illustrator 15.0.0, SVG Export Plug-In . SVG Version: 6.00 Build 0)  -->
<!DOCTYPE svg PUBLIC "-//W3C//DTD SVG 1.1//EN" "http://www.w3.org/Graphics/SVG/1.1/DTD/svg11.dtd">
<svg version="1.1" id="Calque_1" xmlns="http://www.w3.org/2000/svg" xmlns:xlink="http://www.w3.org/1999/xlink" x="0px" y="0px"
	 width="100px" height="100px" viewBox="0 0 100 100" enable-background="new 0 0 100 100" xml:space="preserve">
<path fill="#454545" d="M50,8.576l22.553,12.103v10.452H50c0,2.855,0.464,5.563,1.391,8.118c0.928,2.557,2.182,4.85,3.758,6.88
	c1.58,2.029,3.158,3.836,4.74,5.412c1.582,1.579,3.336,3.271,5.266,5.075c1.928,1.807,3.371,3.336,4.322,4.589H29.632
	c-3.007-4.16-5.275-8.608-6.804-13.345s-2.292-9.209-2.292-13.421c0-4.21,0.826-8.332,2.478-12.365
	c1.653-4.033,3.847-7.529,6.581-10.489c2.731-2.958,5.889-5.376,9.469-7.255c3.581-1.877,7.228-2.917,10.938-3.121v7.367H50z
	 M23.687,68.72h52.625c1.053,0,1.941,0.363,2.67,1.09c0.725,0.728,1.088,1.616,1.088,2.669s-0.363,1.942-1.088,2.669
	c-0.729,0.727-1.617,1.09-2.67,1.09h-0.977l10.371,7.517h-71.42l10.3-7.517h-0.903c-1.052,0-1.941-0.363-2.668-1.09
	s-1.09-1.616-1.09-2.669s0.363-1.941,1.09-2.669c0.727-0.727,1.616-1.09,2.668-1.09H23.687z M8.652,91.273h82.696
	c1.051,0,1.939,0.363,2.67,1.09c0.727,0.728,1.09,1.616,1.09,2.668v3.76H4.892v-3.76c0-1.052,0.363-1.94,1.091-2.668
	C6.709,91.637,7.599,91.273,8.652,91.273z"/>
</svg>
