<?xml version="1.0" encoding="utf-8"?>
<!-- Generator: Adobe Illustrator 15.0.0, SVG Export Plug-In . SVG Version: 6.00 Build 0)  -->
<!DOCTYPE svg PUBLIC "-//W3C//DTD SVG 1.1//EN" "http://www.w3.org/Graphics/SVG/1.1/DTD/svg11.dtd">
<svg version="1.1" id="Calque_1" xmlns="http://www.w3.org/2000/svg" xmlns:xlink="http://www.w3.org/1999/xlink" x="0px" y="0px"
	 width="100px" height="100px" viewBox="0 0 100 100" enable-background="new 0 0 100 100" xml:space="preserve">
<path fill="#454545" d="M87.417,46.151L71.945,4.723c-0.439-1.037-1.188-1.938-2.256-2.701c-1.064-0.765-2.168-1.146-3.313-1.146
	H33.627c-1.146,0-2.252,0.382-3.313,1.146c-1.062,0.764-1.817,1.664-2.255,2.701L12.586,46.151
	c-0.438,1.035-0.396,1.938,0.118,2.702C13.223,49.618,14.057,50,15.205,50h51.171v12.281c0,1.145,0.397,2.111,1.19,2.904
	c0.793,0.791,1.759,1.188,2.904,1.189c1.145,0,2.11-0.396,2.903-1.189c0.794-0.793,1.189-1.766,1.189-2.904V50h10.234
	c1.145,0,1.977-0.383,2.495-1.147C87.811,48.088,87.852,47.186,87.417,46.151z M74.316,99.125H25.603v-4.094
	c0-1.145,0.397-2.111,1.19-2.902c0.789-0.793,1.762-1.188,2.903-1.191h4.093v-4.094c0-1.145,0.397-2.109,1.191-2.904
	c0.789-0.789,1.762-1.186,2.903-1.189h3.931V58.188h16.375V82.75h3.848c1.147,0,2.113,0.396,2.906,1.189
	c0.786,0.795,1.185,1.762,1.187,2.904v4.094h4.094c1.148,0,2.113,0.396,2.907,1.191c0.787,0.791,1.184,1.76,1.186,2.902V99.125z"/>
</svg>
