<svg xmlns="http://www.w3.org/2000/svg" viewBox="0 0 100 100">
  <path d="M3.125 97.227v-11.172l16.875-15.078q-0.703-4.141-1.016-6.484t-0.43-7.344 0.703-8.828 3.008-8.906 5.781-9.688q3.672-4.688 7.773-8.008t8.047-5.313 9.961-3.75 11.367-2.93 14.414-3.398 17.188-4.57q0 14.766-1.719 26.797t-4.609 20.156-6.953 14.18-8.477 9.375-9.531 5.313-9.805 2.344-9.492 0.117-8.398-0.977-6.836-1.328-4.414-0.586l-7.734 4.297zM21.758 72.031q1.523 0.508 6.758-5.977 4.297-5.156 28.672-18.281 5.469-2.969 9.258-5.43t7.969-6.172 7.734-8.711 6.758-11.563q1.719-3.906 1.875-4.688t-0.469-1.484q-0.547-0.391-1.328-0.391t-2.070 1.133-2.617 3.086q-2.734 3.984-8.867 8.477t-10.898 6.992l-4.766 2.5q-28.828 15.391-35.781 31.328-3.75 8.672-2.227 9.18z" fill="#000000"/>
</svg>
