<?xml version="1.0" encoding="utf-8"?>
<!-- Generator: Adobe Illustrator 15.0.0, SVG Export Plug-In . SVG Version: 6.00 Build 0)  -->
<!DOCTYPE svg PUBLIC "-//W3C//DTD SVG 1.1//EN" "http://www.w3.org/Graphics/SVG/1.1/DTD/svg11.dtd">
<svg version="1.1" id="Calque_1" xmlns="http://www.w3.org/2000/svg" xmlns:xlink="http://www.w3.org/1999/xlink" x="0px" y="0px"
	 width="100px" height="100px" viewBox="0 0 100 100" enable-background="new 0 0 100 100" xml:space="preserve">
<path fill="#454545" d="M95.619,26.134H82.471v16.233h8.119l8.119,8.122H74.355V26.134H61.207L78.412,8.926L95.619,26.134z
	 M17.526,26.134H33.76c1.463,0,2.545,0.054,3.247,0.16c0.707,0.109,1.505,0.393,2.396,0.854c0.896,0.461,1.531,1.272,1.908,2.436
	c0.381,1.164,0.571,2.718,0.571,4.666h24.354v8.118H17.529L1.294,70.781V34.249h8.118c0-1.948,0.191-3.502,0.571-4.666
	c0.378-1.163,1.015-1.975,1.909-2.436c0.892-0.461,1.688-0.744,2.396-0.854c0.701-0.106,1.783-0.16,3.246-0.16H17.526z
	 M66.234,58.604h19.48l-19.48,32.47H1.292l24.354-40.585h40.589V58.604L66.234,58.604z"/>
</svg>
