<?xml version="1.0" encoding="utf-8"?>
<!-- Generator: Adobe Illustrator 21.0.0, SVG Export Plug-In . SVG Version: 6.00 Build 0)  -->
<svg version="1.1" id="Capa_1" xmlns="http://www.w3.org/2000/svg" xmlns:xlink="http://www.w3.org/1999/xlink" x="0px" y="0px"
	 viewBox="0 0 100 100" style="enable-background:new 0 0 100 100;" xml:space="preserve">
<g>
	<path id="LinkedIn" d="M100,60.8v37H78.6V63.3c0-8.7-3.1-14.6-10.9-14.6c-5.9,0-9.4,4-11,7.8c-0.6,1.4-0.7,3.3-0.7,5.2v36H34.6
		c0,0,0.3-58.4,0-64.5H56v9.1c0,0.1-0.1,0.1-0.1,0.2H56v-0.2c2.8-4.4,7.9-10.7,19.3-10.7C89.4,31.8,100,41,100,60.8z M12.1,2.2
		C4.8,2.2,0,7,0,13.4c0,6.2,4.7,11.1,11.8,11.1H12c7.5,0,12.1-5,12.1-11.1C24,7,19.5,2.2,12.1,2.2z M1.3,97.8h21.4V33.3H1.3V97.8z"
		/>
</g>
</svg>
