<svg xmlns="http://www.w3.org/2000/svg" viewBox="0 0 100 100">
  <path d="M7.578 68.125q0 7.422 5.156 12.422l11.016 11.094q5.312 5.156 12.422 5.156 7.266 0 12.422-5.156l22.109-22.109q5.156-5.156 5.156-12.422t-5.156-12.422l-11.016-11.016q-0.625-0.703-1.484-1.328l-8.203 8.203 16.563 16.563-30.391 30.391-19.297-19.375 7.422-7.422-1.406-1.406q-3.594-3.516-5.859-7.891l-4.297 4.297q-5.156 5.156-5.156 12.422zM24.141 40.547q0 7.266 5.156 12.422l11.016 11.016q0.547 0.547 1.484 1.328l8.203-8.203-16.563-16.563 30.391-30.391 19.297 19.297-7.422 7.5 1.406 1.328q3.672 3.828 6.016 7.813l2.266-2.266q2.734-2.734 4.883-6.875t2.148-7.5q0-7.266-5.156-12.422l-11.016-11.016q-5.156-5.156-12.422-5.156-7.422 0-12.422 5.156l-22.109 22.109q-5.156 5-5.156 12.422z" fill="#000000"/>
</svg>
