<?xml version="1.0" encoding="utf-8"?>
<!-- Generated by IcoMoon.io -->
<!DOCTYPE svg PUBLIC "-//W3C//DTD SVG 1.1//EN" "http://www.w3.org/Graphics/SVG/1.1/DTD/svg11.dtd">
<svg version="1.1" xmlns="http://www.w3.org/2000/svg" xmlns:xlink="http://www.w3.org/1999/xlink" width="100" height="100" viewBox="0 0 100 100">
<g>
</g>
	<path d="M9.635 98.74h88.802v-96.875h-88.802v96.875zM17.708 90.667v-72.656h72.656v72.656h-72.656zM25.781 82.594v-8.073h8.073v8.073h-8.073zM25.781 66.449v-8.073h8.073v8.073h-8.073zM25.781 50.303v-8.073h8.073v8.073h-8.073zM25.781 34.157v-8.073h8.073v8.073h-8.073zM41.927 82.594h40.365v-8.073h-40.365v8.073zM41.927 66.449v-8.073h40.365v8.073h-40.365zM41.927 50.303v-8.073h40.365v8.073h-40.365zM41.927 34.157v-8.073h40.365v8.073h-40.365z" fill="#000000" />
</svg>
