<svg xmlns="http://www.w3.org/2000/svg" viewBox="0 0 100 100">
  <path d="M0 91.458v-8.333q0-1.75 1.208-2.958t2.958-1.208h8.333q1.75 0 2.958 1.208t1.208 2.958v8.333q0 1.667-1.208 2.917t-2.958 1.25h-8.333q-1.75 0-2.958-1.25t-1.208-2.917zM0 66.458v-8.333q0-1.75 1.208-2.958t2.958-1.208h8.333q1.75 0 2.958 1.208t1.208 2.958v8.333q0 1.667-1.208 2.917t-2.958 1.25h-8.333q-1.75 0-2.958-1.25t-1.208-2.917zM0 41.458v-8.333q0-1.75 1.208-2.958t2.958-1.208h8.333q1.75 0 2.958 1.208t1.208 2.958v8.333q0 1.667-1.208 2.917t-2.958 1.25h-8.333q-1.75 0-2.958-1.25t-1.208-2.917zM0 16.458v-8.333q0-1.75 1.208-2.958t2.958-1.208h8.333q1.75 0 2.958 1.208t1.208 2.958v8.333q0 1.667-1.208 2.917t-2.958 1.25h-8.333q-1.75 0-2.958-1.25t-1.208-2.917zM25 91.458v-8.333q0-1.75 1.208-2.958t2.958-1.208h66.667q1.75 0 2.958 1.208t1.208 2.958v8.333q0 1.667-1.208 2.917t-2.958 1.25h-66.667q-1.75 0-2.958-1.25t-1.208-2.917zM25 66.458v-8.333q0-1.75 1.208-2.958t2.958-1.208h66.667q1.75 0 2.958 1.208t1.208 2.958v8.333q0 1.667-1.208 2.917t-2.958 1.25h-66.667q-1.75 0-2.958-1.25t-1.208-2.917zM25 41.458v-8.333q0-1.75 1.208-2.958t2.958-1.208h66.667q1.75 0 2.958 1.208t1.208 2.958v8.333q0 1.667-1.208 2.917t-2.958 1.25h-66.667q-1.75 0-2.958-1.25t-1.208-2.917zM25 16.458v-8.333q0-1.75 1.208-2.958t2.958-1.208h66.667q1.75 0 2.958 1.208t1.208 2.958v8.333q0 1.667-1.208 2.917t-2.958 1.25h-66.667q-1.75 0-2.958-1.25t-1.208-2.917z" fill="#000000"/>
</svg>
