<?xml version="1.0" encoding="utf-8"?>
<!-- Generated by IcoMoon.io -->
<!DOCTYPE svg PUBLIC "-//W3C//DTD SVG 1.1//EN" "http://www.w3.org/Graphics/SVG/1.1/DTD/svg11.dtd">
<svg version="1.1" xmlns="http://www.w3.org/2000/svg" xmlns:xlink="http://www.w3.org/1999/xlink" width="100" height="100" viewBox="0 0 100 100">
<g>
</g>
	<path d="M1.563 90.716v-48.438q0-3.31 2.381-5.691t5.691-2.381h8.073v-16.146q0-6.62 4.763-11.383t11.383-4.763h24.219q6.62 0 11.383 4.763t4.763 11.383v16.146h8.073q3.31 0 5.691 2.381t2.381 5.691v48.438q0 3.31-2.381 5.691t-5.691 2.381h-72.656q-3.31 0-5.691-2.381t-2.381-5.691zM33.854 34.206h24.219v-12.109q0-1.695-1.171-2.866t-2.866-1.171h-16.146q-1.695 0-2.866 1.171t-1.171 2.866v12.109z" fill="#000000" />
</svg>
