<svg xmlns="http://www.w3.org/2000/svg" viewBox="0 0 100 100">
  <path fill="#000000" d="M44.3,0.641h11.391c5.213,0,9.998,2.177,14.352,6.532c4.354,4.354,6.533,9.138,6.533,14.353v37.971
	c0,2.075-1.063,4.176-3.189,6.299c-2.123,2.126-4.223,3.189-6.299,3.189H32.916c-2.076,0-4.177-1.063-6.303-3.189
	c-2.126-2.123-3.189-4.224-3.189-6.299V21.525c0-5.215,2.178-9.998,6.531-14.353c4.354-4.355,9.141-6.532,14.352-6.532H44.3z
	 M61.387,76.578v17.086c0,1.063-0.684,2.278-2.051,3.646s-2.582,2.05-3.645,2.05H44.3c-1.063,0-2.278-0.683-3.646-2.05
	c-1.366-1.367-2.05-2.582-2.05-3.646V76.578h22.778H61.387z"/>
</svg>
