<svg xmlns="http://www.w3.org/2000/svg" viewBox="0 0 100 100">
  <path fill="#000000" d="M44.297,0.539h7.302c0,7.609,2.272,13.684,6.814,18.223c4.542,4.54,10.616,6.812,18.223,6.813v33.938
	c0,2.084-1.065,4.188-3.196,6.317c-2.13,2.131-4.234,3.2-6.317,3.2H32.879c-2.08,0-4.184-1.069-6.317-3.2
	c-2.131-2.13-3.196-4.233-3.196-6.317V21.467c0-5.225,2.182-10.02,6.548-14.382c4.362-4.364,9.155-6.546,14.38-6.546H44.297z
	 M61.42,76.632v17.123c0,1.065-0.683,2.283-2.056,3.653c-1.367,1.373-2.584,2.056-3.653,2.053H44.297
	c-1.065,0-2.283-0.684-3.656-2.053c-1.366-1.37-2.053-2.588-2.05-3.653V76.632H61.42L61.42,76.632z"/>
</svg>
