<svg xmlns="http://www.w3.org/2000/svg" viewBox="0 0 100 100">
  <path d="M10.938 48.828v-15.625h23.438v19.531q0 8.828 0.469 11.328 1.328 7.188 7.969 9.141 3.047 0.859 7.188 0.859 2.891 0 5.195-0.43t3.906-1.211 2.812-1.875 1.875-2.461 1.094-2.93 0.547-3.281 0.195-3.516 0-3.672v-21.484h23.438v15.625q0 3.281-0.234 6.484t-1.172 8.125-2.461 9.062-4.531 8.555-6.953 7.539-10.078 5.117-13.633 1.992-13.633-1.992-10.078-5.117-6.953-7.539-4.531-8.555-2.461-9.062-1.172-8.125-0.234-6.484zM10.938 25.391v-23.438h23.438v23.438h-23.438zM65.625 25.391v-23.438h23.438v23.438h-23.438z" fill="#000000"/>
</svg>
