<?xml version="1.0" encoding="utf-8"?>
<!-- Generated by IcoMoon.io -->
<!DOCTYPE svg PUBLIC "-//W3C//DTD SVG 1.1//EN" "http://www.w3.org/Graphics/SVG/1.1/DTD/svg11.dtd">
<svg version="1.1" xmlns="http://www.w3.org/2000/svg" xmlns:xlink="http://www.w3.org/1999/xlink" width="100" height="100" viewBox="0 0 100 100">
<g>
</g>
	<path d="M14.688 40.43q0-9.688 4.727-18.086t12.891-13.437 17.695-5.039q9.609 0 17.734 4.922t12.852 13.242 4.727 17.93-5.703 21.25q-5.703 8.906-13.008 18.516t-11.758 14.766l-4.453 5.156q-0.781-0.703-2.109-2.031t-5.195-5.508-7.5-8.516-8.125-10.586-7.852-12.109q-4.922-10.859-4.922-20.469zM29.844 38.32q0 8.359 5.898 14.258t14.18 5.898q8.359 0 14.258-5.898t5.898-14.258-5.898-14.219-14.258-5.859-14.219 5.898-5.859 14.18z" fill="#000000" />
</svg>
