<svg xmlns="http://www.w3.org/2000/svg" viewBox="0 0 100 100">
  <path fill="#000000" d="M3.649,1.21h92.701c0.65,0,1.222,0.243,1.708,0.73c0.487,0.49,0.732,1.057,0.732,1.71v14.638
	c0,0.65-0.245,1.221-0.732,1.707c-0.486,0.488-1.058,0.732-1.708,0.732H3.649c-0.653,0-1.219-0.244-1.708-0.732
	c-0.489-0.486-0.732-1.057-0.732-1.707V3.65c0-0.653,0.243-1.22,0.732-1.71C2.431,1.453,2.996,1.21,3.649,1.21L3.649,1.21z
	 M3.649,40.241h92.701c0.65,0,1.222,0.244,1.708,0.729c0.487,0.486,0.732,1.059,0.732,1.709v14.638c0,0.65-0.245,1.222-0.732,1.708
	c-0.486,0.488-1.058,0.736-1.708,0.736H3.649c-0.653,0-1.219-0.248-1.708-0.736c-0.489-0.486-0.732-1.058-0.732-1.708V42.679
	c0-0.65,0.243-1.223,0.732-1.709C2.431,40.485,2.996,40.241,3.649,40.241L3.649,40.241z M3.649,79.272h92.701
	c0.65,0,1.222,0.241,1.708,0.731c0.487,0.49,0.732,1.058,0.732,1.712v14.638c0,0.65-0.245,1.219-0.732,1.708
	c-0.486,0.485-1.058,0.729-1.708,0.729H3.649c-0.653,0-1.219-0.243-1.708-0.729c-0.489-0.489-0.732-1.058-0.732-1.708V81.716
	c0-0.654,0.243-1.222,0.732-1.712S2.996,79.272,3.649,79.272L3.649,79.272z"/>
</svg>
