<?xml version="1.0" encoding="utf-8"?>
<!-- Generator: Adobe Illustrator 21.0.0, SVG Export Plug-In . SVG Version: 6.00 Build 0)  -->
<svg version="1.1" id="Calque_1" xmlns="http://www.w3.org/2000/svg" xmlns:xlink="http://www.w3.org/1999/xlink" x="0px" y="0px"
	 viewBox="0 0 100 100" style="enable-background:new 0 0 100 100;" xml:space="preserve">
<style type="text/css">
	.st0{fill:#454545;}
</style>
<path class="st0" d="M98.4,16.2c0.7,0.3,1.1,1,1.1,2.1v15.9c0,0.9-0.3,1.6-0.9,2.3L51.8,83.2c-0.5,0.5-1.1,0.7-1.8,0.7
	s-1.3-0.2-1.8-0.7L1.4,36.5c-0.6-0.7-0.9-1.4-0.9-2.3V18.3c0-1.1,0.4-1.8,1.1-2.1c0.7-0.3,1.5-0.1,2.3,0.7L50,63l46.1-46.1
	C96.9,16.1,97.6,15.9,98.4,16.2L98.4,16.2z"/>
</svg>
