<?xml version="1.0" encoding="utf-8"?>
<!-- Generator: Adobe Illustrator 15.0.0, SVG Export Plug-In . SVG Version: 6.00 Build 0)  -->
<!DOCTYPE svg PUBLIC "-//W3C//DTD SVG 1.1//EN" "http://www.w3.org/Graphics/SVG/1.1/DTD/svg11.dtd">
<svg version="1.1" id="Calque_1" xmlns="http://www.w3.org/2000/svg" xmlns:xlink="http://www.w3.org/1999/xlink" x="0px" y="0px"
	 width="100px" height="100px" viewBox="0 0 100 100" enable-background="new 0 0 100 100" xml:space="preserve">
<path fill="#454545" d="M1.625,83.803c-0.727-0.329-1.092-1.025-1.092-2.086V65.821c0-0.86,0.295-1.622,0.893-2.28l46.785-46.79
	c0.531-0.466,1.126-0.699,1.789-0.699s1.259,0.233,1.792,0.699l46.785,46.79c0.596,0.662,0.891,1.422,0.891,2.28v15.896
	c0,1.061-0.363,1.757-1.092,2.086c-0.727,0.331-1.484,0.099-2.281-0.697l-46.09-46.092L3.914,83.105
	c-0.797,0.796-1.553,1.028-2.281,0.697H1.625z"/>
</svg>
