<svg xmlns="http://www.w3.org/2000/svg" viewBox="0 0 100 100">
  <path d="M2.693 91.959q1.453 4.44 6.943 6.095t11.867-0.444q5.247-1.695 8.799-5.57t3.552-7.266v-48.922l48.438-12.513v42.060q-5.167-1.292-11.141 0.565-6.378 2.099-9.889 6.701t-2.059 8.961q1.453 4.44 6.943 6.095t11.867-0.363q5.651-1.857 9.001-5.126t3.35-7.71v-71.122q0-0.807-0.565-1.251t-1.372-0.202l-60.708 15.581q-0.807 0.242-1.372 1.009t-0.565 1.574v55.622q-5.167-1.372-11.141 0.565-6.378 2.018-9.889 6.62t-2.059 9.042z" fill="#000000"/>
</svg>
