<?xml version="1.0" encoding="utf-8"?>
<!-- Generated by IcoMoon.io -->
<!DOCTYPE svg PUBLIC "-//W3C//DTD SVG 1.1//EN" "http://www.w3.org/Graphics/SVG/1.1/DTD/svg11.dtd">
<svg version="1.1" xmlns="http://www.w3.org/2000/svg" xmlns:xlink="http://www.w3.org/1999/xlink" width="103" height="100" viewBox="0 0 103 100">
<g>
</g>
	<path d="M0 65.417q0 13.75 9.792 23.542t23.542 9.792h25q13.583 0 23.458-9.792t9.875-23.542v-8.167l-6.5-6.083-10.167 10.25v12.333q0 3.417-2.458 5.875t-5.875 2.458h-41.667q-3.417 0-5.875-2.458t-2.458-5.875v-41.667q0-3.417 2.458-5.875t5.875-2.458h13l9.833-10.167-6.167-6.5h-8.333q-13.75 0-23.542 9.792t-9.792 23.542v25zM41.333 39.667l29.417-28.5-12.417-12.417h41.667v41.667l-12.417-12.417-28.5 29.417z" fill="#000000" />
</svg>
