<svg xmlns="http://www.w3.org/2000/svg" viewBox="0 0 100 100">
  <path fill="#000000" d="M91.427,50v12.428c0,1.16-0.4,2.141-1.201,2.941s-1.781,1.201-2.941,1.201h-33.14
	c-1.16,0-2.141-0.4-2.941-1.201c-0.8-0.801-1.202-1.781-1.202-2.941V50h-8.288v37.284c0,1.16-0.4,2.141-1.201,2.941
	s-1.781,1.201-2.941,1.201H4.429c-1.16,0-2.141-0.4-2.941-1.201s-1.201-1.781-1.201-2.941V12.716c0-1.16,0.4-2.141,1.201-2.941
	s1.781-1.201,2.941-1.201H37.57c1.16,0,2.141,0.4,2.941,1.201s1.201,1.781,1.201,2.941v28.998h8.288V29.287
	c0-1.16,0.402-2.141,1.202-2.941c0.801-0.801,1.781-1.205,2.941-1.205h33.14c1.16,0,2.141,0.404,2.941,1.205
	s1.201,1.781,1.201,2.941v12.428h8.287V50H91.427z M83.145,33.429H58.288v24.856h24.856V33.429z"/>
</svg>
