<?xml version="1.0" encoding="utf-8"?>
<!-- Generator: Adobe Illustrator 15.0.0, SVG Export Plug-In . SVG Version: 6.00 Build 0)  -->
<!DOCTYPE svg PUBLIC "-//W3C//DTD SVG 1.1//EN" "http://www.w3.org/Graphics/SVG/1.1/DTD/svg11.dtd">
<svg version="1.1" id="Calque_1" xmlns="http://www.w3.org/2000/svg" xmlns:xlink="http://www.w3.org/1999/xlink" x="0px" y="0px"
	 width="100px" height="100px" viewBox="0 0 100 100" enable-background="new 0 0 100 100" xml:space="preserve">
<path fill="#454545" d="M5.959,1.955h32.029c1.121,0,2.068,0.387,2.843,1.161c0.774,0.775,1.161,1.723,1.161,2.843v72.068
	c0,1.119-0.387,2.068-1.161,2.842s-1.722,1.161-2.843,1.161H5.959c-1.121,0-2.069-0.388-2.844-1.161
	c-0.773-0.773-1.16-1.723-1.16-2.842V5.959c0-1.12,0.387-2.067,1.16-2.843C3.89,2.342,4.838,1.955,5.959,1.955z M54.004,41.992
	h32.029c1.121,0,2.068,0.387,2.842,1.162c0.775,0.773,1.162,1.721,1.162,2.842v32.031c0,1.119-0.387,2.068-1.162,2.842
	c-0.773,0.773-1.721,1.161-2.842,1.161H54.004c-1.121,0-2.068-0.388-2.844-1.161C50.387,80.096,50,79.146,50,78.027V45.996
	c0-1.121,0.387-2.068,1.16-2.842C51.936,42.379,52.883,41.992,54.004,41.992z M58.006,50v24.022h24.023V50H58.006z M98.045,98.045
	H1.956v-8.008h96.089V98.045z"/>
</svg>
