<?xml version="1.0" encoding="utf-8"?>
<!-- Generator: Adobe Illustrator 15.0.0, SVG Export Plug-In . SVG Version: 6.00 Build 0)  -->
<!DOCTYPE svg PUBLIC "-//W3C//DTD SVG 1.1//EN" "http://www.w3.org/Graphics/SVG/1.1/DTD/svg11.dtd">
<svg version="1.1" id="Calque_1" xmlns="http://www.w3.org/2000/svg" xmlns:xlink="http://www.w3.org/1999/xlink" x="0px" y="0px"
	 width="100px" height="100px" viewBox="0 0 100 100" enable-background="new 0 0 100 100" xml:space="preserve">
<path fill="#454545" d="M9.306,98.833H1.167V1.166h8.139V98.833z M21.514,9.307h32.556c1.14,0,2.103,0.394,2.891,1.18
	c0.785,0.787,1.179,1.75,1.179,2.89V45.93c0,1.14-0.394,2.103-1.179,2.889C56.172,49.605,55.209,50,54.069,50H21.514
	c-1.14,0-2.103-0.395-2.89-1.182c-0.786-0.786-1.18-1.749-1.18-2.889V13.376c0-1.14,0.394-2.103,1.18-2.89
	C19.411,9.7,20.374,9.307,21.514,9.307z M25.583,17.441v24.42H50v-24.42H25.583z M21.514,58.139h73.25
	c1.14,0,2.103,0.394,2.891,1.18c0.786,0.787,1.179,1.75,1.179,2.89v32.556c0,1.141-0.393,2.103-1.179,2.891
	c-0.788,0.785-1.751,1.179-2.891,1.179h-73.25c-1.14,0-2.103-0.394-2.89-1.179c-0.786-0.788-1.18-1.75-1.18-2.891V62.208
	c0-1.14,0.394-2.103,1.18-2.89C19.411,58.532,20.374,58.139,21.514,58.139z"/>
</svg>
