<?xml version="1.0" encoding="utf-8"?>
<!-- Generator: Adobe Illustrator 15.0.0, SVG Export Plug-In . SVG Version: 6.00 Build 0)  -->
<!DOCTYPE svg PUBLIC "-//W3C//DTD SVG 1.1//EN" "http://www.w3.org/Graphics/SVG/1.1/DTD/svg11.dtd">
<svg version="1.1" id="Calque_1" xmlns="http://www.w3.org/2000/svg" xmlns:xlink="http://www.w3.org/1999/xlink" x="0px" y="0px"
	 width="100px" height="100px" viewBox="0 0 100 100" enable-background="new 0 0 100 100" xml:space="preserve">
<path fill="#454545" d="M98.043,9.962H1.957V1.955h96.086V9.962z M5.96,17.973h32.028c1.121,0,2.069,0.387,2.843,1.161
	c0.774,0.774,1.161,1.722,1.161,2.843v72.064c0,1.118-0.387,2.065-1.161,2.843c-0.773,0.774-1.722,1.161-2.843,1.161H5.96
	c-1.121,0-2.068-0.387-2.843-1.161c-0.773-0.777-1.161-1.725-1.161-2.843V21.977c0-1.121,0.388-2.069,1.161-2.843
	C3.892,18.36,4.839,17.973,5.96,17.973z M54.004,17.973h32.029c1.121,0,2.068,0.387,2.842,1.161s1.16,1.722,1.16,2.843v32.025
	c0,1.121-0.387,2.068-1.16,2.843c-0.773,0.773-1.721,1.161-2.842,1.161H54.004c-1.121,0-2.068-0.388-2.844-1.161
	C50.387,56.07,50,55.123,50,54.002V21.977c0-1.121,0.387-2.069,1.16-2.843C51.936,18.36,52.883,17.973,54.004,17.973z
	 M58.008,25.973v24.025h24.021V25.973H58.008z"/>
</svg>
