<?xml version="1.0" encoding="utf-8"?>
<!-- Generator: Adobe Illustrator 15.0.0, SVG Export Plug-In . SVG Version: 6.00 Build 0)  -->
<!DOCTYPE svg PUBLIC "-//W3C//DTD SVG 1.1//EN" "http://www.w3.org/Graphics/SVG/1.1/DTD/svg11.dtd">
<svg version="1.1" id="Calque_1" xmlns="http://www.w3.org/2000/svg" xmlns:xlink="http://www.w3.org/1999/xlink" x="0px" y="0px"
	 width="100px" height="100px" viewBox="0 0 100 100" enable-background="new 0 0 100 100" xml:space="preserve">
<path fill="#454545" d="M98.834,98.833h-8.139V1.166h8.139V98.833z M45.931,9.308h32.555c1.139,0,2.104,0.394,2.889,1.18
	c0.787,0.787,1.182,1.75,1.182,2.89V45.93c0,1.139-0.395,2.103-1.182,2.889C80.59,49.606,79.625,50,78.486,50H45.931
	c-1.14,0-2.103-0.394-2.89-1.18s-1.181-1.75-1.181-2.889V13.378c0-1.14,0.394-2.103,1.181-2.89
	C43.829,9.702,44.792,9.308,45.931,9.308z M50,17.44v24.42h24.417V17.44H50z M5.236,58.139h73.25c1.139,0,2.104,0.394,2.889,1.18
	c0.787,0.787,1.182,1.75,1.182,2.89v32.556c0,1.14-0.395,2.103-1.182,2.89c-0.785,0.786-1.75,1.18-2.889,1.18H5.236
	c-1.139,0-2.103-0.394-2.889-1.18c-0.787-0.787-1.181-1.75-1.181-2.89V62.208c0-1.14,0.394-2.103,1.181-2.89
	C3.133,58.532,4.097,58.139,5.236,58.139z"/>
</svg>
