<?xml version="1.0" encoding="utf-8"?>
<!-- Generator: Adobe Illustrator 15.0.0, SVG Export Plug-In . SVG Version: 6.00 Build 0)  -->
<!DOCTYPE svg PUBLIC "-//W3C//DTD SVG 1.1//EN" "http://www.w3.org/Graphics/SVG/1.1/DTD/svg11.dtd">
<svg version="1.1" id="Calque_1" xmlns="http://www.w3.org/2000/svg" xmlns:xlink="http://www.w3.org/1999/xlink" x="0px" y="0px"
	 width="100px" height="100px" viewBox="0 0 100 100" enable-background="new 0 0 100 100" xml:space="preserve">
<path fill="#454545" d="M50,8.573h12.428c1.16,0,2.141,0.4,2.941,1.201s1.201,1.781,1.201,2.941v33.14c0,1.16-0.4,2.141-1.201,2.941
	c-0.801,0.8-1.781,1.202-2.941,1.202H50v8.288h37.284c1.16,0,2.141,0.4,2.941,1.201s1.201,1.781,1.201,2.941v33.142
	c0,1.16-0.4,2.141-1.201,2.941s-1.781,1.201-2.941,1.201H12.716c-1.16,0-2.141-0.4-2.941-1.201s-1.201-1.781-1.201-2.941V62.43
	c0-1.16,0.4-2.141,1.201-2.941s1.781-1.201,2.941-1.201h28.998v-8.288H29.287c-1.16,0-2.141-0.402-2.941-1.202
	c-0.801-0.801-1.205-1.781-1.205-2.941v-33.14c0-1.16,0.404-2.141,1.205-2.941s1.781-1.201,2.941-1.201h12.428V0.286H50V8.573z
	 M33.429,16.855v24.856h24.856V16.855H33.429z"/>
</svg>
