<svg xmlns="http://www.w3.org/2000/svg" viewBox="0 0 100 100">
  <path d="M1.917 50.313q0-15.25 8.75-27.583t22.667-17.5v13.833q-8.583 4.583-13.75 12.917t-5.167 18.333q0 14.75 10.417 25.167t25.167 10.417 25.167-10.417 10.417-25.167q0-10-5.167-18.333t-13.75-12.917v-13.833q13.917 5.167 22.667 17.5t8.75 27.583q0 9.833-3.792 18.708t-10.25 15.333-15.333 10.25-18.708 3.792-18.708-3.792-15.333-10.25-10.25-15.333-3.792-18.708zM41.667 37.813q0 1.75 1.208 2.958t2.958 1.208h8.333q1.75 0 2.958-1.208t1.208-2.958v-33.333q0-1.75-1.208-2.958t-2.958-1.208h-8.333q-1.75 0-2.958 1.208t-1.208 2.958v33.333z" fill="#000000"/>
</svg>
