<svg xmlns="http://www.w3.org/2000/svg" viewBox="0 0 100 100">
  <path fill="#000000" d="M5.559,5.554h88.88c1.248,0,2.295,0.43,3.154,1.289c0.863,0.861,1.293,1.912,1.293,3.156
	s-0.43,2.297-1.293,3.156c-0.859,0.861-1.906,1.291-3.154,1.291h-4.441v17.775h4.441c1.248,0,2.295,0.429,3.154,1.288
	c0.863,0.86,1.293,1.912,1.293,3.155c0,1.246-0.43,2.299-1.293,3.158c-0.859,0.859-1.906,1.288-3.154,1.288h-4.441v17.779h4.441
	c1.248,0,2.295,0.43,3.154,1.289c0.863,0.859,1.293,1.91,1.293,3.156c0,1.244-0.43,2.295-1.293,3.154
	c-0.859,0.861-1.906,1.293-3.154,1.293h-4.441v17.771h4.441c1.248,0,2.295,0.43,3.154,1.291c0.863,0.859,1.293,1.912,1.293,3.154
	c0,1.246-0.43,2.299-1.293,3.158c-0.859,0.859-1.906,1.287-3.154,1.287H5.559c-1.243,0-2.298-0.428-3.157-1.287
	S1.114,91.246,1.114,90c0-1.242,0.429-2.295,1.288-3.154c0.859-0.861,1.914-1.291,3.157-1.291h4.443V67.783H5.559
	c-1.243,0-2.298-0.432-3.157-1.293c-0.859-0.859-1.288-1.91-1.288-3.154c0-1.246,0.429-2.297,1.288-3.156s1.914-1.289,3.157-1.289
	h4.443V41.112H5.559c-1.243,0-2.298-0.429-3.157-1.288s-1.288-1.912-1.288-3.158c0-1.243,0.429-2.295,1.288-3.155
	c0.859-0.859,1.914-1.288,3.157-1.288h4.443V14.447H5.559c-1.243,0-2.298-0.43-3.157-1.291C1.542,12.296,1.114,11.244,1.114,10
	s0.429-2.295,1.288-3.156C3.261,5.984,4.316,5.554,5.559,5.554z"/>
</svg>
