<?xml version="1.0" encoding="utf-8"?>
<!-- Generator: Adobe Illustrator 15.0.0, SVG Export Plug-In . SVG Version: 6.00 Build 0)  -->
<!DOCTYPE svg PUBLIC "-//W3C//DTD SVG 1.1//EN" "http://www.w3.org/Graphics/SVG/1.1/DTD/svg11.dtd">
<svg version="1.1" id="Calque_1" xmlns="http://www.w3.org/2000/svg" xmlns:xlink="http://www.w3.org/1999/xlink" x="0px" y="0px"
	 width="100px" height="100px" viewBox="0 0 100 100" enable-background="new 0 0 100 100" xml:space="preserve">
<path fill="#454545" d="M62.39,33.483h24.774v42.942L58.26,47.523l-45.42,45.42V2.516c0-0.551,0.207-1.033,0.619-1.447
	c0.416-0.414,0.896-0.621,1.449-0.621h47.484V33.48L62.39,33.483z M87.164,25.226H70.648V8.709L87.164,25.226z M75.767,83.032H62.39
	V99.55h-8.259V83.032H40.753L58.26,65.526L75.767,83.032z M44.221,99.55H14.904c-0.549,0-1.033-0.207-1.445-0.619
	c-0.416-0.417-0.623-0.897-0.623-1.449v-4.542h31.382v6.606L44.221,99.55z M87.164,92.943v4.542c0,0.548-0.207,1.032-0.62,1.445
	c-0.415,0.415-0.896,0.622-1.447,0.622H72.296v-6.606h14.865L87.164,92.943z"/>
</svg>
