<svg xmlns="http://www.w3.org/2000/svg" viewBox="0 0 100 100">
  <path fill="#000000" d="M14.152,36.557c3.705,0,6.869,1.314,9.501,3.939c2.633,2.633,3.945,5.796,3.941,9.505
	c-0.002,3.702-1.315,6.873-3.941,9.499c-2.625,2.628-5.792,3.944-9.501,3.944c-3.708,0-6.876-1.316-9.502-3.944
	c-2.626-2.626-3.938-5.797-3.941-9.499c-0.003-3.709,1.31-6.872,3.941-9.505C7.282,37.871,10.446,36.557,14.152,36.557z
	 M49.999,36.557c3.705,0,6.869,1.314,9.501,3.939c2.633,2.633,3.945,5.796,3.941,9.505c-0.002,3.702-1.316,6.873-3.941,9.499
	c-2.625,2.628-5.793,3.944-9.501,3.944c-3.709,0-6.876-1.316-9.502-3.944c-2.625-2.626-3.938-5.797-3.941-9.499
	c-0.004-3.709,1.31-6.872,3.941-9.505C43.129,37.871,46.293,36.557,49.999,36.557z M85.85,36.557c3.701,0,6.871,1.314,9.5,3.939
	c2.629,2.633,3.941,5.796,3.941,9.505c0,3.702-1.316,6.873-3.941,9.499c-2.625,2.628-5.793,3.944-9.5,3.944
	c-3.709,0-6.877-1.316-9.502-3.944c-2.627-2.626-3.943-5.797-3.943-9.499c0-3.709,1.314-6.872,3.943-9.505
	C78.975,37.871,82.146,36.557,85.85,36.557z"/>
</svg>
