<?xml version="1.0" encoding="utf-8"?>
<!-- Generator: Adobe Illustrator 15.0.0, SVG Export Plug-In . SVG Version: 6.00 Build 0)  -->
<!DOCTYPE svg PUBLIC "-//W3C//DTD SVG 1.1//EN" "http://www.w3.org/Graphics/SVG/1.1/DTD/svg11.dtd">
<svg version="1.1" id="Calque_1" xmlns="http://www.w3.org/2000/svg" xmlns:xlink="http://www.w3.org/1999/xlink" x="0px" y="0px"
	 width="100px" height="100px" viewBox="0 0 100 100" enable-background="new 0 0 100 100" xml:space="preserve">
<path fill="#454545" d="M63.443,14.152c0,3.705-1.314,6.869-3.939,9.501c-2.633,2.633-5.796,3.945-9.505,3.941
	c-3.702-0.002-6.873-1.315-9.499-3.941c-2.628-2.625-3.944-5.792-3.944-9.501c0-3.708,1.316-6.876,3.944-9.502
	c2.626-2.626,5.797-3.938,9.499-3.941c3.709-0.003,6.872,1.31,9.505,3.941C62.129,7.282,63.443,10.446,63.443,14.152z
	 M63.443,49.999c0,3.704-1.314,6.868-3.939,9.501c-2.633,2.633-5.796,3.945-9.505,3.941c-3.702-0.002-6.873-1.316-9.499-3.941
	c-2.628-2.625-3.944-5.793-3.944-9.501c0-3.709,1.316-6.876,3.944-9.502c2.626-2.625,5.797-3.938,9.499-3.941
	c3.709-0.004,6.872,1.31,9.505,3.941C62.129,43.13,63.443,46.294,63.443,49.999z M63.443,85.85c0,3.701-1.314,6.871-3.939,9.5
	c-2.633,2.629-5.796,3.941-9.505,3.941c-3.702,0-6.873-1.316-9.499-3.941c-2.628-2.625-3.944-5.793-3.944-9.5
	c0-3.709,1.316-6.877,3.944-9.502c2.626-2.627,5.797-3.943,9.499-3.943c3.709,0,6.872,1.314,9.505,3.943
	C62.129,78.975,63.443,82.146,63.443,85.85z"/>
</svg>
