<?xml version="1.0" encoding="utf-8"?>
<!-- Generated by IcoMoon.io -->
<!DOCTYPE svg PUBLIC "-//W3C//DTD SVG 1.1//EN" "http://www.w3.org/Graphics/SVG/1.1/DTD/svg11.dtd">
<svg version="1.1" xmlns="http://www.w3.org/2000/svg" xmlns:xlink="http://www.w3.org/1999/xlink" width="109" height="100" viewBox="0 0 109 100">
<g>
</g>
	<path d="M2.917 70.625q-1.083 7.917 2.917 14.417 2.917 4.75 7.833 7.417t10.75 2.667q5.25 0 9.917-2.333 2.75-1.333 5.417-3.375t4.375-3.792 4.958-5.333q3.333-3.667 4.75-5.083l32.833-32.833q2.917-2.917 3.917-7t-0.25-8q-2.25-7.25-9.75-8.667-1.667-0.167-2.417-0.167-3.833 0-6.542 1.375t-5.625 4.292l-33 33.583 5.75 5.583 31.417-31.083q1.667-1.833 3.25-3.167 1.917-1.917 4.167-1.917 3.167 0 4.417 3 1.333 3.25-1.667 6.25l-45.583 45.583q-4.333 4.333-10.417 4.333-4.583 0-8.333-2.75t-4.5-8q-0.417-2.917 0.208-5.5t2.625-5.25 3.5-4.167 4.667-4.5q2-1.75 3.667-3.417l29-29q4.333-4.333 6.875-6.625t7-4.5 8.958-2.208q2.083 0 4 0.333 7.917 1.417 12.833 7.875t4.25 14.625q-0.583 8.417-8.167 16l-21 20.75-21.083 21.333 0.583 0.583 5.75 5 43.083-42.583q5.583-5.583 7.917-13.083t0.917-15.25q-1.333-7.25-5.583-12.833t-10.833-8.583q-5.75-2.75-12.667-2.75-8.917 0-16.417 4.583-3.333 2-9.25 7.917l-42.667 42.667q-5.667 5.667-6.75 13.583z" fill="#000000" />
</svg>
