<?xml version="1.0" encoding="utf-8"?>
<!-- Generator: Adobe Illustrator 15.0.0, SVG Export Plug-In . SVG Version: 6.00 Build 0)  -->
<!DOCTYPE svg PUBLIC "-//W3C//DTD SVG 1.1//EN" "http://www.w3.org/Graphics/SVG/1.1/DTD/svg11.dtd">
<svg version="1.1" id="Calque_1" xmlns="http://www.w3.org/2000/svg" xmlns:xlink="http://www.w3.org/1999/xlink" x="0px" y="0px"
	 width="100px" height="100px" viewBox="0 0 100 100" enable-background="new 0 0 100 100" xml:space="preserve">
<path fill="#454545" d="M31.671,1.063h8.9c1.247,0,2.297,0.431,3.157,1.289c0.864,0.862,1.294,1.916,1.294,3.161v4.448h4.447
	c1.244,0,2.301,0.431,3.161,1.289c0.861,0.863,1.289,1.916,1.289,3.163v8.898c0,1.245-0.428,2.298-1.289,3.159
	c-0.859,0.861-1.917,1.291-3.161,1.291H22.776c-1.243,0-2.301-0.43-3.161-1.291c-0.859-0.861-1.29-1.914-1.29-3.159v-8.898
	c0-1.247,0.431-2.3,1.29-3.163c0.86-0.858,1.918-1.289,3.161-1.289h4.448V5.513c0-1.245,0.43-2.299,1.293-3.161
	c0.86-0.858,1.91-1.289,3.158-1.289H31.671z M62.814,23.304V9.957c2.43,0,4.521,0.875,6.271,2.627
	c1.754,1.75,2.627,3.84,2.627,6.273v44.49H53.918v26.693h17.795c0,2.135-0.209,3.839-0.627,5.113
	c-0.412,1.274-1.109,2.167-2.092,2.669c-0.977,0.507-1.85,0.816-2.625,0.934c-0.77,0.122-1.955,0.181-3.559,0.181H9.422
	c-2.431,0-4.522-0.877-6.272-2.627c-1.75-1.753-2.626-3.845-2.626-6.276V18.854c0-2.432,0.876-4.523,2.626-6.275
	C4.9,10.83,6.992,9.955,9.422,9.955v13.346c0,3.678,1.304,6.822,3.914,9.434c2.608,2.609,5.755,3.916,9.433,3.912h26.695
	c3.674,0,6.823-1.303,9.432-3.912c2.611-2.609,3.914-5.754,3.914-9.434L62.814,23.304z M99.477,76.695L80.611,95.555V81.14H62.816
	v-8.896h17.795V57.827L99.477,76.695z"/>
</svg>
