<?xml version="1.0" encoding="utf-8"?>
<!-- Generated by IcoMoon.io -->
<!DOCTYPE svg PUBLIC "-//W3C//DTD SVG 1.1//EN" "http://www.w3.org/Graphics/SVG/1.1/DTD/svg11.dtd">
<svg version="1.1" xmlns="http://www.w3.org/2000/svg" xmlns:xlink="http://www.w3.org/1999/xlink" width="100" height="100" viewBox="0 0 100 100">
<g>
</g>
	<path d="M16.667 83.125q0 1.75 1.208 2.958t2.958 1.208h16.667q1.75 0 2.958-1.208t1.208-2.958v-66.667q0-1.75-1.208-2.958t-2.958-1.208h-16.667q-1.75 0-2.958 1.208t-1.208 2.958v66.667zM50 83.125q0 1.75 1.208 2.958t2.958 1.208h16.667q1.75 0 2.958-1.208t1.208-2.958v-66.667q0-1.75-1.208-2.958t-2.958-1.208h-16.667q-1.75 0-2.958 1.208t-1.208 2.958v66.667z" fill="#000000" />
</svg>
