<svg xmlns="http://www.w3.org/2000/svg" viewBox="0 0 100 100">
  <path fill="#000000" d="M50,1.868c4.075,0,7.553,1.439,10.435,4.32c2.878,2.879,4.319,6.356,4.319,10.432
	c0,4.078-1.441,7.556-4.319,10.434c-2.882,2.881-6.359,4.32-10.435,4.32c-4.076,0-7.553-1.439-10.434-4.32
	c-2.881-2.878-4.32-6.355-4.32-10.434c0-4.075,1.439-7.553,4.32-10.432C42.447,3.307,45.924,1.868,50,1.868z M50.163,33.088h3.749
	c1.848,0,3.356,0.773,4.524,2.321c1.169,1.548,1.752,3.899,1.752,7.051c0,4.13,1.062,9.102,3.18,14.917H36.957
	c2.121-5.814,3.18-10.787,3.18-14.917c0-3.151,0.586-5.503,1.752-7.051c1.17-1.548,2.703-2.321,4.605-2.321H50.163z M21.471,65.527
	h57.058c1.142,0,2.107,0.395,2.894,1.184c0.789,0.787,1.183,1.752,1.183,2.893s-0.394,2.105-1.183,2.895
	c-0.786,0.787-1.752,1.182-2.894,1.182H77.47l11.244,8.15H11.278l11.167-8.15h-0.978c-1.142,0-2.105-0.395-2.894-1.182
	c-0.789-0.789-1.183-1.754-1.183-2.895s0.394-2.105,1.183-2.893c0.788-0.789,1.752-1.184,2.894-1.184H21.471z M5.169,89.982h89.662
	c1.138,0,2.103,0.393,2.894,1.182c0.788,0.787,1.182,1.752,1.182,2.893v4.076H1.094v-4.076c0-1.141,0.395-2.105,1.182-2.893
	C3.063,90.375,4.027,89.982,5.169,89.982z"/>
</svg>
