<svg xmlns="http://www.w3.org/2000/svg" viewBox="0 0 100 100"><path d="M65.549 0v24.653h24.94zM63.446 60.277h-1.995v-1.971H50.995v20.696h10.456v-2.129h1.995v-2.065h2.079v-12.44h-2.079v-2.091zm-1.995 14.546h-2.129v2.05h-4.218V60.277h4.218v2.089h2.129v12.457zM44.737 58.306H32.28v20.696h4.179v-8.278h8.357v-2.168h1.971v-8.239h-2.05v-2.011zm-2.011 10.249h-6.268v-8.239h6.268v8.239z"/><path d="M24.273 54.105l66.216-.074V28.738H61.68V0H11.501v99.774h78.988V83.268l-66.216.074V54.105zm-.353-14.507V20.801h8.332v-8.359h20.822v20.876h-8.332v8.359H23.92v-2.079z"/><path d="M42.663 33.318H32.208V22.88h-6.21v16.718h16.665zM69.748 58.306v20.696h4.125v-8.319h8.283v-2.029h-8.283v-8.43h8.283v-1.918h-8.283z"/><path d="M50.995 31.239V14.521H34.331v16.718h.001zM90.564 54.031h-.075v29.237h.075z"/></svg>
