<?xml version="1.0" encoding="utf-8"?>
<!-- Generated by IcoMoon.io -->
<!DOCTYPE svg PUBLIC "-//W3C//DTD SVG 1.1//EN" "http://www.w3.org/Graphics/SVG/1.1/DTD/svg11.dtd">
<svg version="1.1" xmlns="http://www.w3.org/2000/svg" xmlns:xlink="http://www.w3.org/1999/xlink" width="100" height="100" viewBox="0 0 100 100">
<g>
</g>
	<path d="M65.549 0v24.653h24.94z" fill="#000000" />
	<path d="M63.446 60.277h-1.995v-1.971h-10.456v20.696h10.456v-2.129h1.995v-2.065h2.079v-12.44h-2.079v-2.091zM61.451 74.823h-2.129v2.050h-4.218v-16.596h4.218v2.089h2.129v12.457z" fill="#000000" />
	<path d="M44.737 58.306h-12.457v20.696h4.179v-8.278h8.357v-2.168h1.971v-8.239h-2.050v-2.011zM42.726 68.555h-6.268v-8.239h6.268v8.239z" fill="#000000" />
	<path d="M24.273 54.105l66.216-0.074v-25.293h-28.809v-28.738h-50.179v99.774h78.988v-16.506l-66.216 0.074v-29.237zM23.92 39.598v-18.797h8.332v-8.359h20.822v20.876h-8.332v8.359h-20.822v-2.079z" fill="#000000" />
	<path d="M42.663 33.318h-10.455v-10.438h-6.21v16.718h16.665z" fill="#000000" />
	<path d="M69.748 58.306v20.696h4.125v-8.319h8.283v-2.029h-8.283v-8.43h8.283v-1.918h-8.283z" fill="#000000" />
	<path d="M50.995 31.239v-16.718h-16.664v16.718h0.001z" fill="#000000" />
	<path d="M90.564 54.031h-0.075v29.237h0.075z" fill="#000000" />
</svg>
