<?xml version="1.0" encoding="utf-8"?>
<!-- Generated by IcoMoon.io -->
<!DOCTYPE svg PUBLIC "-//W3C//DTD SVG 1.1//EN" "http://www.w3.org/Graphics/SVG/1.1/DTD/svg11.dtd">
<svg version="1.1" xmlns="http://www.w3.org/2000/svg" xmlns:xlink="http://www.w3.org/1999/xlink" width="100" height="100" viewBox="0 0 100 100">
<g>
</g>
	<path d="M18.75 87.695v-74.453q0-1.641 2.344-3.594t6.328-3.75 10.078-2.969 12.734-1.172 12.656 1.172 9.922 2.969 6.172 3.75 2.266 3.594v74.453q0 3.203-2.305 5.508t-5.508 2.305h-46.875q-3.203 0-5.508-2.305t-2.305-5.508zM26.563 72.070h46.875v-54.688h-46.875v54.688zM41.875 83.789q0 3.359 2.383 5.742t5.742 2.383 5.742-2.383 2.383-5.742-2.383-5.742-5.742-2.383-5.742 2.383-2.383 5.742z" fill="#000000" />
</svg>
