<svg xmlns="http://www.w3.org/2000/svg" viewBox="0 0 100 100">
  <path d="M0 91.458v-17.667q0-1.667 0.875-3.792t2.042-3.292l30.417-25.25v-4.167q0-0.333 0.083-0.875t1-1.875 2.5-2.375 5-1.917 8.083-0.875 8.083 0.833 5 1.958 2.5 2.292 1 2l0.083 0.833v4.167l30.417 25.25q1.167 1.167 2.042 3.292t0.875 3.792v17.667q0 1.75-1.208 2.958t-2.958 1.208h-91.667q-1.667 0-2.917-1.208t-1.25-2.958zM0 36.292q0 1.75 1.208 2.792t2.875 0.708l16.833-2.75q1.667-0.333 2.875-1.75t1.208-3.167v-12.167q11.75-2 25-2t25 2v12.167q0 1.75 1.208 3.167t2.875 1.75l16.833 2.75q1.667 0.333 2.875-0.708t1.208-2.792v-16.667q-0.5-0.667-1.583-1.708t-5.25-3.75-9.333-4.75-14.25-3.75-19.583-1.708q-7.667 0-14.583 0.875t-11.792 2.25-9.042 3.042-6.792 3.333-4.458 3.042-2.583 2.292l-0.75 0.833v16.667z" fill="#000000"/>
</svg>
