<?xml version="1.0" encoding="utf-8"?>
<!-- Generated by IcoMoon.io -->
<!DOCTYPE svg PUBLIC "-//W3C//DTD SVG 1.1//EN" "http://www.w3.org/Graphics/SVG/1.1/DTD/svg11.dtd">
<svg version="1.1" xmlns="http://www.w3.org/2000/svg" xmlns:xlink="http://www.w3.org/1999/xlink" width="100" height="100" viewBox="0 0 100 100">
<g>
</g>
	<path d="M0 91.958v-84.333q0-1.5 1.083-2.583t2.583-1.083h92.667q1.583 0 2.625 1.083t1.042 2.583v84.333q0 1.5-1.042 2.583t-2.625 1.083h-92.667q-1.5 0-2.583-1.083t-1.083-2.583zM8.333 73.708l20.583-15.167 24.833 10.917-6.167-13 24.417-26.5 19.667 24v-41.667h-83.333v61.417zM17.333 33.125q0-4.667 3.25-7.917t7.917-3.25 7.917 3.25 3.25 7.917-3.25 7.917-7.917 3.25-7.917-3.25-3.25-7.917z" fill="#000000" />
</svg>
