<svg xmlns="http://www.w3.org/2000/svg" viewBox="0 0 100 100">
  <path fill="#000000" d="M50,1.34c3.4,0,6.306,1.207,8.722,3.621c2.41,2.414,3.619,5.32,3.619,8.721v27.894l29.867,26.74
	c0.822,0.768,1.533,1.822,2.139,3.167c0.604,1.342,0.906,2.564,0.906,3.663v3.374c0,1.094-0.328,1.823-0.988,2.18
	c-0.658,0.36-1.455,0.21-2.387-0.449L62.342,59.764V81.4c5.482,5.103,8.229,8.202,8.229,9.297v5.268c0,1.153-0.357,1.948-1.07,2.387
	c-0.711,0.437-1.592,0.41-2.633-0.084L50,87.738L33.132,98.268c-1.041,0.494-1.922,0.521-2.632,0.084
	c-0.714-0.438-1.069-1.233-1.069-2.387v-5.268c0-1.095,2.744-4.194,8.227-9.297V59.764L8.121,80.25
	c-0.932,0.659-1.729,0.81-2.387,0.449c-0.66-0.356-0.987-1.086-0.987-2.18v-3.374c0-1.099,0.302-2.321,0.905-3.663
	c0.605-1.345,1.315-2.401,2.139-3.167l29.867-26.74V13.682c0-3.4,1.209-6.307,3.619-8.721C43.694,2.547,46.599,1.34,50,1.34z"/>
</svg>
