<svg xmlns="http://www.w3.org/2000/svg" viewBox="0 0 100 100">
  <path d="M16.461,18.546C-1.883,36.89-1.883,66.627,16.46,84.97s48.08,18.343,66.423-0.001c18.342-18.342,18.342-48.079-0.001-66.422
	C64.54,0.204,34.803,0.204,16.461,18.546z M75.712,47.392c2.658,0.001,4.814,1.953,4.817,4.364c0.002,2.411-2.157,4.364-4.813,4.363
	l-21.68,0.001l0.001,21.678c-0.005,2.652-1.956,4.81-4.365,4.814c-2.409-0.001-4.361-2.16-4.364-4.817V56.12H23.635
	c-2.658-0.003-4.814-1.953-4.817-4.363c-0.001-2.413,2.157-4.365,4.813-4.366l21.678,0.001l0.001-21.68
	c0.003-2.651,1.954-4.807,4.364-4.812c2.408,0,4.361,2.158,4.363,4.817v21.675H75.712z"/>
</svg>
