<svg xmlns="http://www.w3.org/2000/svg" viewBox="0 0 100 100">
  <path d="M1.563 90.667v-56.51h16.146l8.073 16.146h48.438l8.073-16.146h16.146v56.51h-16.146v-16.146h-64.583v16.146h-16.146zM21.987 31.816l3.229 10.010h47.792l5.005-10.010-7.588-27.932q-0.162-0.888-0.807-1.453t-1.453-0.565h-36.328q-0.807 0-1.453 0.565t-0.807 1.453zM24.247 96.803l3.068-12.271q0.162-0.807 0.928-1.372t1.574-0.565h40.365q0.807 0 1.574 0.565t0.928 1.372l3.068 12.271q0.162 0.807-0.283 1.372t-1.251 0.565h-48.438q-0.807 0-1.251-0.565t-0.283-1.372z" fill="#000000"/>
</svg>
