<?xml version="1.0" encoding="utf-8"?>
<!-- Generated by IcoMoon.io -->
<!DOCTYPE svg PUBLIC "-//W3C//DTD SVG 1.1//EN" "http://www.w3.org/Graphics/SVG/1.1/DTD/svg11.dtd">
<svg version="1.1" xmlns="http://www.w3.org/2000/svg" xmlns:xlink="http://www.w3.org/1999/xlink" width="100" height="100" viewBox="0 0 100 100">
<g>
</g>
	<path d="M0 100.313h41.667v-41.667h-16.667v-8.333h-8.333v8.333h-16.667v41.667zM0 50.313h8.333v-8.333h33.333v-8.333h8.333v-8.333h-8.333v-25h-41.667v50zM8.333 91.979v-25h25v25h-25zM8.333 33.646v-25h25v25h-25zM16.667 83.646v-8.333h8.333v8.333h-8.333zM16.667 25.313h8.333v-8.333h-8.333v8.333zM41.667 58.646v-8.333h25v25h16.667v8.333h-8.333v8.333h-16.667v-8.333h-8.333v-8.333h8.333v-16.667h-16.667zM50 100.313v-8.333h8.333v8.333h-8.333zM50 16.979h8.333v25h16.667v25h25v-16.667h-16.667v-8.333h16.667v-41.667h-50v16.667zM66.667 33.646v-25h25v25h-25zM75 100.313v-8.333h25v8.333h-25zM75 25.313v-8.333h8.333v8.333h-8.333zM91.667 83.646v-8.333h8.333v8.333h-8.333z" fill="#000000" />
</svg>
