<svg xmlns="http://www.w3.org/2000/svg" viewBox="0 0 100 100">
  <path fill="#000000" d="M50,1.089c2.007,0,3.725,0.739,5.154,2.22c1.427,1.48,2.142,3.248,2.145,5.305H42.7
	c0-2.057,0.715-3.824,2.145-5.305s3.148-2.22,5.152-2.22H50z M38.187,16.139h23.628c0.901,1.855,1.354,3.736,1.354,5.643
	c0,0.402-0.075,1.029-0.226,1.882h24.681c2.057,0,3.173,0.414,3.35,1.241c0.175,0.828-0.59,1.793-2.296,2.897L75.509,38.713H24.491
	L11.094,27.802c-1.706-1.104-2.433-2.069-2.182-2.897c0.247-0.824,1.401-1.238,3.458-1.241h24.684
	c-0.146-0.853-0.223-1.479-0.223-1.882C36.831,19.875,37.283,17.995,38.187,16.139z M23.663,46.238h52.673
	c1.054,0,1.944,0.364,2.672,1.091c0.727,0.728,1.091,1.618,1.091,2.672c0,1.052-0.364,1.943-1.091,2.671
	c-0.728,0.727-1.618,1.09-2.672,1.09H65.049v15.051l20.69,15.053H14.255l20.689-15.053V53.762H23.657
	c-1.054,0-1.944-0.363-2.672-1.09c-0.727-0.729-1.091-1.619-1.091-2.671c0-1.054,0.364-1.944,1.091-2.672
	c0.728-0.727,1.618-1.091,2.672-1.091H23.663z M8.614,91.387h82.771c1.05,0,1.94,0.363,2.672,1.09
	c0.727,0.729,1.091,1.619,1.091,2.672v3.762H4.852v-3.762c0-1.053,0.363-1.943,1.091-2.672C6.67,91.75,7.561,91.387,8.614,91.387z"/>
</svg>
