<svg xmlns="http://www.w3.org/2000/svg" viewBox="0 0 100 100">
  <path fill="#000000" d="M50,0.708c-27.222,0-49.289,22.063-49.289,49.289c0,27.229,22.067,49.295,49.289,49.295
	c27.222,0,49.289-22.069,49.289-49.295C99.289,22.778,77.223,0.708,50,0.708z M56,79.273h-9.93V68.717H56V79.273z M68.146,44.188
	c-0.969,2.129-2.184,3.667-3.313,4.941c-1.256,1.414-2.363,2.753-6.168,5.996c-1.059,0.903-1.846,1.613-2.154,2.388
	c-0.313,0.775-0.484,2.46-0.512,5.046l-9.93,0.154v-5.706c0-1.91,0.389-3.419,1.161-4.519c0.774-1.101,2.47-2.663,5.089-4.687
	c4.002-3.071,6-6.323,6-9.759c0-2.59-0.783-4.648-2.344-6.168c-1.559-1.517-3.598-2.283-6.108-2.283
	c-5.805,0-9.225,4.009-10.266,12.039l-9.207-1.645c0.562-6.001,2.775-10.711,6.65-14.135c3.875-3.422,8.512-5.137,13.924-5.137
	c5.377,0,9.831,1.602,13.352,4.802c3.52,3.197,5.283,7.169,5.283,11.932c0.006,2.364-0.484,4.61-1.453,6.736L68.146,44.188z"/>
</svg>
