<svg xmlns="http://www.w3.org/2000/svg" viewBox="0 0 100 100">
  <path d="M3.438 50q0-12.656 6.25-23.359t16.953-16.953 23.359-6.25 23.359 6.25 16.953 16.953 6.25 23.359-6.25 23.359-16.953 16.953-23.359 6.25-23.359-6.25-16.953-16.953-6.25-23.359zM17.656 50q0 13.359 9.492 22.852t22.852 9.492 22.852-9.492 9.492-22.852-9.492-22.852-22.852-9.492-22.852 9.492-9.492 22.852zM34.844 50q0-6.25 4.453-10.703t10.703-4.453 10.703 4.453 4.453 10.703-4.453 10.703-10.703 4.453-10.703-4.453-4.453-10.703z" fill="#000000"/>
</svg>
