<?xml version="1.0" encoding="utf-8"?>
<!-- Generated by IcoMoon.io -->
<!DOCTYPE svg PUBLIC "-//W3C//DTD SVG 1.1//EN" "http://www.w3.org/Graphics/SVG/1.1/DTD/svg11.dtd">
<svg version="1.1" xmlns="http://www.w3.org/2000/svg" xmlns:xlink="http://www.w3.org/1999/xlink" width="100" height="100" viewBox="0 0 100 100">
<g>
</g>
	<path d="M1.917 50.313q0-9.833 3.792-18.708t10.25-15.333 15.333-10.25 18.708-3.792q16.5 0 29.583 10.167l12.083-12.083v33.333h-33.333l12.25-12.25q-9.333-6.667-20.583-6.667-14.75 0-25.167 10.417t-10.417 25.167h-12.5zM8.333 100.313v-33.333h33.333l-12.25 12.25q9.333 6.667 20.583 6.667 14.75 0 25.167-10.417t10.417-25.167h12.5q0 9.833-3.792 18.708t-10.25 15.333-15.333 10.25-18.708 3.792q-16.5 0-29.583-10.167z" fill="#000000" />
</svg>
