<svg xmlns="http://www.w3.org/2000/svg" viewBox="0 0 100 100">
  <path fill="#000000" d="M50,0.725c6.67,0,13.047,1.31,19.137,3.921c6.087,2.611,11.327,6.113,15.718,10.504
	c4.391,4.393,7.895,9.63,10.507,15.713C97.973,36.95,99.275,43.33,99.275,50s-1.303,13.051-3.914,19.137
	c-2.612,6.084-6.116,11.324-10.507,15.718s-9.631,7.895-15.718,10.507c-6.084,2.608-12.46,3.914-19.134,3.914
	c-6.673,0.007-13.049-1.303-19.133-3.914c-6.088-2.619-11.328-6.116-15.721-10.507c-4.395-4.391-7.895-9.628-10.504-15.714
	c-2.611-6.087-3.918-12.468-3.921-19.138c0-6.67,1.306-13.049,3.921-19.133c2.611-6.091,6.116-11.328,10.504-15.721
	c4.39-4.391,9.63-7.893,15.721-10.504c6.086-2.611,12.467-3.921,19.133-3.921H50z M50,14.898c-6.338,0-12.2,1.569-17.593,4.71
	c-5.391,3.139-9.656,7.404-12.799,12.799C16.468,37.8,14.898,43.665,14.898,50c0.003,6.335,1.573,12.199,4.71,17.594
	c3.139,5.393,7.404,9.659,12.799,12.792c5.396,3.14,11.262,4.709,17.593,4.716c6.331,0.003,12.197-1.569,17.594-4.716
	c5.393-3.146,9.659-7.409,12.792-12.792c3.14-5.388,4.709-11.249,4.716-17.594s-1.563-12.206-4.716-17.593
	c-3.146-5.384-7.412-9.65-12.792-12.799C62.21,16.462,56.345,14.892,50,14.898z M66.675,41.663V50l-4.169,4.169l8.337,8.337v4.169
	h-8.337l-8.337-8.337H41.663v8.337h-8.338v-33.35h25.012L66.675,41.663z M41.663,41.663V50h16.674v-8.337H41.663z"/>
</svg>
