<svg xmlns="http://www.w3.org/2000/svg" viewBox="0 0 100 100">
  <path fill="#000000" d="M50,0.349C22.577,0.349,0.349,22.577,0.349,50S22.577,99.651,50,99.651S99.651,77.423,99.651,50
	S77.423,0.349,50,0.349z M72.729,66.202c1.986,1.986,2.139,5.059,0.339,6.862c-1.802,1.804-4.875,1.651-6.86-0.335L50.004,56.524
	L33.797,72.729c-1.984,1.979-5.055,2.134-6.858,0.335c-1.802-1.801-1.647-4.876,0.337-6.862L43.479,50L27.275,33.797
	c-1.984-1.984-2.139-5.058-0.337-6.861c1.801-1.805,4.874-1.65,6.858,0.334l16.207,16.205L66.208,27.27
	c1.985-1.979,5.056-2.133,6.86-0.334c1.8,1.801,1.647,4.877-0.339,6.861L56.527,50L72.729,66.202z"/>
</svg>
