<?xml version="1.0" encoding="utf-8"?>
<!-- Generated by IcoMoon.io -->
<!DOCTYPE svg PUBLIC "-//W3C//DTD SVG 1.1//EN" "http://www.w3.org/Graphics/SVG/1.1/DTD/svg11.dtd">
<svg version="1.1" xmlns="http://www.w3.org/2000/svg" xmlns:xlink="http://www.w3.org/1999/xlink" width="100" height="100" viewBox="0 0 100 100">
<g>
</g>
	<path d="M3.438 50q0-12.656 6.25-23.359t16.953-16.953 23.359-6.25 23.359 6.25 16.953 16.953 6.25 23.359-6.25 23.359-16.953 16.953-23.359 6.25-23.359-6.25-16.953-16.953-6.25-23.359zM17.656 50q0 13.359 9.492 22.852t22.852 9.492 22.852-9.492 9.492-22.852-9.492-22.852-22.852-9.492-22.852 9.492-9.492 22.852zM30.938 60.547l10.547-10.547-10.547-10.547 8.516-8.516 10.547 10.547 10.547-10.547 8.516 8.516-10.547 10.547 10.547 10.547-8.516 8.516-10.547-10.547-10.547 10.547z" fill="#000000" />
</svg>
