<?xml version="1.0" encoding="utf-8"?>
<!-- Generated by IcoMoon.io -->
<!DOCTYPE svg PUBLIC "-//W3C//DTD SVG 1.1//EN" "http://www.w3.org/Graphics/SVG/1.1/DTD/svg11.dtd">
<svg version="1.1" xmlns="http://www.w3.org/2000/svg" xmlns:xlink="http://www.w3.org/1999/xlink" width="100" height="100" viewBox="0 0 100 100">
<g>
</g>
	<path d="M1.917 50.313q0 9.833 3.792 18.708t10.25 15.333 15.333 10.25 18.708 3.792 18.708-3.792 15.333-10.25 10.25-15.333 3.792-18.708h-12.5q0 14.75-10.417 25.167t-25.167 10.417-25.167-10.417-10.417-25.167 10.417-25.167 25.167-10.417q11.333 0 20.5 6.75l-12.167 12.167h33.333v-33.333l-12.083 12.083q-13.083-10.167-29.583-10.167-9.833 0-18.708 3.792t-15.333 10.25-10.25 15.333-3.792 18.708z" fill="#000000" />
</svg>
