<svg xmlns="http://www.w3.org/2000/svg" viewBox="0 0 100 100">
  <path d="M5.125,34.184V0.851l12.083,12.083C25.93,6.156,35.791,2.767,46.791,2.767c6.555,0,12.791,1.264,18.708,3.792
	c5.917,2.528,11.028,5.945,15.333,10.25c4.305,4.305,7.722,9.416,10.25,15.333c2.528,5.917,3.792,12.153,3.792,18.708l0.001,0.001
	h-0.003c0,0.036,0.003,0.071,0.003,0.107c0,26.615-21.576,48.191-48.191,48.191c-11.067,0-21.255-3.74-29.39-10.012l8.337-9.381
	c5.902,4.322,13.177,6.879,21.053,6.879c19.704,0,35.677-15.973,35.677-35.677c0-9.385-3.629-17.918-9.553-24.287l0.045-0.05
	c-0.294-0.314-0.587-0.628-0.895-0.936c-6.945-6.945-15.334-10.417-25.167-10.417c-7.5,0-14.361,2.222-20.583,6.667l12.25,12.25
	H5.125z"/>
</svg>
