<svg xmlns="http://www.w3.org/2000/svg" viewBox="0 0 100 100">
  <path fill="#000000" d="M34.979,0.752h28.728c3.666,0,6.949,0.356,9.85,1.068c2.902,0.708,5.252,1.559,7.058,2.542
	c1.809,0.987,3.366,2.341,4.682,4.065c1.311,1.725,2.27,3.271,2.872,4.637s1.064,3.129,1.395,5.289
	c0.327,2.165,0.507,3.822,0.536,4.971c0.025,1.147,0.038,2.709,0.038,4.678v2.709c0,1.969-0.013,3.531-0.038,4.678
	c-0.026,1.152-0.205,2.818-0.536,5.008c-0.33,2.191-0.799,3.967-1.395,5.336c-0.603,1.369-1.559,2.928-2.872,4.678
	c-1.315,1.751-2.876,3.133-4.682,4.148c-1.802,1.014-4.155,1.873-7.058,2.585c-2.9,0.712-6.184,1.068-9.85,1.068h-14.61
	l-0.164,8.207h23.641c0.545,0,0.9,0.164,1.064,0.491c0.166,0.329,0.083,0.711-0.244,1.151l-9.849,13.132
	c-0.331,0.438-0.821,0.82-1.479,1.15c-0.657,0.327-1.261,0.491-1.806,0.491H48.933v14.364c0,0.603-0.15,1.093-0.451,1.478
	c-0.299,0.385-0.722,0.574-1.27,0.574H34.983c-0.549,0-1.026-0.205-1.438-0.618c-0.413-0.411-0.618-0.892-0.618-1.438V82.832H11.013
	c-0.548,0-0.904-0.164-1.067-0.494c-0.163-0.326-0.083-0.711,0.247-1.148l9.85-13.132c0.326-0.437,0.82-0.82,1.475-1.147
	c0.658-0.33,1.26-0.494,1.809-0.494h9.603v-8.208H11.013c-0.548,0-0.904-0.164-1.067-0.494c-0.163-0.327-0.083-0.712,0.247-1.147
	l9.85-13.133c0.326-0.436,0.82-0.82,1.475-1.148c0.658-0.33,1.26-0.493,1.809-0.493h9.603V2.805c0-0.545,0.205-1.026,0.618-1.437
	c0.411-0.413,0.889-0.619,1.438-0.619L34.979,0.752z M49.097,17.168v24.624H65.76c3.501,0,5.87-0.904,7.102-2.71
	c1.231-1.805,1.847-5.062,1.847-9.766c0-4.598-0.615-7.769-1.847-9.522c-1.231-1.751-3.601-2.626-7.102-2.626H49.097z"/>
</svg>
