<svg xmlns="http://www.w3.org/2000/svg" viewBox="0 0 100 100">
  <path fill="#000000" d="M62.406,33.46h24.809v31.424H72.33V48.346H44.212v16.539H12.789V2.45c0-0.55,0.206-1.034,0.619-1.447
	c0.418-0.417,0.898-0.624,1.451-0.624H62.41v33.079L62.406,33.46z M87.215,25.191H70.676V8.651L87.215,25.191z M62.406,74.809
	h13.396L58.271,92.34L40.74,74.809h13.397V58.27h8.27V74.809z M47.521,99.619H14.855c-0.549,0-1.033-0.207-1.447-0.621
	c-0.416-0.416-0.623-0.898-0.623-1.451V64.883L47.521,99.619z M87.215,81.426v16.125c0,0.549-0.205,1.033-0.619,1.447
	c-0.418,0.418-0.898,0.623-1.451,0.623H69.02L87.215,81.426z"/>
</svg>
