<svg xmlns="http://www.w3.org/2000/svg" viewBox="0 0 100 100">
  <path fill="#000000" d="M18.363,1.484h63.28c4.652,0,8.627,1.649,11.924,4.949c3.295,3.299,4.947,7.273,4.951,11.926v33.749
	c0,2.758-0.486,6.611-1.461,11.561c-0.973,4.949-1.949,9.209-2.924,12.777l-1.461,5.355c-1.568,4.705-4.096,8.666-7.582,11.885
	c-3.488,3.221-7.449,4.83-11.889,4.83H26.797c-4.436,0-8.407-1.596-11.923-4.787c-3.515-3.193-6.03-7.166-7.548-11.926
	c-0.434-1.514-0.974-3.488-1.623-5.922c-0.648-2.434-1.514-6.314-2.596-11.637c-1.082-5.328-1.626-9.371-1.626-12.133V18.363
	c0-4.652,1.653-8.628,4.952-11.924c3.303-3.299,7.274-4.948,11.922-4.951L18.363,1.484z M49.84,13.896
	c-3.785,0-7.369,0.312-10.749,0.937c-3.377,0.622-6.229,1.446-8.56,2.476c-2.324,1.023-4.447,2.148-6.367,3.366
	c-1.921,1.22-3.462,2.437-4.625,3.653c-1.166,1.218-2.141,2.326-2.921,3.327c-0.784,1-1.338,1.825-1.663,2.474l-0.486,0.974
	l12.656,19.711h45.431l12.652-19.711c-0.107-0.271-0.27-0.608-0.486-1.014c-0.221-0.405-0.762-1.204-1.627-2.394
	s-1.852-2.326-2.957-3.408c-1.105-1.08-2.646-2.284-4.625-3.609c-1.977-1.325-4.113-2.461-6.412-3.407
	c-2.299-0.943-5.137-1.741-8.518-2.39s-6.965-0.971-10.747-0.971L49.84,13.896z M62.984,41.642H50.247l15.82-21.174L62.984,41.642z"/>
</svg>
