<svg xmlns="http://www.w3.org/2000/svg" viewBox="0 0 100 100">
  <path fill="#000000" d="M52.881,26.289L82.629,8.924c0.889-0.375,1.875-0.438,2.953-0.178c1.078,0.259,1.947,0.762,2.604,1.509
	l2.248,2.676c0.66,0.704,0.953,1.548,0.881,2.532c-0.072,0.98-0.48,1.777-1.234,2.387l-9.77,8.439H52.881z M11.323,12.225h7.454
	c3.138,0,5.554,0.4,7.241,1.197c1.688,0.797,3.235,2.462,4.643,4.99l7.169,14.909h57.879c0.984,0,1.816,0.343,2.496,1.021
	c0.684,0.681,1.02,1.513,1.02,2.497v3.517c0,0.983-0.328,1.921-0.986,2.812c-0.656,0.892-1.43,1.504-2.32,1.83l-51.826,9.281
	c-1.078,0.188-2.016,0.044-2.813-0.425c-0.8-0.469-1.406-1.053-1.828-1.757c-1.969-3.138-4.313-4.709-7.032-4.709H11.323
	c-2.906,0-5.391-1.031-7.454-3.098c-2.063-2.063-3.094-4.545-3.094-7.451V22.775c0-2.906,1.031-5.395,3.094-7.457
	C5.932,13.256,8.417,12.225,11.323,12.225z M19.973,24.32h-5.628c-0.888,0-1.544,0.328-1.966,0.986
	c-0.422,0.656-0.635,1.476-0.635,2.46v3.936c0,2.394,0.984,3.587,2.957,3.587h9.42c0.75,0,1.256-0.187,1.512-0.563
	c0.254-0.375,0.383-0.938,0.385-1.688c0-0.516-0.374-1.568-1.127-3.162c-0.752-1.595-1.382-2.791-1.895-3.588
	c-0.848-1.313-1.857-1.969-3.025-1.969H19.973z M46.481,38.456c-1.5,0-2.775,0.528-3.829,1.581
	c-1.054,1.054-1.581,2.328-1.581,3.828s0.527,2.783,1.581,3.836c1.054,1.057,2.329,1.584,3.829,1.58
	c1.5-0.002,2.778-0.527,3.832-1.58c1.056-1.053,1.582-2.328,1.582-3.83s-0.525-2.78-1.582-3.83
	c-1.054-1.054-2.332-1.582-3.832-1.582V38.456z M16.949,62.225l10.692-9.139c0.844-0.891,1.637-1.453,2.388-1.688
	c0.75-0.234,1.476-0.154,2.181,0.246c0.703,0.398,1.275,0.81,1.719,1.232c0.445,0.422,1.045,1.077,1.795,1.969
	c1.313,1.641,2.494,2.835,3.551,3.585c1.057,0.753,2.193,1.056,3.412,0.919l4.433-0.354l3.375,12.588
	c0.61,2.858,0.526,5.143-0.247,6.856c-0.775,1.71-2.355,3.575-4.748,5.588l-5.625,4.854c-2.203,1.875-4.757,2.709-7.664,2.498
	c-2.906-0.213-5.319-1.419-7.244-3.626l-9.139-10.618c-1.875-2.202-2.707-4.771-2.497-7.7c0.21-2.928,1.419-5.331,3.622-7.208
	L16.949,62.225z M34.529,63.069l-7.173,6.188c-1.453,1.263-1.403,2.788,0.141,4.569l2.604,3.025
	c0.609,0.703,1.254,1.159,1.936,1.369c0.674,0.21,1.412,0.057,2.212-0.456l4.288-3.732c0.888-0.75,1.219-1.896,0.988-3.443
	c-0.094-0.938-0.375-2.251-0.848-3.938c-0.469-1.688-0.865-2.741-1.197-3.162c-0.516-0.563-0.963-0.895-1.334-0.987
	c-0.372-0.095-0.91,0.093-1.616,0.563V63.069z"/>
</svg>
