<svg xmlns="http://www.w3.org/2000/svg" viewBox="0 0 100 100">
  <path d="M3.125 56.641v-15.625h15.234q2.422-9.766 7.695-15.586t16.133-7.852v-15.625h15.625v15.625q4.219 1.563 8.828 4.688t8.789 8.242 5.586 10.508h15.859v15.625h-15.859q-1.953 7.969-9.102 14.531t-14.102 9.141v15.391h-15.625v-15.391q-10.938-2.109-16.25-8.008t-7.656-15.664h-15.156zM25.781 56.641q1.875 5.703 6.211 9.961t10.195 6.133v-16.094h15.625v16.094q11.641-3.75 15.703-16.094h-15.703v-15.625h15.625q-1.953-5.781-5.898-9.922t-9.727-6.016v15.937h-15.625v-15.859q-5.859 1.797-10.156 6.016t-6.172 9.844h16.328v15.625h-16.406z" fill="#000000"/>
</svg>
