<svg xmlns="http://www.w3.org/2000/svg" viewBox="0 0 100 100">
  <path fill="#000000" d="M23.491,8.338h53.021c6.262,0,11.614,2.222,16.058,6.669c4.443,4.443,6.665,9.795,6.665,16.057v37.872
	c0,6.262-2.222,11.613-6.665,16.061c-4.443,4.443-9.796,6.666-16.058,6.666H23.491c-6.261,0-11.613-2.223-16.057-6.666
	c-4.444-4.447-6.669-9.799-6.669-16.061V31.064c0-6.262,2.225-11.613,6.669-16.057C11.878,10.56,17.23,8.338,23.491,8.338z
	 M15.917,23.487v53.019h68.17V23.487H15.917z M46.214,38.635H31.063v7.575h15.151v22.721H23.491v-7.574H38.64v-7.572H23.491V31.061
	h22.723V38.635z M76.512,38.635v22.722l-7.574,7.574H53.785V31.061h15.152L76.512,38.635z M61.363,38.635v22.722h7.574V38.635
	H61.363z"/>
</svg>
