<?xml version="1.0" encoding="utf-8"?>
<!-- Generated by IcoMoon.io -->
<!DOCTYPE svg PUBLIC "-//W3C//DTD SVG 1.1//EN" "http://www.w3.org/Graphics/SVG/1.1/DTD/svg11.dtd">
<svg version="1.1" xmlns="http://www.w3.org/2000/svg" xmlns:xlink="http://www.w3.org/1999/xlink" width="100" height="100" viewBox="0 0 100 100">
<g>
</g>
	<path d="M1.857 41.281q0-16.146 11.463-27.609t27.609-11.463 27.609 11.463 11.463 27.609q0 11.463-6.297 21.070l24.219 24.219q0.565 0.646 0.565 1.453t-0.565 1.453l-8.799 8.799q-0.646 0.565-1.453 0.565t-1.453-0.565l-24.219-24.219q-9.607 6.297-21.070 6.297-16.146 0-27.609-11.463t-11.463-27.609zM14.208 41.281q0 10.979 7.831 18.81t18.891 7.831 18.85-7.79 7.79-18.85-7.79-18.85-18.85-7.79-18.891 7.831-7.831 18.81z" fill="#000000" />
</svg>
