<?xml version="1.0" encoding="utf-8"?>
<!-- Generator: Adobe Illustrator 21.0.0, SVG Export Plug-In . SVG Version: 6.00 Build 0)  -->
<svg version="1.1" id="Calque_1" xmlns="http://www.w3.org/2000/svg" xmlns:xlink="http://www.w3.org/1999/xlink" x="0px" y="0px"
	 viewBox="0 0 100 100" style="enable-background:new 0 0 100 100;" xml:space="preserve">
<path d="M92.6,72.8c-5.4-4.5-11.3-8-17.6-10.5c-1.1-8.4-3.5-15.8-6.9-21.6l17.4-17.4c1.4-1.4,1.4-3.7,0-5.2s-3.7-1.4-5.2,0
	L63.7,34.7c-1.2-1.3-2.4-2.4-3.8-3.4c2.9-2.7,4.7-6.4,4.7-10.7c0-8.1-6.6-14.6-14.6-14.6s-14.6,6.6-14.6,14.6c0,4.2,1.8,8,4.7,10.7
	c-7.6,5.3-13.2,16.7-15,30.7c-6.3,2.6-12.3,6.1-17.7,10.7C5.8,74.2,5.7,76.5,7,78c1.3,1.5,3.6,1.7,5.2,0.4c3.8-3.3,7.9-5.9,12.3-8
	c0,0.5,0,1.1,0,1.6c0,6.7,0.9,13.2,2.5,19.3c0.4,1.6,1.9,2.7,3.5,2.7h12.2c2,0,3.7-1.6,3.7-3.7l0-13.1c2-2,5.3-2,7.3-0.1v13.2
	c0,2,1.6,3.7,3.7,3.7h12.2c1.6,0,3.1-1.1,3.5-2.7c1.7-6.1,2.5-12.5,2.5-19.3c0-0.5,0-1,0-1.5c4.3,2.1,8.5,4.7,12.3,7.9
	c0.7,0.6,1.5,0.9,2.4,0.9c1,0,2.1-0.4,2.8-1.3C94.3,76.4,94.1,74.1,92.6,72.8z M40.5,58c-2.6,0.4-5.1,0.8-7.6,1.5
	c2.6-13.9,9.4-24.1,17.1-24.1c3.1,0,6,1.6,8.6,4.5L40.5,58z M51.5,57.4l11.3-11.3c1.9,3.8,3.4,8.4,4.4,13.5
	C62,58.2,56.7,57.5,51.5,57.4z"/>
</svg>
