<?xml version="1.0" encoding="utf-8"?>
<!-- Generated by IcoMoon.io -->
<!DOCTYPE svg PUBLIC "-//W3C//DTD SVG 1.1//EN" "http://www.w3.org/Graphics/SVG/1.1/DTD/svg11.dtd">
<svg version="1.1" xmlns="http://www.w3.org/2000/svg" xmlns:xlink="http://www.w3.org/1999/xlink" width="100" height="100" viewBox="0 0 100 100">
<g>
</g>
	<path d="M0 62.292v-25q0-13.75 9.792-23.542t23.542-9.792h21.75l0.167 6.667q-11.083 2.667-18.167 10h-12.083q-3.417 0-5.875 2.458t-2.458 5.875v41.667q0 3.417 2.458 5.875t5.875 2.458h41.667q3.417 0 5.875-2.458t2.458-5.875l16.667-12.75v4.417q0 13.75-9.792 23.542t-23.542 9.792h-25q-13.75 0-23.542-9.792t-9.792-23.542zM35.25 51.958q2.5-3.167 6.792-5.333t8.583-2.958 8.25-1.167 6.458-0.292l2.417 0.083v17.417l30-27-29.917-26.5v18q-0.583 0-1.583 0.083t-4 0.667-5.792 1.542-6.375 3.083-6.375 4.917-5.167 7.333-3.292 10.125z" fill="#000000" />
</svg>
