<?xml version="1.0" encoding="utf-8"?>
<!-- Generated by IcoMoon.io -->
<!DOCTYPE svg PUBLIC "-//W3C//DTD SVG 1.1//EN" "http://www.w3.org/Graphics/SVG/1.1/DTD/svg11.dtd">
<svg version="1.1" xmlns="http://www.w3.org/2000/svg" xmlns:xlink="http://www.w3.org/1999/xlink" width="100" height="100" viewBox="0 0 100 100">
<g>
</g>
	<path d="M4.531 22.344q-0.391-1.875 0.781-3.281 1.094-1.484 3.047-1.484h70l2.969-12.656q0.391-1.328 1.445-2.148t2.383-0.82h7.344q1.563 0 2.734 1.133t1.172 2.773-1.172 2.773-2.734 1.133h-4.219l-15.703 75.078q-0.156 0.313-0.469 0.82t-1.484 1.367-2.578 0.859h-2.422v3.906q0 1.563-1.133 2.734t-2.773 1.172-2.773-1.172-1.133-2.734v-3.906h-23.438v3.906q0 1.563-1.133 2.734t-2.773 1.172-2.773-1.172-1.133-2.734v-3.906h-3.906q-1.641 0-2.773-1.172t-1.133-2.734q0-1.641 1.133-2.773t2.773-1.133h41.797l3.75-15.625h-49.453q-2.5 0-4.258-1.641t-2.148-3.359z" fill="#000000" />
</svg>
