<svg xmlns="http://www.w3.org/2000/svg" viewBox="0 0 100 100">
  <path fill="#000000" d="M23.296,8.338h53.411c6.307,0,11.699,2.238,16.176,6.718c4.477,4.476,6.715,9.868,6.715,16.176v38.151
	c0,6.307-2.238,11.699-6.715,16.179c-4.477,4.477-9.869,6.714-16.176,6.714H23.296c-6.308,0-11.699-2.237-16.176-6.714
	c-4.477-4.479-6.718-9.872-6.718-16.179V31.232c0-6.308,2.241-11.7,6.718-16.176C11.597,10.577,16.989,8.338,23.296,8.338z
	 M15.667,23.599V77.01h68.671V23.599H15.667z M46.187,54.119l-15.185,15.26h-7.63v-3.814l15.184-15.261V38.855H23.293v-7.63H46.18
	v22.887L46.187,54.119z M76.707,69.379h-7.631v-30.52h-7.633v-7.63h15.264V69.379z M61.523,69.379h-7.631v-7.63h7.631V69.379z"/>
</svg>
