<?xml version="1.0" encoding="utf-8"?>
<!-- Generator: Adobe Illustrator 15.0.0, SVG Export Plug-In . SVG Version: 6.00 Build 0)  -->
<!DOCTYPE svg PUBLIC "-//W3C//DTD SVG 1.1//EN" "http://www.w3.org/Graphics/SVG/1.1/DTD/svg11.dtd">
<svg version="1.1" id="Calque_1" xmlns="http://www.w3.org/2000/svg" xmlns:xlink="http://www.w3.org/1999/xlink" x="0px" y="0px"
	 width="100px" height="100px" viewBox="0 0 100 100" enable-background="new 0 0 100 100" xml:space="preserve">
<path fill="#454545" d="M23.537,8.338h52.929c6.251,0,11.594,2.218,16.03,6.657c4.436,4.436,6.653,9.779,6.653,16.03v37.806
	c0,6.251-2.218,11.594-6.653,16.033c-4.437,4.436-9.779,6.653-16.03,6.653H23.537c-6.25,0-11.594-2.218-16.029-6.653
	c-4.437-4.439-6.657-9.782-6.657-16.033V31.025c0-6.251,2.221-11.594,6.657-16.03C11.943,10.556,17.287,8.338,23.537,8.338z
	 M15.977,23.461V76.39h68.051V23.461H15.977z M46.221,61.267L23.537,49.925L46.221,38.58v22.684V61.267z M76.466,49.925
	L53.782,61.267V38.583L76.466,49.925z"/>
</svg>
