<svg xmlns="http://www.w3.org/2000/svg" viewBox="0 0 100 100">
  <path fill="#000000" d="M23.493,8.338h53.016c6.262,0,11.613,2.222,16.057,6.668c4.443,4.443,6.665,9.795,6.665,16.056v37.868
	c0,6.261-2.222,11.613-6.665,16.06c-4.443,4.443-9.795,6.664-16.057,6.664H23.493c-6.261,0-11.612-2.221-16.056-6.664
	c-4.443-4.446-6.668-9.799-6.668-16.06V31.063c0-6.261,2.225-11.613,6.668-16.056C11.881,10.56,17.232,8.338,23.493,8.338z
	 M15.92,23.486v53.015h68.163V23.486H15.92z M31.067,38.633h15.15v30.295H23.497V31.059h7.576v7.574H31.067z M76.509,68.928h-7.573
	V38.633h-7.577v-7.574h15.15V68.928z M31.067,46.207v15.151h7.573V46.207H31.067z M61.362,68.928h-7.574v-7.574h7.574V68.928z"/>
</svg>
