<?xml version="1.0" encoding="utf-8"?>
<!-- Generator: Adobe Illustrator 15.0.0, SVG Export Plug-In . SVG Version: 6.00 Build 0)  -->
<!DOCTYPE svg PUBLIC "-//W3C//DTD SVG 1.1//EN" "http://www.w3.org/Graphics/SVG/1.1/DTD/svg11.dtd">
<svg version="1.1" id="Calque_1" xmlns="http://www.w3.org/2000/svg" xmlns:xlink="http://www.w3.org/1999/xlink" x="0px" y="0px"
	 width="100px" height="100px" viewBox="0 0 100 100" enable-background="new 0 0 100 100" xml:space="preserve">
<path fill="#454545" d="M23.496,8.338h53.011c6.261,0,11.612,2.221,16.055,6.667c4.442,4.443,6.664,9.794,6.664,16.055v37.864
	c0,6.261-2.222,11.612-6.664,16.058c-4.442,4.443-9.794,6.664-16.055,6.664H23.496c-6.26,0-11.611-2.221-16.055-6.664
	c-4.442-4.445-6.667-9.797-6.667-16.058V31.061c0-6.261,2.225-11.612,6.667-16.055C11.885,10.56,17.236,8.338,23.496,8.338z
	 M15.924,23.484v53.011H84.08V23.484H15.924z M76.507,68.922H23.496V31.057h53.011V68.922z M68.934,38.63h-9.845
	c-1.918,0-3.597,1.085-5.036,3.257c-1.438,2.171-2.158,4.897-2.158,8.179c0,3.281,0.682,5.982,2.045,8.103
	c1.363,2.124,3.08,3.181,5.149,3.181h9.845V38.63z M31.069,38.63v22.719h9.845c2.07,0,3.786-1.06,5.149-3.181
	c1.366-2.12,2.048-4.821,2.048-8.103c0-3.282-0.719-6.008-2.158-8.179c-1.438-2.168-3.12-3.253-5.039-3.257H31.069z"/>
</svg>
