<?xml version="1.0" encoding="utf-8"?>
<!-- Generator: Adobe Illustrator 15.0.0, SVG Export Plug-In . SVG Version: 6.00 Build 0)  -->
<!DOCTYPE svg PUBLIC "-//W3C//DTD SVG 1.1//EN" "http://www.w3.org/Graphics/SVG/1.1/DTD/svg11.dtd">
<svg version="1.1" id="Calque_1" xmlns="http://www.w3.org/2000/svg" xmlns:xlink="http://www.w3.org/1999/xlink" x="0px" y="0px"
	 width="100px" height="100px" viewBox="0 0 100 100" enable-background="new 0 0 100 100" xml:space="preserve">
<path fill="#454545" d="M23.453,8.338h53.098c6.27,0,11.631,2.225,16.08,6.678c4.451,4.45,6.676,9.811,6.676,16.081v37.927
	c0,6.271-2.225,11.631-6.676,16.084c-4.449,4.45-9.811,6.675-16.08,6.675H23.453c-6.271,0-11.631-2.225-16.08-6.675
	c-4.45-4.453-6.679-9.813-6.679-16.084V31.098c0-6.271,2.229-11.631,6.679-16.081C11.822,10.563,17.182,8.338,23.453,8.338z
	 M15.868,23.509v53.098h68.267V23.509H15.868z M46.208,38.68H31.035v7.585h15.174v22.755H23.453v-7.585h15.171v-7.585H23.453V31.094
	h22.756V38.68z M76.551,69.021h-7.586V38.68h-7.588v-7.585h15.174V69.021z M61.379,69.021h-7.584v-7.585h7.584V69.021z"/>
</svg>
