<?xml version="1.0" encoding="utf-8"?>
<!-- Generator: Adobe Illustrator 15.0.0, SVG Export Plug-In . SVG Version: 6.00 Build 0)  -->
<!DOCTYPE svg PUBLIC "-//W3C//DTD SVG 1.1//EN" "http://www.w3.org/Graphics/SVG/1.1/DTD/svg11.dtd">
<svg version="1.1" id="Calque_1" xmlns="http://www.w3.org/2000/svg" xmlns:xlink="http://www.w3.org/1999/xlink" x="0px" y="0px"
	 width="100px" height="100px" viewBox="0 0 100 100" enable-background="new 0 0 100 100" xml:space="preserve">
<path fill="#454545" d="M71.785,32.568H67.43c0-1.219-0.117-2.295-0.348-3.224c-0.232-0.929-0.512-1.698-0.832-2.308
	c-0.318-0.609-0.844-1.121-1.568-1.529c-0.727-0.408-1.365-0.729-1.918-0.956c-0.551-0.231-1.381-0.392-2.48-0.48
	c-1.104-0.089-2.006-0.144-2.703-0.17c-0.697-0.03-1.773-0.044-3.225-0.044h-8.714v47.932c0,1.277,0.729,2.281,2.179,3.01
	c1.45,0.725,2.907,1.148,4.358,1.262l2.178,0.09v8.715h-34.86V76.15c0.231,0,0.552-0.014,0.96-0.041
	c0.405-0.027,1.104-0.115,2.09-0.262c0.987-0.146,1.859-0.352,2.615-0.609s1.449-0.695,2.09-1.307
	c0.641-0.613,0.96-1.326,0.96-2.139V23.859h-8.715c-1.45,0-2.526,0.015-3.224,0.042c-0.697,0.026-1.597,0.089-2.703,0.177
	c-1.104,0.088-1.93,0.245-2.482,0.477c-0.551,0.231-1.191,0.552-1.916,0.96c-0.729,0.408-1.25,0.916-1.569,1.525
	c-0.32,0.609-0.593,1.379-0.823,2.308c-0.236,0.93-0.352,2.002-0.352,3.225H2.069V6.426h69.72v26.146L71.785,32.568z M97.932,76.145
	h-17.43v8.715h17.43v8.715H71.785V67.428h17.432v-8.713H71.785v-8.716h26.146V76.145z"/>
</svg>
