<?xml version="1.0" encoding="utf-8"?>
<!-- Generator: Adobe Illustrator 15.0.0, SVG Export Plug-In . SVG Version: 6.00 Build 0)  -->
<!DOCTYPE svg PUBLIC "-//W3C//DTD SVG 1.1//EN" "http://www.w3.org/Graphics/SVG/1.1/DTD/svg11.dtd">
<svg version="1.1" id="Calque_1" xmlns="http://www.w3.org/2000/svg" xmlns:xlink="http://www.w3.org/1999/xlink" x="0px" y="0px"
	 width="100px" height="100px" viewBox="0 0 100 100" enable-background="new 0 0 100 100" xml:space="preserve">
<path fill="#454545" d="M23.675,8.627h52.653c6.217,0,11.533,2.207,15.945,6.623c4.414,4.412,6.619,9.729,6.619,15.945v37.61
	c0,6.217-2.205,11.532-6.619,15.948c-4.412,4.413-9.729,6.619-15.945,6.619H23.675c-6.217,0-11.532-2.206-15.945-6.619
	c-4.412-4.416-6.623-9.731-6.623-15.948v-37.61c0-6.217,2.211-11.533,6.623-15.945C12.143,10.834,17.458,8.627,23.675,8.627z
	 M16.154,23.671v52.652H83.85V23.671H16.154z M46.242,38.715H31.195v22.564h15.047v7.522H23.675V31.193h22.566V38.715z
	 M76.328,38.715H61.281v22.564h15.047v7.522H53.764V31.193h22.564V38.715z"/>
</svg>
