<svg xmlns="http://www.w3.org/2000/svg" viewBox="0 0 100 100">
  <path fill="#000000" d="M65.244,24.49l5.355-1.474c1.295-0.31,2.459,0,3.492,0.934l23.123,22.89c0.57,0.566,0.959,1.251,1.164,2.055
	c0.205,0.801,0.154,1.589-0.158,2.364c-0.258,0.722-0.721,1.333-1.395,1.825c-0.672,0.49-1.396,0.739-2.172,0.739h-0.623
	c0.053,0,0.08,0.333,0.08,1.006c0,1.5-0.055,2.948-0.158,4.347c-0.102,1.395-0.32,3.001-0.654,4.811
	c-0.336,1.809-0.854,3.439-1.553,4.888c-0.701,1.448-1.553,2.819-2.563,4.11c-1.006,1.297-2.324,2.303-3.955,3.027
	c-1.631,0.726-3.508,1.089-5.629,1.089H68.273c-9.521,0-14.279-7.45-14.279-22.351c0-1.239,0.26-2.454,0.775-3.643
	c-1.033-0.21-2.637-0.313-4.807-0.313c-2.176,0-3.803,0.103-4.892,0.313c0.57,1.24,0.854,2.455,0.854,3.643
	c0,14.9-4.758,22.351-14.275,22.351H20.63c-2.48,0-4.668-0.546-6.554-1.631c-1.888-1.085-3.333-2.406-4.347-3.959
	c-1.008-1.552-1.836-3.4-2.482-5.547c-0.645-2.148-1.057-4.088-1.238-5.818c-0.183-1.733-0.273-3.505-0.273-5.316
	c0-0.673,0.055-1.006,0.157-1.006H5.347c-0.775,0-1.484-0.249-2.133-0.739c-0.648-0.492-1.128-1.104-1.437-1.825
	c-0.31-0.775-0.364-1.563-0.157-2.364c0.209-0.804,0.597-1.461,1.163-1.979L25.91,23.95c1.03-0.934,2.222-1.219,3.567-0.854
	l5.896,1.473c1.035,0.261,1.824,0.843,2.367,1.748c0.542,0.907,0.682,1.877,0.424,2.914c-0.258,1.029-0.84,1.834-1.748,2.402
	c-0.904,0.567-1.874,0.701-2.91,0.389l-3.959-0.931L15.429,46.063h69.131L70.439,31.091l-3.412,0.931
	c-1.037,0.258-2.008,0.104-2.916-0.464c-0.902-0.569-1.486-1.372-1.746-2.406c-0.258-1.036-0.104-2.007,0.467-2.913
	s1.371-1.488,2.406-1.748H65.244z"/>
</svg>
