<?xml version="1.0" encoding="utf-8"?>
<!-- Generator: Adobe Illustrator 15.0.0, SVG Export Plug-In . SVG Version: 6.00 Build 0)  -->
<!DOCTYPE svg PUBLIC "-//W3C//DTD SVG 1.1//EN" "http://www.w3.org/Graphics/SVG/1.1/DTD/svg11.dtd">
<svg version="1.1" id="Calque_1" xmlns="http://www.w3.org/2000/svg" xmlns:xlink="http://www.w3.org/1999/xlink" x="0px" y="0px"
	 width="100px" height="100px" viewBox="0 0 100 100" enable-background="new 0 0 100 100" xml:space="preserve">
<path fill="#454545" d="M97.533,30.193H81.688v7.922h15.845v7.922H73.767V22.271H89.61v-7.922H73.767V6.426h23.767V30.193z
	 M2.467,46.037h3.961c0-1.108,0.105-2.086,0.315-2.931c0.211-0.845,0.465-1.544,0.752-2.098c0.288-0.554,0.765-1.018,1.427-1.389
	c0.662-0.372,1.244-0.663,1.742-0.87c0.502-0.21,1.254-0.356,2.26-0.437c1.005-0.081,1.822-0.13,2.457-0.155
	c0.631-0.028,1.605-0.04,2.931-0.04h7.922V81.69c0,1.16-0.662,2.073-1.98,2.735c-1.318,0.659-2.643,1.018-3.961,1.067l-1.98,0.158
	v7.922H50v-7.922c-0.211,0-0.502-0.013-0.873-0.037c-0.368-0.028-1.003-0.105-1.9-0.238c-0.896-0.134-1.689-0.319-2.376-0.555
	c-0.688-0.238-1.318-0.634-1.9-1.188c-0.582-0.558-0.872-1.204-0.872-1.943V38.118H50c1.318,0,2.296,0.012,2.931,0.04
	c0.634,0.025,1.451,0.074,2.457,0.155c1.003,0.081,1.755,0.226,2.256,0.437c0.501,0.207,1.083,0.498,1.742,0.87
	c0.662,0.371,1.136,0.835,1.427,1.389c0.291,0.554,0.538,1.253,0.755,2.098c0.211,0.845,0.315,1.823,0.315,2.931h3.961V22.271H2.467
	V46.037z"/>
</svg>
