<?xml version="1.0" encoding="utf-8"?>
<!-- Generated by IcoMoon.io -->
<!DOCTYPE svg PUBLIC "-//W3C//DTD SVG 1.1//EN" "http://www.w3.org/Graphics/SVG/1.1/DTD/svg11.dtd">
<svg version="1.1" xmlns="http://www.w3.org/2000/svg" xmlns:xlink="http://www.w3.org/1999/xlink" width="102" height="100" viewBox="0 0 102 100">
<g>
</g>
	<path d="M3.177 84.688v-7.813q0-3.203 2.305-5.508t5.508-2.305h78.125q3.203 0 5.508 2.305t2.305 5.508v7.813q0 3.203-2.305 5.508t-5.508 2.305h-78.125q-3.203 0-5.508-2.305t-2.305-5.508zM3.177 53.438v-7.813q0-3.203 2.305-5.508t5.508-2.305h78.125q3.203 0 5.508 2.305t2.305 5.508v7.813q0 3.203-2.305 5.508t-5.508 2.305h-78.125q-3.203 0-5.508-2.305t-2.305-5.508zM3.177 22.188v-7.813q0-3.203 2.305-5.508t5.508-2.305h78.125q3.203 0 5.508 2.305t2.305 5.508v7.813q0 3.203-2.305 5.508t-5.508 2.305h-78.125q-3.203 0-5.508-2.305t-2.305-5.508zM50.052 53.438h39.063v-7.813h-39.063v7.813zM65.677 84.688h23.438v-7.813h-23.438v7.813zM73.489 22.188h15.625v-7.813h-15.625v7.813z" fill="#000000" />
</svg>
