<svg xmlns="http://www.w3.org/2000/svg" viewBox="0 0 100 100">
  <path fill="#000000" d="M99.149,25.772h-4.096c0-1.146-0.108-2.157-0.326-3.027c-0.218-0.877-0.48-1.6-0.781-2.169
	c-0.301-0.576-0.793-1.053-1.475-1.437c-0.682-0.384-1.283-0.685-1.802-0.899c-0.519-0.218-1.299-0.371-2.332-0.455
	c-1.037-0.083-1.885-0.141-2.541-0.163s-1.667-0.039-3.03-0.042H66.384V87.21c0,1.199,0.685,2.144,2.048,2.825
	c1.362,0.685,2.732,1.053,4.096,1.104l2.048,0.167v8.191H41.809v-8.191c0.218,0,0.519-0.013,0.902-0.042
	c0.381-0.025,1.037-0.105,1.965-0.246c0.928-0.135,1.747-0.326,2.457-0.573c0.711-0.243,1.363-0.652,1.965-1.229
	C49.699,88.644,50,87.971,50,87.21V17.581H33.617c-1.363,0-2.374,0.013-3.03,0.042s-1.501,0.083-2.541,0.163
	c-1.037,0.08-1.814,0.23-2.336,0.455c-0.521,0.218-1.12,0.519-1.802,0.899c-0.681,0.381-1.171,0.858-1.475,1.437
	c-0.301,0.576-0.56,1.299-0.777,2.169c-0.215,0.87-0.327,1.881-0.327,3.033h-4.096V1.204h81.916v24.575V25.772z M41.809,62.635
	h-2.048c0-0.819-0.109-1.484-0.326-2.006c-0.218-0.522-0.468-0.919-0.739-1.19c-0.272-0.272-0.736-0.478-1.393-0.618
	c-0.655-0.134-1.203-0.218-1.638-0.243c-0.436-0.025-1.12-0.038-2.048-0.038h-8.191v34.814c0,0.598,0.342,1.075,1.023,1.434
	c0.685,0.358,1.383,0.563,2.09,0.614h0.982v4.096H13.138v-4.096c2.733,0,4.096-0.682,4.096-2.048V58.539H9.042
	c-0.928,0-1.612,0.013-2.048,0.042c-0.435,0.025-0.982,0.105-1.638,0.246c-0.656,0.134-1.12,0.342-1.393,0.614
	c-0.271,0.275-0.521,0.672-0.739,1.19s-0.326,1.19-0.326,2.01H0.851V50.354h40.958v12.288V62.635z"/>
</svg>
