<?xml version="1.0" encoding="utf-8"?>
<!-- Generator: Adobe Illustrator 15.0.0, SVG Export Plug-In . SVG Version: 6.00 Build 0)  -->
<!DOCTYPE svg PUBLIC "-//W3C//DTD SVG 1.1//EN" "http://www.w3.org/Graphics/SVG/1.1/DTD/svg11.dtd">
<svg version="1.1" id="Calque_1" xmlns="http://www.w3.org/2000/svg" xmlns:xlink="http://www.w3.org/1999/xlink" x="0px" y="0px"
	 width="100px" height="100px" viewBox="0 0 100 100" enable-background="new 0 0 100 100" xml:space="preserve">
<path fill="#454545" d="M5.375,1.318h89.25c1.134,0,2.094,0.394,2.878,1.18c0.786,0.785,1.179,1.742,1.179,2.877v89.25
	c0,1.134-0.393,2.094-1.179,2.878c-0.786,0.786-1.744,1.179-2.878,1.179H5.375c-1.135,0-2.096-0.393-2.877-1.179
	c-0.786-0.786-1.18-1.744-1.18-2.878V5.375c0-1.135,0.394-2.096,1.18-2.877C3.283,1.712,4.24,1.318,5.375,1.318z M50.894,7.971
	h-5.679c-0.704,0-1.192,0.326-1.462,0.973L19.492,70.04c-0.92,1.734-1.864,3.108-2.84,4.139c-0.973,0.974-2.485,1.893-4.542,2.758
	c-0.649,0.269-0.973,0.758-0.973,1.461v4.058c0,0.431,0.146,0.812,0.446,1.134c0.298,0.326,0.688,0.488,1.176,0.488h22.148
	c0.434,0,0.811-0.162,1.137-0.488c0.323-0.322,0.485-0.703,0.485-1.134v-4.058c0-0.432-0.162-0.812-0.485-1.134
	c-0.326-0.327-0.703-0.488-1.137-0.488c-2.974,0-4.895-0.621-5.76-1.867c-0.542-0.757-0.542-1.81,0-3.163l5.112-13.226h21.58
	l4.625,12.414c0.595,1.677,0.434,3.163-0.485,4.463c-0.65,0.918-1.623,1.379-2.922,1.379c-0.434,0-0.812,0.161-1.135,0.488
	c-0.327,0.322-0.488,0.702-0.488,1.134v4.058c0,0.431,0.161,0.812,0.488,1.134c0.323,0.326,0.701,0.488,1.135,0.488h25.396
	c0.431,0,0.812-0.162,1.134-0.488c0.326-0.322,0.488-0.703,0.488-1.134v-4.058c0-0.381-0.148-0.729-0.444-1.057
	c-0.298-0.321-0.662-0.513-1.096-0.565c-0.919,0-2.055-0.679-3.404-2.028c-1.353-1.462-2.434-3.163-3.245-5.113h-0.082L52.437,8.943
	C52.168,8.297,51.654,7.971,50.894,7.971L50.894,7.971z M53.163,49.106H37.18l8.357-21.419L53.163,49.106z"/>
</svg>
