<svg xmlns="http://www.w3.org/2000/svg" viewBox="0 0 100 100">
  <path fill="#000000" d="M86.658,74.358v-4.073c-1.355,0-2.852-0.869-4.48-2.606c-0.758-0.761-1.438-1.601-2.037-2.526
	c-0.594-0.923-1.029-1.658-1.301-2.199l-0.328-0.897L54.971,1.203h-5.62L24.912,62.629c-0.98,1.899-2.036,3.421-3.176,4.56
	c-0.49,0.49-1.155,0.99-1.998,1.506c-0.841,0.515-1.56,0.91-2.158,1.184l-0.894,0.407v4.073h22.24v-4.073
	c-2.66,0-4.793-0.586-6.396-1.754s-1.916-3-0.936-5.502l5.62-14.336h23.87l4.967,13.521c0.707,1.849,0.615,3.653-0.279,5.423
	c-0.898,1.763-2.402,2.647-4.52,2.647v4.073h25.412H86.658z M38.76,42.504l10.915-27.859l9.858,27.859H38.76z M94.805,86.578v8.146
	c0,1.14-0.395,2.104-1.18,2.89c-0.789,0.789-1.754,1.184-2.893,1.184H9.268c-1.139,0-2.104-0.395-2.893-1.184
	c-0.786-0.789-1.181-1.75-1.181-2.89v-8.146c0-1.14,0.395-2.104,1.181-2.89c0.789-0.789,1.754-1.184,2.893-1.184h81.464
	c1.143,0,2.105,0.395,2.893,1.184C94.41,84.478,94.805,85.438,94.805,86.578z"/>
</svg>
