<svg xmlns="http://www.w3.org/2000/svg" viewBox="0 0 100 100">
  <path d="M0 91.458v-16.667q0-1.75 1.208-2.958t2.958-1.208h16.667q1.75 0 2.958 1.208t1.208 2.958v16.667q0 1.75-1.208 2.958t-2.958 1.208h-16.667q-1.75 0-2.958-1.208t-1.208-2.958zM0 58.125q0 1.75 1.208 2.958t2.958 1.208h16.667q1.75 0 2.958-1.208t1.208-2.958v-16.667q0-1.75-1.208-2.958t-2.958-1.208h-16.667q-1.75 0-2.958 1.208t-1.208 2.958v16.667zM0 24.792v-16.667q0-1.75 1.208-2.958t2.958-1.208h16.667q1.75 0 2.958 1.208t1.208 2.958v16.667q0 1.75-1.208 2.958t-2.958 1.208h-16.667q-1.75 0-2.958-1.208t-1.208-2.958zM33.333 91.458v-16.667q0-1.75 1.208-2.958t2.958-1.208h58.333q1.75 0 2.958 1.208t1.208 2.958v16.667q0 1.75-1.208 2.958t-2.958 1.208h-58.333q-1.75 0-2.958-1.208t-1.208-2.958zM33.333 58.125v-16.667q0-1.75 1.208-2.958t2.958-1.208h58.333q1.75 0 2.958 1.208t1.208 2.958v16.667q0 1.75-1.208 2.958t-2.958 1.208h-58.333q-1.75 0-2.958-1.208t-1.208-2.958zM33.333 24.792v-16.667q0-1.75 1.208-2.958t2.958-1.208h58.333q1.75 0 2.958 1.208t1.208 2.958v16.667q0 1.75-1.208 2.958t-2.958 1.208h-58.333q-1.75 0-2.958-1.208t-1.208-2.958z" fill="#000000"/>
</svg>
