<?xml version="1.0" encoding="utf-8"?>
<!-- Generated by IcoMoon.io -->
<!DOCTYPE svg PUBLIC "-//W3C//DTD SVG 1.1//EN" "http://www.w3.org/Graphics/SVG/1.1/DTD/svg11.dtd">
<svg version="1.1" xmlns="http://www.w3.org/2000/svg" xmlns:xlink="http://www.w3.org/1999/xlink" width="100" height="100" viewBox="0 0 100 100">
<g>
</g>
	<path d="M0 91.458v-33.333q0-1.75 1.208-2.958t2.958-1.208h33.333q1.75 0 2.958 1.208t1.208 2.958v33.333q0 1.75-1.208 2.958t-2.958 1.208h-33.333q-1.75 0-2.958-1.208t-1.208-2.958zM0 41.458v-33.333q0-1.75 1.208-2.958t2.958-1.208h33.333q1.75 0 2.958 1.208t1.208 2.958v33.333q0 1.75-1.208 2.958t-2.958 1.208h-33.333q-1.75 0-2.958-1.208t-1.208-2.958zM50 91.458v-33.333q0-1.75 1.208-2.958t2.958-1.208h33.333q1.75 0 2.958 1.208t1.208 2.958v33.333q0 1.75-1.208 2.958t-2.958 1.208h-33.333q-1.75 0-2.958-1.208t-1.208-2.958zM50 41.458v-33.333q0-1.75 1.208-2.958t2.958-1.208h33.333q1.75 0 2.958 1.208t1.208 2.958v33.333q0 1.75-1.208 2.958t-2.958 1.208h-33.333q-1.75 0-2.958-1.208t-1.208-2.958z" fill="#000000" />
</svg>
