<?xml version="1.0" encoding="utf-8"?>
<!-- Generated by IcoMoon.io -->
<!DOCTYPE svg PUBLIC "-//W3C//DTD SVG 1.1//EN" "http://www.w3.org/Graphics/SVG/1.1/DTD/svg11.dtd">
<svg version="1.1" xmlns="http://www.w3.org/2000/svg" xmlns:xlink="http://www.w3.org/1999/xlink" width="100" height="100" viewBox="0 0 100 100">
<g>
</g>
	<path d="M0 88.333h16.667v-50h-16.667v50zM25 82.083q0 6.25 8.333 6.25h5.083q10.333 8.333 11.583 8.333h20.833q3.833 0 6.917-4.75l19.833-28.667q2.417-2.583 2.417-6.167v-8.333q0-3.667-2.542-7.042t-5.792-3.375h-27.333q2.333-9.833 2.333-10.417v-12.5q0-3.667-2.542-7.042t-5.792-3.375h-4.167q-2.25 0-4.25 1.667t-3.167 4l-8 16.5-12.083 16.333q-1.667 2.167-1.667 5.25v33.333zM33.333 80v-31.25l12.5-17.75 8.333-17.667h4.167v14.583l-4.167 18.75h37.5v10.417l-20.833 31.25h-17.833l-11.333-8.333h-8.333z" fill="#000000" />
</svg>
