<svg xmlns="http://www.w3.org/2000/svg" viewBox="0 0 100 100">
  <path d="M0 65.417v-50h16.667v50h-16.667zM25 55v-33.333q0-6.25 8.333-6.25h5.083q10.333-8.333 11.583-8.333h20.833q3.833 0 6.917 4.75l19.833 28.667q2.417 2.583 2.417 6.167v8.333q0 3.667-2.542 7.042t-5.792 3.375h-27.333q2.333 9.833 2.333 10.417v12.5q0 3.667-2.542 7.042t-5.792 3.375h-4.167q-2.25 0-4.25-1.667t-3.167-4l-8-16.5-12.083-16.333q-1.667-2.167-1.667-5.25zM33.333 55l12.5 17.667 8.333 17.75h4.167v-14.583l-4.167-18.75h37.5v-10.417l-20.833-31.25h-17.833l-11.333 8.333h-8.333v31.25z" fill="#000000"/>
</svg>
