<svg xmlns="http://www.w3.org/2000/svg" viewBox="0 0 100 100">
  <path d="M14.624 68.787q0-6.885 2.49-13.623t6.482-12.634 8.203-11.646 8.423-12.964 6.409-14.246q1.538 5.2 4.211 10.437t5.566 9.558 6.079 8.679 6.006 8.569 5.127 8.496 3.662 9.192 1.355 9.961q0 6.519-2.856 12.122t-7.471 9.265-10.254 5.823-11.426 2.454q-8.35-0.439-15.491-3.882t-11.829-10.181-4.688-15.381zM23.853 68.201q1.025 6.006 4.358 9.961t9.998 5.859l1.172-7.178q-0.513-0.439-1.318-1.245t-2.49-3.516-2.417-5.64q-1.099-5.347-1.025-10.51t0.732-8.972l0.659-3.735q-6.738 8.057-8.752 13.55t-0.916 11.426z" fill="#000000"/>
</svg>
