<?xml version="1.0" encoding="utf-8"?>
<!-- Generator: Adobe Illustrator 21.0.0, SVG Export Plug-In . SVG Version: 6.00 Build 0)  -->
<svg version="1.1" id="Calque_1" xmlns="http://www.w3.org/2000/svg" xmlns:xlink="http://www.w3.org/1999/xlink" x="0px" y="0px"
	 viewBox="0 0 100 100" style="enable-background:new 0 0 100 100;" xml:space="preserve">
<path d="M96.4,59l-6.9-7.2c-0.2-0.3-0.6-0.4-0.9-0.4h-3c0,0,0,0,0,0v-1.7c0-0.8-0.7-1.5-1.5-1.5c-0.8,0-1.5,0.7-1.5,1.5v1.7
	c0,0,0,0,0,0H63.3v-4.8l20.4-20.4c1-1,1-2.6,0-3.6c-1-1-2.6-1-3.6,0L59.4,43.2h-3.3v8.1h-2.8V29.1c0-0.7-0.6-1.3-1.3-1.3h-1.6V27
	c0-0.8-0.7-1.5-1.5-1.5c-0.8,0-1.5,0.7-1.5,1.5v0.8H36.1c-0.4,0-0.7,0.2-1,0.4L22.9,42h-6.7c-0.1,0-0.2,0-0.3,0
	c-6.3,0-8.9,4.6-9.3,7.2l-0.4,1.2H4.8c-0.9,0-1.6,0.7-1.6,1.6v7.6c0,0.7,0.4,1.2,1,1.5c0.2,0.1,0.3,0.1,0.5,0.1h0.1h4
	c0.4,4.8,4.3,8.5,9.2,8.5c4.9,0,8.8-3.8,9.2-8.5h43.2c0.4,4.8,4.3,8.5,9.2,8.5c4.9,0,8.8-3.8,9.2-8.5h6.7c0.5,0,1-0.3,1.2-0.8
	C96.8,59.9,96.8,59.4,96.4,59z M18,65.1c-2.6,0-4.6-2.1-4.6-4.6s2.1-4.6,4.6-4.6c2.6,0,4.6,2.1,4.6,4.6S20.6,65.1,18,65.1z
	 M47.6,41.2H32.3l7.5-8.7h7.8V41.2z M79.6,65.1c-2.6,0-4.6-2.1-4.6-4.6s2.1-4.6,4.6-4.6c2.6,0,4.6,2.1,4.6,4.6S82.1,65.1,79.6,65.1z
	"/>
</svg>
