<?xml version="1.0" encoding="utf-8"?>
<!-- Generator: Adobe Illustrator 21.0.0, SVG Export Plug-In . SVG Version: 6.00 Build 0)  -->
<svg version="1.1" id="Calque_1" xmlns="http://www.w3.org/2000/svg" xmlns:xlink="http://www.w3.org/1999/xlink" x="0px" y="0px"
	 viewBox="0 0 100 100" style="enable-background:new 0 0 100 100;" xml:space="preserve">
<g>
	<path d="M83.2,19c-1.1,0-2,0.9-2,2v2.5c0,1.1,0.9,2,2,2h1.3l-24,24.2L60,47.7c-0.5-1.7-1.8-3.8-5.5-3.4L40.4,45l-9.6-8.9
		c-1.2-1.2-3.3-2.6-6.3-1.8l-24.9,6.7v4.4h0.1L10,42.6l2.7,9.8l-13.1,3.5v20.8c1.4,3.3,5.1,5,8.5,4c3.7-1.1,5.9-4.6,5.2-8.4
		l25.2-6.8c1.2,3.5,5.1,5.6,8.8,4.6c3.7-1.1,5.9-4.6,5.2-8.4l7.2-2c1.7-0.5,3-1.7,2.5-3.8l-0.7-2.5l28.3-28.3h4v17h6.4V19
		C100.3,19,83.2,19,83.2,19z M7.2,77.6c-2.1,0.7-4.3-0.7-4.8-2.7c-0.5-2.1,0.7-4.2,2.7-4.7c0.4-0.3,0.7-0.3,0.9-0.3
		c1.8-0.1,3.5,1.1,3.9,2.9C10.5,74.9,9.3,77,7.2,77.6z M17,51.1l-2.6-9.9l9.4-2.5c0.5,0,0.9,0,1.4,0c1.3,0.1,2.5,0.8,3.3,1.6
		l6.3,6.2L17,51.1z M46.4,66.9c-2.1,0.5-4.3-0.7-4.8-2.7c-0.5-2.1,0.8-4.2,2.9-4.8c0.3,0.1,0.5,0.1,0.8,0c1.8-0.1,3.5,1.1,3.9,2.9
		C49.7,64.3,48.5,66.4,46.4,66.9z M77.1,48.6v21c0,2,0.5,3.5,3.7,3.5h4.4c0.3,4.3,3.9,7.8,8.4,7.8c2.9,0,5.4-1.4,6.8-3.7V45.2
		c0.1-0.1-19.6-0.1-19.6-0.1C77.5,45.1,77.1,46.5,77.1,48.6z M93.5,68c2.5,0,4.4,2,4.4,4.4c0,2.5-2,4.6-4.4,4.6
		c-2.5,0-4.6-2.1-4.6-4.6C89.1,70.1,91.1,68,93.5,68z"/>
</g>
</svg>
