<svg xmlns="http://www.w3.org/2000/svg" viewBox="0 0 100 100">
  <path d="M12.165 21.068v-3.788q0-0.758 0.568-1.326t1.326-0.568h20.835v-7.576q0-3.106 2.235-5.341t5.341-2.235h22.729q3.106 0 5.341 2.235t2.235 5.341v7.576h20.835q0.758 0 1.326 0.568t0.568 1.326v3.788q0 0.833-0.53 1.364t-1.364 0.53h-79.551q-0.833 0-1.364-0.53t-0.53-1.364zM19.742 91.148v-60.61h68.186v60.61q0 3.106-2.235 5.379t-5.341 2.273h-53.034q-3.106 0-5.341-2.273t-2.235-5.379zM27.318 91.148h7.576v-53.034h-7.576v53.034zM42.47 91.148h7.576v-53.034h-7.576v53.034zM42.47 15.386h22.729v-7.576h-22.729v7.576zM57.623 91.148h7.576v-53.034h-7.576v53.034zM72.775 91.148h7.576v-53.034h-7.576v53.034z" fill="#000000"/>
</svg>
