<?xml version="1.0" encoding="utf-8"?>
<!-- Generator: Adobe Illustrator 15.0.0, SVG Export Plug-In . SVG Version: 6.00 Build 0)  -->
<!DOCTYPE svg PUBLIC "-//W3C//DTD SVG 1.1//EN" "http://www.w3.org/Graphics/SVG/1.1/DTD/svg11.dtd">
<svg version="1.1" id="Calque_1" xmlns="http://www.w3.org/2000/svg" xmlns:xlink="http://www.w3.org/1999/xlink" x="0px" y="0px"
	 width="100px" height="100px" viewBox="0 0 100 100" enable-background="new 0 0 100 100" xml:space="preserve">
<path fill="#454545" d="M49.998,1.029c5.208,0,9.842,1.564,13.915,4.693c4.07,3.131,6.826,7.158,8.264,12.086
	c4.93,0.336,9.094,2.313,12.5,5.941c3.408,3.629,5.111,7.935,5.111,12.92c0,3.377-0.818,6.492-2.451,9.346
	c-1.639,2.848-3.836,5.135-6.605,6.85c0.496,1.607,0.746,3.127,0.746,4.568c0,4.102-1.455,7.6-4.359,10.508
	c-2.908,2.908-6.41,4.363-10.508,4.363c-3.045,0-5.816-0.83-8.309-2.492V90.66c1.164,0,2.148,0.4,2.951,1.205
	s1.205,1.789,1.205,2.949v4.156h-24.92v-4.156c0-1.16,0.402-2.145,1.205-2.949s1.788-1.205,2.95-1.205V69.813
	c-2.491,1.662-5.263,2.492-8.308,2.492c-4.098,0-7.6-1.455-10.508-4.363c-2.904-2.908-4.359-6.406-4.359-10.508
	c0-0.994,0.109-2.047,0.332-3.154c-2.601-1.162-4.693-2.959-6.27-5.399c-1.578-2.434-2.367-5.123-2.367-8.056
	c0-4.101,1.455-7.603,4.359-10.507c2.908-2.908,6.41-4.362,10.508-4.362c0.276,0,0.912,0.054,1.907,0.164
	c0-0.11-0.024-0.386-0.082-0.831c-0.058-0.447-0.083-0.806-0.083-1.079c0-6.425,2.255-11.895,6.766-16.409
	c4.516-4.515,9.984-6.771,16.41-6.768V1.029z"/>
</svg>
