<?xml version="1.0" encoding="utf-8"?>
<!-- Generator: Adobe Illustrator 21.0.0, SVG Export Plug-In . SVG Version: 6.00 Build 0)  -->
<svg version="1.1" id="Capa_1" xmlns="http://www.w3.org/2000/svg" xmlns:xlink="http://www.w3.org/1999/xlink" x="0px" y="0px"
	 viewBox="0 0 100 100" style="enable-background:new 0 0 100 100;" xml:space="preserve">
<style type="text/css">
	.st0{fill:#010002;}
</style>
<g>
	<g>
		<path class="st0" d="M99.9,19.1c-3.7,1.6-7.6,2.7-11.7,3.2c4.2-2.5,7.5-6.5,9-11.3c-4,2.3-8.3,4-13,5c-3.7-4-9-6.5-14.9-6.5
			c-11.3,0-20.5,9.2-20.5,20.5c0,1.6,0.2,3.2,0.5,4.7c-17-0.9-32.1-9-42.2-21.4c-1.8,3-2.8,6.5-2.8,10.3c0,7.1,3.6,13.4,9.1,17
			c-3.4-0.1-6.5-1-9.3-2.6v0.3c0,9.9,7.1,18.2,16.4,20.1C18.8,58.8,17,59,15.2,59c-1.3,0-2.6-0.1-3.9-0.4c2.6,8.1,10.2,14,19.1,14.2
			c-7,5.5-15.8,8.7-25.4,8.7c-1.7,0-3.3-0.1-4.9-0.3c9.1,5.8,19.8,9.2,31.4,9.2c37.6,0,58.2-31.2,58.2-58.2l-0.1-2.6
			C93.6,26.8,97.1,23.2,99.9,19.1z"/>
	</g>
</g>
</svg>
