<!--Generator: Adobe Illustrator 17.0.0, SVG Export Plug-In . SVG Version: 6.00 Build 0)-->
<svg xmlns="http://www.w3.org/2000/svg" viewBox="0 0 100 100">
  <path fill="none" d="M40.375,33.855h21.734V21.746c0-1.13-0.39-2.085-1.171-2.866c-0.781-0.781-1.736-1.171-2.866-1.171H41.927
	c-1.13,0-2.085,0.39-2.866,1.171c-0.231,0.231-0.417,0.483-0.58,0.745h1.895V33.855z"/>
  <path d="M92.02,36.236c-1.587-1.587-3.484-2.381-5.691-2.381h-8.073V17.709c0-4.413-1.588-8.208-4.763-11.383
	c-3.175-3.175-6.97-4.763-11.383-4.763H37.891c-4.413,0-8.208,1.588-11.383,4.763c-3.175,3.175-4.763,6.97-4.763,11.383v1.916H38.48
	c0.163-0.262,0.349-0.514,0.58-0.745c0.781-0.781,1.736-1.171,2.866-1.171h16.146c1.13,0,2.085,0.39,2.866,1.171
	c0.781,0.781,1.171,1.736,1.171,2.866v12.109H40.375h-2.484h-0.001H21.745H20.25h-6.578c-2.207,0-4.104,0.794-5.691,2.381
	c-1.587,1.587-2.381,3.484-2.381,5.691v48.438h0.001c0,2.207,0.794,4.104,2.381,5.691c1.587,1.587,3.484,2.381,5.691,2.381h72.656
	c2.207,0,4.104-0.794,5.691-2.381c1.587-1.587,2.381-3.484,2.381-5.691V41.927C94.401,39.72,93.607,37.823,92.02,36.236z"/>
</svg>
