<?xml version="1.0" encoding="utf-8"?>
<!-- Generated by IcoMoon.io -->
<!DOCTYPE svg PUBLIC "-//W3C//DTD SVG 1.1//EN" "http://www.w3.org/Graphics/SVG/1.1/DTD/svg11.dtd">
<svg version="1.1" xmlns="http://www.w3.org/2000/svg" xmlns:xlink="http://www.w3.org/1999/xlink" width="100" height="100" viewBox="0 0 100 100">
<g>
</g>
	<path d="M1.885 49.375q0-13.078 6.458-24.138t17.518-17.518 24.138-6.458 24.138 6.458 17.518 17.518 6.458 24.138-6.458 24.138-17.518 17.518-24.138 6.458-24.138-6.458-17.518-17.518-6.458-24.138zM16.578 49.375q0 13.805 9.809 23.613t23.613 9.809 23.613-9.809 9.809-23.613-9.809-23.613-23.613-9.809-23.613 9.809-9.809 23.613zM29.818 49.375l20.182-24.219 20.182 24.219h-12.109v24.219h-16.146v-24.219h-12.109z" fill="#000000" />
</svg>
