<svg xmlns="http://www.w3.org/2000/svg" viewBox="0 0 100 100">
  <path fill="#000000" d="M52.85,1.242v6.184c2.006,0.263,3.924,0.644,5.744,1.146c1.826,0.501,3.818,1.334,5.982,2.496
	c2.162,1.164,4.037,2.578,5.621,4.237c1.588,1.661,2.963,3.88,4.123,6.653c1.158,2.779,1.793,5.908,1.9,9.389H63.625
	c-0.211-1.9-0.488-3.456-0.828-4.672c-0.348-1.214-0.898-2.402-1.666-3.565c-0.768-1.161-1.826-2.099-3.168-2.813
	c-1.346-0.715-3.053-1.256-5.113-1.624v24.32l5.07,1.03c1.793,0.369,3.486,0.805,5.072,1.307c1.584,0.5,3.432,1.343,5.545,2.534
	c2.113,1.188,3.896,2.575,5.352,4.159c1.451,1.584,2.703,3.698,3.762,6.338c1.055,2.64,1.584,5.598,1.584,8.872
	c0,7.341-2.352,13.257-7.049,17.748c-4.705,4.49-11.146,7.049-19.334,7.685v6.099H44.93v-6.257
	c-7.922-0.845-14.182-3.565-18.774-8.161c-2.114-2.11-3.5-4.58-4.159-7.405c-0.662-2.826-1.074-6.508-1.231-11.054h11.011
	c0.266,4.069,1.547,7.393,3.844,9.982c2.303,2.588,5.402,4.305,9.311,5.149V54.479l-2.138-0.635
	c-2.433-0.739-4.519-1.438-6.257-2.101c-1.746-0.659-3.646-1.612-5.707-2.851c-2.061-1.24-3.723-2.615-4.988-4.121
	c-1.27-1.505-2.328-3.42-3.169-5.744c-0.848-2.324-1.269-4.914-1.269-7.765c0-3.698,0.658-7.024,1.98-9.98
	c1.318-2.958,3.101-5.391,5.348-7.29c2.246-1.9,4.74-3.404,7.488-4.516s5.651-1.823,8.715-2.139V1.236h7.921L52.85,1.242z
	 M44.928,40.384V18.678c-1.532,0.21-2.854,0.501-3.961,0.872c-1.108,0.369-2.22,0.936-3.327,1.699
	c-1.111,0.765-1.94,1.86-2.495,3.287c-0.553,1.426-0.832,3.141-0.832,5.148c0,1.533,0.186,2.866,0.557,4.002
	c0.372,1.133,0.805,2.03,1.307,2.692c0.502,0.663,1.254,1.257,2.259,1.782c1.007,0.529,1.839,0.898,2.495,1.107
	c0.655,0.215,1.646,0.478,2.97,0.793c0.478,0.16,0.817,0.266,1.03,0.319L44.928,40.384z M52.85,56.779v24.559
	c1.164-0.105,2.283-0.278,3.367-0.514c1.082-0.242,2.271-0.65,3.564-1.229c1.295-0.579,2.391-1.291,3.293-2.139
	c0.898-0.848,1.666-1.956,2.297-3.329c0.631-1.369,0.947-2.94,0.949-4.714c0.004-1.772-0.328-3.346-0.992-4.716
	c-0.662-1.371-1.666-2.547-3.008-3.525c-1.344-0.98-2.742-1.801-4.199-2.457c-1.459-0.656-3.213-1.307-5.271-1.943V56.779z"/>
</svg>
