<?xml version="1.0" encoding="utf-8"?>
<!-- Generated by IcoMoon.io -->
<!DOCTYPE svg PUBLIC "-//W3C//DTD SVG 1.1//EN" "http://www.w3.org/Graphics/SVG/1.1/DTD/svg11.dtd">
<svg version="1.1" xmlns="http://www.w3.org/2000/svg" xmlns:xlink="http://www.w3.org/1999/xlink" width="100" height="100" viewBox="0 0 100 100">
<g>
</g>
	<path d="M0 68.458v-33.333h25l25-16.667v66.667l-25-16.667h-25zM58.5 30.375l5.75-4.417q9.25 11.25 9.25 25.833 0 14.167-8.833 25.25l-5.583-4.583q7.167-9.167 7.167-20.667 0-12.083-7.75-21.417zM74.083 22.625l0.583 0.667q10.25 12.583 10.25 28.667 0 15.75-9.917 28.25l-0.583 0.667 6.75 5.5 0.5-0.667q11.833-14.833 11.833-33.75 0-19.167-12-34l-0.5-0.667z" fill="#000000" />
</svg>
