<svg xmlns="http://www.w3.org/2000/svg" viewBox="0 0 100 100">
  <path d="M1.215,89.434c0.63,1.586,1.807,2.378,3.532,2.378h90.506c1.727,0,2.903-0.827,3.532-2.482
	c0.63-1.655,0.455-3.228-0.524-4.72L53.357,10.749C52.425,9.163,51.306,8.312,50,8.195c-1.305-0.117-2.424,0.57-3.357,2.063
	L1.74,84.817C0.76,86.311,0.585,87.848,1.215,89.434z M10.721,83.551L50,19.735l39.279,63.816H10.721L10.721,83.551z M53.208,33.233
	l-0.903,30.986h-4.379l-0.902-30.986H53.208z M50.051,77.36c-2.191,0-3.736-1.738-3.736-3.994c0-2.319,1.61-3.995,3.865-3.995
	s3.736,1.676,3.736,3.995C53.916,75.622,52.435,77.36,50.051,77.36z"/>
</svg>
