<svg xmlns="http://www.w3.org/2000/svg" viewBox="0 0 100 100"><path d="M65.17 0v24.709h24.997zM25.547 33.274h6.293v6.329h-6.293v-6.329zM25.547 16.621h6.293v6.329h-6.293v-6.329zM42.235 33.274h6.293v6.329h-6.293v-6.329zM42.235 16.621h6.293v6.329h-6.293v-6.329z"/><path d="M23.525 54.12h66.642V28.803H61.292V0H11v100h79.167V83.454H23.525V54.12zm16.627-31.17v-8.413h10.461v10.497H40.152V22.95zm0 16.652V31.19h10.461v10.497H40.152v-2.085zM23.463 22.95v-8.413h10.461v10.497H23.463V22.95zm0 16.652V31.19h10.461v10.497H23.463v-2.085z"/><path d="M42.254 62.542h-2.051v2.051h-2.104v-2.051h-2.051v-4.135h-4.135v4.135h2.116v2.051h1.974v8.269h-2.022v2.116h-2.068v4.232h4.127v-4.232h2.059v-2.116h2.104v2.116h2.059v4.232h4.127v-4.232h-2.068v-2.116h-2.067v-8.269h2.018v-2.051h2.117v-4.135h-4.135zM79.759 58.407H69.373v2.019h-2.116v6.218h2.116v2.143h2.019v2.143h4.151v2.019h2.099v4.199h-6.25v-2.099h-4.135v2.099h2.051v2.019h10.386v-2.019h2.116V70.93h-2.116v-2.143h-2.019v-2.143h-4.151v-2.019h-2.1v-4.199h6.251v2.099h4.135v-2.099h-2.051zM54.69 58.407h-4.107V79.21h12.474v-2.083H54.69zM90.32 54.12h-.153v29.334h.153z"/></svg>
