<?xml version="1.0" encoding="utf-8"?>
<!-- Generated by IcoMoon.io -->
<!DOCTYPE svg PUBLIC "-//W3C//DTD SVG 1.1//EN" "http://www.w3.org/Graphics/SVG/1.1/DTD/svg11.dtd">
<svg version="1.1" xmlns="http://www.w3.org/2000/svg" xmlns:xlink="http://www.w3.org/1999/xlink" width="100" height="100" viewBox="0 0 100 100">
<g>
</g>
	<path d="M65.17 0v24.709h24.997z" fill="#000000" />
	<path d="M25.547 33.274h6.293v6.329h-6.293v-6.329z" fill="#000000" />
	<path d="M25.547 16.621h6.293v6.329h-6.293v-6.329z" fill="#000000" />
	<path d="M42.235 33.274h6.293v6.329h-6.293v-6.329z" fill="#000000" />
	<path d="M42.235 16.621h6.293v6.329h-6.293v-6.329z" fill="#000000" />
	<path d="M23.525 54.12h66.642v-25.317h-28.875v-28.803h-50.292v100h79.167v-16.546h-66.642v-29.334zM40.152 22.95v-8.413h10.461v10.497h-10.461v-2.084zM40.152 39.602v-8.412h10.461v10.497h-10.461v-2.085zM23.463 22.95v-8.413h10.461v10.497h-10.461v-2.084zM23.463 39.602v-8.412h10.461v10.497h-10.461v-2.085z" fill="#000000" />
	<path d="M42.254 62.542h-2.051v2.051h-2.104v-2.051h-2.051v-4.135h-4.135v4.135h2.116v2.051h1.974v8.269h-2.022v2.116h-2.068v4.232h4.127v-4.232h2.059v-2.116h2.104v2.116h2.059v4.232h4.127v-4.232h-2.068v-2.116h-2.067v-8.269h2.018v-2.051h2.117v-4.135h-4.135z" fill="#000000" />
	<path d="M79.759 58.407h-10.386v2.019h-2.116v6.218h2.116v2.143h2.019v2.143h4.151v2.019h2.099v4.199h-6.25v-2.099h-4.135v2.099h2.051v2.019h10.386v-2.019h2.116v-6.218h-2.116v-2.143h-2.019v-2.143h-4.151v-2.019h-2.1v-4.199h6.251v2.099h4.135v-2.099h-2.051z" fill="#000000" />
	<path d="M54.69 58.407h-4.107v20.803h12.474v-2.083h-8.367z" fill="#000000" />
	<path d="M90.32 54.12h-0.153v29.334h0.153z" fill="#000000" />
</svg>
