<svg xmlns="http://www.w3.org/2000/svg" viewBox="0 0 100 100">
  <path fill="#000000" d="M69.938,1.26h22.156c0.594,0,0.961,0.146,1.107,0.441c0.146,0.292-0.017,0.679-0.487,1.152l-32.26,32.26
	c-0.356,0.354-0.682,0.886-0.974,1.594h23.75c0.591,0,0.975,0.179,1.156,0.532c0.175,0.357,0.084,0.77-0.268,1.239L73.482,52.661
	c-0.351,0.471-0.883,0.883-1.594,1.24c-0.71,0.354-1.36,0.531-1.95,0.531H58.861v8.86h24.37c0.591,0,0.975,0.179,1.156,0.533
	c0.175,0.356,0.084,0.769-0.268,1.239L73.482,79.248c-0.351,0.471-0.883,0.883-1.594,1.24c-0.71,0.354-1.36,0.531-1.95,0.531H58.861
	v15.42c0,0.649-0.224,1.194-0.665,1.639c-0.441,0.441-0.986,0.662-1.636,0.662H43.442c-0.649,0-1.194-0.221-1.639-0.662
	c-0.445-0.444-0.665-0.989-0.665-1.639V81.02H16.768c-0.594,0-0.977-0.178-1.151-0.531c-0.179-0.357-0.091-0.77,0.266-1.24
	l10.632-14.183c0.357-0.471,0.89-0.883,1.598-1.239c0.707-0.354,1.355-0.533,1.949-0.533h11.078v-8.86H16.768
	c-0.594,0-0.977-0.178-1.151-0.531c-0.179-0.357-0.091-0.77,0.266-1.24l10.632-14.183c0.357-0.47,0.89-0.882,1.598-1.239
	c0.707-0.354,1.355-0.532,1.949-0.532h10.461c-0.299-0.708-0.623-1.24-0.974-1.594L7.287,2.854C6.814,2.383,6.652,1.997,6.798,1.701
	C6.944,1.403,7.314,1.253,7.904,1.26h22.156c1.478,0,2.75,0.529,3.814,1.594l14.533,14.533c0.471,0.47,1,0.708,1.594,0.708
	s1.123-0.238,1.594-0.708L66.128,2.854c1.064-1.064,2.338-1.594,3.813-1.594H69.938z"/>
</svg>
