<?xml version="1.0" encoding="utf-8"?>
<!-- Generator: Adobe Illustrator 21.0.0, SVG Export Plug-In . SVG Version: 6.00 Build 0)  -->
<svg version="1.1" id="Capa_1" xmlns="http://www.w3.org/2000/svg" xmlns:xlink="http://www.w3.org/1999/xlink" x="0px" y="0px"
	 viewBox="0 0 100 100" style="enable-background:new 0 0 100 100;" xml:space="preserve">
<g>
	<path d="M96.8,27.1c-1.2-5.2-5.4-9-10.5-9.5c-12-1.3-24.2-1.3-36.3-1.3c-12.1,0-24.3,0-36.3,1.3c-5.1,0.6-9.3,4.4-10.5,9.5
		C1.6,34.4,1.6,42.4,1.6,50s0,15.6,1.7,22.9c1.2,5.2,5.4,9,10.5,9.5c12,1.3,24.2,1.3,36.3,1.3c12.1,0,24.3,0,36.3-1.3
		c5.1-0.6,9.3-4.4,10.5-9.5c1.7-7.3,1.7-15.3,1.7-22.9C98.4,42.4,98.5,34.4,96.8,27.1z M37.5,65c0-10.7,0-21.3,0-32
		C47.8,38.4,58,43.7,68.3,49.1C58,54.4,47.8,59.7,37.5,65z"/>
</g>
</svg>
