<?xml version="1.0" encoding="utf-8"?>
<!-- Generator: Adobe Illustrator 15.0.0, SVG Export Plug-In . SVG Version: 6.00 Build 0)  -->
<!DOCTYPE svg PUBLIC "-//W3C//DTD SVG 1.1//EN" "http://www.w3.org/Graphics/SVG/1.1/DTD/svg11.dtd">
<svg version="1.1" id="Calque_1" xmlns="http://www.w3.org/2000/svg" xmlns:xlink="http://www.w3.org/1999/xlink" x="0px" y="0px"
	 width="103px" height="100px" viewBox="0 0 103 100" enable-background="new 0 0 103 100" xml:space="preserve">
<path d="M3.468,41.281c0-10.764,3.821-19.967,11.463-27.609C22.573,6.03,31.776,2.209,42.54,2.209
	c10.765,0,19.967,3.821,27.608,11.463c7.643,7.642,11.463,16.845,11.463,27.609c0,7.642-2.098,14.665-6.297,21.07l24.22,24.219
	c0.376,0.43,0.565,0.914,0.565,1.453c0,0.537-0.189,1.021-0.565,1.453l-8.8,8.799c-0.43,0.377-0.914,0.564-1.452,0.564
	s-1.022-0.188-1.453-0.564l-24.22-24.219c-6.404,4.197-13.427,6.297-21.069,6.297c-10.764,0-19.967-3.821-27.609-11.463
	C7.289,61.248,3.468,52.045,3.468,41.281z M15.82,41.281c0,7.319,2.61,13.589,7.831,18.81s11.518,7.831,18.891,7.831
	s13.657-2.597,18.851-7.79s7.789-11.477,7.789-18.85c0-7.374-2.596-13.657-7.789-18.85s-11.477-7.79-18.851-7.79
	s-13.67,2.61-18.891,7.831s-7.831,11.491-7.831,18.81V41.281z"/>
<path d="M58.865,37.782c1.741,0.001,3.153,1.279,3.155,2.859c0.001,1.579-1.413,2.859-3.152,2.858L44.667,43.5l0,14.2
	c-0.003,1.737-1.281,3.15-2.859,3.153c-1.578,0-2.857-1.415-2.859-3.155V43.5H24.751c-1.742-0.002-3.154-1.28-3.156-2.858
	c-0.001-1.581,1.413-2.859,3.153-2.86l14.201,0l0-14.202c0.002-1.736,1.28-3.149,2.859-3.152c1.578,0,2.857,1.414,2.858,3.155
	v14.198H58.865z"/>
</svg>
