<?xml version="1.0" encoding="utf-8"?>
<!-- Generator: Adobe Illustrator 15.0.0, SVG Export Plug-In . SVG Version: 6.00 Build 0)  -->
<!DOCTYPE svg PUBLIC "-//W3C//DTD SVG 1.1//EN" "http://www.w3.org/Graphics/SVG/1.1/DTD/svg11.dtd">
<svg version="1.1" id="Calque_1" xmlns="http://www.w3.org/2000/svg" xmlns:xlink="http://www.w3.org/1999/xlink" x="0px" y="0px"
	 width="102px" height="100px" viewBox="0 0 102 100" enable-background="new 0 0 102 100" xml:space="preserve">
<path d="M3.419,40.224c0-10.764,3.821-19.967,11.463-27.609C22.524,4.973,31.727,1.152,42.491,1.152
	c10.764,0,19.967,3.821,27.608,11.463c7.643,7.642,11.463,16.845,11.463,27.609c0,7.588-2.099,14.639-6.297,21.151l24.219,24.139
	c0.377,0.376,0.565,0.86,0.565,1.452c0,0.593-0.188,1.077-0.565,1.453l-8.799,8.799c-0.43,0.431-0.914,0.646-1.453,0.646
	c-0.537,0-1.021-0.216-1.453-0.646L63.561,72.999c-6.404,4.198-13.428,6.297-21.069,6.297c-10.764,0-19.967-3.821-27.609-11.463
	C7.24,60.191,3.419,50.988,3.419,40.224z M15.771,40.224c0,7.319,2.61,13.589,7.831,18.81s11.518,7.831,18.891,7.831
	c7.373,0,13.657-2.61,18.85-7.831c5.193-5.221,7.79-11.491,7.79-18.81s-2.597-13.589-7.79-18.81
	c-5.192-5.221-11.477-7.831-18.85-7.831c-7.374,0-13.67,2.61-18.891,7.831S15.771,32.905,15.771,40.224z"/>
<path d="M59.365,36.532c1.741,0.001,3.153,1.279,3.155,2.858c0.001,1.58-1.413,2.859-3.152,2.858L45.166,42.25h-5.717H25.251
	c-1.742-0.002-3.154-1.279-3.156-2.858c-0.001-1.581,1.413-2.859,3.153-2.86l14.201,0.001h5.717H59.365z"/>
</svg>
