<?xml version="1.0" encoding="utf-8"?>
<!-- Generator: Adobe Illustrator 16.0.0, SVG Export Plug-In . SVG Version: 6.00 Build 0)  -->
<!DOCTYPE svg PUBLIC "-//W3C//DTD SVG 1.1//EN" "http://www.w3.org/Graphics/SVG/1.1/DTD/svg11.dtd">
<svg version="1.1" id="Calque_1" xmlns="http://www.w3.org/2000/svg" xmlns:xlink="http://www.w3.org/1999/xlink" x="0px" y="0px"
	 width="1064.89px" height="222.25px" viewBox="0 0 1064.89 222.25" enable-background="new 0 0 1064.89 222.25"
	 xml:space="preserve">
<g>
	
		<linearGradient id="SVGID_1_" gradientUnits="userSpaceOnUse" x1="-3063.9756" y1="65.8164" x2="-1999.0854" y2="65.8164" gradientTransform="matrix(1 0 0 -1 3063.9756 176.8164)">
		<stop  offset="0" style="stop-color:#848484;stop-opacity:0.03"/>
		<stop  offset="0.0027" style="stop-color:#A0A0A0;stop-opacity:0.0835"/>
		<stop  offset="0.006" style="stop-color:#BBBBBB;stop-opacity:0.1492"/>
		<stop  offset="0.0098" style="stop-color:#D1D1D1;stop-opacity:0.2247"/>
		<stop  offset="0.0143" style="stop-color:#E2E2E2;stop-opacity:0.3129"/>
		<stop  offset="0.0198" style="stop-color:#EDEDED;stop-opacity:0.422"/>
		<stop  offset="0.0275" style="stop-color:#F4F4F4;stop-opacity:0.5751"/>
		<stop  offset="0.049" style="stop-color:#F6F6F6"/>
	</linearGradient>
	<rect y="-0.25" fill="url(#SVGID_1_)" width="1064.89" height="222.5"/>
	<rect x="38.695" y="40" fill="#FFC0D2" width="69.591" height="100"/>
	<rect x="120.938" y="40" fill="#FFC0D2" width="69.59" height="100"/>
	<rect x="204.085" y="40" fill="#FFC0D2" width="69.591" height="100"/>
	<rect x="286.33" y="40" fill="#FFC0D2" width="69.59" height="100"/>
	<rect x="370.38" y="40" fill="#FFC0D2" width="69.591" height="100"/>
	<rect x="452.624" y="40" fill="#FFC0D2" width="69.59" height="100"/>
	<rect x="535.771" y="40" fill="#FFC0D2" width="69.591" height="100"/>
	<rect x="618.015" y="40" fill="#FFC0D2" width="69.59" height="100"/>
	<rect x="702.97" y="40" fill="#FFC0D2" width="69.59" height="100"/>
	<rect x="785.213" y="40" fill="#FFC0D2" width="69.591" height="100"/>
	<rect x="868.361" y="40" fill="#FFC0D2" width="69.59" height="100"/>
	<rect x="950.604" y="40" fill="#FFC0D2" width="69.591" height="100"/>
	<line stroke="#FF0000" stroke-miterlimit="10" x1="38.695" y1="0" x2="38.695" y2="222.25"/>
	<line stroke="#FF0000" stroke-miterlimit="10" x1="1020.195" y1="-0.125" x2="1020.195" y2="222.125"/>
	<g>
		<path d="M50.55,188.96c-0.702,0.252-2.088,0.666-3.727,0.666c-1.836,0-3.349-0.468-4.537-1.603
			c-1.044-1.008-1.692-2.629-1.692-4.52c0.018-3.619,2.502-6.266,6.572-6.266c1.404,0,2.502,0.307,3.025,0.559l-0.378,1.278
			c-0.648-0.288-1.458-0.522-2.683-0.522c-2.953,0-4.879,1.837-4.879,4.88c0,3.078,1.854,4.897,4.682,4.897
			c1.026,0,1.729-0.145,2.088-0.324v-3.619h-2.467v-1.261h3.997V188.96z"/>
		<path d="M52.887,183.504c0-1.026-0.018-1.908-0.072-2.719h1.387l0.054,1.711h0.072c0.396-1.171,1.351-1.909,2.413-1.909
			c0.18,0,0.306,0.019,0.45,0.055v1.494c-0.162-0.036-0.324-0.054-0.54-0.054c-1.117,0-1.909,0.846-2.125,2.034
			c-0.036,0.216-0.072,0.469-0.072,0.738v4.646h-1.566V183.504z"/>
		<path d="M60.61,178.337c0.018,0.54-0.378,0.972-1.008,0.972c-0.558,0-0.955-0.432-0.955-0.972c0-0.559,0.414-0.99,0.99-0.99
			C60.231,177.347,60.61,177.778,60.61,178.337z M58.845,189.5v-8.715h1.584v8.715H58.845z"/>
		<path d="M63.057,176.716h1.584V189.5h-1.584V176.716z"/>
		<path d="M67.305,176.716h1.584V189.5h-1.584V176.716z"/>
		<path d="M72.435,185.431c0.036,2.143,1.404,3.025,2.989,3.025c1.134,0,1.818-0.198,2.413-0.45l0.27,1.134
			c-0.558,0.252-1.512,0.54-2.899,0.54c-2.683,0-4.285-1.764-4.285-4.393s1.549-4.7,4.087-4.7c2.845,0,3.601,2.503,3.601,4.105
			c0,0.324-0.036,0.576-0.054,0.738H72.435z M77.081,184.297c0.018-1.009-0.415-2.575-2.197-2.575c-1.603,0-2.305,1.477-2.431,2.575
			H77.081z"/>
		<path d="M91.913,176.716v10.533c0,0.774,0.018,1.657,0.072,2.251h-1.422l-0.072-1.513h-0.036
			c-0.486,0.973-1.548,1.711-2.971,1.711c-2.106,0-3.727-1.782-3.727-4.43c-0.018-2.898,1.783-4.682,3.907-4.682
			c1.333,0,2.233,0.631,2.629,1.333h0.036v-5.204H91.913z M90.328,184.332c0-0.197-0.018-0.468-0.072-0.666
			c-0.234-1.008-1.098-1.836-2.287-1.836c-1.639,0-2.611,1.44-2.611,3.366c0,1.765,0.864,3.224,2.575,3.224
			c1.063,0,2.035-0.702,2.323-1.891c0.054-0.216,0.072-0.433,0.072-0.685V184.332z"/>
		<path d="M95.42,185.431c0.036,2.143,1.404,3.025,2.989,3.025c1.134,0,1.818-0.198,2.413-0.45l0.27,1.134
			c-0.558,0.252-1.512,0.54-2.899,0.54c-2.683,0-4.285-1.764-4.285-4.393s1.549-4.7,4.087-4.7c2.845,0,3.601,2.503,3.601,4.105
			c0,0.324-0.036,0.576-0.054,0.738H95.42z M100.066,184.297c0.018-1.009-0.415-2.575-2.197-2.575c-1.603,0-2.305,1.477-2.431,2.575
			H100.066z"/>
		<path d="M110.307,179.273h-0.036l-2.035,1.098l-0.306-1.206l2.557-1.368h1.351V189.5h-1.53V179.273z"/>
		<path d="M116.102,189.5v-0.973l1.243-1.206c2.989-2.845,4.339-4.357,4.357-6.122c0-1.188-0.576-2.286-2.323-2.286
			c-1.063,0-1.945,0.54-2.485,0.99l-0.504-1.116c0.811-0.685,1.963-1.188,3.313-1.188c2.521,0,3.583,1.729,3.583,3.403
			c0,2.16-1.566,3.906-4.033,6.283l-0.936,0.864v0.036h5.257v1.314H116.102z"/>
		<path d="M135.867,189.176c-0.414,0.216-1.333,0.504-2.503,0.504c-2.629,0-4.339-1.782-4.339-4.447
			c0-2.683,1.837-4.627,4.682-4.627c0.936,0,1.765,0.234,2.196,0.45l-0.36,1.225c-0.378-0.217-0.972-0.415-1.836-0.415
			c-1.999,0-3.079,1.477-3.079,3.296c0,2.017,1.296,3.259,3.025,3.259c0.9,0,1.495-0.234,1.945-0.433L135.867,189.176z"/>
		<path d="M145.498,185.07c0,3.224-2.232,4.628-4.339,4.628c-2.358,0-4.177-1.729-4.177-4.483c0-2.917,1.909-4.628,4.321-4.628
			C143.805,180.587,145.498,182.406,145.498,185.07z M138.583,185.161c0,1.908,1.099,3.349,2.647,3.349
			c1.512,0,2.646-1.423,2.646-3.385c0-1.477-0.738-3.35-2.611-3.35C139.394,181.775,138.583,183.504,138.583,185.161z"/>
		<path d="M147.493,176.716h1.584V189.5h-1.584V176.716z"/>
		<path d="M159.627,185.07c0,3.224-2.232,4.628-4.339,4.628c-2.358,0-4.177-1.729-4.177-4.483c0-2.917,1.909-4.628,4.321-4.628
			C157.935,180.587,159.627,182.406,159.627,185.07z M152.713,185.161c0,1.908,1.099,3.349,2.647,3.349
			c1.512,0,2.646-1.423,2.646-3.385c0-1.477-0.738-3.35-2.611-3.35C153.524,181.775,152.713,183.504,152.713,185.161z"/>
		<path d="M161.623,183.145c0-0.9-0.018-1.639-0.072-2.359h1.405l0.09,1.44h0.036c0.432-0.828,1.44-1.639,2.881-1.639
			c1.206,0,3.079,0.721,3.079,3.71v5.203h-1.584v-5.023c0-1.404-0.522-2.575-2.017-2.575c-1.044,0-1.854,0.738-2.125,1.621
			c-0.072,0.198-0.108,0.468-0.108,0.738v5.239h-1.584V183.145z"/>
		<path d="M171.613,183.145c0-0.9-0.018-1.639-0.072-2.359h1.405l0.09,1.44h0.036c0.432-0.828,1.44-1.639,2.881-1.639
			c1.206,0,3.079,0.721,3.079,3.71v5.203h-1.584v-5.023c0-1.404-0.522-2.575-2.017-2.575c-1.044,0-1.854,0.738-2.125,1.621
			c-0.072,0.198-0.108,0.468-0.108,0.738v5.239h-1.584V183.145z"/>
		<path d="M182.485,185.431c0.036,2.143,1.404,3.025,2.989,3.025c1.134,0,1.818-0.198,2.413-0.45l0.27,1.134
			c-0.558,0.252-1.512,0.54-2.899,0.54c-2.683,0-4.285-1.764-4.285-4.393s1.549-4.7,4.087-4.7c2.845,0,3.601,2.503,3.601,4.105
			c0,0.324-0.036,0.576-0.054,0.738H182.485z M187.13,184.297c0.018-1.009-0.415-2.575-2.197-2.575
			c-1.603,0-2.305,1.477-2.431,2.575H187.13z"/>
		<path d="M190.404,187.88c0.468,0.306,1.296,0.63,2.089,0.63c1.152,0,1.692-0.576,1.692-1.297c0-0.756-0.45-1.17-1.621-1.602
			c-1.566-0.559-2.305-1.423-2.305-2.467c0-1.405,1.135-2.558,3.007-2.558c0.882,0,1.657,0.253,2.143,0.541l-0.396,1.152
			c-0.342-0.217-0.972-0.505-1.782-0.505c-0.937,0-1.458,0.54-1.458,1.188c0,0.721,0.522,1.045,1.656,1.477
			c1.513,0.576,2.287,1.332,2.287,2.629c0,1.53-1.188,2.61-3.259,2.61c-0.954,0-1.836-0.233-2.449-0.594L190.404,187.88z"/>
		<path d="M209.091,176.716v10.533c0,0.774,0.018,1.657,0.072,2.251h-1.422l-0.072-1.513h-0.036
			c-0.486,0.973-1.549,1.711-2.971,1.711c-2.106,0-3.727-1.782-3.727-4.43c-0.018-2.898,1.783-4.682,3.907-4.682
			c1.333,0,2.233,0.631,2.629,1.333h0.036v-5.204H209.091z M207.506,184.332c0-0.197-0.018-0.468-0.072-0.666
			c-0.234-1.008-1.098-1.836-2.287-1.836c-1.639,0-2.611,1.44-2.611,3.366c0,1.765,0.864,3.224,2.575,3.224
			c1.063,0,2.035-0.702,2.323-1.891c0.054-0.216,0.072-0.433,0.072-0.685V184.332z"/>
		<path d="M212.599,185.431c0.036,2.143,1.404,3.025,2.989,3.025c1.134,0,1.818-0.198,2.413-0.45l0.27,1.134
			c-0.558,0.252-1.512,0.54-2.898,0.54c-2.683,0-4.286-1.764-4.286-4.393s1.548-4.7,4.087-4.7c2.845,0,3.601,2.503,3.601,4.105
			c0,0.324-0.036,0.576-0.054,0.738H212.599z M217.244,184.297c0.018-1.009-0.414-2.575-2.196-2.575
			c-1.603,0-2.305,1.477-2.431,2.575H217.244z"/>
		<path d="M224.964,188.384c0.342,0.036,0.738,0,1.278-0.054c0.918-0.127,1.783-0.505,2.449-1.135
			c0.774-0.702,1.333-1.729,1.548-3.115h-0.054c-0.648,0.793-1.584,1.261-2.755,1.261c-2.107,0-3.457-1.585-3.457-3.583
			c0-2.215,1.603-4.159,3.997-4.159c2.395,0,3.871,1.944,3.871,4.934c0,2.574-0.864,4.375-2.017,5.491
			c-0.9,0.883-2.143,1.423-3.403,1.566c-0.576,0.09-1.081,0.108-1.458,0.09V188.384z M225.54,181.649
			c0,1.459,0.882,2.485,2.25,2.485c1.063,0,1.891-0.522,2.305-1.225c0.09-0.145,0.144-0.324,0.144-0.576
			c0-1.999-0.738-3.529-2.395-3.529C226.494,178.805,225.54,179.993,225.54,181.649z"/>
		<path d="M239.959,178.913c-0.324-0.019-0.738,0-1.188,0.071c-2.484,0.415-3.799,2.233-4.069,4.16h0.054
			c0.558-0.738,1.531-1.351,2.827-1.351c2.071,0,3.529,1.494,3.529,3.781c0,2.143-1.458,4.123-3.889,4.123
			c-2.503,0-4.141-1.944-4.141-4.987c0-2.305,0.828-4.124,1.98-5.276c0.972-0.954,2.269-1.548,3.745-1.729
			c0.468-0.071,0.864-0.09,1.152-0.09V178.913z M239.509,185.665c0-1.675-0.954-2.683-2.413-2.683c-0.955,0-1.836,0.594-2.269,1.44
			c-0.108,0.18-0.18,0.414-0.18,0.702c0.036,1.926,0.918,3.349,2.575,3.349C238.591,188.474,239.509,187.34,239.509,185.665z"/>
		<path d="M243.018,183.63c0-1.116-0.036-2.017-0.072-2.845h1.422l0.072,1.495h0.036c0.648-1.063,1.674-1.693,3.097-1.693
			c2.107,0,3.691,1.783,3.691,4.43c0,3.133-1.909,4.682-3.961,4.682c-1.152,0-2.161-0.504-2.683-1.368h-0.036v4.735h-1.566V183.63z
			 M244.584,185.953c0,0.234,0.036,0.45,0.072,0.648c0.288,1.098,1.243,1.854,2.377,1.854c1.674,0,2.647-1.369,2.647-3.367
			c0-1.747-0.918-3.241-2.593-3.241c-1.081,0-2.089,0.774-2.395,1.963c-0.054,0.198-0.108,0.432-0.108,0.648V185.953z"/>
		<path d="M253.746,180.785l1.242,1.873c0.324,0.486,0.594,0.936,0.882,1.422h0.054c0.288-0.521,0.576-0.972,0.864-1.44l1.224-1.854
			h1.71l-2.971,4.214l3.061,4.501h-1.801l-1.278-1.963c-0.342-0.504-0.63-0.99-0.936-1.512h-0.036
			c-0.288,0.521-0.594,0.99-0.918,1.512l-1.26,1.963h-1.747l3.097-4.447l-2.953-4.268H253.746z"/>
		<path d="M260.315,191.715c0.396-1.063,0.882-2.989,1.08-4.304l1.765-0.18c-0.414,1.53-1.206,3.529-1.71,4.375L260.315,191.715z"/>
		<path d="M273.708,189.5l-0.126-1.099h-0.054c-0.486,0.685-1.422,1.297-2.665,1.297c-1.765,0-2.665-1.242-2.665-2.503
			c0-2.106,1.873-3.259,5.239-3.241v-0.18c0-0.721-0.198-2.017-1.98-2.017c-0.81,0-1.656,0.252-2.269,0.648l-0.36-1.045
			c0.72-0.468,1.765-0.774,2.863-0.774c2.665,0,3.313,1.819,3.313,3.565v3.259c0,0.757,0.036,1.495,0.144,2.089H273.708z
			 M273.474,185.053c-1.729-0.036-3.691,0.27-3.691,1.963c0,1.026,0.684,1.512,1.494,1.512c1.134,0,1.854-0.72,2.107-1.458
			c0.054-0.162,0.09-0.342,0.09-0.504V185.053z"/>
		<path d="M278.027,180.785l1.71,4.897c0.288,0.792,0.522,1.513,0.702,2.233h0.054c0.198-0.721,0.45-1.441,0.738-2.233l1.693-4.897
			h1.656l-3.421,8.715h-1.513l-3.313-8.715H278.027z"/>
		<path d="M286.775,185.431c0.036,2.143,1.404,3.025,2.989,3.025c1.134,0,1.818-0.198,2.413-0.45l0.27,1.134
			c-0.558,0.252-1.512,0.54-2.899,0.54c-2.683,0-4.285-1.764-4.285-4.393s1.549-4.7,4.087-4.7c2.845,0,3.601,2.503,3.601,4.105
			c0,0.324-0.036,0.576-0.054,0.738H286.775z M291.42,184.297c0.018-1.009-0.415-2.575-2.197-2.575
			c-1.603,0-2.305,1.477-2.431,2.575H291.42z"/>
		<path d="M301.123,189.176c-0.414,0.216-1.333,0.504-2.503,0.504c-2.629,0-4.339-1.782-4.339-4.447
			c0-2.683,1.836-4.627,4.682-4.627c0.936,0,1.764,0.234,2.197,0.45l-0.36,1.225c-0.378-0.217-0.972-0.415-1.836-0.415
			c-1.999,0-3.079,1.477-3.079,3.296c0,2.017,1.296,3.259,3.025,3.259c0.9,0,1.495-0.234,1.945-0.433L301.123,189.176z"/>
		<path d="M314.317,176.716v10.533c0,0.774,0.018,1.657,0.072,2.251h-1.422l-0.072-1.513h-0.036
			c-0.486,0.973-1.548,1.711-2.971,1.711c-2.106,0-3.727-1.782-3.727-4.43c-0.018-2.898,1.783-4.682,3.907-4.682
			c1.333,0,2.233,0.631,2.629,1.333h0.036v-5.204H314.317z M312.732,184.332c0-0.197-0.018-0.468-0.072-0.666
			c-0.234-1.008-1.098-1.836-2.287-1.836c-1.639,0-2.611,1.44-2.611,3.366c0,1.765,0.864,3.224,2.575,3.224
			c1.063,0,2.035-0.702,2.323-1.891c0.054-0.216,0.072-0.433,0.072-0.685V184.332z"/>
		<path d="M317.825,185.431c0.036,2.143,1.404,3.025,2.989,3.025c1.134,0,1.818-0.198,2.413-0.45l0.27,1.134
			c-0.558,0.252-1.512,0.54-2.899,0.54c-2.683,0-4.285-1.764-4.285-4.393s1.549-4.7,4.087-4.7c2.845,0,3.601,2.503,3.601,4.105
			c0,0.324-0.036,0.576-0.054,0.738H317.825z M322.47,184.297c0.018-1.009-0.415-2.575-2.197-2.575
			c-1.603,0-2.305,1.477-2.431,2.575H322.47z"/>
		<path d="M325.744,187.88c0.468,0.306,1.296,0.63,2.089,0.63c1.152,0,1.692-0.576,1.692-1.297c0-0.756-0.45-1.17-1.621-1.602
			c-1.566-0.559-2.305-1.423-2.305-2.467c0-1.405,1.134-2.558,3.007-2.558c0.882,0,1.656,0.253,2.143,0.541l-0.396,1.152
			c-0.342-0.217-0.972-0.505-1.782-0.505c-0.937,0-1.458,0.54-1.458,1.188c0,0.721,0.522,1.045,1.656,1.477
			c1.513,0.576,2.287,1.332,2.287,2.629c0,1.53-1.188,2.61-3.259,2.61c-0.954,0-1.836-0.233-2.449-0.594L325.744,187.88z"/>
		<path d="M344.412,180.785c-0.036,0.631-0.072,1.333-0.072,2.395v5.06c0,1.999-0.396,3.224-1.242,3.979
			c-0.846,0.792-2.071,1.044-3.169,1.044c-1.044,0-2.197-0.252-2.899-0.72l0.396-1.206c0.576,0.359,1.477,0.684,2.557,0.684
			c1.62,0,2.809-0.846,2.809-3.043v-0.972h-0.036c-0.486,0.81-1.422,1.458-2.772,1.458c-2.161,0-3.709-1.837-3.709-4.249
			c0-2.953,1.927-4.628,3.925-4.628c1.513,0,2.341,0.793,2.719,1.513h0.036l0.072-1.314H344.412z M342.773,184.225
			c0-0.271-0.018-0.504-0.09-0.721c-0.288-0.918-1.063-1.674-2.215-1.674c-1.512,0-2.593,1.278-2.593,3.295
			c0,1.71,0.864,3.133,2.575,3.133c0.973,0,1.854-0.612,2.197-1.621c0.09-0.27,0.126-0.576,0.126-0.846V184.225z"/>
		<path d="M354.852,185.07c0,3.224-2.232,4.628-4.339,4.628c-2.358,0-4.177-1.729-4.177-4.483c0-2.917,1.909-4.628,4.321-4.628
			C353.16,180.587,354.852,182.406,354.852,185.07z M347.938,185.161c0,1.908,1.099,3.349,2.647,3.349
			c1.512,0,2.646-1.423,2.646-3.385c0-1.477-0.738-3.35-2.611-3.35C348.749,181.775,347.938,183.504,347.938,185.161z"/>
		<path d="M364.14,187.123c0,0.9,0.018,1.692,0.072,2.377h-1.405l-0.09-1.423h-0.036c-0.414,0.702-1.332,1.621-2.881,1.621
			c-1.368,0-3.007-0.757-3.007-3.817v-5.096h1.584v4.826c0,1.656,0.504,2.772,1.945,2.772c1.062,0,1.8-0.738,2.088-1.44
			c0.09-0.234,0.144-0.522,0.144-0.811v-5.348h1.584V187.123z"/>
		<path d="M368.674,178.282v2.503h2.269v1.207h-2.269v4.699c0,1.08,0.306,1.692,1.188,1.692c0.415,0,0.72-0.054,0.918-0.108
			l0.072,1.188c-0.306,0.126-0.792,0.216-1.405,0.216c-0.738,0-1.333-0.233-1.71-0.666c-0.45-0.468-0.612-1.242-0.612-2.269v-4.753
			h-1.35v-1.207h1.35v-2.088L368.674,178.282z"/>
		<path d="M374.632,178.282v2.503h2.269v1.207h-2.269v4.699c0,1.08,0.306,1.692,1.188,1.692c0.414,0,0.72-0.054,0.918-0.108
			l0.072,1.188c-0.306,0.126-0.792,0.216-1.404,0.216c-0.738,0-1.332-0.233-1.71-0.666c-0.45-0.468-0.612-1.242-0.612-2.269v-4.753
			h-1.35v-1.207h1.35v-2.088L374.632,178.282z"/>
		<path d="M380.446,178.337c0.018,0.54-0.378,0.972-1.008,0.972c-0.558,0-0.955-0.432-0.955-0.972c0-0.559,0.414-0.99,0.99-0.99
			C380.067,177.347,380.446,177.778,380.446,178.337z M378.681,189.5v-8.715h1.584v8.715H378.681z"/>
		<path d="M383.775,185.431c0.036,2.143,1.404,3.025,2.989,3.025c1.134,0,1.818-0.198,2.413-0.45l0.27,1.134
			c-0.558,0.252-1.512,0.54-2.898,0.54c-2.683,0-4.286-1.764-4.286-4.393s1.548-4.7,4.087-4.7c2.845,0,3.601,2.503,3.601,4.105
			c0,0.324-0.036,0.576-0.054,0.738H383.775z M388.42,184.297c0.018-1.009-0.414-2.575-2.196-2.575
			c-1.603,0-2.305,1.477-2.431,2.575H388.42z M385.756,177.022l1.584,2.574h-1.134l-2.197-2.574H385.756z"/>
		<path d="M391.911,183.504c0-1.026-0.018-1.908-0.072-2.719h1.387l0.054,1.711h0.072c0.396-1.171,1.35-1.909,2.413-1.909
			c0.18,0,0.306,0.019,0.45,0.055v1.494c-0.162-0.036-0.324-0.054-0.54-0.054c-1.116,0-1.909,0.846-2.125,2.034
			c-0.036,0.216-0.072,0.469-0.072,0.738v4.646h-1.566V183.504z"/>
		<path d="M398.5,185.431c0.036,2.143,1.404,3.025,2.989,3.025c1.134,0,1.818-0.198,2.413-0.45l0.27,1.134
			c-0.558,0.252-1.512,0.54-2.899,0.54c-2.683,0-4.285-1.764-4.285-4.393s1.549-4.7,4.087-4.7c2.845,0,3.601,2.503,3.601,4.105
			c0,0.324-0.036,0.576-0.054,0.738H398.5z M403.145,184.297c0.018-1.009-0.415-2.575-2.197-2.575c-1.603,0-2.305,1.477-2.431,2.575
			H403.145z"/>
		<path d="M406.418,187.88c0.468,0.306,1.296,0.63,2.089,0.63c1.152,0,1.692-0.576,1.692-1.297c0-0.756-0.45-1.17-1.621-1.602
			c-1.566-0.559-2.305-1.423-2.305-2.467c0-1.405,1.134-2.558,3.007-2.558c0.882,0,1.656,0.253,2.143,0.541l-0.396,1.152
			c-0.342-0.217-0.972-0.505-1.782-0.505c-0.937,0-1.458,0.54-1.458,1.188c0,0.721,0.522,1.045,1.656,1.477
			c1.513,0.576,2.287,1.332,2.287,2.629c0,1.53-1.188,2.61-3.259,2.61c-0.954,0-1.836-0.233-2.449-0.594L406.418,187.88z"/>
		<path d="M425.105,176.716v10.533c0,0.774,0.018,1.657,0.072,2.251h-1.422l-0.072-1.513h-0.036
			c-0.486,0.973-1.548,1.711-2.971,1.711c-2.106,0-3.727-1.782-3.727-4.43c-0.018-2.898,1.783-4.682,3.907-4.682
			c1.333,0,2.233,0.631,2.629,1.333h0.036v-5.204H425.105z M423.521,184.332c0-0.197-0.018-0.468-0.072-0.666
			c-0.234-1.008-1.098-1.836-2.287-1.836c-1.639,0-2.611,1.44-2.611,3.366c0,1.765,0.864,3.224,2.575,3.224
			c1.063,0,2.035-0.702,2.323-1.891c0.054-0.216,0.072-0.433,0.072-0.685V184.332z"/>
		<path d="M428.613,185.431c0.036,2.143,1.404,3.025,2.989,3.025c1.134,0,1.818-0.198,2.413-0.45l0.27,1.134
			c-0.558,0.252-1.512,0.54-2.899,0.54c-2.683,0-4.285-1.764-4.285-4.393s1.549-4.7,4.087-4.7c2.845,0,3.601,2.503,3.601,4.105
			c0,0.324-0.036,0.576-0.054,0.738H428.613z M433.258,184.297c0.018-1.009-0.415-2.575-2.197-2.575
			c-1.603,0-2.305,1.477-2.431,2.575H433.258z"/>
		<path d="M443.5,179.273h-0.036l-2.035,1.098l-0.306-1.206l2.557-1.368h1.351V189.5h-1.53V179.273z"/>
		<path d="M455.974,178.913c-0.324-0.019-0.738,0-1.188,0.071c-2.485,0.415-3.799,2.233-4.069,4.16h0.054
			c0.558-0.738,1.53-1.351,2.827-1.351c2.07,0,3.529,1.494,3.529,3.781c0,2.143-1.458,4.123-3.889,4.123
			c-2.503,0-4.141-1.944-4.141-4.987c0-2.305,0.828-4.124,1.98-5.276c0.972-0.954,2.269-1.548,3.745-1.729
			c0.468-0.071,0.864-0.09,1.152-0.09V178.913z M455.523,185.665c0-1.675-0.954-2.683-2.413-2.683c-0.954,0-1.836,0.594-2.269,1.44
			c-0.108,0.18-0.18,0.414-0.18,0.702c0.036,1.926,0.918,3.349,2.575,3.349C454.605,188.474,455.523,187.34,455.523,185.665z"/>
		<path d="M459.032,183.63c0-1.116-0.036-2.017-0.072-2.845h1.423l0.072,1.495h0.036c0.648-1.063,1.674-1.693,3.097-1.693
			c2.107,0,3.691,1.783,3.691,4.43c0,3.133-1.909,4.682-3.961,4.682c-1.152,0-2.161-0.504-2.683-1.368h-0.036v4.735h-1.566V183.63z
			 M460.598,185.953c0,0.234,0.036,0.45,0.072,0.648c0.288,1.098,1.242,1.854,2.376,1.854c1.674,0,2.647-1.369,2.647-3.367
			c0-1.747-0.918-3.241-2.593-3.241c-1.081,0-2.089,0.774-2.395,1.963c-0.054,0.198-0.108,0.432-0.108,0.648V185.953z"/>
		<path d="M469.76,180.785l1.242,1.873c0.324,0.486,0.594,0.936,0.882,1.422h0.054c0.288-0.521,0.576-0.972,0.864-1.44l1.224-1.854
			h1.71l-2.971,4.214l3.061,4.501h-1.801l-1.278-1.963c-0.342-0.504-0.63-0.99-0.937-1.512h-0.036
			c-0.288,0.521-0.594,0.99-0.918,1.512l-1.26,1.963h-1.747l3.097-4.447l-2.953-4.268H469.76z"/>
	</g>
</g>
</svg>
