<svg xmlns="http://www.w3.org/2000/svg" width="160" height="80"><path fill="#DADADA" d="M0 0h160v80H0z"/><path fill="#FFF" d="M19.014 23.75h119.25V69.5H19.014z"/><path fill="#283172" d="M19.014 12.125h119.25V23.75H19.014zM19.014 57.875h119.25V69.5H19.014zM19.014 45.833h119.25v11.625H19.014z"/><path fill="#FFF" d="M125.845 20.023c.13.13.333.13.454 0l4.028-4.038 4.028 4.038c.129.13.332.13.453 0a.315.315 0 000-.454l-4.25-4.25a.308.308 0 00-.231-.093.32.32 0 00-.231.093l-4.251 4.25a.331.331 0 000 .454zM134.816 49.296a.313.313 0 00-.454 0l-4.028 4.038-4.027-4.038a.314.314 0 00-.455 0 .315.315 0 000 .454l4.252 4.25a.31.31 0 00.23.094.316.316 0 00.23-.094l4.252-4.25a.327.327 0 000-.454zM134.816 61.337a.313.313 0 00-.454 0l-4.028 4.038-4.027-4.038a.314.314 0 00-.455 0 .315.315 0 000 .454l4.252 4.25a.31.31 0 00.23.094.316.316 0 00.23-.094l4.252-4.25a.327.327 0 000-.454z"/></svg>