<?xml version="1.0" encoding="utf-8"?>
<!-- Generator: Adobe Illustrator 16.0.0, SVG Export Plug-In . SVG Version: 6.00 Build 0)  -->
<!DOCTYPE svg PUBLIC "-//W3C//DTD SVG 1.1//EN" "http://www.w3.org/Graphics/SVG/1.1/DTD/svg11.dtd">
<svg version="1.1" id="Calque_1" xmlns="http://www.w3.org/2000/svg" xmlns:xlink="http://www.w3.org/1999/xlink" x="0px" y="0px"
	 width="309.667px" height="281.328px" viewBox="0 0 309.667 281.328" enable-background="new 0 0 309.667 281.328"
	 xml:space="preserve">
<g opacity="0.5">
	<circle fill="none" stroke="#0000FF" stroke-miterlimit="10" cx="222.972" cy="74.967" r="27.78"/>
	<circle fill="none" stroke="#0000FF" stroke-miterlimit="10" cx="69.972" cy="33.967" r="8.245"/>
	<circle fill="none" stroke="#3FA9F5" stroke-miterlimit="10" cx="21.775" cy="155.303" r="16.541"/>
	<circle fill="#BDE1FF" fill-opacity="0.5" cx="35.169" cy="168.631" r="16.541"/>
	<g id="ALERT" opacity="0.4">
		<rect x="272.329" y="156.597" fill="#BDE1FF" fill-opacity="0.5" width="14.447" height="97.282"/>
		<rect x="177.91" y="233.378" fill="#E52C2E" width="87.916" height="15.168"/>
		<rect x="190.575" y="233.378" fill="#FFEAE5" fill-opacity="0.3" width="75.251" height="15.168"/>
		<polygon fill="#E52C2E" fill-opacity="0.9" points="199.631,240.962 190.353,233.378 190.353,248.546 		"/>
		<path fill="#FFFFFF" d="M190.272,244.105l-4.079-6.71c-0.085-0.144-0.187-0.221-0.305-0.231c-0.119-0.012-0.222,0.052-0.306,0.188
			l-4.08,6.773c-0.089,0.136-0.104,0.275-0.048,0.419c0.058,0.145,0.165,0.217,0.321,0.217h8.223c0.157,0,0.264-0.075,0.321-0.226
			C190.377,244.384,190.361,244.241,190.272,244.105z M186.228,238.904l-0.099,3.423h-0.483l-0.1-3.423H186.228z M185.88,243.778
			c-0.242,0-0.412-0.192-0.412-0.441c0-0.256,0.178-0.441,0.427-0.441c0.248,0,0.412,0.186,0.412,0.441
			C186.307,243.586,186.143,243.778,185.88,243.778z"/>
		<rect x="205.743" y="239.342" fill="#E52C2E" fill-opacity="0.9" width="50.806" height="3.534"/>
	</g>
	<g id="LIST" opacity="0.3">
		<rect x="123.92" y="14.337" fill="#BDE1FF" fill-opacity="0.5" width="46.942" height="23.471"/>
		<circle fill="#3C3C3B" cx="131.827" cy="20.884" r="1.448"/>
		<rect x="135.109" y="19.985" fill="#3C3C3B" width="28.825" height="1.797"/>
		<circle fill="#3C3C3B" cx="131.827" cy="25.969" r="1.448"/>
		<rect x="135.109" y="25.07" fill="#3C3C3B" width="28.825" height="1.797"/>
		<circle fill="#3C3C3B" cx="131.827" cy="31.25" r="1.448"/>
		<rect x="135.109" y="30.351" fill="#3C3C3B" width="28.825" height="1.797"/>
	</g>
	<g id="PASS" opacity="0.5">
		<rect x="235.796" y="40.513" fill="#BDE1FF" fill-opacity="0.5" width="44.051" height="17.86"/>
		<rect x="226.172" y="48.02" fill="#FFFFFF" width="45.341" height="7.468"/>
		<rect x="257.822" y="49.442" fill="#1D1D1B" width="0.533" height="4.8"/>
		<path fill="#000100" d="M265.46,53.772v-2.457c0-0.112,0.041-0.208,0.121-0.289s0.176-0.12,0.289-0.12h0.408v-0.82
			c0-0.224,0.081-0.416,0.242-0.577s0.354-0.242,0.578-0.242h1.229c0.224,0,0.416,0.081,0.577,0.242s0.241,0.354,0.241,0.577v0.82
			h0.41c0.111,0,0.208,0.04,0.288,0.12c0.081,0.081,0.121,0.177,0.121,0.289v2.457c0,0.112-0.04,0.208-0.121,0.289
			c-0.08,0.081-0.177,0.121-0.288,0.121h-3.686c-0.113,0-0.208-0.04-0.289-0.121C265.501,53.98,265.46,53.884,265.46,53.772
			L265.46,53.772z M267.099,50.906h1.229v-0.615c0-0.057-0.02-0.106-0.061-0.146c-0.039-0.04-0.088-0.06-0.145-0.06h-0.819
			c-0.058,0-0.105,0.02-0.146,0.06s-0.059,0.088-0.059,0.146V50.906L267.099,50.906z"/>
		<circle fill="#293172" cx="229.16" cy="51.736" r="1.012"/>
		<circle fill="#293172" cx="232.03" cy="51.736" r="1.012"/>
		<circle fill="#293172" cx="234.899" cy="51.736" r="1.012"/>
		<circle fill="#293172" cx="237.769" cy="51.736" r="1.012"/>
		<circle fill="#293172" cx="240.638" cy="51.736" r="1.012"/>
		<circle fill="#293172" cx="243.508" cy="51.736" r="1.012"/>
		<circle fill="#293172" cx="246.377" cy="51.736" r="1.012"/>
		<circle fill="#293172" cx="249.247" cy="51.736" r="1.012"/>
		<circle fill="#293172" cx="252.117" cy="51.736" r="1.012"/>
		<circle fill="#293172" cx="254.986" cy="51.736" r="1.012"/>
	</g>
	<rect x="50.911" y="55.31" fill="#BDE1FF" fill-opacity="0.5" width="98.25" height="6.125"/>
	
		<rect x="39.955" y="125.207" fill="none" stroke="#0000FF" stroke-width="0.5" stroke-miterlimit="10" width="14.625" height="14.625"/>
	<path fill="#293172" d="M33.506,59.337l4.212,4.223l8.224-8.244l-2.131-2.131l-6.103,6.103l-2.071-2.081L33.506,59.337z"/>
	<g id="MODAL" opacity="0.5">
		<rect x="89.41" y="244.174" fill="#BDE1FF" fill-opacity="0.5" width="52.459" height="26.229"/>
		<g>
			<rect x="100.041" y="247.521" fill="#293172" width="31.202" height="4.762"/>
			<rect x="100.036" y="252.282" fill="#FFFFFF" width="31.207" height="13.743"/>
			<g>
				<rect x="101.161" y="249.185" fill="#FFFFFF" width="16.311" height="1.435"/>
			</g>
			<g>
				<rect x="101.161" y="254.349" fill="#B1B1B1" width="16.311" height="1.435"/>
			</g>
			<g>
				<rect x="101.161" y="256.975" fill="#B1B1B1" width="26.011" height="1.435"/>
			</g>
		</g>
		<path fill="#FFFFFF" d="M129.951,248.97l-0.761,0.761l-0.761-0.761l-0.171,0.171l0.761,0.762l-0.761,0.76l0.171,0.171l0.761-0.76
			l0.761,0.76l0.172-0.171l-0.761-0.76l0.761-0.762L129.951,248.97z"/>
		<rect x="123.919" y="262.497" fill="#293172" width="6.203" height="2.381"/>
	</g>
	<circle fill="#89C1FF" cx="291.224" cy="155.304" r="8.247"/>
	<circle fill="#293172" cx="291.224" cy="155.304" r="3.125"/>
	<circle fill="#E52C2E" cx="26.333" cy="107.059" r="4.313"/>
	<circle fill="#293172" fill-opacity="0.5" cx="43.087" cy="225.662" r="3.133"/>
	<g>
		<text transform="matrix(1 0 0 1 249.1284 130.6616)" fill="#BDE1FF" font-family="'PlayfairDisplay-Regular'" font-size="36">Aa</text>
	</g>
</g>
<g>
	<path fill-rule="evenodd" clip-rule="evenodd" fill="#E52C2E" fill-opacity="0.9" d="M178.52,81.433h51.36L119.802,213.224h-51.36
		L178.52,81.433z"/>
	<g>
		<g>
			<polyline fill="none" stroke="#0000FF" stroke-width="3" stroke-miterlimit="10" points="209.641,187.927 209.641,193.927 
				203.641,193.927 			"/>
			
				<line fill="none" stroke="#0000FF" stroke-width="3" stroke-miterlimit="10" stroke-dasharray="8.363,8.363" x1="195.278" y1="193.927" x2="182.734" y2="193.927"/>
			<polyline fill="none" stroke="#0000FF" stroke-width="3" stroke-miterlimit="10" points="178.552,193.927 172.552,193.927 
				168.708,198.534 			"/>
			<polyline fill="none" stroke="#0000FF" stroke-width="3" stroke-miterlimit="10" points="160.297,208.616 156.454,213.224 
				162.454,213.224 			"/>
			
				<line fill="none" stroke="#0000FF" stroke-width="3" stroke-miterlimit="10" stroke-dasharray="12.2854,12.2854" x1="174.739" y1="213.224" x2="217.738" y2="213.224"/>
			<polyline fill="none" stroke="#0000FF" stroke-width="3" stroke-miterlimit="10" points="223.88,213.224 229.88,213.224 
				229.88,207.224 			"/>
			
				<line fill="none" stroke="#0000FF" stroke-width="3" stroke-miterlimit="10" stroke-dasharray="10.8596,10.8596" x1="229.88" y1="196.364" x2="229.88" y2="136.636"/>
			<polyline fill="none" stroke="#0000FF" stroke-width="3" stroke-miterlimit="10" points="229.88,131.207 229.88,125.207 
				226.037,129.814 			"/>
			<polyline fill="none" stroke="#0000FF" stroke-width="3" stroke-miterlimit="10" stroke-dasharray="12.8107,12.8107" points="
				217.831,139.651 209.641,149.468 209.641,181.521 			"/>
		</g>
	</g>
	
		<polygon fill-rule="evenodd" clip-rule="evenodd" fill="#2E3192" stroke="#2E3192" stroke-width="3" stroke-miterlimit="10" points="
		88.681,100.731 125.77,100.731 141.869,81.433 68.442,81.433 68.442,169.45 88.681,145.189 	"/>
</g>
</svg>
