<svg xmlns="http://www.w3.org/2000/svg" width="160" height="80"><path fill="#DADADA" d="M0 0h160v80H0z"/><path fill="#C78E14" d="M5.889 27.125h149.25v25.75H5.889z"/><path fill="#F1D596" d="M27.389 27.125h127.75v25.75H27.389z"/><path fill="#C78E14" d="M42.764 40l-15.75-12.875v25.75z"/><path fill="#FFF" d="M26.875 45.338L19.95 33.946c-.144-.245-.316-.375-.518-.394-.202-.02-.374.088-.518.318l-6.926 11.5a.736.736 0 00-.081.712.538.538 0 00.544.367H26.41c.266 0 .448-.127.545-.383a.761.761 0 00-.08-.728zm-6.864-8.83l-.169 5.81h-.821l-.169-5.81h1.159zm-.591 8.273c-.411 0-.701-.325-.701-.748 0-.436.302-.75.725-.75s.701.314.701.75c0 .423-.278.748-.725.748z"/><path fill="#C78E14" d="M53.139 37.25h86.25v6h-86.25z"/></svg>