<svg xmlns="http://www.w3.org/2000/svg" width="160" height="80"><path fill="#DADADA" d="M0 0h160v80H0z"/><path fill="#009FE3" d="M29.389 24.166h100.875v31.668H29.389z"/><path fill="#283172" d="M32.201 27.125h95.5v25.75h-95.5z"/><path fill="#F6F6F6" d="M119.402 48.515l-19.083-7.069a.719.719 0 00-.904.977l8.317 18.105a.717.717 0 001.292.031l2.128-4.121 5.293 3.883a.722.722 0 00.988-.131l3.022-3.764a.715.715 0 00.152-.543.73.73 0 00-.287-.487l-4.987-3.659 4.119-1.892a.72.72 0 00-.05-1.33zM95.562 32.312a.72.72 0 00-.353.955l1.802 3.923a.72.72 0 001.308-.601l-1.802-3.922a.72.72 0 00-.955-.355zM94.536 43.868l-3.922 1.802a.72.72 0 10.601 1.308l3.923-1.802a.72.72 0 00-.602-1.308zM108.92 37.26l-3.923 1.802a.72.72 0 10.601 1.308l3.923-1.802a.72.72 0 00-.601-1.308zM94.919 39.445l-4.048-1.499a.72.72 0 10-.5 1.348l4.049 1.499a.723.723 0 00.925-.425.72.72 0 00-.426-.923zM98.318 46.843a.72.72 0 00-.924.425l-1.5 4.048a.719.719 0 101.349.5l1.5-4.048a.72.72 0 00-.425-.925zM103.817 31.999a.719.719 0 00-.926.425l-1.501 4.048a.72.72 0 001.351.5l1.501-4.048a.721.721 0 00-.425-.925z"/></svg>