<svg xmlns="http://www.w3.org/2000/svg" width="160" height="80"><path fill="#DADADA" d="M0 0h160v80H0z"/><path fill="#706F6F" d="M59.306 8.979h43.75v17.688h-43.75z"/><path fill="#F6F6F6" d="M59.306 26.667h43.75v38.75h-43.75z"/><path fill="#FFF" d="M76.806 13.229h8.75v8.75h-8.75z"/><g><path fill="#706F6F" d="M103.473 8.979h43.75v17.688h-43.75z"/><path fill="#F6F6F6" d="M103.473 26.667h43.75v38.75h-43.75z"/><path fill="#FFF" d="M120.973 13.229h8.75v8.75h-8.75z"/></g><g><path fill="#283172" d="M15.222 8.979h43.75v17.688h-43.75z"/><path fill="#FFF" d="M15.208 26.667h43.75v38.75h-43.75zM32.722 13.448h8.75v8.75h-8.75z"/><path fill="#283172" d="M33.91 18.104l2.18 2.185 4.256-4.266-1.103-1.103-3.158 3.158L35.013 17l-1.103 1.104z"/></g></svg>