<svg xmlns="http://www.w3.org/2000/svg" width="160" height="80"><path fill="#DADADA" d="M0 0h160v80H0z"/><path fill="#FFF" d="M21.938 29.499h117.701v19.834H21.938z"/><path fill="#283172" d="M27.323 35.48h73.235v7.713H27.323z"/><path fill="#010202" d="M134.732 46.418h-10.666c-.535 0-.969-.479-.969-1.027V34.479a.98.98 0 01.969-.991h.971v.495c0 .822.65 1.488 1.454 1.488s1.454-.666 1.454-1.488v-.495h2.908v.495c0 .822.651 1.488 1.455 1.488s1.454-.666 1.454-1.488v-.495h.97c.535 0 .971.443.971.991v10.912c-.001.547-.435 1.027-.971 1.027zm0-9.423h-10.666v8.396h10.666v-8.396zm-8.241 2.48h-1.454v-1.523h1.453l.001 1.523zm0 2.48h-1.454v-1.524h1.453l.001 1.524zm0 2.479h-1.454v-1.522h1.453l.001 1.522zm2.424-4.959h-1.455v-1.523h1.455v1.523zm0 2.48h-1.455v-1.524h1.455v1.524zm0 2.443h-1.455v-1.487h1.455v1.487zm2.424-4.923h-1.454v-1.523h1.454v1.523zm0 2.48h-1.454v-1.524h1.454v1.524zm0 2.479h-1.454v-1.522h1.454v1.522zm2.423-4.959h-1.455v-1.523h1.455v1.523zm0 2.48h-1.455v-1.524h1.455v1.524zm0 2.479h-1.455v-1.522h1.455v1.522zm-1.469-9.459a.966.966 0 01-.955-.976v-1.023c0-.539.428-.976.955-.976s.954.437.954.976v1.023a.964.964 0 01-.954.976zm-5.816 0a.966.966 0 01-.955-.976v-1.023c0-.539.428-.976.955-.976.526 0 .953.437.953.976v1.023a.965.965 0 01-.953.976z"/></svg>