<?xml version="1.0" encoding="utf-8"?>
<!-- Generator: Adobe Illustrator 16.0.0, SVG Export Plug-In . SVG Version: 6.00 Build 0)  -->
<!DOCTYPE svg PUBLIC "-//W3C//DTD SVG 1.1//EN" "http://www.w3.org/Graphics/SVG/1.1/DTD/svg11.dtd">
<svg version="1.1" id="Calque_1" xmlns="http://www.w3.org/2000/svg" xmlns:xlink="http://www.w3.org/1999/xlink" x="0px" y="0px"
	 width="395.555px" height="328.889px" viewBox="0 0 395.555 328.889" enable-background="new 0 0 395.555 328.889"
	 xml:space="preserve">
<path fill="#E62E30" d="M262.042,25.334h109.898l-235.54,282H26.502L262.042,25.334z"/>
<path fill="#263370" d="M209.851,37.084c0,6.489-5.26,11.75-11.75,11.75h-157.5c-6.489,0-11.75-5.261-11.75-11.75l0,0
	c0-6.489,5.261-11.75,11.75-11.75h157.5C204.591,25.334,209.851,30.595,209.851,37.084L209.851,37.084z"/>
<path fill="#263370" d="M170.852,88.084c0,6.489-5.261,11.75-11.75,11.75h-118.5c-6.489,0-11.75-5.261-11.75-11.75l0,0
	c0-6.489,5.261-11.75,11.75-11.75h118.5C165.591,76.334,170.852,81.595,170.852,88.084L170.852,88.084z"/>
<path fill="#263370" d="M123.852,139.084c0,6.489-5.261,11.75-11.75,11.75h-71.5c-6.489,0-11.75-5.261-11.75-11.75l0,0
	c0-6.489,5.261-11.75,11.75-11.75h71.5C118.591,127.334,123.852,132.595,123.852,139.084L123.852,139.084z"/>
</svg>
