<svg xmlns="http://www.w3.org/2000/svg" width="160" height="80"><path fill="#DADADA" d="M0 0h160v80H0z"/><path fill="#FFF" d="M11.806 29.583h86.333V50.25H11.806z"/><g fill="none" stroke="#9D9D9C" stroke-miterlimit="10"><path d="M98.139 48.75v1.5h-1.5"/><path stroke-dasharray="3.0864,3.0864" d="M93.552 50.25H14.849"/><path d="M13.306 50.25h-1.5v-1.5"/><path stroke-dasharray="3.5333,3.5333" d="M11.806 45.217V32.85"/><path d="M11.806 31.083v-1.5h1.5"/><path stroke-dasharray="3.0864,3.0864" d="M16.392 29.583h78.704"/><path d="M96.639 29.583h1.5v1.5"/><path stroke-dasharray="3.5333,3.5333" d="M98.139 34.617v12.366"/></g><path fill="#283172" d="M100.972 29.25h47.333v21h-47.333z"/><path fill="#878787" d="M51.801 45.77V34.23c0-.074.023-.134.07-.181a.243.243 0 01.181-.07h4.766v5.018h4.014v6.773a.244.244 0 01-.07.181.243.243 0 01-.181.07h-8.529a.244.244 0 01-.181-.07.248.248 0 01-.07-.181zm6.021-7.777v-3.01l3.01 3.01h-3.01z"/></svg>