<svg xmlns="http://www.w3.org/2000/svg" width="160" height="80"><path fill="#DADADA" d="M0 0h160v80H0z"/><path fill="#283172" d="M32.423 10.208h95.167v14.521H32.423z"/><path fill="#FFF" d="M32.41 24.729h95.18v41.917H32.41zM35.84 15.282h49.75v4.375H35.84z"/><path fill="#B2B2B2" d="M35.84 31.032h49.75v4.375H35.84zM35.84 39.042h79.333v4.375H35.84z"/><path fill="#FFF" d="M123.65 14.626l-2.319 2.321-2.32-2.321-.521.523 2.319 2.32-2.319 2.32.521.522 2.32-2.321 2.319 2.321.522-.522-2.319-2.32 2.319-2.32-.522-.523z"/><path fill="#283172" d="M105.256 55.887h18.917v7.26h-18.917z"/></svg>