<svg xmlns="http://www.w3.org/2000/svg" width="160" height="80"><path fill="#DADADA" d="M0 0h160v80H0z"/><path fill="#FFF" d="M16.014 29.959h117.625v19.374H16.014z"/><path fill="#283172" d="M21.395 35.802h42.41v7.534h-42.41z"/><path d="M67.121 33.65h1.384v12.454h-1.384z"/><path fill="#5E5E5E" d="M72.305 11.417h72v56h-72z"/><path fill="#FFF" d="M74.799 13.902h14.376c.224 0 .413.114.567.342.154.227.23.506.23.835v9.417c0 .33-.076.608-.23.835-.155.228-.344.341-.567.341H74.799c-.224 0-.413-.114-.567-.341-.155-.226-.232-.504-.232-.834v-9.418c0-.329.077-.608.232-.835.154-.228.343-.342.567-.342zM92.298 13.902h14.376c.225 0 .413.114.567.342.153.227.231.506.231.835v9.417c0 .33-.078.608-.231.835-.155.228-.345.341-.567.341H92.298c-.224 0-.413-.114-.567-.341-.154-.228-.231-.506-.231-.835v-9.418c0-.329.077-.608.231-.835.155-.227.343-.341.567-.341zM109.798 13.902h14.376c.225 0 .413.114.567.342.153.227.231.506.231.835v9.417c0 .33-.078.608-.231.835-.155.228-.345.341-.567.341h-14.376c-.224 0-.413-.114-.567-.341-.154-.228-.231-.506-.231-.835v-9.418c0-.329.077-.608.231-.835s.343-.341.567-.341z"/><path fill="#FFF" fill-opacity=".8" d="M127.297 13.902h14.376c.224 0 .413.114.567.342.154.227.23.506.23.835v9.417c0 .33-.076.608-.23.835-.155.228-.344.341-.567.341h-14.376c-.224 0-.413-.114-.566-.341-.155-.228-.232-.506-.232-.835v-9.418c0-.329.077-.608.232-.835.154-.227.342-.341.566-.341z"/><path fill="#FFF" d="M74.868 27.069h14.376c.224 0 .413.114.566.342.154.227.231.506.231.835v9.417c0 .33-.077.608-.231.835-.154.228-.344.341-.566.341H74.868c-.224 0-.413-.114-.567-.341-.155-.228-.232-.506-.232-.835v-9.418c0-.329.077-.608.232-.835.154-.227.343-.341.567-.341zM92.367 27.069h14.376c.224 0 .413.114.567.342.153.227.23.506.23.835v9.417c0 .33-.077.608-.23.835-.155.228-.345.341-.567.341H92.367c-.225 0-.413-.114-.567-.341-.155-.228-.231-.506-.231-.835v-9.418c0-.329.076-.608.231-.835s.343-.341.567-.341zM109.867 27.069h14.376c.224 0 .413.114.567.342.153.227.23.506.23.835v9.417c0 .33-.077.608-.23.835-.155.228-.345.341-.567.341h-14.376c-.225 0-.413-.114-.567-.341-.155-.228-.231-.506-.231-.835v-9.418c0-.329.076-.608.231-.835.154-.227.343-.341.567-.341z"/><path fill="#FFF" fill-opacity=".8" d="M127.366 27.069h14.376c.224 0 .413.114.566.342.154.227.231.506.231.835v9.417c0 .33-.077.608-.231.835-.154.228-.344.341-.566.341h-14.376c-.224 0-.413-.114-.567-.341-.154-.228-.232-.506-.232-.835v-9.418c0-.329.078-.608.232-.835.155-.227.344-.341.567-.341z"/><path fill="#FFF" d="M74.868 40.568h14.376c.224 0 .413.115.566.343.154.228.231.506.231.835v9.417c0 .33-.077.608-.231.835-.154.229-.344.341-.566.341H74.868c-.224 0-.413-.114-.567-.341-.155-.229-.232-.506-.232-.835v-9.418c0-.329.077-.608.232-.835.155-.226.343-.342.567-.342zM92.368 40.568h14.376c.224 0 .413.115.566.343.154.228.231.506.231.835v9.417c0 .33-.077.608-.231.835-.154.229-.344.341-.566.341H92.368c-.224 0-.413-.114-.567-.341a1.46 1.46 0 01-.232-.835v-9.418c0-.329.078-.608.232-.835s.344-.342.567-.342zM109.867 40.568h14.376c.224 0 .413.115.567.343.153.228.23.506.23.835v9.417c0 .33-.077.608-.23.835-.155.229-.345.341-.567.341h-14.376c-.225 0-.413-.114-.567-.341-.155-.229-.231-.506-.231-.835v-9.418c0-.329.076-.608.231-.835s.343-.342.567-.342z"/><path fill="#FFF" fill-opacity=".8" d="M127.367 40.568h14.376c.224 0 .413.115.567.343.153.228.23.506.23.835v9.417c0 .33-.077.608-.23.835-.155.229-.345.341-.567.341h-14.376c-.225 0-.413-.114-.567-.341-.155-.229-.231-.506-.231-.835v-9.418c0-.329.076-.608.231-.835.154-.226.343-.342.567-.342z"/><path fill="#FFF" fill-opacity=".5" d="M74.868 54.068h14.376c.224 0 .413.115.566.343.154.228.231.506.231.835v9.417c0 .33-.077.608-.231.835-.154.229-.344.341-.566.341H74.868c-.224 0-.413-.114-.567-.341-.155-.229-.232-.506-.232-.835v-9.418c0-.329.077-.608.232-.835.154-.226.343-.342.567-.342z"/><path fill="#FFF" d="M92.367 54.068h14.376c.224 0 .413.115.567.343.153.228.23.506.23.835v9.417c0 .33-.077.608-.23.835-.155.229-.345.341-.567.341H92.367c-.225 0-.413-.114-.567-.341-.155-.229-.231-.506-.231-.835v-9.418c0-.329.076-.608.231-.835s.343-.342.567-.342z"/><path fill="#FFF" fill-opacity=".5" d="M109.867 54.068h14.376c.224 0 .413.115.567.343.153.228.23.506.23.835v9.417c0 .33-.077.608-.23.835-.155.229-.345.341-.567.341h-14.376c-.225 0-.413-.114-.567-.341-.155-.229-.231-.506-.231-.835v-9.418c0-.329.076-.608.231-.835.154-.226.343-.342.567-.342zM127.366 54.068h14.376c.224 0 .413.115.566.343.154.228.231.506.231.835v9.417c0 .33-.077.608-.231.835-.154.229-.344.341-.566.341h-14.376c-.224 0-.413-.114-.567-.341a1.46 1.46 0 01-.232-.835v-9.418c0-.329.078-.608.232-.835.155-.226.344-.342.567-.342z"/><text transform="translate(79.472 23.305)" font-family="'OpenSans'" font-size="10">1</text><text transform="translate(97.306 23.305)" font-family="'OpenSans'" font-size="10">2</text><text transform="translate(114.639 23.305)" font-family="'OpenSans'" font-size="10">3</text><text transform="translate(78.973 36.72)" font-family="'OpenSans'" font-size="10">4</text><text transform="translate(96.807 36.72)" font-family="'OpenSans'" font-size="10">5</text><text transform="translate(114.139 36.72)" font-family="'OpenSans'" font-size="10">6</text><text transform="translate(78.973 50.103)" font-family="'OpenSans'" font-size="10">7</text><text transform="translate(96.807 50.103)" font-family="'OpenSans'" font-size="10">8</text><text transform="translate(96.807 63.603)" font-family="'OpenSans'" font-size="10">0</text><text transform="translate(114.139 50.103)" font-family="'OpenSans'" font-size="10">9</text><text transform="translate(131.723 50.103)" font-family="'OpenSans'" font-size="10">.-</text><path fill="#010202" d="M133.279 36.744l-2.153-2.275 2.153-2.282v1.545h3.043v-2.929l1.521-1.636v6.086h-4.565v1.491h.001z"/><path d="M132.471 17.746h7.167v4.118h-7.167zM129.639 19.774l2.832 2.063v-4.125z"/><path fill="#FFF" fill-opacity=".8" d="M136.738 18.696l-.906.905-.905-.905-.204.204.905.906-.905.905.204.204.905-.905.906.905.203-.204-.904-.905.904-.906-.203-.204z"/></svg>