<svg xmlns="http://www.w3.org/2000/svg" width="160" height="80"><path fill="#DADADA" d="M0 0h160v80H0z"/><path fill="#FFF" d="M22.014 29.959h117.625v19.374H22.014z"/><path d="M104.121 33.65h1.384v12.454h-1.384z"/><path fill="#010202" d="M123.938 44.882v-6.375c0-.291.104-.54.313-.749a1.02 1.02 0 01.749-.313h1.063V35.32c0-.581.209-1.08.627-1.498s.918-.627 1.498-.627h3.188c.581 0 1.08.209 1.498.627s.627.917.627 1.498v2.125h1.063c.289 0 .539.104.748.313.209.209.313.458.313.749v6.375c0 .29-.104.54-.313.749a1.015 1.015 0 01-.748.313H125c-.291 0-.54-.104-.749-.313s-.313-.459-.313-.749zm4.25-7.437h3.188v-1.594a.514.514 0 00-.153-.377.515.515 0 00-.378-.154h-2.125a.516.516 0 00-.377.154.512.512 0 00-.153.377v1.594h-.002z"/><circle fill="#283172" cx="29.764" cy="39.601" r="2.625"/><circle fill="#283172" cx="37.208" cy="39.601" r="2.625"/><circle fill="#283172" cx="44.652" cy="39.601" r="2.625"/><circle fill="#283172" cx="52.097" cy="39.601" r="2.625"/><circle fill="#283172" cx="59.542" cy="39.601" r="2.625"/><circle fill="#283172" cx="66.986" cy="39.601" r="2.625"/><circle fill="#283172" cx="74.43" cy="39.601" r="2.625"/><circle fill="#283172" cx="81.875" cy="39.601" r="2.625"/><circle fill="#283172" cx="89.318" cy="39.601" r="2.625"/><circle fill="#283172" cx="96.764" cy="39.601" r="2.625"/></svg>