<?xml version="1.0" encoding="utf-8"?>
<!-- Generator: Adobe Illustrator 16.0.0, SVG Export Plug-In . SVG Version: 6.00 Build 0)  -->
<!DOCTYPE svg PUBLIC "-//W3C//DTD SVG 1.1//EN" "http://www.w3.org/Graphics/SVG/1.1/DTD/svg11.dtd">
<svg version="1.1" id="Capa_1" xmlns="http://www.w3.org/2000/svg" xmlns:xlink="http://www.w3.org/1999/xlink" x="0px" y="0px"
	 width="841.889px" height="595.281px" viewBox="0 0 841.889 595.281" enable-background="new 0 0 841.889 595.281"
	 xml:space="preserve">
<g transform="matrix(2 0 0 2 -4322 -506)">
	<g>
		<path id="b" fill="#B57EE5" d="M2188.233,519.45l-4.544-93.148h-3.408l3.408,93.148H2188.233z"/>
		<path fill="#F1618C" d="M2250.71,421.649v12.983l-4.475-4.048l-5.37,4.048l0.921-12.345l-56.204,4.015l4.544,93.148l69.672,3.408
			V421L2250.71,421.649z M2224.175,503.758c-11.723,0-21.992-3.999-20.811-21.538h15.358c-0.182,7.088,1.363,9.633,5.271,9.633
			c2.999,0,4.362-1.727,4.362-4.635c0-10.36-24.537-10.723-24.537-29.717c0-10.905,7.179-18.175,19.993-18.175
			c12.814,0,20.175,6.997,19.811,21.174l-14.631,0.364c0.273-7.633-2.999-8.361-4.816-8.361c-1.727,0-4.635,0.545-4.635,4.635
			c0,10.087,24.9,9.542,24.9,29.898C2244.44,498.487,2235.534,503.758,2224.175,503.758z"/>
	</g>
	<g transform="translate(2393 300)">
		<path id="e" fill="#6DABF5" d="M4.643,157.427H-7.77v6.914c0,8.913-0.083,16.078-0.083,16.078c0,4.415-1.833,5.581-4.165,5.581
			c-2.416,0-3.666-1.083-3.666-5.748c0-6.831,0.5-20.326,0.5-20.326l-12.412-0.333c0-0.167-0.417,10.33-0.417,22.742
			c0,12.413,7.83,13.329,11.412,13.329c3.416,0,7.164-1.333,9.164-3.499c0,7.081-2.25,9.413-7.248,9.413
			c-3.166,0-6.997-1.583-9.08-3.332v11.413c3.499,2.083,7.414,2.999,11.33,2.999c8.33,0,16.494-4.832,16.66-18.743
			C4.476,178.419,4.559,162.924,4.643,157.427z M67.328,157.343c-12.662,0-18.077,10.163-18.077,22.242
			c0,10.247,4.999,17.911,16.911,17.911c13.329,0,18.077-9.997,18.077-21.576C84.238,165.174,79.574,157.343,67.328,157.343
			L67.328,157.343z M71.743,177.502c0,5.415-1.833,9.58-5.582,9.58c-3.166,0-4.415-3.666-4.415-7.498
			c0-6.164,2.166-10.912,5.582-10.912C70.827,168.673,71.743,173.254,71.743,177.502z"/>
		<path id="f" fill="#F3AD38" d="M-118.934,197.578c6.414,0.083,12.579-0.75,12.579-0.75c0-10.913,0-21.159,0.083-28.906
			c3.332-0.333,6.081-0.75,6.081-0.75c0.167-5.248-0.25-9.996-0.25-9.996l-5.665,0.333c0.167-7.914,0.333-11.996,0.333-11.996
			l-13.329,0.833c0,0,0,4.915,0.083,12.413c-4.082,0.5-7.081,1.333-7.081,1.333c0.167,4.415,1.75,9.164,1.75,9.164l5.415-0.25
			V197.578L-118.934,197.578z"/>
		<path id="g" fill="#B57EE6" d="M-43.736,162.508c0-1.25,0.083-2.582,0.167-3.915l-11.579-0.417c0,0-1.083,16.994-1,39.319
			c5.581,0.417,12.079,0.417,12.079,0.417c-0.083,0,0-7.414,0.333-18.577c0.167-6.498,2.499-8.497,5.998-8.497
			c2.083,0,4.665,0.917,4.665,0.917l1.333-11.579C-37.155,158.343-42.153,159.926-43.736,162.508z"/>
		<path id="h" fill="#F16161" d="M23.19,197.328c0-1.833,0.167-3.499,0.167-4.165c1.416,2.083,4.166,3.915,7.581,3.915
			c9.58,0,13.745-9.413,13.995-20.576c0.167-10.58-3.832-19.41-12.662-19.41c-3.249,0-5.998,1.75-7.498,3.582
			c0.75-12.412,1.333-20.326,1.333-20.326l-12.579-0.917c-0.75,8.664-1.916,37.32-1.75,58.229
			C19.025,197.828,23.19,197.328,23.19,197.328z M23.94,180.751c-0.167-2.249-0.583-12.246,4.249-12.246
			c3.415,0,4.248,4.165,4.082,8.331c-0.083,4.498-1,9.58-4.499,9.58C25.356,186.416,24.19,184.666,23.94,180.751L23.94,180.751z"/>
		<path id="i" fill="#B57EE5" d="M167.223,160.092l-13.079-1.75c0,0-4.498,6.748-10.829,14.495c1-17.744,2.249-29.656,2.249-29.656
			l-13.579-1.25c0,0-1.5,30.822-1.833,55.313c5.665,0.667,12.246,0.667,12.246,0.667l0.417-14.662
			c6.165,6.998,13.079,14.245,13.079,14.245l14.412-2.333c-8.331-8.33-13.995-14.161-16.744-17.827
			C156.727,173.087,162.391,166.34,167.223,160.092L167.223,160.092z"/>
		<path id="j" fill="#A2E05E" d="M-79.022,157.343c-12.662,0-18.077,10.163-18.077,22.242c0,10.247,4.998,17.911,16.91,17.911
			c13.329,0,18.077-9.997,18.077-21.576C-62.111,165.174-66.776,157.343-79.022,157.343z M-74.607,177.502
			c0,5.415-1.833,9.58-5.581,9.58c-3.166,0-4.415-3.666-4.415-7.498c0-6.164,2.166-10.912,5.581-10.912
			C-75.523,168.673-74.607,173.254-74.607,177.502z M106.946,157.343c-12.662,0-18.077,10.163-18.077,22.242
			c0,10.247,4.998,17.911,16.91,17.911c13.329,0,18.077-9.997,18.077-21.576C123.856,165.174,119.191,157.343,106.946,157.343z
			 M111.361,177.502c0,5.415-1.833,9.58-5.582,9.58c-3.166,0-4.415-3.666-4.415-7.498c0-6.164,2.166-10.912,5.582-10.912
			C110.444,168.673,111.361,173.254,111.361,177.502z"/>
	</g>
</g>
<g>
	<path fill="#61DAFB" d="M607.377,187.829c0-24.689-30.918-48.085-78.32-62.595c10.938-48.313,6.076-86.752-15.345-99.059
		c-4.938-2.886-10.711-4.253-17.017-4.253v16.94c3.494,0,6.306,0.685,8.659,1.976c10.331,5.925,14.814,28.487,11.32,57.505
		c-0.836,7.141-2.203,14.662-3.875,22.334c-14.889-3.646-31.145-6.457-48.236-8.28c-10.256-14.054-20.893-26.815-31.603-37.982
		c24.765-23.017,48.009-35.627,63.811-35.627v-16.94l0,0c-20.89,0-48.238,14.889-75.89,40.717
		c-27.65-25.676-54.997-40.414-75.888-40.414v16.94c15.725,0,39.045,12.534,63.81,35.399
		c-10.634,11.167-21.269,23.853-31.373,37.907c-17.168,1.823-33.425,4.634-48.313,8.356c-1.747-7.597-3.039-14.965-3.951-22.03
		c-3.571-29.018,0.835-51.58,11.091-57.581c2.279-1.367,5.241-1.976,8.736-1.976V22.226l0,0c-6.381,0-12.155,1.367-17.168,4.254
		c-21.346,12.306-26.132,50.668-15.117,98.83c-47.25,14.585-78.016,37.907-78.016,62.519c0,24.688,30.917,48.085,78.32,62.595
		c-10.939,48.314-6.078,86.752,15.345,99.059c4.937,2.886,10.711,4.254,17.091,4.254c20.891,0,48.238-14.889,75.89-40.718
		c27.649,25.677,54.998,40.414,75.888,40.414c6.382,0,12.155-1.368,17.169-4.255c21.346-12.307,26.131-50.669,15.117-98.83
		C576.61,235.84,607.377,212.442,607.377,187.829z M508.471,137.161c-2.812,9.8-6.306,19.903-10.256,30.005
		c-3.115-6.076-6.381-12.154-9.952-18.231c-3.494-6.078-7.216-12.002-10.938-17.776C488.11,132.755,498.52,134.73,508.471,137.161z
		 M473.678,218.063c-5.925,10.255-12.003,19.979-18.307,29.02c-11.319,0.986-22.79,1.52-34.337,1.52
		c-11.47,0-22.941-0.533-34.184-1.444c-6.305-9.04-12.458-18.688-18.383-28.868c-5.773-9.95-11.015-20.054-15.801-30.234
		c4.71-10.179,10.027-20.359,15.725-30.31c5.925-10.254,12.002-19.978,18.307-29.018c11.319-0.987,22.789-1.519,34.336-1.519
		c11.472,0,22.941,0.532,34.185,1.443c6.305,9.04,12.459,18.688,18.384,28.867c5.773,9.951,11.015,20.055,15.801,30.234
		C484.617,197.933,479.376,208.112,473.678,218.063z M498.215,208.189c4.102,10.179,7.596,20.358,10.483,30.234
		c-9.951,2.43-20.436,4.481-31.298,6.077c3.722-5.849,7.444-11.851,10.939-18.004C491.834,220.419,495.1,214.264,498.215,208.189z
		 M421.187,289.243c-7.064-7.292-14.13-15.421-21.118-24.31c6.835,0.304,13.825,0.532,20.89,0.532
		c7.141,0,14.205-0.152,21.118-0.532C435.24,273.822,428.175,281.951,421.187,289.243z M364.668,244.499
		c-10.787-1.595-21.194-3.57-31.145-6.001c2.81-9.8,6.305-19.903,10.254-30.006c3.115,6.077,6.381,12.155,9.952,18.232
		C357.3,232.801,360.947,238.726,364.668,244.499z M420.807,86.417c7.064,7.292,14.13,15.42,21.117,24.309
		c-6.835-0.304-13.824-0.532-20.89-0.532c-7.141,0-14.205,0.152-21.118,0.532C406.753,101.837,413.817,93.709,420.807,86.417z
		 M364.593,131.159c-3.723,5.85-7.444,11.85-10.939,18.003c-3.495,6.077-6.761,12.155-9.876,18.231
		c-4.101-10.179-7.596-20.358-10.483-30.233C343.247,134.806,353.73,132.755,364.593,131.159z M295.845,226.268
		c-26.892-11.471-44.288-26.511-44.288-38.438c0-11.927,17.396-27.043,44.288-38.438c6.533-2.812,13.673-5.318,21.042-7.674
		c4.33,14.889,10.027,30.386,17.092,46.263c-6.989,15.801-12.61,31.221-16.864,46.035
		C309.594,231.661,302.453,229.079,295.845,226.268z M336.713,334.822c-10.331-5.926-14.813-28.488-11.319-57.505
		c0.835-7.141,2.204-14.663,3.874-22.335c14.889,3.647,31.146,6.457,48.238,8.28c10.255,14.055,20.891,26.816,31.601,37.983
		c-24.764,23.017-48.009,35.626-63.81,35.626C341.879,336.797,338.992,336.113,336.713,334.822z M516.902,276.937
		c3.569,29.018-0.835,51.579-11.092,57.58c-2.277,1.367-5.241,1.976-8.735,1.976c-15.724,0-39.046-12.535-63.811-35.399
		c10.636-11.168,21.271-23.854,31.374-37.906c17.169-1.824,33.424-4.633,48.313-8.356
		C514.699,262.503,516.067,269.872,516.902,276.937z M546.148,226.268c-6.533,2.811-13.674,5.318-21.042,7.673
		c-4.329-14.89-10.028-30.386-17.093-46.263c6.989-15.801,12.61-31.222,16.864-46.035c7.521,2.354,14.661,4.938,21.347,7.749
		c26.892,11.47,44.287,26.511,44.287,38.438C590.437,199.757,573.04,214.873,546.148,226.268z"/>
	<path fill="#61DAFB" d="M344.917,22.15L344.917,22.15L344.917,22.15z"/>
	<circle fill="#61DAFB" cx="420.959" cy="187.83" r="34.716"/>
	<path fill="#61DAFB" d="M496.62,21.922L496.62,21.922L496.62,21.922z"/>
</g>
</svg>
