<svg xmlns="http://www.w3.org/2000/svg" width="841.889" height="595.281"><path d="M269.541 343.138h9.568v9.484h8.82v-9.484h9.568v28.705h-9.568v-9.568h-8.736v9.568h-9.652m40.603-19.136h-8.445v-9.568h26.5v9.568h-8.486v19.137h-9.568m22.256-28.706h10.026l6.157 10.109 6.157-10.109h10.026v28.705h-9.568v-14.229l-6.698 10.318-6.698-10.318v14.229h-9.402m37.109-28.705h9.568v19.221h13.563v9.484H369.51"/><path fill="#E44D26" d="M269.209 539.082L255.48 384.99h150.93l-13.729 154.008-61.861 17.141"/><path fill="#F16529" d="M330.945 543.034V397.636h61.695l-11.774 131.461"/><path fill="#EBEBEB" d="M283.519 416.482h47.426v18.887h-26.708l1.747 19.346h24.961v18.845h-42.268m.833 9.484h18.971l1.331 15.103 21.134 5.658v19.719l-38.772-10.816"/><path fill="#FFF" d="M378.204 416.482h-47.342v18.887h45.594m-1.704 19.346h-43.89v18.887h23.297l-2.206 24.545-21.091 5.658v19.635l38.689-10.732"/><path fill="#CD6799" d="M570.612 207.589c-14.294.075-26.716 3.518-37.117 8.606-3.817-7.559-7.634-14.294-8.307-19.232-.749-5.763-1.646-9.279-.749-16.165.898-6.884 4.939-16.688 4.864-17.436-.074-.749-.897-4.265-9.13-4.34-8.231-.075-15.341 1.572-16.163 3.742-.823 2.17-2.395 7.109-3.442 12.198-1.422 7.482-16.464 34.198-25.069 48.192-2.77-5.463-5.163-10.252-5.688-14.068-.748-5.763-1.646-9.279-.748-16.164.897-6.885 4.938-16.688 4.864-17.437-.075-.749-.898-4.266-9.13-4.34-8.232-.075-15.341 1.571-16.164 3.742-.823 2.17-1.722 7.259-3.442 12.198-1.722 4.938-21.702 49.539-26.94 61.063-2.694 5.912-5.014 10.626-6.66 13.845 0 0-.075.224-.3.599-1.421 2.769-2.244 4.266-2.244 4.266v.074c-1.123 2.021-2.32 3.892-2.918 3.892-.449 0-1.273-5.388.148-12.722 2.994-15.49 10.104-39.587 10.028-40.41 0-.448 1.347-4.64-4.64-6.81-5.837-2.171-7.933 1.422-8.456 1.422-.524 0-.897 1.271-.897 1.271s6.51-27.09-12.423-27.09c-11.824 0-28.138 12.947-36.22 24.621a10382.63 10382.63 0 0 0-27.539 15.041c-4.415 2.47-8.98 4.939-13.246 7.259-.299-.299-.599-.673-.898-.973-22.899-24.471-65.255-41.757-63.459-74.609.673-11.973 4.79-43.403 81.344-81.569 63.01-31.056 113.148-22.45 121.829-3.367 12.422 27.239-26.866 77.827-91.971 85.16-24.844 2.769-37.866-6.81-41.158-10.401-3.442-3.742-3.966-3.967-5.238-3.218-2.095 1.122-.749 4.49 0 6.435 1.946 5.089 9.953 14.069 23.498 18.484 11.974 3.892 41.084 6.062 76.33-7.558 39.438-15.266 70.27-57.696 61.214-93.242-9.055-36.07-68.921-47.968-125.57-27.838-33.675 11.973-70.194 30.831-96.46 55.376-31.206 29.185-36.145 54.554-34.124 65.18 7.259 37.716 59.268 62.261 80.072 80.446-1.048.599-2.021 1.123-2.844 1.572-10.401 5.163-50.063 25.892-59.941 47.818-11.226 24.845 1.796 42.654 10.401 45.05 26.716 7.408 54.18-5.912 68.922-27.913s12.946-50.588 6.136-63.684c-.075-.149-.149-.299-.299-.449 2.693-1.571 5.462-3.218 8.156-4.789a395.43 395.43 0 0 1 15.042-8.456c-2.544 6.959-4.415 15.266-5.313 27.239-1.123 14.068 4.64 32.328 12.198 39.512 3.367 3.144 7.333 3.219 9.878 3.219 8.83 0 12.796-7.334 17.211-16.015 5.388-10.626 10.252-22.975 10.252-22.975s-6.062 33.376 10.402 33.376c5.986 0 12.047-7.782 14.741-11.749v.075s.149-.225.449-.748c.599-.974.973-1.571.973-1.571v-.15c2.396-4.19 7.782-13.694 15.79-29.483 10.327-20.355 20.28-45.799 20.28-45.799s.897 6.211 3.966 16.538c1.796 6.062 5.538 12.722 8.531 19.157-2.396 3.367-3.892 5.238-3.892 5.238l.075.075c-1.946 2.544-4.041 5.313-6.361 8.007-8.157 9.729-17.886 20.879-19.232 24.097-1.571 3.816-1.197 6.586 1.796 8.831 2.17 1.646 6.062 1.87 10.028 1.646 7.333-.523 12.497-2.32 15.041-3.442 3.967-1.422 8.606-3.592 12.946-6.81 8.008-5.912 12.871-14.368 12.423-25.519-.225-6.137-2.245-12.272-4.715-18.034.748-1.048 1.422-2.096 2.17-3.144 12.646-18.484 22.45-38.764 22.45-38.764s.898 6.211 3.967 16.538c1.496 5.238 4.564 10.926 7.259 16.464-11.899 9.653-19.233 20.878-21.853 28.212-4.714 13.62-1.047 19.756 5.912 21.178 3.144.674 7.633-.823 10.926-2.245 4.19-1.347 9.13-3.667 13.845-7.109 8.007-5.911 15.715-14.143 15.266-25.293-.225-5.089-1.571-10.103-3.442-14.967 10.103-4.191 23.124-6.511 39.736-4.565 35.621 4.191 42.655 26.416 41.309 35.771s-8.83 14.443-11.3 16.015-3.293 2.095-3.068 3.218c.3 1.646 1.496 1.571 3.592 1.272 2.919-.524 18.708-7.559 19.383-24.771 1.123-22.001-19.831-46.022-56.873-45.797zm-274.789 92.643c-11.824 12.872-28.287 17.735-35.396 13.62-7.633-4.415-4.64-23.423 9.878-37.042 8.831-8.307 20.205-16.015 27.763-20.729 1.721-1.048 4.265-2.545 7.333-4.415.524-.3.823-.449.823-.449l1.796-1.123c5.314 19.457.226 36.593-12.197 50.138zm86.059-58.519c-4.116 10.027-12.722 35.695-17.96 34.274-4.49-1.198-7.259-20.654-.898-39.887 3.218-9.653 10.027-21.178 13.994-25.668 6.436-7.184 13.544-9.579 15.266-6.66 2.17 3.817-7.858 31.655-10.402 37.941zm71.017 33.974c-1.722.897-3.368 1.497-4.116 1.048-.523-.299.748-1.497.748-1.497s8.905-9.578 12.423-13.919c2.021-2.545 4.415-5.538 6.96-8.905v.973c-.001 11.45-11.077 19.158-16.015 22.3zm54.778-12.497c-1.272-.898-1.048-3.892 3.218-13.246 1.646-3.666 5.538-9.803 12.197-15.715.749 2.395 1.272 4.715 1.198 6.885-.075 14.443-10.402 19.831-16.613 22.076z"/><path fill="none" d="M406.507 328.434h242.707V571.14H406.507V328.434z"/><path fill="#2062AF" d="M589.241 539.087l-61.381 16.528-61.384-16.528-14.164-153.453h151.095l-14.166 153.453z"/><path fill="#3C9CD7" d="M527.859 398.063v144.369l.14.038 49.673-13.376 11.466-131.031h-61.279z"/><path d="M493.023 363.089v-9.134h13.327v-9.994h-23.32v28.247h23.32v-9.119h-13.327zm37.298-9.134h9.317v-9.994h-23.323v9.994c3.121 3.119 4.747 4.613 9.261 9.126-2.64 0-9.261.01-9.261.009v9.118h23.323v-9.119l-9.317-9.134zm33.055 0h9.315v-9.994h-23.323v9.994c3.12 3.119 4.748 4.613 9.261 9.126-2.637 0-9.261.01-9.261.009v9.118h23.323v-9.119l-9.315-9.134z"/><path fill="#FFF" d="M527.805 436.432l-43.933 18.297 1.456 18.115 42.477-18.161 45.184-19.318 1.872-18.531-47.056 19.598z"/><linearGradient id="a" x1="-941.981" x2="-941.981" y1="-959.922" y2="-967.766" gradientTransform="translate(4878.326 4928.61) scale(4.6418)" gradientUnits="userSpaceOnUse"><stop offset=".387" stop-color="#d1d3d4" stop-opacity="0"/><stop offset="1" stop-color="#d1d3d4"/></linearGradient><path fill="url(#a)" d="M483.872 454.729l1.456 18.115 42.477-18.161v-18.251l-43.933 18.297z"/><linearGradient id="b" x1="-932.179" x2="-932.179" y1="-963.835" y2="-971.989" gradientTransform="translate(4878.326 4928.61) scale(4.6418)" gradientUnits="userSpaceOnUse"><stop offset=".387" stop-color="#d1d3d4" stop-opacity="0"/><stop offset="1" stop-color="#d1d3d4"/></linearGradient><path fill="url(#b)" d="M574.861 416.835l-47.056 19.598v18.251l45.184-19.318 1.872-18.531z"/><linearGradient id="c" x1="-946.698" x2="-927.858" y1="-956.423" y2="-956.423" gradientTransform="translate(4878.326 4928.61) scale(4.6418)" gradientUnits="userSpaceOnUse"><stop offset="0" stop-color="#e8e7e5"/><stop offset="1" stop-color="#fff"/></linearGradient><path fill="url(#c)" d="M483.939 454.729l1.458 18.115 65.174.208-1.458 24.153-21.446 6.037-20.615-5.205-1.25-14.991h-19.156l2.5 28.941 38.729 11.452 38.52-11.244 4.998-57.467h-87.454z"/><path d="M527.805 454.729h-43.933l1.456 18.115 42.477.136v-18.251zm0 48.456l-.208.058-20.614-5.205-1.248-14.991H486.58l2.498 28.941 38.728 11.452v-20.255z" opacity=".05"/><linearGradient id="d" x1="-947.565" x2="-927.111" y1="-969.992" y2="-969.992" gradientTransform="translate(4878.326 4928.61) scale(4.6418)" gradientUnits="userSpaceOnUse"><stop offset="0" stop-color="#e8e7e5"/><stop offset="1" stop-color="#fff"/></linearGradient><path fill="url(#d)" d="M479.915 416.835h94.945l-1.872 18.53h-90.782l-2.291-18.53z"/><path d="M527.805 416.835h-47.89l2.291 18.53h45.599v-18.53z" opacity=".05"/></svg>