<svg xmlns="http://www.w3.org/2000/svg" width="160" height="80"><path fill="#DADADA" d="M0 0h160v80H0z"/><path fill="#FFF" d="M21.938 29.499h117.701v19.834H21.938z"/><path d="M134.816 37.65a.313.313 0 00-.454 0l-4.028 4.038-4.027-4.038a.314.314 0 00-.455 0 .315.315 0 000 .454l4.252 4.25a.306.306 0 00.23.094.312.312 0 00.23-.094l4.252-4.25a.327.327 0 000-.454z"/><path fill="#283172" d="M28.543 34.194h21.951c.622 0 1.147.215 1.577.644.429.429.643.955.643 1.577v5.757c0 .622-.214 1.146-.643 1.576a2.15 2.15 0 01-1.577.643H28.543a2.15 2.15 0 01-1.577-.643 2.145 2.145 0 01-.644-1.576v-5.758c0-.621.215-1.146.644-1.576.43-.43.955-.644 1.577-.644z"/><path fill="#FFF" d="M50.183 37.429l-1.521 1.521-1.52-1.521-.343.342 1.521 1.521-1.521 1.521.343.342 1.52-1.52 1.521 1.52.342-.342-1.521-1.521 1.521-1.521-.342-.342z"/><path fill="#283172" d="M57.876 34.194h21.951c.622 0 1.147.215 1.577.644.429.429.643.955.643 1.577v5.757c0 .622-.214 1.146-.643 1.576a2.15 2.15 0 01-1.577.643H57.876a2.15 2.15 0 01-1.577-.643 2.145 2.145 0 01-.644-1.576v-5.758c0-.621.215-1.146.644-1.576.43-.43.955-.644 1.577-.644z"/><path fill="#FFF" d="M79.516 37.429l-1.521 1.521-1.52-1.521-.343.342 1.521 1.521-1.521 1.521.343.342 1.52-1.52 1.521 1.52.342-.342-1.521-1.521 1.521-1.521-.342-.342z"/></svg>