<?xml version="1.0" encoding="utf-8"?>
<!-- Generator: Adobe Illustrator 16.0.0, SVG Export Plug-In . SVG Version: 6.00 Build 0)  -->
<!DOCTYPE svg PUBLIC "-//W3C//DTD SVG 1.1//EN" "http://www.w3.org/Graphics/SVG/1.1/DTD/svg11.dtd">
<svg version="1.1" id="Calque_1" xmlns="http://www.w3.org/2000/svg" xmlns:xlink="http://www.w3.org/1999/xlink" x="0px" y="0px"
	 width="395.555px" height="328.889px" viewBox="0 0 395.555 328.889" enable-background="new 0 0 395.555 328.889"
	 xml:space="preserve">
<path fill="#E62E30" d="M260.914,25.333h109.898l-235.54,282H25.373L260.914,25.333z"/>
<path fill="#263370" d="M180.77,26.821l-5.046,12.987C124.881,28.004,71.78,54.912,52.325,104.979
	c-15.035,38.692-5.875,80.745,20.005,109.713l20.617-22.686c-16.902-20.568-22.553-49.398-12.22-75.992
	c13.35-34.354,48.881-53.524,83.844-47.506l-6.649,17.113c1.278,3.022,1.782,5.636,6.696,3.926l37.234-16.024
	c2.984-1.367,4.365-4.923,3.088-7.946l-16.576-37.139C187.083,25.424,183.76,25.457,180.77,26.821z"/>
<path fill="#263370" d="M223.869,304.305l5.045-12.987c50.844,11.804,103.944-15.104,123.398-65.172
	c15.035-38.691,5.876-80.744-20.004-109.713l-20.617,22.686c16.902,20.568,22.553,49.398,12.22,75.992
	c-13.35,34.354-48.882,53.524-83.844,47.506l6.649-17.112c-1.278-3.022-1.782-5.636-6.696-3.926l-37.234,16.024
	c-2.984,1.367-4.365,4.923-3.088,7.945l16.576,37.139C217.554,305.703,220.878,305.669,223.869,304.305z"/>
</svg>
