<svg xmlns="http://www.w3.org/2000/svg" width="160" height="80"><path fill="#DADADA" d="M0 0h160v80H0z"/><path fill="#283172" d="M140.473 50.438H8.583v-25.75h131.89zM153.639 37.563l-13.166-12.875v25.75z"/><path fill="#DADADA" d="M21.75 37.563L8.014 23.125V51.75z"/><path fill="#FFF" d="M99.037 24.927c-.372.365-.372.939 0 1.279l11.566 11.347-11.566 11.345c-.372.365-.372.938 0 1.279.372.363.955.363 1.301 0l12.174-11.974a.851.851 0 00.266-.651.89.89 0 00-.266-.652l-12.174-11.974c-.346-.337-.929-.337-1.301.001zM50.912 24.927c-.372.365-.372.939 0 1.279l11.566 11.347-11.566 11.345c-.372.365-.372.938 0 1.279.372.363.955.363 1.301 0l12.174-11.974a.851.851 0 00.266-.651c0-.236-.08-.47-.266-.652L52.213 24.927c-.346-.338-.929-.338-1.301 0z"/></svg>