<svg xmlns="http://www.w3.org/2000/svg" width="160" height="80"><path fill="#DADADA" d="M0 0h160v80H0z"/><path fill="#FFF" d="M19.014 23.75h119.25V69.5H19.014z"/><path fill="#283172" d="M19.014 12.125h119.25V23.75H19.014z"/><path fill="none" stroke="#B2B2B2" stroke-miterlimit="10" d="M19.014 31.5h119.25M19.014 38.844h119.25M19.014 46.188h119.25M19.014 53.531h119.25M19.014 60.875h119.25M38.373 69.5V23.75M58.139 69.5V23.75M77.904 69.5V23.75M97.67 69.5V23.75M117.436 69.5V23.75"/><path fill="none" stroke="#FFF" stroke-miterlimit="10" d="M38.373 23.75V12.125M58.139 23.75V12.125M77.904 23.75V12.125M97.67 23.75V12.125M117.436 23.75V12.125"/></svg>