<svg xmlns="http://www.w3.org/2000/svg" width="160" height="80"><path fill="#DADADA" d="M0 0h160v80H0z"/><path fill="#283172" d="M14.164 12.917h39.951c.622 0 1.146.215 1.577.644.429.429.643.955.643 1.577v17.757c0 .622-.214 1.146-.643 1.576a2.15 2.15 0 01-1.577.643H14.164a2.15 2.15 0 01-1.577-.643 2.145 2.145 0 01-.644-1.576V15.136c0-.621.215-1.146.644-1.576.43-.429.955-.643 1.577-.643z"/><path fill="#5E5E5E" d="M60.482 14.917h39.952c.621 0 1.146.215 1.576.644.43.429.643.955.643 1.577v17.757a2.14 2.14 0 01-.643 1.576 2.15 2.15 0 01-1.576.643H60.482a2.146 2.146 0 01-1.576-.643 2.146 2.146 0 01-.645-1.576V17.136c0-.621.215-1.146.645-1.576.429-.43.954-.643 1.576-.643zM106.801 14.917h39.951c.622 0 1.146.215 1.577.644.429.429.644.955.644 1.577v17.757c0 .622-.215 1.146-.644 1.576a2.152 2.152 0 01-1.577.643h-39.951a2.148 2.148 0 01-1.576-.643 2.142 2.142 0 01-.645-1.576V17.136c0-.621.215-1.146.645-1.576a2.142 2.142 0 011.576-.643z"/><path fill="#FFF" d="M11.944 23.361h137.029v41.667H11.944z"/></svg>