<?xml version="1.0" encoding="utf-8"?>
<!-- Generator: Adobe Illustrator 16.0.0, SVG Export Plug-In . SVG Version: 6.00 Build 0)  -->
<!DOCTYPE svg PUBLIC "-//W3C//DTD SVG 1.1//EN" "http://www.w3.org/Graphics/SVG/1.1/DTD/svg11.dtd">
<svg version="1.1" id="Calque_1" xmlns="http://www.w3.org/2000/svg" xmlns:xlink="http://www.w3.org/1999/xlink" x="0px" y="0px"
	 width="395.555px" height="328.889px" viewBox="0 0 395.555 328.889" enable-background="new 0 0 395.555 328.889"
	 xml:space="preserve">
<path fill="#E62E30" d="M264.647,23.539h109.898l-235.54,282H29.106L264.647,23.539z"/>
<path fill="#263370" d="M346.756,263.664l32.547-32.549c4.932-4.928,4.932-12.951,0-17.879c-1.738-1.738-3.861-2.861-6.098-3.375
	c0.768-1.646,1.174-3.457,1.174-5.328c0-3.377-1.316-6.553-3.705-8.941c-1.871-1.872-4.229-3.081-6.789-3.519
	c1.441-4.39,0.422-9.416-3.061-12.9c-1.918-1.916-4.299-3.082-6.785-3.509c0.416-1.266,0.637-2.601,0.637-3.971
	c0-3.378-1.316-6.551-3.703-8.938c-2.389-2.388-5.564-3.705-8.941-3.705c-2.143,0-4.207,0.533-6.037,1.532l-0.324-0.348
	c-4.207-4.522-10.162-7.114-16.336-7.114h-26.348c-1.854,0-3.355,1.503-3.355,3.355v4.4c0,1.762,0.297,3.475,0.869,5.086
	c-1.52-0.629-3.16-0.961-4.854-0.961c-3.377,0-6.551,1.316-8.939,3.702c-3.486,3.488-4.504,8.52-3.061,12.909
	c-2.49,0.427-4.875,1.594-6.791,3.513c-2.389,2.386-3.703,5.562-3.703,8.938c0,1.367,0.217,2.701,0.635,3.963
	c-2.559,0.436-4.912,1.646-6.785,3.518c-3.85,3.85-4.689,9.584-2.527,14.26c-2.291,0.525-4.396,1.678-6.1,3.383
	c-4.93,4.93-4.93,12.949,0,17.881l6.693,6.691l-32.951,32.951c-1.313,1.311-1.313,3.436,0,4.744
	c0.656,0.656,1.514,0.986,2.373,0.986c0.855,0,1.715-0.33,2.371-0.986l33.27-33.27c1.883,1.076,4.021,1.65,6.25,1.65
	c3.377,0,6.551-1.314,8.939-3.703c2.594-2.594,3.82-6.045,3.684-9.449c0.17,0.008,0.342,0.01,0.512,0.01
	c3.236,0,6.475-1.232,8.939-3.693c2.389-2.391,3.703-5.564,3.703-8.941c0-0.172-0.006-0.342-0.012-0.512
	c0.166,0.008,0.336,0.014,0.504,0.014c3.236,0,6.475-1.234,8.939-3.697c2.389-2.389,3.703-5.563,3.703-8.939
	c0-0.172-0.006-0.342-0.014-0.512c0.17,0.008,0.338,0.012,0.506,0.012c3.236,0,6.475-1.232,8.941-3.695
	c4.629-4.631,4.91-11.994,0.838-16.955l22.271-22.272c1.121-1.122,2.609-1.737,4.195-1.737c1.584,0,3.072,0.615,4.193,1.737
	s1.738,2.61,1.738,4.195c0,1.586-0.617,3.074-1.738,4.196l-3.283,3.283l-11.914,11.914c-1.311,1.311-1.311,3.436,0,4.746
	c0.654,0.654,1.516,0.98,2.371,0.98c0.859,0,1.719-0.326,2.375-0.98l11.912-11.914c2.314-2.314,6.076-2.314,8.391-0.002
	c2.313,2.313,2.313,6.077,0,8.393l-3.283,3.281l-8.631,8.633c-1.311,1.309-1.311,3.436,0,4.746c0.654,0.654,1.514,0.98,2.371,0.98
	c0.859,0,1.719-0.326,2.373-0.98l8.631-8.633c1.121-1.117,2.609-1.736,4.195-1.736c1.584,0,3.074,0.619,4.195,1.736
	c1.121,1.121,1.738,2.613,1.738,4.195c0,1.586-0.617,3.076-1.738,4.195l-4.51,4.508l-4.121,4.125c-1.311,1.307-1.311,3.432,0,4.744
	c0.654,0.656,1.514,0.984,2.371,0.984c0.859,0,1.719-0.328,2.373-0.984l4.127-4.127c2.314-2.311,6.074-2.311,8.387,0.004
	c2.314,2.313,2.314,6.076,0,8.391l-32.547,32.545c-8.172,8.176-19.035,12.906-30.588,13.326c-0.846,0.031-1.652,0.383-2.254,0.986
	L279.1,303.408c-1.309,1.313-1.303,3.436,0.008,4.744c0.656,0.652,1.512,0.979,2.367,0.979c0.863,0,1.725-0.33,2.379-0.988
	l22.115-22.195c5.615,3.605,12.223,5.318,18.941,4.873l17.309,17.309c0.654,0.654,1.512,0.982,2.371,0.982
	c0.857,0,1.717-0.328,2.373-0.982c1.311-1.309,1.311-3.434,0-4.746l-18.404-18.404c-0.695-0.695-1.664-1.053-2.646-0.971
	l-1.063,0.086c-4.91,0.404-9.762-0.672-14.002-3.047l2.156-2.166C325.758,278.097,337.698,272.724,346.756,263.664z
	 M270.575,241.386c-1.121,1.121-2.609,1.738-4.193,1.738c-1.586,0-3.076-0.617-4.195-1.738l-9.066-9.064
	c-2.313-2.316-2.313-6.08,0-8.391c1.119-1.123,2.611-1.738,4.195-1.738s3.074,0.615,4.195,1.738l9.064,9.063
	C272.889,235.308,272.889,239.074,270.575,241.386z M283.711,228.25c-2.313,2.314-6.078,2.314-8.391,0l-9.066-9.064l-4.508-4.508
	c-2.314-2.314-2.314-6.078,0-8.391c1.121-1.121,2.611-1.738,4.193-1.738c1.586,0,3.076,0.617,4.197,1.738l13.574,13.572l0,0
	c1.121,1.121,1.736,2.611,1.736,4.197C285.448,225.64,284.833,227.13,283.711,228.25z M296.848,215.115
	c-2.316,2.314-6.08,2.314-8.393,0L271.6,198.257c-1.123-1.119-1.738-2.609-1.738-4.195s0.615-3.074,1.738-4.194
	c1.154-1.159,2.676-1.735,4.195-1.735c1.518,0,3.035,0.576,4.189,1.732l7.684,7.684l9.178,9.176l0,0
	c1.121,1.121,1.736,2.611,1.736,4.197C298.584,212.503,297.967,213.996,296.848,215.115z M309.981,201.98
	c-2.313,2.314-6.076,2.314-8.389,0l-16.859-16.856c-0.002-0.005-0.004-0.005-0.004-0.008l-3.279-3.278
	c-2.313-2.312-2.313-6.076,0-8.391c1.158-1.157,2.674-1.733,4.195-1.733c1.52,0,3.039,0.576,4.195,1.733l20.141,20.143
	c1.121,1.12,1.738,2.609,1.738,4.193C311.719,199.369,311.104,200.859,309.981,201.98z M310.864,184.981l-9.215-9.216
	c1.045,0.224,2.119,0.342,3.211,0.342c0.027,0,0.051,0,0.076,0l9.207-0.044c1.852-0.008,3.348-1.518,3.34-3.37
	c-0.01-1.849-1.51-3.34-3.355-3.34c-0.004,0-0.012,0-0.016,0l-9.209,0.044c-0.014,0-0.027,0-0.041,0
	c-2.268,0-4.402-0.882-6.012-2.481c-1.617-1.611-2.508-3.758-2.508-6.041v-1.044h22.992c4.316,0,8.48,1.813,11.422,4.974
	l0.139,0.147L310.864,184.981z"/>
<path fill="#263370" d="M62.201,77.924l-32.057,32.059c-4.855,4.854-4.855,12.756,0,17.609c1.713,1.712,3.803,2.82,6.005,3.324
	c-0.756,1.623-1.154,3.406-1.154,5.248c0,3.328,1.295,6.456,3.647,8.807c1.844,1.844,4.166,3.036,6.688,3.465
	c-1.421,4.324-0.417,9.275,3.015,12.708c1.888,1.886,4.234,3.036,6.684,3.456c-0.41,1.246-0.626,2.561-0.626,3.91
	c0,3.327,1.295,6.453,3.646,8.803c2.353,2.355,5.48,3.649,8.807,3.649c2.112,0,4.144-0.522,5.947-1.508l0.318,0.342
	c4.145,4.454,10.009,7.009,16.092,7.009h25.948c1.827,0,3.306-1.482,3.306-3.308v-4.334c0-1.734-0.292-3.421-0.854-5.008
	c1.496,0.62,3.112,0.946,4.78,0.946c3.326,0,6.452-1.295,8.805-3.646c3.435-3.436,4.436-8.391,3.013-12.715
	c2.453-0.42,4.803-1.569,6.69-3.459c2.352-2.351,3.647-5.479,3.647-8.805c0-1.347-0.214-2.66-0.625-3.903
	c2.519-0.429,4.838-1.621,6.682-3.463c3.792-3.792,4.621-9.441,2.49-14.046c2.257-0.517,4.331-1.654,6.008-3.332
	c4.855-4.855,4.855-12.754,0-17.612l-6.593-6.591l32.456-32.456c1.292-1.29,1.292-3.382,0-4.673
	c-0.646-0.646-1.49-0.969-2.337-0.969c-0.844,0-1.69,0.323-2.336,0.969L147.522,93.17c-1.855-1.059-3.961-1.625-6.155-1.625
	c-3.326,0-6.453,1.295-8.806,3.646c-2.556,2.556-3.764,5.955-3.628,9.309c-0.167-0.008-0.336-0.011-0.504-0.011
	c-3.188,0-6.378,1.214-8.805,3.639c-2.353,2.354-3.648,5.48-3.648,8.807c0,0.168,0.006,0.336,0.013,0.502
	c-0.166-0.006-0.331-0.012-0.497-0.012c-3.188,0-6.378,1.214-8.805,3.642c-2.353,2.353-3.647,5.479-3.647,8.805
	c0,0.168,0.006,0.336,0.013,0.502c-0.167-0.007-0.333-0.012-0.498-0.012c-3.188,0-6.378,1.215-8.806,3.641
	c-4.56,4.562-4.836,11.813-0.825,16.699L70.989,172.64c-1.104,1.104-2.571,1.712-4.132,1.712s-3.028-0.607-4.132-1.712
	c-1.104-1.104-1.712-2.57-1.712-4.132s0.607-3.028,1.712-4.132l3.234-3.234l11.734-11.734c1.292-1.292,1.292-3.384,0-4.675
	c-0.645-0.645-1.491-0.967-2.335-0.967c-0.846,0-1.692,0.322-2.338,0.967l-11.734,11.734c-2.279,2.28-5.986,2.28-8.264,0.001
	s-2.278-5.985,0-8.266l3.234-3.232l8.5-8.502c1.292-1.29,1.292-3.383,0-4.675c-0.645-0.644-1.49-0.967-2.335-0.967
	c-0.847,0-1.692,0.323-2.338,0.967l-8.5,8.502c-1.105,1.103-2.571,1.711-4.132,1.711c-1.561,0-3.027-0.608-4.132-1.711
	c-1.104-1.104-1.711-2.572-1.711-4.132c0-1.561,0.607-3.029,1.711-4.132l4.44-4.439l4.06-4.063c1.292-1.288,1.292-3.381,0-4.673
	c-0.645-0.646-1.49-0.969-2.335-0.969c-0.846,0-1.692,0.323-2.338,0.969l-4.063,4.065c-2.28,2.275-5.984,2.275-8.261-0.003
	c-2.28-2.278-2.28-5.986,0-8.264l32.057-32.057c8.049-8.051,18.749-12.711,30.126-13.125c0.835-0.031,1.629-0.376,2.22-0.971
	l29.614-29.723c1.288-1.294,1.284-3.385-0.008-4.674c-0.646-0.642-1.488-0.963-2.332-0.963c-0.85,0-1.697,0.325-2.341,0.972
	l-21.783,21.863c-5.532-3.551-12.039-5.238-18.656-4.8L66.671,34.128c-0.645-0.644-1.49-0.967-2.335-0.967
	c-0.847,0-1.692,0.323-2.338,0.967c-1.29,1.291-1.29,3.383,0,4.675l18.127,18.126c0.685,0.687,1.639,1.037,2.606,0.958l1.048-0.085
	c4.837-0.398,9.616,0.662,13.79,3.001l-2.123,2.131C82.884,63.708,71.124,69.001,62.201,77.924z M137.235,99.865
	c1.104-1.103,2.572-1.711,4.132-1.711c1.561,0,3.029,0.609,4.132,1.711l8.93,8.93c2.278,2.28,2.278,5.987,0,8.264
	c-1.103,1.104-2.572,1.712-4.132,1.712c-1.561,0-3.029-0.607-4.132-1.712l-8.93-8.927
	C134.957,105.852,134.957,102.145,137.235,99.865z M124.297,112.804c2.28-2.279,5.987-2.279,8.265,0l8.929,8.929l4.439,4.438
	c2.28,2.28,2.28,5.988,0,8.266c-1.103,1.103-2.571,1.712-4.131,1.712c-1.561,0-3.029-0.609-4.133-1.712l-13.368-13.368l0,0
	c-1.105-1.104-1.712-2.572-1.712-4.134C122.586,115.376,123.193,113.908,124.297,112.804z M111.359,125.743
	c2.28-2.28,5.987-2.28,8.266,0l16.602,16.603c1.105,1.104,1.712,2.57,1.712,4.132s-0.607,3.027-1.712,4.132
	c-1.139,1.14-2.637,1.709-4.132,1.709s-2.99-0.569-4.128-1.706l-7.568-7.567l-9.038-9.038l0,0c-1.104-1.105-1.711-2.571-1.711-4.134
	C109.648,128.313,110.257,126.845,111.359,125.743z M98.422,138.68c2.279-2.279,5.986-2.279,8.264,0l16.604,16.602
	c0.001,0.003,0.003,0.003,0.004,0.006l3.23,3.229c2.278,2.277,2.278,5.984,0,8.264c-1.141,1.14-2.636,1.708-4.133,1.708
	c-1.497,0-2.993-0.568-4.132-1.708l-19.838-19.838c-1.103-1.104-1.711-2.57-1.711-4.13C96.711,141.25,97.318,139.783,98.422,138.68z
	 M97.554,155.421l9.076,9.078c-1.029-0.221-2.087-0.338-3.163-0.338c-0.026,0-0.05,0-0.075,0l-9.068,0.044
	c-1.825,0.008-3.297,1.495-3.29,3.32c0.009,1.819,1.488,3.289,3.304,3.289c0.005,0,0.011,0,0.016,0l9.07-0.044
	c0.013,0,0.026,0,0.04,0c2.234,0,4.336,0.869,5.921,2.445c1.593,1.587,2.471,3.699,2.471,5.95v1.027H89.212
	c-4.253,0-8.354-1.785-11.253-4.898l-0.134-0.145L97.554,155.421z"/>
</svg>
