<svg xmlns="http://www.w3.org/2000/svg" viewBox="0 0 512 512"><path fill="#87A0AF" d="M341.047 497v-63.785l-105.063-20.016L256 497h85.047z"/><path fill="#B4D2D7" d="M170.953 497H256v-83.801l-85.047 20.016V497z"/><path fill="#03232E" d="M256 70.93l-20.016 297.254L512 348.168V70.93H256z"/><path fill="#07485E" d="M256 70.93H0v277.238l256 20.016V70.93z"/><path fill="#B4D2D7" d="M388.887 512v-30H256l-10.008 15L256 512h132.887z"/><path fill="#E1EBF0" d="M123.113 482H256v30H123.113v-30z"/><path fill="#B4D2D7" d="M256 433.215h256v-85.047H256l-20.016 42.523L256 433.215z"/><path fill="#E1EBF0" d="M0 348.168h256v85.047H0v-85.047z"/><path fill="#DAEBD4" d="M156.109 199.949H256.13V300.14H156.109z"/><path fill="#FCE0E1" d="M256.045 200.004h100.02v100.192h-100.02z"/><path fill="#3DAA35" d="M155.866 100.029h100.021V200.22H155.866z"/><path fill="#E52420" d="M256.114 100.057h100.021v100.191H256.114z"/><path fill="#3DAA35" d="M192.666 266.443l-17.659-17.659-5.885 5.887 23.544 23.544 50.452-50.453-5.885-5.886z"/><path fill="#E52420" d="M335.446 227.039l-4.885-4.884-24.073 24.06-24.506-24.506-4.976 4.965 24.518 24.517-22.315 22.315 4.886 4.884 22.313-22.313 22.76 22.759 4.966-4.976-22.761-22.748z"/><path d="M186.136 159.655v-24.533h7.246c1.862 0 3.567.226 5.115.68 1.547.453 2.875 1.17 3.982 2.151 1.107.981 1.968 2.24 2.585 3.774.617 1.536.925 3.385.925 5.548 0 2.164-.302 4.026-.906 5.586-.604 1.56-1.453 2.844-2.548 3.85-1.094 1.007-2.39 1.749-3.887 2.227-1.498.478-3.127.717-4.889.717h-7.623zm6.492-5.208h.377c.88 0 1.71-.107 2.491-.321a4.745 4.745 0 002.019-1.114c.566-.528 1.013-1.258 1.339-2.189.327-.93.491-2.112.491-3.547 0-1.434-.164-2.604-.491-3.51s-.773-1.61-1.339-2.113a4.625 4.625 0 00-2.019-1.038 10.555 10.555 0 00-2.491-.283h-.377v14.115z"/><path d="M216.935 160.108c-1.711 0-3.265-.29-4.661-.868a9.89 9.89 0 01-3.586-2.51c-.995-1.095-1.768-2.44-2.321-4.038-.554-1.598-.831-3.403-.831-5.417 0-2.013.276-3.805.831-5.378.553-1.573 1.327-2.894 2.321-3.964a9.706 9.706 0 013.586-2.434c1.396-.553 2.95-.831 4.661-.831 1.685 0 3.232.277 4.642.831a9.592 9.592 0 013.604 2.453c.995 1.083 1.768 2.403 2.321 3.963.553 1.561.831 3.347.831 5.36 0 2.014-.278 3.818-.831 5.417-.554 1.598-1.328 2.943-2.321 4.038a9.848 9.848 0 01-3.604 2.51c-1.41.578-2.957.868-4.642.868zm0-5.586c1.484 0 2.648-.648 3.491-1.943.842-1.295 1.264-3.064 1.264-5.303s-.422-3.969-1.264-5.189c-.843-1.22-2.007-1.831-3.491-1.831-1.486 0-2.649.611-3.492 1.831s-1.264 2.95-1.264 5.189c0 2.24.421 4.008 1.264 5.303s2.006 1.943 3.492 1.943z"/><g><path d="M266.455 159.683V135.15h7.247c1.863 0 3.567.226 5.114.68 1.548.454 2.875 1.17 3.982 2.151 1.107.981 1.969 2.24 2.585 3.774.616 1.536.925 3.385.925 5.548 0 2.165-.302 4.026-.905 5.586-.604 1.561-1.454 2.843-2.548 3.85-1.096 1.007-2.392 1.75-3.888 2.227-1.497.478-3.127.717-4.889.717h-7.623zm6.493-5.209h.377c.881 0 1.711-.107 2.491-.321a4.742 4.742 0 002.02-1.113c.566-.528 1.013-1.258 1.341-2.189.326-.93.49-2.113.49-3.547s-.164-2.604-.49-3.511c-.328-.906-.774-1.61-1.341-2.113a4.611 4.611 0 00-2.02-1.037 10.542 10.542 0 00-2.491-.284h-.377v14.115z"/><path d="M297.254 160.135c-1.711 0-3.265-.29-4.661-.868s-2.592-1.416-3.585-2.51c-.995-1.094-1.768-2.44-2.321-4.038-.555-1.598-.831-3.403-.831-5.416 0-2.013.276-3.806.831-5.378.554-1.573 1.326-2.894 2.321-3.964a9.735 9.735 0 013.585-2.434c1.396-.554 2.95-.832 4.661-.832 1.686 0 3.233.278 4.644.832a9.608 9.608 0 013.604 2.453c.994 1.082 1.768 2.402 2.321 3.962.554 1.562.831 3.347.831 5.36 0 2.014-.277 3.818-.831 5.416-.554 1.598-1.327 2.944-2.321 4.038a9.853 9.853 0 01-3.604 2.51c-1.41.58-2.958.869-4.644.869zm0-5.585c1.485 0 2.648-.648 3.492-1.944.842-1.295 1.265-3.064 1.265-5.303s-.423-3.969-1.265-5.189c-.844-1.22-2.007-1.83-3.492-1.83-1.484 0-2.648.61-3.49 1.83-.844 1.22-1.265 2.95-1.265 5.189 0 2.24.421 4.007 1.265 5.303.841 1.296 2.006 1.944 3.49 1.944zM309.257 159.683V135.15h6.642l5.437 10.946 2.34 5.511h.15c-.075-.654-.163-1.371-.264-2.152-.101-.78-.189-1.579-.265-2.397s-.145-1.635-.207-2.453-.095-1.604-.095-2.358v-7.096h6.19v24.533h-6.644l-5.436-10.983-2.34-5.473h-.151c.151 1.41.327 2.944.529 4.605.201 1.661.303 3.246.303 4.756v7.096h-6.189z"/><path d="M335.526 159.683v-19.098h-6.493v-5.435h19.477v5.435h-6.492v19.098h-6.492z"/></g></svg>