<?xml version="1.0" standalone="no"?> 
<!DOCTYPE svg PUBLIC "-//W3C//DTD SVG 1.1//EN" "http://www.w3.org/Graphics/SVG/1.1/DTD/svg11.dtd" >
<svg xmlns="http://www.w3.org/2000/svg">
<defs>
  <font id="icons" horiz-adv-x="138">
    <font-face font-family="icons"
      units-per-em="100" ascent="100"
      descent="0" />
    <missing-glyph horiz-adv-x="0" />
    <glyph glyph-name="adjust"
      unicode="&#xEA01;"
      horiz-adv-x="100" d=" M3.203 50C3.203 56.354 4.439 62.422 6.914 68.203C9.388 73.984 12.708 78.958 16.875 83.125C21.041 87.292 26.016 90.612 31.797 93.086C37.578 95.56 43.646 96.797 50 96.797C56.354 96.797 62.422 95.56 68.203 93.086C73.984 90.612 78.958 87.292 83.125 83.125C87.291 78.958 90.611 73.984 93.086 68.203C95.56 62.422 96.797 56.353 96.797 50S95.56 37.578 93.086 31.797C90.611 26.016 87.291 21.041 83.125 16.875C78.958 12.708 73.984 9.388 68.203 6.914C62.422 4.439 56.353 3.203 50 3.203C43.646 3.203 37.578 4.439 31.797 6.914C26.016 9.388 21.041 12.708 16.875 16.875C12.708 21.041 9.388 26.016 6.914 31.797C4.439 37.578 3.203 43.646 3.203 50zM16.641 50C16.641 40.781 19.91 32.916 26.446 26.406C32.983 19.894 40.835 16.639 50.002 16.639V83.359C40.835 83.359 32.983 80.104 26.446 73.593C19.909 67.082 16.641 59.217 16.641 50L16.641 50z" />
    <glyph glyph-name="alert"
      unicode="&#xEA02;"
      horiz-adv-x="100" d=" M98.343 15.263L53.363 89.248C52.429 90.836 51.308 91.687 50 91.805C48.692 91.923 47.572 91.234 46.637 89.738L1.657 15.054C0.677 13.558 0.502 12.019 1.132 10.43C1.763 8.84 2.942 8.048 4.67 8.048H95.33C97.059 8.048 98.237 8.876 98.867 10.534C99.498 12.191 99.322 13.767 98.343 15.263zM53.764 72.611L52.666 34.88H47.333L46.233 72.611H53.764zM49.922 18.879C47.253 18.879 45.371 20.996 45.371 23.742C45.371 26.565 47.333 28.607 50.077 28.607C52.823 28.607 54.628 26.567 54.628 23.742C54.628 20.996 52.823 18.879 49.922 18.879z" />
    <glyph glyph-name="align-center"
      unicode="&#xEA03;"
      horiz-adv-x="100" d=" M0 8.542Q0 6.875 1.208 5.625T4.166 4.375H95.833Q97.583 4.375 98.791 5.625T99.999 8.542V16.875Q99.999 18.625 98.791 19.833T95.833 21.041H4.166Q2.416 21.041 1.208 19.833T0 16.875V8.542zM0 58.542Q0 56.875 1.208 55.625T4.166 54.375H95.833Q97.583 54.375 98.791 55.625T99.999 58.542V66.875Q99.999 68.625 98.791 69.833T95.833 71.041H4.166Q2.416 71.041 1.208 69.833T0 66.875V58.542zM16.667 33.542Q16.667 31.875 17.875 30.625T20.833 29.375H79.166Q80.916 29.375 82.124 30.625T83.332 33.542V41.875Q83.332 43.625 82.124 44.833T79.166 46.041H20.833Q19.083 46.041 17.875 44.833T16.667 41.875V33.542zM16.667 83.542Q16.667 81.875 17.875 80.625T20.833 79.375H79.166Q80.916 79.375 82.124 80.625T83.332 83.542V91.875Q83.332 93.625 82.124 94.833T79.166 96.041H20.833Q19.083 96.041 17.875 94.833T16.667 91.875V83.542z" />
    <glyph glyph-name="align-justify"
      unicode="&#xEA04;"
      horiz-adv-x="100" d=" M0 8.542V16.875Q0 18.625 1.208 19.833T4.166 21.041H95.833Q97.583 21.041 98.791 19.833T99.999 16.875V8.542Q99.999 6.875 98.791 5.625T95.833 4.375H4.166Q2.416 4.375 1.208 5.625T0 8.542zM0 33.542V41.875Q0 43.625 1.208 44.833T4.166 46.041H95.833Q97.583 46.041 98.791 44.833T99.999 41.875V33.542Q99.999 31.875 98.791 30.625T95.833 29.375H4.166Q2.416 29.375 1.208 30.625T0 33.542zM0 58.542V66.875Q0 68.625 1.208 69.833T4.166 71.041H95.833Q97.583 71.041 98.791 69.833T99.999 66.875V58.542Q99.999 56.875 98.791 55.625T95.833 54.375H4.166Q2.416 54.375 1.208 55.625T0 58.542zM0 83.542V91.875Q0 93.625 1.208 94.833T4.166 96.041H95.833Q97.583 96.041 98.791 94.833T99.999 91.875V83.542Q99.999 81.875 98.791 80.625T95.833 79.375H4.166Q2.416 79.375 1.208 80.625T0 83.542z" />
    <glyph glyph-name="align-left"
      unicode="&#xEA05;"
      horiz-adv-x="100" d=" M0 8.542Q0 6.875 1.208 5.625T4.166 4.375H95.833Q97.583 4.375 98.791 5.625T99.999 8.542V16.875Q99.999 18.625 98.791 19.833T95.833 21.041H4.166Q2.416 21.041 1.208 19.833T0 16.875V8.542zM0 33.542Q0 31.875 1.208 30.625T4.166 29.375H70.833Q72.583 29.375 73.791 30.625T74.999 33.542V41.875Q74.999 43.625 73.791 44.833T70.833 46.041H4.166Q2.416 46.041 1.208 44.833T0 41.875V33.542zM0 58.542Q0 56.875 1.208 55.625T4.166 54.375H87.499Q89.249 54.375 90.457 55.625T91.665 58.542V66.875Q91.665 68.625 90.457 69.833T87.499 71.041H4.166Q2.416 71.041 1.208 69.833T0 66.875V58.542zM0 83.542Q0 81.875 1.208 80.625T4.166 79.375H54.166Q55.916 79.375 57.124 80.625T58.332 83.542V91.875Q58.332 93.625 57.124 94.833T54.166 96.041H4.166Q2.416 96.041 1.208 94.833T0 91.875V83.542z" />
    <glyph glyph-name="align-right"
      unicode="&#xEA06;"
      horiz-adv-x="100" d=" M0 8.542V16.875Q0 18.625 1.208 19.833T4.166 21.041H95.833Q97.583 21.041 98.791 19.833T99.999 16.875V8.542Q99.999 6.875 98.791 5.625T95.833 4.375H4.166Q2.416 4.375 1.208 5.625T0 8.542zM8.333 58.542V66.875Q8.333 68.625 9.541 69.833T12.499 71.041H95.832Q97.582 71.041 98.79 69.833T99.998 66.875V58.542Q99.998 56.875 98.79 55.625T95.832 54.375H12.499Q10.749 54.375 9.541 55.625T8.333 58.542zM25 33.542V41.875Q25 43.625 26.208 44.833T29.166 46.041H95.833Q97.583 46.041 98.791 44.833T99.999 41.875V33.542Q99.999 31.875 98.791 30.625T95.833 29.375H29.166Q27.416 29.375 26.208 30.625T25 33.542zM41.667 83.542V91.875Q41.667 93.625 42.875 94.833T45.833 96.041H95.833Q97.583 96.041 98.791 94.833T99.999 91.875V83.542Q99.999 81.875 98.791 80.625T95.833 79.375H45.833Q44.083 79.375 42.875 80.625T41.667 83.542z" />
    <glyph glyph-name="all"
      unicode="&#xEA07;"
      horiz-adv-x="100" d=" M76.459 74C65.343 74 55.149 63.561 50 57.247C44.85 63.561 34.657 74 23.541 74C10.56 74 0 63.439 0 50.458S10.56 26.916 23.541 26.916C34.657 26.916 44.85 37.355 50 43.67C55.148 37.356 65.342 26.916 76.459 26.916C89.439 26.916 100 37.477 100 50.458S89.439 74 76.459 74zM23.541 35.091C15.068 35.091 8.174 41.986 8.174 50.458C8.174 58.932 15.068 65.826 23.541 65.826C31.436 65.826 40.511 56.203 44.944 50.458C40.51 44.711 31.436 35.091 23.541 35.091zM76.459 35.091C68.562 35.091 59.484 44.718 55.053 50.463C59.476 56.209 68.535 65.828 76.459 65.828C84.933 65.828 91.825 58.934 91.825 50.46C91.825 41.985 84.933 35.091 76.459 35.091z" />
    <glyph glyph-name="apple"
      unicode="&#xEA08;"
      horiz-adv-x="100" d=" M78.791 98.375C78.791 91.736 76.436 86.061 71.724 81.351C67.016 76.639 61.337 74.284 54.701 74.284C54.701 80.923 57.056 86.598 61.768 91.308C66.476 96.019 72.154 98.375 78.791 98.375zM34.624 82.314H42.654C43.778 82.314 44.85 81.939 45.866 81.189C46.883 80.439 47.579 79.556 47.955 78.54L54.298 62.959C54.568 63.015 54.995 63.093 55.583 63.2C57.403 63.521 58.847 63.777 59.919 63.965C60.992 64.154 62.598 64.34 64.737 64.527C66.876 64.714 68.633 64.74 69.995 64.607C71.358 64.475 72.994 64.207 74.894 63.804C76.794 63.405 78.307 62.786 79.433 61.958C80.556 61.126 81.695 60.003 82.85 58.586C83.996 57.165 84.776 55.452 85.177 53.447C85.578 51.439 85.709 48.974 85.578 46.056C85.446 43.139 84.922 39.883 84.009 36.297C83.955 35.924 83.877 35.401 83.768 34.732C83.661 34.061 83.367 32.721 82.887 30.717C82.404 28.709 81.855 26.755 81.242 24.85C80.628 22.95 79.755 20.769 78.63 18.308C77.504 15.842 76.255 13.62 74.894 11.642C73.529 9.663 71.817 7.786 69.755 6.02C67.691 4.254 65.483 2.915 63.127 2.005C62.431 1.737 61.305 1.604 59.755 1.604C58.202 1.604 56.448 1.669 54.497 1.808C52.543 1.939 51.273 2.007 50.68 2.007C49.931 2.007 48.606 1.914 46.705 1.729C44.801 1.543 43.117 1.45 41.642 1.45C40.174 1.45 39.007 1.638 38.147 2.011C35.098 3.351 32.3 5.453 29.759 8.314C27.218 11.178 25.211 14.162 23.737 17.269C22.262 20.378 21.02 23.377 20.004 26.264C18.987 29.153 18.291 31.562 17.914 33.491L17.352 36.302C16.549 39.677 16.069 42.755 15.907 45.537C15.747 48.323 15.865 50.691 16.267 52.645C16.666 54.602 17.362 56.315 18.353 57.783C19.344 59.258 20.405 60.422 21.524 61.281C22.647 62.137 24.037 62.821 25.699 63.326C27.362 63.831 28.927 64.179 30.398 64.371C31.866 64.56 33.541 64.616 35.417 64.531C37.292 64.448 38.886 64.326 40.197 64.169C41.505 64.01 42.989 63.795 44.652 63.525L32.849 78.945C32.209 79.908 32.061 80.712 32.41 81.354C32.761 81.996 33.495 82.317 34.621 82.317L34.624 82.314z" />
    <glyph glyph-name="arrow-collapse-down"
      unicode="&#xEA09;"
      horiz-adv-x="100" d=" M98.4 75.5C97 76.9 94.8 76.9 93.5 75.5L50 31.9L6.5 75.5C5.1 76.9 2.9 76.9 1.6 75.5C0.2 74.1 0.2 71.9 1.6 70.6L47.5 24.7C48.2 24 49 23.7 50 23.7C50.9 23.7 51.8 24 52.5 24.7L98.4 70.6C99.7 71.9 99.7 74.1 98.4 75.5z" />
    <glyph glyph-name="arrow-collapse-left"
      unicode="&#xEA0A;"
      horiz-adv-x="100" d=" M70.5 1.6C71.2 0.9 72 0.6 73 0.6C73.9 0.6 74.8 0.9 75.5 1.6C76.9 3 76.9 5.2 75.5 6.5L32 50L75.5 93.5C76.9 94.9 76.9 97.1 75.5 98.4S71.9 99.8 70.6 98.4L24.6 52.5C23.2 51.1 23.2 48.9 24.6 47.6L70.5 1.6z" />
    <glyph glyph-name="arrow-collapse-right"
      unicode="&#xEA0B;"
      horiz-adv-x="100" d=" M29.5 1.7C28.8 1 28 0.7 27 0.7S25.2 1 24.5 1.7C23.1 3.1 23.1 5.3 24.5 6.6L67.9 50L24.6 93.4C23.2 94.8 23.2 97 24.6 98.3C26 99.7 28.2 99.7 29.5 98.3L75.3 52.5C76.7 51.1 76.7 48.9 75.3 47.6L29.5 1.7z" />
    <glyph glyph-name="arrow-collapse-up"
      unicode="&#xEA0C;"
      horiz-adv-x="100" d=" M98.4 29.6C99.1 28.9 99.4 28.1 99.4 27.1S99.1 25.3 98.4 24.6C97 23.2 94.8 23.2 93.5 24.6L50 68.1L6.6 24.6C5.2 23.2 3 23.2 1.7 24.6C0.3 26 0.3 28.2 1.7 29.5L47.6 75.4C49 76.8 51.2 76.8 52.5 75.4L98.4 29.6z" />
    <glyph glyph-name="arrow-down"
      unicode="&#xEA0D;"
      horiz-adv-x="100" d=" M11.792 51.25H36.459V101.25H61.459V51.25H86.292L48.875 1.25z" />
    <glyph glyph-name="arrow-left"
      unicode="&#xEA0E;"
      horiz-adv-x="100" d=" M0 49.958L50 87.708V62.708H100V37.708H50V12.625z" />
    <glyph glyph-name="arrow-right"
      unicode="&#xEA0F;"
      horiz-adv-x="100" d=" M0 37.708V62.708H50V87.708L100 49.958L50 12.625V37.708H0z" />
    <glyph glyph-name="arrow-rounded-bottom"
      unicode="&#xEA10;"
      horiz-adv-x="100" d=" M45.1 23.4L2.1 66.4C-0.6 69.1 -0.6 73.6 2.1 76.3S9.3 79 12 76.3L50 38.3L88 76.3C90.7 79 95.2 79 97.9 76.3C100.6 73.6 100.6 69.1 97.9 66.4L54.9 23.4C53.5 22 51.7 21.4 50 21.4S46.5 22.1 45.1 23.4z" />
    <glyph glyph-name="arrow-rounded-left"
      unicode="&#xEA11;"
      horiz-adv-x="100" d=" M23.6 54.8L66.6 97.8C69.3 100.5 73.8 100.5 76.5 97.8S79.2 90.6 76.5 87.9L38.5 49.9L76.5 11.9C79.2 9.2 79.2 4.7 76.5 2C73.8 -0.7 69.3 -0.7 66.6 2L23.6 45C22.2 46.4 21.6 48.2 21.6 49.9S22.3 53.4 23.6 54.8z" />
    <glyph glyph-name="arrow-rounded-right"
      unicode="&#xEA12;"
      horiz-adv-x="100" d=" M76.5 45L33.5 2C30.8 -0.7 26.3 -0.7 23.6 2C20.9 4.7 20.9 9.2 23.6 11.9L61.6 49.9L23.6 87.9C20.9 90.6 20.9 95.1 23.6 97.8C26.3 100.5 30.8 100.5 33.5 97.8L76.5 54.8C77.9 53.4 78.5 51.6 78.5 49.9C78.5 48.2 77.8 46.4 76.5 45z" />
    <glyph glyph-name="arrow-rounded-top"
      unicode="&#xEA13;"
      horiz-adv-x="100" d=" M54.9 76.4L97.9 33.4C100.6 30.7 100.6 26.2 97.9 23.5S90.7 20.8 88 23.5L50 61.5L12 23.5C9.3 20.8 4.8 20.8 2.1 23.5C-0.6 26.2 -0.6 30.7 2.1 33.4L45.1 76.4C46.5 77.8 48.3 78.4 50 78.4S53.5 77.7 54.9 76.4z" />
    <glyph glyph-name="arrow-up"
      unicode="&#xEA14;"
      horiz-adv-x="100" d=" M13.875 48.125L51.375 98.125L88.375 48.125H63.542V-1.875H38.542V48.125H13.875z" />
    <glyph glyph-name="arrow-xs-down"
      unicode="&#xEA15;"
      horiz-adv-x="100" d=" M86.799 63.25H13.5L50.154 27.614L86.799 63.25z" />
    <glyph glyph-name="arrow-xs-left"
      unicode="&#xEA16;"
      horiz-adv-x="100" d=" M67.967 12.782V86.082L32.331 49.427L67.967 12.782z" />
    <glyph glyph-name="arrow-xs-right"
      unicode="&#xEA17;"
      horiz-adv-x="100" d=" M35.33 86.083V12.784L70.966 49.438L35.33 86.083z" />
    <glyph glyph-name="arrow-xs-up"
      unicode="&#xEA18;"
      horiz-adv-x="100" d=" M13.5 31.614H86.799L50.145 67.25L13.5 31.614z" />
    <glyph glyph-name="arrowthin-down"
      unicode="&#xEA19;"
      horiz-adv-x="100" d=" M42.2 94.4L42.2 94.6V27.7L21.1 48.7C20.1 49.7 18.7 50.3 17.2 50.3S14.4 49.7 13.3 48.7L10 45.4C9 44.4 8.4 43 8.4 41.5S9 38.7 10 37.6L46.1 1.5C47.1 0.5 48.5 -0.1 50 -0.1C51.5 -0.1 52.8 0.5 53.9 1.5L90 37.6C91 38.6 91.6 40 91.6 41.5S91 44.3 90 45.4L86.7 48.7C85.7 49.7 84.3 50.3 82.8 50.3C81.3 50.3 80 49.7 79 48.7L57.8 27.4V94.5C57.8 97.5 55.2 100 52.2 100L47.6 100C44.6 100 42.2 97.4 42.2 94.4z" />
    <glyph glyph-name="arrowthin-left"
      unicode="&#xEA1A;"
      horiz-adv-x="100" d=" M94.4 57.8L94.6 57.8H27.6L48.6 78.9C49.6 79.9 50.2 81.3 50.2 82.8S49.6 85.6 48.6 86.7L45.3 90C44.3 91 42.9 91.6 41.4 91.6S38.6 91 37.5 90L1.6 53.9C0.6 52.9 0 51.5 0 50C0 48.5 0.6 47.2 1.6 46.1L37.7 10C38.7 9 40.1 8.4 41.6 8.4S44.4 9 45.5 10L48.8 13.3C49.8 14.3 50.4 15.7 50.4 17.2C50.4 18.7 49.8 20 48.8 21L27.4 42.2H94.5C97.5 42.2 100 44.8 100 47.8V52.4C100 55.4 97.4 57.8 94.4 57.8z" />
    <glyph glyph-name="arrowthin-right"
      unicode="&#xEA1B;"
      horiz-adv-x="100" d=" M5.6 42.2L5.4 42.2H72.3L51.3 21.1C50.3 20.1 49.7 18.7 49.7 17.2S50.3 14.4 51.3 13.3L54.6 10C55.6 9 57 8.4 58.5 8.4S61.3 9 62.4 10L98.5 46.1C99.5 47.1 100.1 48.5 100.1 50C100.1 51.5 99.5 52.8 98.5 53.9L62.3 89.9C61.3 90.9 59.9 91.5 58.4 91.5S55.6 90.9 54.5 89.9L51.2 86.6C50.2 85.6 49.6 84.2 49.6 82.7C49.6 81.2 50.2 79.9 51.2 78.9L72.5 57.7H5.5C2.5 57.7 0 55.1 0 52.1L0 47.5C0 44.6 2.6 42.2 5.6 42.2z" />
    <glyph glyph-name="arrowthin-up"
      unicode="&#xEA1C;"
      horiz-adv-x="100" d=" M57.4 5.6L57.4 5.4V72.4L78.5 51.4C79.5 50.4 80.9 49.8 82.4 49.8S85.2 50.4 86.3 51.4L89.6 54.7C90.6 55.7 91.2 57.1 91.2 58.6S90.6 61.4 89.6 62.5L53.4 98.4C52.4 99.4 51 100 49.5 100S46.7 99.4 45.6 98.4L9.6 62.3C8.6 61.3 8 59.9 8 58.4S8.6 55.6 9.6 54.5L12.9 51.2C13.9 50.2 15.3 49.6 16.8 49.6C18.3 49.6 19.6 50.2 20.6 51.2L41.8 72.5V5.4C41.8 2.4 44.4 -0.1 47.4 -0.1H52C55 0 57.4 2.6 57.4 5.6z" />
    <glyph glyph-name="asterisk"
      unicode="&#xEA1D;"
      horiz-adv-x="100" d=" M8.333 41.354V58.021H29.916L14.666 73.271L26.416 85.021L41.666 69.771V91.354H58.333V69.771L73.583 85.021L85.333 73.271L70.083 58.021H91.666V41.354H70.083L85.333 26.104L73.583 14.354L58.333 29.604V8.021H41.666V29.604L26.416 14.354L14.666 26.104L29.916 41.354H8.333z" />
    <glyph glyph-name="auto"
      unicode="&#xEA1E;"
      horiz-adv-x="100" d=" M99.665 57.144V64.248H88.886V74.884H85.486V85.232H81.938V89.022H18.075V85.232H14.527V74.884H10.831V64.248H0.335V57.144H7.431V53.448H4.031V10.977H18.075V18.116H81.864V10.977H95.908V18.116H95.982V53.448H92.582V57.144H99.665zM21.548 78.463H24.905V81.82H75.052V78.464H78.606V64.249H21.548V78.463zM25.115 39.294H14.526V50H18.074V46.556H21.567V42.925H25.115V39.294zM64.198 25.102H35.814V32.309H64.197V25.102zM85.486 39.294H74.897V42.925H78.445V46.556H81.938V50H85.486V39.294z" />
    <glyph glyph-name="axa-switch"
      unicode="&#xEA1F;"
      horiz-adv-x="100" d=" M97.213 99.665L81.749 99.665L2.787 0.335L18.251 0.335z" />
    <glyph glyph-name="baby-formula"
      unicode="&#xEA20;"
      horiz-adv-x="100" d=" M49.881 98.379C51.93 98.379 53.692 97.642 55.166 96.169C56.642 94.696 57.376 92.934 57.376 90.885V85.037C59.675 83.737 61.499 81.938 62.852 79.638C64.202 77.337 64.876 74.838 64.876 72.138V68.389H34.886V72.138C34.886 74.839 35.561 77.338 36.911 79.638C38.26 81.937 40.085 83.736 42.384 85.037V90.884C42.384 92.933 43.121 94.696 44.596 96.168C46.067 97.641 47.829 98.378 49.879 98.378H49.881zM34.886 60.892H64.876C67.578 60.892 70.077 60.217 72.377 58.867C74.672 57.518 76.476 55.693 77.777 53.394H64.883V45.896H79.877V38.396H64.883V30.898H79.877V23.398H64.883V15.901H79.877C79.877 11.753 78.414 8.215 75.491 5.292C72.567 2.372 69.031 0.909 64.883 0.909H34.892C30.746 0.909 27.21 2.372 24.287 5.292C21.363 8.216 19.901 11.753 19.901 15.901V45.891C19.901 50.04 21.363 53.576 24.287 56.5S30.747 60.886 34.892 60.886L34.886 60.892z" />
    <glyph glyph-name="backward"
      unicode="&#xEA21;"
      horiz-adv-x="100" d=" M11.333 50.208L58.333 96.041V55.458L100 96.041V4.374L58.333 45.041V4.374z" />
    <glyph glyph-name="ban-circle"
      unicode="&#xEA22;"
      horiz-adv-x="100" d=" M3.438 50Q3.438 62.656 9.688 73.359T26.641 90.312T50 96.562T73.359 90.312T90.312 73.359T96.562 50T90.312 26.641T73.359 9.688T50 3.438T26.641 9.688T9.688 26.641T3.438 50zM17.656 50Q17.656 41.016 22.5 33.203L66.875 77.5Q59.062 82.344 50 82.344Q36.641 82.344 27.148 72.852T17.656 50zM33.672 22.266Q41.25 17.657 50 17.657Q63.359 17.657 72.852 27.149T82.344 50.001Q82.344 58.751 77.735 66.329z" />
    <glyph glyph-name="bank"
      unicode="&#xEA23;"
      horiz-adv-x="100" d=" M42.159 84.654H55.842C59.346 84.654 62.765 83.893 66.082 82.374C69.406 80.854 72.306 78.841 74.785 76.339C77.264 73.836 79.359 70.971 81.068 67.744C82.773 64.515 83.905 61.195 84.469 57.78C85.308 57.123 86.128 56.659 86.923 56.381C88.373 55.91 89.883 56.063 91.451 56.837C93.016 57.609 94.034 58.745 94.5 60.241C94.968 61.832 94.618 63.49 93.446 65.222C92.56 66.483 92.349 67.488 92.816 68.237C93.047 68.612 93.34 68.871 93.693 69.011S94.488 69.128 95.024 68.94C95.56 68.753 96.109 68.377 96.67 67.816C98.59 65.756 99.501 63.302 99.408 60.448C99.267 57.503 98.191 55.013 96.18 52.978C94.168 50.941 91.737 49.925 88.883 49.925H84.532C84.206 47.352 83.386 44.617 82.078 41.715C80.768 38.815 79.459 36.476 78.153 34.701L75.415 18.28C75.27 17.344 74.807 16.541 74.011 15.861C73.22 15.181 72.327 14.84 71.346 14.84H64.332C63.351 14.84 62.58 15.181 62.017 15.861C61.454 16.541 61.246 17.344 61.383 18.28L62.226 23.191C59.936 22.534 57.806 22.21 55.839 22.21H42.159C41.037 22.21 39.518 22.396 37.597 22.771L36.827 18.281C36.686 17.345 36.219 16.542 35.424 15.862C34.629 15.182 33.743 14.841 32.757 14.841H25.74C24.761 14.841 23.988 15.182 23.427 15.862C22.865 16.542 22.653 17.345 22.797 18.281L24.618 29.297C20.688 32.76 17.695 36.855 15.637 41.574L4.484 45.297C3.595 45.623 2.825 46.23 2.17 47.12C1.512 48.006 1.185 48.941 1.185 49.927V53.438C1.185 54.417 1.522 55.246 2.201 55.926C2.881 56.606 3.711 56.943 4.693 56.943H13.396C13.91 61.015 15.217 64.898 17.322 68.589L9.535 75.254C8.786 75.908 8.494 76.458 8.656 76.9C8.818 77.343 9.392 77.566 10.374 77.567H24.615C30.04 82.291 35.887 84.653 42.155 84.653H42.159zM55.562 77.99H38.018C37.551 77.99 37.142 77.814 36.789 77.463C36.44 77.111 36.265 76.702 36.265 76.233V72.724C36.265 72.255 36.44 71.846 36.789 71.494C37.141 71.143 37.55 70.967 38.018 70.967H55.562C56.03 70.967 56.438 71.143 56.79 71.494C57.14 71.846 57.314 72.255 57.314 72.724V76.233C57.314 76.702 57.139 77.111 56.79 77.463C56.438 77.814 56.029 77.99 55.562 77.99z" />
    <glyph glyph-name="barcode"
      unicode="&#xEA24;"
      horiz-adv-x="100" d=" M0 16.354H8.333V99.687H0V16.354zM8.333 -0.313V8.02H33.333V-0.313H8.333zM16.667 16.354V99.687H25V16.354H16.667zM41.667 -0.313V7.27H50V-0.313H41.667zM41.667 16.354V99.687H58.334V16.354H41.667zM58.333 -0.313V7.27H66.666V-0.313H58.333zM66.667 16.354V99.687H75V16.354H66.667zM75 -0.313V7.27H91.667V-0.313H75zM83.333 16.354V99.687H100V16.354H83.333z" />
    <glyph glyph-name="bed"
      unicode="&#xEA25;"
      horiz-adv-x="100" d=" M17.618 93.82H81.975C86.425 93.82 90.219 92.252 93.358 89.116C96.495 85.978 98.064 82.184 98.064 77.733V61.644H90.015C90.015 63.842 89.227 65.732 87.645 67.313C86.065 68.895 84.173 69.686 81.975 69.686H61.862C59.663 69.686 57.773 68.895 56.191 67.313C54.613 65.732 53.822 63.842 53.822 61.644H45.777C45.777 63.842 44.986 65.732 43.407 67.313C41.825 68.895 39.934 69.686 37.735 69.686H17.624C15.426 69.686 13.535 68.895 11.953 67.313C10.371 65.732 9.583 63.842 9.583 61.644H1.535V77.733C1.535 82.184 3.104 85.978 6.242 89.116C9.378 92.251 13.173 93.82 17.624 93.82H17.618zM9.573 53.599H90.019C92.218 53.599 94.109 52.807 95.689 51.228C97.272 49.646 98.064 47.755 98.064 45.557V21.426H1.528V45.558C1.528 47.756 2.319 49.647 3.898 51.229C5.48 52.808 7.367 53.6 9.566 53.6H9.573zM25.662 13.375V9.353C25.662 8.228 25.273 7.277 24.495 6.498C23.717 5.721 22.765 5.332 21.639 5.332H13.595C12.469 5.332 11.517 5.721 10.739 6.498C9.961 7.277 9.572 8.228 9.572 9.353V13.375H25.662zM90.019 13.375V9.353C90.019 8.228 89.63 7.277 88.852 6.498C88.075 5.721 87.123 5.332 85.997 5.332H77.952C76.827 5.332 75.874 5.721 75.097 6.498C74.32 7.277 73.931 8.228 73.931 9.353V13.375H90.019z" />
    <glyph glyph-name="bell"
      unicode="&#xEA26;"
      horiz-adv-x="100" d=" M8.906 31.641Q8.906 33.282 9.961 34.414T12.578 35.547H13.984L23.125 49.063L28.047 74.61Q29.219 80.626 33.985 85.548T45.235 92.032L43.829 94.532Q43.36 96.016 44.063 97.032T46.329 98.048H53.673Q55.236 98.048 55.939 97.228T56.173 94.923Q54.767 92.11 54.767 92.032Q61.251 90.548 66.017 85.587T71.954 74.61L76.876 49.063L86.095 35.547H87.423Q88.986 35.547 90.04 34.414T91.095 31.641Q91.095 30.078 90.079 28.516T87.657 26.407Q87.032 26.173 85.86 25.743T80.782 24.18T72.735 22.227T62.383 20.704T50 20.001Q40.234 20.001 30.82 21.603T16.875 24.767L12.344 26.33Q10.938 26.877 9.922 28.478T8.906 31.642zM41.953 12.891Q42.891 9.063 45.078 6.68T50 4.297T54.922 6.68T57.969 12.891Q54.219 12.422 50 12.422T41.953 12.891z" />
    <glyph glyph-name="bishop"
      unicode="&#xEA27;"
      horiz-adv-x="100" d=" M49.81 98.879C52.162 98.879 54.477 97.539 56.756 94.861S60.812 89.103 62.089 85.624C63.365 82.145 64.004 79.052 64.004 76.348C64.004 72.443 62.614 69.1 59.835 66.321C57.056 63.543 53.715 62.153 49.81 62.153C45.905 62.153 42.562 63.543 39.785 66.321C37.006 69.101 35.617 72.443 35.617 76.348C35.617 79.451 36.468 83.032 38.17 87.089L48.984 76.348L57.32 84.686L45.079 96.925C46.781 98.225 48.361 98.876 49.812 98.876L49.81 98.879zM49.96 61.179H53.415C55.117 61.179 56.507 60.465 57.583 59.039C58.658 57.612 59.197 55.447 59.197 52.543C59.197 48.737 60.173 44.157 62.125 38.798H37.794C39.747 44.156 40.723 48.736 40.723 52.543C40.723 55.446 41.262 57.612 42.338 59.039C43.414 60.465 44.829 61.179 46.581 61.179H49.96zM23.526 31.29H76.095C77.147 31.29 78.035 30.927 78.761 30.2C79.487 29.474 79.85 28.586 79.85 27.534C79.85 26.484 79.487 25.595 78.761 24.869C78.035 24.142 77.147 23.779 76.095 23.779H75.119L85.479 16.269H14.135L24.424 23.779H23.523C22.471 23.779 21.583 24.142 20.857 24.869C20.131 25.595 19.768 26.484 19.768 27.534C19.768 28.586 20.132 29.474 20.857 30.2C21.583 30.927 22.471 31.29 23.523 31.29H23.526zM8.505 8.76H91.114C92.163 8.76 93.051 8.398 93.78 7.671C94.506 6.945 94.87 6.057 94.87 5.005V1.25H4.75V5.005C4.75 6.057 5.113 6.945 5.839 7.671C6.565 8.397 7.454 8.76 8.505 8.76z" />
    <glyph glyph-name="bitcoin"
      unicode="&#xEA28;"
      horiz-adv-x="100" d=" M52.53 98.546H64.698C65.238 98.546 65.714 98.343 66.118 97.936C66.527 97.529 66.73 97.055 66.73 96.515V87.672C71.004 85.887 74.544 83.52 77.355 80.572C80.169 77.623 81.602 74.148 81.66 70.146C81.711 67.659 81.305 65.373 80.442 63.288C79.573 61.205 78.521 59.557 77.275 58.341C76.031 57.123 74.789 56.097 73.546 55.26C72.302 54.417 71.246 53.838 70.381 53.518L69.003 53.029C69.326 53.029 69.732 52.988 70.219 52.908C70.707 52.826 71.653 52.585 73.059 52.179C74.466 51.77 75.816 51.299 77.116 50.757C78.415 50.216 79.848 49.404 81.412 48.324C82.984 47.243 84.334 46.026 85.469 44.672C86.607 43.319 87.568 41.59 88.351 39.479C89.134 37.372 89.527 35.099 89.527 32.666C89.527 29.478 89.215 26.622 88.594 24.11C87.97 21.593 87.2 19.527 86.281 17.902C85.366 16.276 84.177 14.898 82.714 13.766C81.25 12.631 79.911 11.779 78.695 11.205C77.481 10.634 76.007 10.203 74.275 9.908C72.541 9.614 71.204 9.435 70.255 9.379C69.311 9.323 68.135 9.294 66.729 9.298V3.213C66.729 2.673 66.525 2.199 66.12 1.793C65.713 1.388 65.24 1.184 64.697 1.184H52.527C51.986 1.184 51.513 1.388 51.104 1.793C50.698 2.199 50.496 2.673 50.496 3.213V9.298H42.383V3.213C42.383 2.673 42.18 2.199 41.775 1.793C41.366 1.388 40.894 1.184 40.352 1.184H28.183C27.641 1.184 27.166 1.388 26.76 1.793C26.354 2.199 26.152 2.673 26.152 3.213V9.298H11.955C11.413 9.298 10.941 9.5 10.536 9.908C10.127 10.317 9.924 10.79 9.924 11.331V23.499C9.924 24.039 10.127 24.515 10.536 24.921C10.942 25.326 11.413 25.528 11.955 25.528H18.04V74.205H11.955C11.413 74.205 10.941 74.407 10.536 74.814C10.127 75.221 9.924 75.695 9.924 76.236V88.405C9.924 88.946 10.127 89.419 10.536 89.826C10.942 90.234 11.413 90.436 11.955 90.436H26.152V96.521C26.152 97.061 26.355 97.535 26.76 97.942S27.641 98.552 28.183 98.552H40.352C40.894 98.552 41.366 98.349 41.775 97.942C42.181 97.535 42.383 97.061 42.383 96.521V90.437H50.496V96.521C50.496 97.061 50.698 97.535 51.104 97.942C51.513 98.349 51.986 98.552 52.527 98.552L52.53 98.546zM34.277 74.208V57.985H55.614C57.125 57.985 58.437 58.267 59.546 58.833C60.655 59.398 61.467 60.076 61.981 60.862C62.494 61.648 62.899 62.431 63.197 63.214C63.496 63.997 63.641 64.686 63.641 65.281L63.723 66.093C63.723 66.308 63.71 66.605 63.685 66.984S63.496 68.013 63.197 68.932C62.899 69.851 62.494 70.663 61.981 71.367C61.467 72.07 60.656 72.718 59.546 73.313C58.438 73.908 57.125 74.206 55.614 74.206H34.277V74.208zM34.277 41.759V25.535H63.727C65.239 25.535 66.549 25.816 67.659 26.385C68.768 26.948 69.58 27.626 70.094 28.412C70.607 29.197 71.012 29.98 71.312 30.764C71.609 31.55 71.754 32.234 71.754 32.829L71.836 33.641C71.836 33.858 71.823 34.155 71.798 34.536C71.773 34.916 71.609 35.562 71.312 36.481C71.012 37.4 70.607 38.211 70.094 38.915C69.58 39.618 68.769 40.268 67.659 40.864C66.55 41.456 65.239 41.754 63.727 41.754H34.277V41.759z" />
    <glyph glyph-name="blackboard"
      unicode="&#xEA29;"
      horiz-adv-x="100" d=" M11.416 97.637H89.495C90.709 97.637 91.738 97.218 92.577 96.379C93.415 95.539 93.835 94.513 93.835 93.297V49.922C93.835 48.709 93.415 47.679 92.577 46.84C91.738 46.001 90.709 45.581 89.495 45.581H11.416C10.202 45.581 9.173 46.001 8.334 46.84C7.495 47.679 7.076 48.708 7.076 49.922V93.297C7.076 94.512 7.495 95.538 8.334 96.379C9.173 97.218 10.202 97.637 11.416 97.637zM9.246 36.909H91.66C92.238 36.909 92.748 36.693 93.18 36.262C93.612 35.829 93.831 35.321 93.831 34.742V30.402C93.831 29.824 93.611 29.319 93.18 28.883C92.748 28.451 92.239 28.236 91.66 28.236H67.108L86.54 8.803C87.293 8.05 87.67 7.14 87.67 6.071C87.67 5 87.293 4.078 86.54 3.298C85.79 2.516 84.874 2.125 83.808 2.125C82.74 2.125 81.829 2.504 81.076 3.252L73.438 10.891H27.98L20.431 3.252C19.681 2.504 18.754 2.125 17.658 2.125C16.562 2.125 15.635 2.516 14.884 3.298C14.129 4.078 13.754 5 13.754 6.071C13.754 7.14 14.129 8.05 14.884 8.803L34.315 28.237H9.242C8.664 28.237 8.156 28.453 7.724 28.884C7.288 29.32 7.072 29.824 7.072 30.403V34.743C7.072 35.321 7.288 35.83 7.724 36.263C8.156 36.695 8.664 36.91 9.242 36.91H9.246zM45.34 28.236L36.661 19.555H64.771L56.091 28.236H45.333H45.34z" />
    <glyph glyph-name="bold"
      unicode="&#xEA2A;"
      horiz-adv-x="100" d=" M9.635 1.26V8.445Q12.945 9.01 15.326 11.069T17.707 16.357V83.12Q17.707 85.38 17.626 86.309T17.182 88.408T15.931 90.103T13.59 91.233T9.634 92.404V98.136L47.657 98.055Q57.345 98.055 64.852 90.951T72.36 72.545Q72.36 68.105 71.432 64.351T69.172 58.377T66.468 54.542T64.208 52.282L63.239 51.717Q63.885 51.475 64.975 50.99T68.85 48.447T73.734 43.765T77.569 36.378T79.305 25.964Q79.305 19.183 74.542 13.33T63.079 4.369T50.001 1.261H9.636zM33.854 17.406H46.851Q54.036 17.406 59.203 21.321T64.37 32.018Q64.37 39.284 59.324 44.491T46.69 49.698H33.854V17.406zM33.854 57.77H45.075Q51.21 57.77 55.57 62.735T59.929 73.916Q59.929 80.536 53.148 84.451T33.854 88.366V57.77z" />
    <glyph glyph-name="book"
      unicode="&#xEA2B;"
      horiz-adv-x="100" d=" M8.333 -0.313V85.104L22.916 99.687H99.999V16.354L91.666 8.021V91.354H29.166L20.833 83.021H83.333V-0.312H8.333z" />
    <glyph glyph-name="bookmark"
      unicode="&#xEA2C;"
      horiz-adv-x="100" d=" M17.708 1.26L54.036 37.104L90.364 1.341V94.179Q90.364 95.794 89.193 97.005T86.327 98.216H21.744Q20.049 98.216 18.878 97.005T17.707 94.179V1.26z" />
    <glyph glyph-name="briefcase-add"
      unicode="&#xEA2D;"
      horiz-adv-x="100" d=" M81.091 36.987C71.13 36.987 63.057 28.913 63.057 18.953C63.057 8.992 71.13 0.919 81.091 0.919C91.051 0.919 99.125 8.992 99.125 18.953C99.125 28.913 91.051 36.987 81.091 36.987zM90.556 17.418H82.625V9.488H79.556V17.418H71.626V20.487H79.556V28.418H82.625V20.487H90.556V17.418z M59.858 18.953C59.858 30.679 69.364 40.184 81.09 40.184C84.193 40.184 87.13 39.502 89.787 38.308V43.654H0V23.301H0C0 21.255 0.736 19.496 2.208 18.026C3.679 16.554 5.437 15.819 7.483 15.819H60.115C59.964 16.845 59.858 17.886 59.858 18.953z M37.41 53.231H52.375V45.749H89.787V75.678C89.787 77.723 89.052 79.481 87.58 80.953C86.108 82.424 84.351 83.16 82.305 83.16H59.857V90.642C59.857 92.687 59.122 94.446 57.651 95.917C56.179 97.389 54.422 98.124 52.376 98.124H37.411C35.366 98.124 33.607 97.389 32.136 95.917C30.665 94.446 29.929 92.687 29.929 90.642V83.16H7.482C5.437 83.16 3.678 82.425 2.207 80.953C0.735 79.481 0 77.723 0 75.678V45.749H37.41V53.231zM37.412 90.642H52.376V83.16H37.412V90.642z" />
    <glyph glyph-name="briefcase-cup"
      unicode="&#xEA2E;"
      horiz-adv-x="100" d=" M59.858 18.953C59.858 30.679 69.364 40.184 81.09 40.184C84.193 40.184 87.13 39.502 89.787 38.308V43.654H0V23.301H0C0 21.255 0.736 19.496 2.208 18.026C3.679 16.554 5.437 15.819 7.483 15.819H60.115C59.964 16.845 59.858 17.886 59.858 18.953z M37.41 53.231H52.375V45.749H89.787V75.678C89.787 77.723 89.052 79.481 87.58 80.953C86.108 82.424 84.351 83.16 82.305 83.16H59.857V90.642C59.857 92.687 59.122 94.446 57.651 95.917C56.179 97.389 54.422 98.124 52.376 98.124H37.411C35.366 98.124 33.607 97.389 32.136 95.917C30.665 94.446 29.929 92.687 29.929 90.642V83.16H7.482C5.437 83.16 3.678 82.425 2.207 80.953C0.735 79.481 0 77.723 0 75.678V45.749H37.41V53.231zM37.412 90.642H52.376V83.16H37.412V90.642z M91.537 24.721C91.484 24.784 91.439 24.818 91.336 24.848C91.281 24.908 90.792 24.844 90.292 24.654L88.738 24.092L87.48 18.272C87.613 18.307 87.748 18.348 87.879 18.397C88.835 18.77 89.681 19.465 90.316 20.28C90.964 21.112 91.437 22.093 91.644 23.057C91.75 23.532 91.773 24.016 91.691 24.358C91.656 24.527 91.6 24.655 91.537 24.721z M74.48 28.465C74.48 27.8889670059265 77.4510384001229 27.422 81.116 27.422C84.7809615998772 27.422 87.752 27.8889670059265 87.752 28.465C87.752 29.0410329940735 84.7809615998772 29.508 81.116 29.508C77.4510384001229 29.508 74.48 29.0410329940735 74.48 28.465z M81.091 36.987C71.13 36.987 63.057 28.913 63.057 18.953C63.057 8.992 71.13 0.919 81.091 0.919C91.051 0.919 99.125 8.992 99.125 18.953C99.125 28.913 91.051 36.987 81.091 36.987zM93.628 22.571C93.251 21.25 92.55 20.117 91.673 19.148C90.776 18.175 89.656 17.406 88.361 17.001C87.975 16.878 87.57 16.799 87.148 16.764L86.947 15.815C86.549 13.977 84.691 12.492 82.795 12.477C82.799 11.09 82.945 9.809 83.55 8.697C84.733 8.487 85.509 8.132 85.509 7.723V6.371C85.509 5.725 83.541 5.202 81.113 5.202C78.689 5.202 76.718 5.724 76.718 6.371V7.723C76.718 8.13 77.498 8.486 78.677 8.696C79.284 9.807 79.429 11.09 79.432 12.477C77.536 12.491 75.681 13.977 75.285 15.813L75.082 16.76C74.644 16.79 74.22 16.872 73.818 17C72.523 17.405 71.404 18.176 70.507 19.148C69.629 20.117 68.928 21.25 68.551 22.57C68.381 23.234 68.258 23.949 68.405 24.765C68.485 25.168 68.635 25.607 68.946 26.013C69.249 26.416 69.72 26.73 70.182 26.873L70.27 26.901L70.291 26.911L70.367 26.927L70.392 26.935L70.517 26.958C70.68 26.986 70.831 26.995 70.941 26.994C71.177 26.993 71.398 26.968 71.589 26.927C71.98 26.853 72.303 26.744 72.61 26.63C72.735 26.582 72.852 26.529 72.971 26.48L72.606 28.175C72.571 28.257 72.552 28.343 72.552 28.425C72.552 29.683 76.385 30.703 81.11 30.703C85.839 30.703 89.672 29.682 89.672 28.425C89.672 28.343 89.653 28.259 89.618 28.175L89.258 26.502C89.362 26.545 89.459 26.591 89.566 26.629C89.875 26.742 90.199 26.851 90.591 26.927C90.78 26.968 91 26.992 91.236 26.993C91.346 26.994 91.498 26.985 91.66 26.957L91.787 26.935L91.812 26.927L91.887 26.91L91.909 26.901L92 26.874C92.462 26.73 92.934 26.416 93.234 26.014C93.546 25.608 93.697 25.169 93.775 24.766C93.924 23.949 93.801 23.235 93.628 22.571z M71.892 24.653C71.392 24.845 70.901 24.907 70.848 24.847C70.744 24.816 70.7 24.784 70.647 24.72C70.584 24.654 70.528 24.527 70.493 24.357C70.411 24.013 70.433 23.53 70.54 23.056C70.749 22.091 71.22 21.112 71.868 20.279C72.503 19.465 73.347 18.769 74.304 18.396C74.454 18.343 74.607 18.296 74.757 18.257L73.5 24.073L71.892 24.653z" />
    <glyph glyph-name="briefcase-ok"
      unicode="&#xEA2F;"
      horiz-adv-x="100" d=" M59.858 18.953C59.858 30.679 69.364 40.184 81.09 40.184C84.193 40.184 87.13 39.502 89.787 38.308V43.654H0V23.301H0C0 21.255 0.736 19.496 2.208 18.026C3.679 16.554 5.437 15.819 7.483 15.819H60.115C59.964 16.845 59.858 17.886 59.858 18.953z M37.41 53.231H52.375V45.749H89.787V75.678C89.787 77.723 89.052 79.481 87.58 80.953C86.108 82.424 84.351 83.16 82.305 83.16H59.857V90.642C59.857 92.687 59.122 94.446 57.651 95.917C56.179 97.389 54.422 98.124 52.376 98.124H37.411C35.366 98.124 33.607 97.389 32.136 95.917C30.665 94.446 29.929 92.687 29.929 90.642V83.16H7.482C5.437 83.16 3.678 82.425 2.207 80.953C0.735 79.481 0 77.723 0 75.678V45.749H37.41V53.231zM37.412 90.642H52.376V83.16H37.412V90.642z M81.091 36.987C71.13 36.987 63.057 28.913 63.057 18.953C63.057 8.992 71.13 0.919 81.091 0.919C91.051 0.919 99.125 8.992 99.125 18.953C99.125 28.913 91.051 36.987 81.091 36.987zM77.946 8.896L70.25 16.62L73.977 20.318L77.947 16.321L89.641 28.043L93.368 24.316L77.946 8.896z" />
    <glyph glyph-name="briefcase-wait"
      unicode="&#xEA30;"
      horiz-adv-x="100" d=" M59.858 18.953C59.858 30.679 69.364 40.184 81.09 40.184C84.193 40.184 87.13 39.502 89.787 38.308V43.654H0V23.301H0C0 21.255 0.736 19.496 2.208 18.026C3.679 16.554 5.437 15.819 7.483 15.819H60.115C59.964 16.845 59.858 17.886 59.858 18.953z M37.41 53.231H52.375V45.749H89.787V75.678C89.787 77.723 89.052 79.481 87.58 80.953C86.108 82.424 84.351 83.16 82.305 83.16H59.857V90.642C59.857 92.687 59.122 94.446 57.651 95.917C56.179 97.389 54.422 98.124 52.376 98.124H37.411C35.366 98.124 33.607 97.389 32.136 95.917C30.665 94.446 29.929 92.687 29.929 90.642V83.16H7.482C5.437 83.16 3.678 82.425 2.207 80.953C0.735 79.481 0 77.723 0 75.678V45.749H37.41V53.231zM37.412 90.642H52.376V83.16H37.412V90.642z M81.091 36.987C71.13 36.987 63.057 28.913 63.057 18.953C63.057 8.992 71.13 0.919 81.091 0.919C91.051 0.919 99.125 8.992 99.125 18.953C99.125 28.913 91.051 36.987 81.091 36.987zM73.091 16.078C71.503 16.078 70.216 17.365 70.216 18.953S71.503 21.828 73.091 21.828S75.966 20.541 75.966 18.953S74.679 16.078 73.091 16.078zM81.091 16.078C79.503 16.078 78.216 17.365 78.216 18.953S79.503 21.828 81.091 21.828S83.966 20.541 83.966 18.953S82.679 16.078 81.091 16.078zM89.091 16.078C87.503 16.078 86.216 17.365 86.216 18.953S87.503 21.828 89.091 21.828S91.966 20.541 91.966 18.953S90.679 16.078 89.091 16.078z" />
    <glyph glyph-name="briefcase"
      unicode="&#xEA31;"
      horiz-adv-x="100" d=" M0 14.792V31.459H100V14.792Q100 11.375 97.542 8.917T91.667 6.459H8.334Q4.917 6.459 2.459 8.917T0.001 14.792zM0 39.792V73.125Q0 76.542 2.458 79T8.333 81.458H33.333V89.791Q33.333 93.208 35.791 95.666T41.666 98.124H58.333Q61.75 98.124 64.208 95.666T66.666 89.791V81.458H91.666Q95.083 81.458 97.541 79T99.999 73.125V39.792H58.332V48.125H41.665V39.792H-0.002zM41.667 81.458H58.334V89.791H41.667V81.458z" />
    <glyph glyph-name="bullhorn"
      unicode="&#xEA32;"
      horiz-adv-x="100" d=" M-11.542 51.25V55.417Q-11.542 57.417 -9.459 59.5T-5.292 62.667L-3.209 63.75V42.917L-4.126 43.375T-6.126 44.542T-8.626 46.334T-10.626 48.626T-11.543 51.251zM5.208 42.917V65.667T5.25 66.25T5.375 66.708T5.542 67.125T5.792 67.458T6.167 67.75T6.667 67.875T7.292 67.917H23.959L80.209 88.75V17.917L23.959 34.584H20.792L24.709 11.584Q24.876 10.584 24.459 10.126T23.542 9.626T21.792 9.584H14.209Q12.542 9.584 11.334 10.751T9.792 13.668Q5.209 41.751 5.209 42.918zM88.542 17.917V88.75Q88.542 90.5 89.75 91.708T92.708 92.916Q94.375 92.916 95.625 91.708T96.875 88.75V17.917Q96.875 16.25 95.625 15T92.708 13.75Q90.958 13.75 89.75 15T88.542 17.917z" />
    <glyph glyph-name="calendar"
      unicode="&#xEA33;"
      horiz-adv-x="100" d=" M88.109 -0.061H12.567C8.774 -0.061 5.7 3.26 5.7 7.052V82.595C5.7 86.388 8.775 89.463 12.567 89.463H19.435V86.029C19.435 80.34 24.047 75.729 29.736 75.729S40.037 80.34 40.037 86.029V89.463H60.639V86.029C60.639 80.34 65.251 75.729 70.94 75.729S81.241 80.34 81.241 86.029V89.463H88.109C91.902 89.463 94.976 86.388 94.976 82.595V7.053C94.976 3.261 91.901 -0.061 88.109 -0.061zM88.109 65.181H12.567V7.053H88.109V65.181zM29.736 48.012H19.434V58.56H29.735L29.736 48.012zM29.736 30.844H19.434V41.391H29.735L29.736 30.844zM29.736 13.676H19.434V24.222H29.735L29.736 13.676zM46.904 48.012H36.603V58.56H46.904V48.012zM46.904 30.844H36.603V41.391H46.904V30.844zM46.904 13.921H36.603V24.221H46.904V13.921zM64.073 48.012H53.772V58.56H64.073V48.012zM64.073 30.844H53.772V41.391H64.073V30.844zM64.073 13.676H53.772V24.222H64.073V13.676zM81.241 48.012H70.94V58.56H81.241V48.012zM81.241 30.844H70.94V41.391H81.241V30.844zM81.241 13.676H70.94V24.222H81.241V13.676zM70.833 79.162C67.1 79.162 64.073 82.188 64.073 85.922V93.003C64.073 96.736 67.1 99.764 70.833 99.764C74.566 99.764 77.593 96.736 77.593 93.003V85.922C77.593 82.188 74.566 79.162 70.833 79.162zM29.628 79.162C25.894 79.162 22.868 82.188 22.868 85.922V93.003C22.868 96.736 25.894 99.764 29.628 99.764C33.361 99.764 36.388 96.736 36.388 93.003V85.922C36.388 82.188 33.362 79.162 29.628 79.162z" />
    <glyph glyph-name="camera"
      unicode="&#xEA34;"
      horiz-adv-x="100" d=" M0 17.917Q0 14.5 2.458 12.042T8.333 9.584H91.666Q95.083 9.584 97.541 12.042T99.999 17.917V67.917Q99.999 71.334 97.541 73.792T91.666 76.25H79.166Q78.833 76.917 78.208 78.042T75.458 82.042T71.041 87.125T65.291 91.125T58.333 92.917H41.666Q38.249 92.917 34.833 91.209T29 87.042T24.667 82.125T21.834 77.917L20.834 76.25H8.334Q4.917 76.25 2.459 73.792T0.001 67.917V17.917zM29.667 42.917Q29.667 51.25 35.667 57.25T50 63.25T64.333 57.25T70.333 42.917T64.333 28.584T50 22.584T35.667 28.584T29.667 42.917zM41.167 42.917Q41.167 39.25 43.75 36.667T50 34.084T56.25 36.667T58.833 42.917T56.25 49.167T50 51.75T43.75 49.167T41.167 42.917zM75 59.583V67.916H83.333V59.583H75z" />
    <glyph glyph-name="car-compact"
      unicode="&#xEA35;"
      horiz-adv-x="100" d=" M93.8 46.1C93.8 47.8 93.4 49.5 92.7 51C92.6 51.4 92.5 51.8 92.4 52.2L84.8 71.1L84.7 71.3C82 79.2 78.2 86.6 68.6 86.6H32C22.1 86.6 18.7 79.1 15.9 71.4L8 52.3C6.8 50.5 6.2 48.3 6.2 46.1V40.2C6.2 39.3 6.3 38.4 6.5 37.5C6.3 37 6.2 36.4 6.2 35.8V18.3C6.2 15.7 8.3 13.7 10.8 13.7H20.4C23 13.7 25 15.8 25 18.3V27H75.4V18.3C75.4 15.7 77.5 13.7 80 13.7H89.1C91.7 13.7 93.7 15.8 93.7 18.3V36C93.7 36.6 93.6 37.1 93.4 37.7C93.6 38.6 93.7 39.4 93.7 40.4L93.8 46.1L93.8 46.1L93.8 46.1zM21.6 69.4C24.6 78 27.1 80.6 32 80.6H68.8C73.7 80.6 76.4 77.7 79.2 69.5L84.8 58.2C83 58.9 81 59.2 78.9 59.2H21.2C19.3 59.2 17.5 58.9 15.8 58.3L21.6 69.4zM26.4 38H16.2C14.4 38 12.9 39.5 12.9 41.3C12.9 43.1 14.4 44.6 16.2 44.6H26.4C28.2 44.6 29.7 43.1 29.7 41.3C29.7 39.5 28.2 38 26.4 38zM62.2 38.7H38.6C37.4 38.7 36.5 39.6 36.5 40.8C36.5 42 37.4 42.9 38.6 42.9H62.2C63.4 42.9 64.3 42 64.3 40.8C64.3 39.6 63.4 38.7 62.2 38.7zM83.5 38H73.4C71.6 38 70.1 39.5 70.1 41.3C70.1 43.1 71.6 44.6 73.4 44.6H83.6C85.4 44.6 86.9 43.1 86.9 41.3C86.8 39.5 85.4 38 83.5 38z" />
    <glyph glyph-name="car-secure"
      unicode="&#xEA36;"
      horiz-adv-x="100" d=" M93.9 70.8C93.5 70.8 93.2 70.7 92.8 70.6L88.7 69.5L84.4 80C83.2 83 79.6 85.4 76.4 85.4H36.3C33.1 85.4 29.5 83 28.3 80L24 69.6L20 70.7C19.6 70.8 19.3 70.9 18.9 70.9C17 70.9 15.5 69.4 15.5 67.4V65C15.5 64.9 15.5 64.8 15.5 64.7C13.8 63.6 12.2 62.4 10.8 60.9C5.7 55.8 2.9 49 2.9 41.8C2.9 34.6 5.7 27.8 10.8 22.7C15.9 17.6 22.7 14.8 29.9 14.8C37.1 14.8 43.9 17.6 49 22.7C52 25.7 54.2 29.2 55.5 33.1H80.7V27.9C80.7 25.5 82.6 23.6 85 23.6H90.7C93.1 23.6 95 25.5 95 27.9V48.5C95 51.5 94.1 56.1 93 58.9L92.3 60.6H92.8C95.2 60.6 97.1 62.5 97.1 64.9V67.3C97.3 69.3 95.8 70.8 93.9 70.8zM33.6 78.7C34.3 80.5 36.5 81.9 38.4 81.9H74.3C76.2 81.9 78.4 80.5 79.1 78.7L85.6 62.9C86.3 61.1 85.4 59.7 83.4 59.7H50.1C49.8 60.1 49.4 60.5 49 60.8C43.9 65.9 37.1 68.7 29.9 68.7C29.8 68.7 29.6 68.7 29.5 68.7L33.6 78.7zM29.9 22.7C24.8 22.7 20.1 24.7 16.5 28.3C12.9 31.9 10.9 36.6 10.9 41.7C10.9 46.8 12.9 51.5 16.5 55.1C20.1 58.7 24.8 60.7 29.9 60.7S39.7 58.7 43.3 55.1C46.9 51.5 48.9 46.8 48.9 41.7S46.9 31.9 43.3 28.3C39.7 24.6 35 22.7 29.9 22.7zM86.8 42.9C86.8 41.9 86 41.2 85.1 41.2H72.7C71.7 41.2 71 42 71 42.9V48.8C71 49.8 71.8 50.5 72.7 50.5H85C86 50.5 86.7 49.7 86.7 48.8V42.9z M41.7 44.1L40.2 44.3C40 45.1 39.7 45.8 39.3 46.5L40.2 47.7C40.6 48.3 40.6 49 40.1 49.6L38.1 51.6C37.6 52.1 36.8 52.1 36.2 51.7L35.1 50.8C34.4 51.2 33.6 51.5 32.8 51.8L32.7 53C32.6 53.7 32 54.2 31.3 54.2H28.5C27.8 54.2 27.2 53.7 27.1 53L27 51.6C26.2 51.4 25.4 51 24.6 50.6L23.4 51.5C22.9 51.9 22 51.9 21.5 51.4L19.5 49.4C19 48.9 19 48.1 19.4 47.5L20.4 46.3C20 45.6 19.7 44.8 19.5 44.1L18.1 44C17.4 43.9 16.9 43.3 16.9 42.6L16.9 39.8C16.9 39.1 17.4 38.5 18.1 38.4L19.8 38.2C20 37.5 20.3 36.8 20.6 36.2L19.6 34.9C19.2 34.3 19.2 33.6 19.7 33L21.7 31C22 30.7 22.3 30.6 22.7 30.6C23 30.6 23.3 30.7 23.6 30.9L24.9 31.9C25.6 31.5 26.3 31.2 27 31L27.2 29.3C27.3 28.6 27.9 28.1 28.6 28.1H31.4C32.1 28.1 32.7 28.6 32.8 29.3L33 30.9C33.8 31.1 34.5 31.4 35.3 31.8L36.6 30.8C36.8 30.6 37.2 30.5 37.5 30.5C37.9 30.5 38.2 30.6 38.5 30.9L40.5 32.9C41 33.4 41 34.2 40.6 34.8L39.6 36C40 36.7 40.3 37.5 40.5 38.2L42 38.4C42.7 38.5 43.2 39.1 43.2 39.8L43.2 42.6C42.9 43.4 42.4 44 41.7 44.1zM36.2 41.2C36.2 37.7 33.4 34.9 29.9 34.9S23.6 37.7 23.6 41.2C23.6 44.7 26.4 47.5 29.9 47.5S36.2 44.7 36.2 41.2z" />
    <glyph glyph-name="cd"
      unicode="&#xEA37;"
      horiz-adv-x="100" d=" M84.5 84.496C90.727 78.271 94.947 70.964 97.158 62.577C99.379 54.192 99.379 45.805 97.158 37.42C94.947 29.037 90.726 21.727 84.5 15.501C79.842 10.844 74.473 7.3 68.387 4.857C62.297 2.421 56.168 1.2 50 1.2C43.829 1.2 37.704 2.421 31.615 4.857C25.526 7.299 20.159 10.843 15.499 15.501C9.275 21.727 5.053 29.033 2.841 37.42C0.622 45.805 0.622 54.192 2.841 62.577C5.053 70.962 9.275 78.268 15.498 84.496C20.158 89.151 25.525 92.698 31.614 95.14C37.704 97.579 43.829 98.8 50 98.8C56.168 98.8 62.297 97.579 68.387 95.14C74.473 92.698 79.842 89.151 84.5 84.496zM39.57 89.124C39.342 89.124 39.12 89.097 38.899 89.04C32.106 87.133 26.235 83.695 21.268 78.731C16.307 73.767 12.868 67.891 10.96 61.103C10.734 60.428 10.806 59.788 11.172 59.17C11.536 58.555 12.054 58.16 12.726 57.994L15.757 57.236C15.924 57.176 16.121 57.149 16.346 57.149C17.637 57.149 18.451 57.765 18.784 59.002C20.3 64.386 23.048 69.043 27.029 72.971C30.958 76.951 35.614 79.7 41 81.213C41.616 81.382 42.106 81.76 42.474 82.35C42.837 82.94 42.936 83.57 42.766 84.243L42.008 87.188C41.838 87.918 41.45 88.452 40.831 88.788C40.44 89.011 40.016 89.124 39.57 89.124zM42.596 76.925C42.373 76.925 42.12 76.868 41.841 76.757C37.354 75.41 33.469 73.098 30.191 69.816C26.906 66.535 24.594 62.65 23.245 58.162C23.024 57.435 23.079 56.763 23.412 56.146C23.751 55.531 24.283 55.136 25.015 54.968L27.874 54.211C28.102 54.151 28.325 54.124 28.548 54.124C29.784 54.124 30.568 54.714 30.905 55.893C31.917 59.148 33.555 61.908 35.827 64.181C38.097 66.452 40.833 68.092 44.032 69.103C44.704 69.271 45.209 69.65 45.545 70.238C45.88 70.828 45.968 71.431 45.798 72.047L45.043 74.99C44.87 75.664 44.481 76.196 43.866 76.592C43.471 76.816 43.049 76.929 42.602 76.929L42.596 76.925zM60.061 60.057C57.282 62.831 53.93 64.222 50.004 64.222C46.078 64.222 42.726 62.831 39.946 60.057C37.173 57.281 35.783 53.927 35.783 50.001C35.783 46.073 37.173 42.721 39.946 39.944C42.725 37.168 46.078 35.778 50.004 35.778C53.93 35.778 57.282 37.168 60.061 39.944C62.832 42.72 64.223 46.073 64.223 50.001C64.223 53.927 62.832 57.28 60.061 60.057zM71.457 45.876C70.223 45.876 69.439 45.287 69.102 44.11C68.09 40.856 66.452 38.091 64.18 35.821C61.91 33.548 59.145 31.935 55.891 30.984C55.276 30.759 54.799 30.352 54.461 29.762C54.127 29.172 54.041 28.571 54.211 27.955L54.965 25.013C55.137 24.337 55.524 23.803 56.143 23.41C56.536 23.186 56.957 23.073 57.405 23.073C57.634 23.073 57.885 23.129 58.163 23.24C62.649 24.585 66.532 26.901 69.817 30.182C73.096 33.463 75.413 37.348 76.756 41.834C76.983 42.562 76.91 43.236 76.545 43.853C76.178 44.47 75.66 44.862 74.988 45.03L72.127 45.784C71.904 45.844 71.678 45.872 71.453 45.872L71.457 45.876zM83.658 42.848C82.369 42.848 81.554 42.23 81.222 40.994C79.706 35.613 76.958 30.953 72.976 27.028C69.048 23.046 64.392 20.298 59.007 18.782C58.39 18.616 57.9 18.234 57.532 17.649C57.169 17.057 57.071 16.428 57.241 15.753L58 12.812C58.168 12.081 58.555 11.547 59.178 11.21C59.569 10.986 59.989 10.872 60.438 10.872C60.663 10.872 60.887 10.9 61.11 10.956C67.899 12.865 73.774 16.303 78.739 21.267C83.702 26.231 87.141 32.106 89.048 38.894C89.271 39.569 89.202 40.213 88.833 40.829C88.47 41.445 87.952 41.837 87.28 42.007L84.251 42.763C84.084 42.819 83.885 42.848 83.658 42.848z" />
    <glyph glyph-name="certificate"
      unicode="&#xEA38;"
      horiz-adv-x="100" d=" M1.75 38.333L21.167 34.583L14.667 15.916L33.334 22.416L37.084 2.999L50.001 17.916L62.918 2.999L66.668 22.416L85.335 15.916L78.835 34.583L98.335 38.333L83.335 51.25L98.335 64.25L78.835 67.917L85.335 86.667L66.668 80.167L62.918 99.584L50.001 84.584L37.084 99.584L33.334 80.167L14.667 86.667L21.167 67.917L1.75 64.25L16.667 51.25z" />
    <glyph glyph-name="chair"
      unicode="&#xEA39;"
      horiz-adv-x="102" d=" M52.7 56.6C52.2 56.8 41.5 78.7 41.5 78.7H16.2L36.4 43.4L52.7 56.6L52.7 56.6zM44 30.8H61.7L84.5 51H64.2L44 30.8L44 30.8zM57.9 55.3H65.1L48.6 84.7C43.4 91.3 41.1 84.2 51.5 66.8L57.9 55.3L57.9 55.3zM89.5 51C85.4 46.3 76.9 38.4 76.9 38.4L82 33.4C82 33.4 93.5 44.7 97.2 48.5C101.2 52.3 94.7 57 89.5 51L89.5 51zM45.8 20.1L40.6 29.3L35.6 25.2L41.5 14.8C42.4 13.2 44.3 12.7 45.7 13.8C47.1 14.8 47.5 17 46.6 18.6L45.8 20.1L45.8 20.1zM54.4 19.2C53 18.1 52.7 15.9 53.7 14.4C54.7 12.9 56.6 12.5 57.9 13.6L70.3 23.7L67 29.5L54.4 19.2L54.4 19.2zM76.6 35.1H69.4L80.9 14.7C81.8 13.1 83.7 12.6 85.1 13.7C86.5 14.7 86.9 16.9 86 18.5L76.6 35.1L76.6 35.1zM14.8 62L28.6 37.7L33.6 41.8L9.2 84.8C8.3 86.4 6.4 86.9 5 85.9C4.8 85.8 4.7 85.6 4.5 85.5C4.5 85.5 4.4 85.4 4.4 85.4C4.3 85.3 4.2 85.1 4.1 85C4.1 84.9 4 84.9 4 84.8C3.9 84.7 3.9 84.5 3.8 84.4C3.8 84.3 3.8 84.3 3.7 84.2C3.7 84.1 3.6 83.9 3.6 83.8C3.6 83.8 3.6 83.8 3.6 83.8H3.6C3.5 83 3.6 82 4 81.3L14.8 62L14.8 62zM57.2 51.9L57.1 52H57.1C56.1 53.5 54.3 53.8 52.9 52.7L15.1 21.7C13.7 20.6 13.4 18.4 14.4 16.9C14.5 16.7 14.7 16.5 14.8 16.3L14.8 16.3H14.8C15.8 15.3 17.4 15.1 18.6 16.1L56.4 47.1C57.8 48.2 58.2 50.4 57.2 51.9L57.2 51.9z" />
    <glyph glyph-name="check"
      unicode="&#xEA3A;"
      horiz-adv-x="100" d=" M0 37.708V62.708Q0 76.458 9.792 86.25T33.334 96.042H58.334Q63.417 96.042 68.917 94.125L54.084 79.375H25.001Q21.584 79.375 19.126 76.917T16.668 71.042V29.375Q16.668 25.958 19.126 23.5T25.001 21.042H66.668Q70.085 21.042 72.543 23.5T75.001 29.375V35.125L91.668 51.792V37.709Q91.668 23.959 81.876 14.167T58.334 4.375H33.334Q19.584 4.375 9.792 14.167T0 37.709zM28.5 57.042L52.083 33.375L99.333 80.625L87.916 92.042L52.083 56.125L39.916 68.375z" />
    <glyph glyph-name="chevron-down"
      unicode="&#xEA3B;"
      horiz-adv-x="100" d=" M2.708 64.542L51.041 16.292L99.208 64.542L80.375 83.459L50.958 54.042L21.625 83.459z" />
    <glyph glyph-name="chevron-left"
      unicode="&#xEA3C;"
      horiz-adv-x="100" d=" M14.453 51.484L60.703 5.234L79.453 23.984L51.875 51.562L79.453 79.14L60.703 97.89z" />
    <glyph glyph-name="chevron-right"
      unicode="&#xEA3D;"
      horiz-adv-x="100" d=" M16.417 20.542L45.834 49.959L16.417 79.376L36.5 99.376L84.167 51.793L85.917 49.96L85.834 49.877V49.794L36.501 0.544z" />
    <glyph glyph-name="chevron-up"
      unicode="&#xEA3E;"
      horiz-adv-x="100" d=" M0.625 38.625L19.542 19.708L48.875 49.125L78.292 19.708L97.125 38.625L48.958 86.875z" />
    <glyph glyph-name="child"
      unicode="&#xEA3F;"
      horiz-adv-x="102" d=" M51.1 75.9C56.3 75.9 60.1 79.9 60.1 84.9S56.4 93.6 51.4 93.6C46.2 93.7 42.4 90 42.4 85S46.1 75.9 51.1 75.9zM51.1 70.8C38.9 70.8 37.4 65.6 37.4 59.3V48.1C37.4 44.7 39.3 39.6 43.3 39.6L44.9 6.4H57.4L59.4 39.6C63.5 39.6 64.8 44.6 64.8 48.1V59.8C64.8 65.5 63.8 70.8 51.1 70.8L51.1 70.8z" />
    <glyph glyph-name="circle-arrow-down"
      unicode="&#xEA40;"
      horiz-adv-x="100" d=" M3.516 49.766Q3.516 59.297 7.227 67.93T17.188 82.813T32.071 92.774T50.235 96.485Q62.891 96.485 73.633 90.235T90.625 73.204T96.875 49.766T90.625 26.368T73.633 9.376T50.235 3.126T26.797 9.376T9.766 26.368T3.516 49.766zM26.563 50L50.001 18.75L73.439 50H57.814V73.438H42.189V50H26.564z" />
    <glyph glyph-name="circle-arrow-left"
      unicode="&#xEA41;"
      horiz-adv-x="100" d=" M3.125 49.766Q3.125 59.297 6.836 67.93T16.797 82.813T31.68 92.774T49.766 96.485Q59.297 96.485 67.93 92.774T82.813 82.813T92.774 67.93T96.485 49.766Q96.485 37.11 90.235 26.368T73.204 9.376T49.767 3.126T26.369 9.376T9.377 26.368T3.127 49.766zM18.75 50L50.156 27.031L50 42.187H73.438L73.594 57.89H50.156V73.281z" />
    <glyph glyph-name="circle-arrow-right"
      unicode="&#xEA42;"
      horiz-adv-x="100" d=" M3.516 49.766Q3.516 59.297 7.227 67.93T17.188 82.813T32.071 92.774T50.235 96.485Q62.891 96.485 73.633 90.235T90.625 73.204T96.875 49.766T90.625 26.368T73.633 9.376T50.235 3.126T26.797 9.376T9.766 26.368T3.516 49.766zM26.406 57.891L26.562 42.188H50L49.844 27.032L81.25 50.001L49.844 73.282V57.891H26.406z" />
    <glyph glyph-name="circle-arrow-up"
      unicode="&#xEA43;"
      horiz-adv-x="100" d=" M3.516 49.766Q3.516 59.297 7.227 67.93T17.188 82.813T32.071 92.774T50.235 96.485Q62.891 96.485 73.633 90.235T90.625 73.204T96.875 49.766T90.625 26.368T73.633 9.376T50.235 3.126T26.797 9.376T9.766 26.368T3.516 49.766zM26.563 50H42.188V26.562H57.813V50H73.438L50 81.25z" />
    <glyph glyph-name="close"
      unicode="&#xEA44;"
      horiz-adv-x="100" d=" M90.086 99.112L50 59.026L9.914 99.112L0.888 90.086L40.974 50L0.888 9.914L9.914 0.888L50 40.974L90.086 0.888L99.112 9.914L59.026 50L99.112 90.086z" />
    <glyph glyph-name="cloud-download"
      unicode="&#xEA45;"
      horiz-adv-x="100" d=" M2.031 51.68Q2.031 45.43 6.445 40.977T17.031 36.524H34.375V59.962H65.625V36.524H75.625Q85 36.524 91.641 43.282T98.282 59.493T91.641 75.665T75.625 82.384Q72.031 82.384 68.594 81.29Q65.156 88.868 58.086 93.517T42.422 98.165Q30.547 98.165 22.109 89.767T13.671 69.415Q13.671 67.462 13.827 66.524Q8.671 65.43 5.35 61.251T2.03 51.681zM26.563 28.711H42.188V52.149H57.813V28.711H73.438L50 5.273z" />
    <glyph glyph-name="cloud-upload"
      unicode="&#xEA46;"
      horiz-adv-x="100" d=" M2.031 51.094Q2.031 44.844 6.445 40.391T17.031 35.938H17.656L50 68.282L81.484 36.798Q88.828 38.829 93.554 44.962T98.281 58.907Q98.281 68.282 91.64 75.04T75.624 81.798Q72.03 81.798 68.593 80.704Q65.155 88.282 58.085 92.931T42.421 97.579Q30.546 97.579 22.108 89.181T13.67 68.829Q13.67 66.876 13.826 65.938Q8.67 64.844 5.349 60.665T2.029 51.095zM26.563 28.125L50.001 51.563L73.439 28.125H57.814V4.687H42.189V28.125H26.564z" />
    <glyph glyph-name="cloud"
      unicode="&#xEA47;"
      horiz-adv-x="103" d=" M0.371 33.042Q0.371 26.375 5.079 21.625T16.371 16.875H78.871Q88.871 16.875 95.954 24.083T103.037 41.375T95.954 58.625T78.871 65.792Q75.038 65.792 71.371 64.625Q67.704 72.708 60.163 77.667T43.455 82.625Q30.788 82.625 21.788 73.667T12.788 51.959Q12.788 49.876 12.955 48.876Q7.455 47.709 3.913 43.251T0.371 33.043z" />
    <glyph glyph-name="coffre"
      unicode="&#xEA48;"
      horiz-adv-x="102" d=" M54.4 68.9H50.4V60.8H54.4V68.9zM43.6 54.1H35.5V50H43.6C43.6 50 43.6 54.1 43.6 54.1zM18.7 4H31.1V9H18.7L18.7 4L18.7 4zM70.9 4H83.3V9H70.9L70.9 4L70.9 4zM65.6 62.6L62.8 65.5L57.1 59.8L59.9 56.9L65.6 62.6L65.6 62.6zM39.1 41.5L41.9 38.6L47.6 44.3L44.8 47.2L39.1 41.5L39.1 41.5zM80.8 83.6H21.2V23.9H80.9L80.8 83.6L80.8 83.6zM52.2 31.4C40.5 31.4 31.1 40.9 31.1 52.5S40.6 73.6 52.2 73.6C63.9 73.6 73.3 64.1 73.3 52.5S63.9 31.4 52.2 31.4L52.2 31.4zM61.1 50H69.2V54.1H61.1V50zM87.3 96H14.7C11.4 96 8.7 93.3 8.7 90V17.1C8.7 13.8 10.4 11.5 13.7 11.5H88.3C91.6 11.5 93.3 13.8 93.3 17.1V90C93.3 93.3 90.6 96 87.3 96zM85.8 18.9H16.2V88.5H85.8L85.8 18.9L85.8 18.9zM57.1 44.4L62.8 38.7L65.6 41.6L59.9 47.3L57.1 44.4L57.1 44.4zM50.3 35.1H54.3V43.2H50.3V35.1zM52.2 58.7C48.8 58.7 46 55.9 46 52.5S48.8 46.3 52.2 46.3S58.4 49.1 58.4 52.5S55.7 58.7 52.2 58.7L52.2 58.7zM47.6 59.7L41.9 65.4L39.1 62.5L44.8 56.8C44.8 56.8 47.6 59.7 47.6 59.7z" />
    <glyph glyph-name="cog"
      unicode="&#xEA49;"
      horiz-adv-x="100" d=" M2.167 49.771Q2.167 47.021 2.667 43.604L15.25 40.437L15.417 39.937Q16.584 35.854 18.584 32.187L18.834 31.77L12.167 20.603Q15.917 15.686 20.917 11.853L32 18.603L32.417 18.353Q36.167 16.186 40.25 15.103L40.667 14.936L43.834 2.353Q47.167 1.936 50.001 1.936Q52.251 1.936 56.168 2.353L59.335 14.936L59.835 15.103Q63.668 16.186 67.585 18.353L68.002 18.603L79.169 11.853Q83.836 15.52 87.836 20.603L81.169 31.77L81.419 32.187Q83.419 35.854 84.669 39.937L84.752 40.437L97.419 43.604Q97.836 46.937 97.836 49.771Q97.836 52.104 97.419 55.854L84.752 59.021L84.669 59.521Q83.336 63.771 81.419 67.271L81.169 67.688L87.836 78.855Q84.169 83.688 79.169 87.605L68.002 80.855L67.585 81.105Q63.835 83.188 59.835 84.355L59.335 84.438L56.168 97.105Q52.835 97.522 50.001 97.522Q47.751 97.522 43.834 97.105L40.667 84.438L40.25 84.355Q36.083 83.188 32.417 81.105L32 80.855L20.917 87.605Q16 83.688 12.167 78.855L18.834 67.688L18.584 67.271Q16.501 63.354 15.417 59.521L15.25 59.021L2.667 55.854Q2.167 51.854 2.167 49.771zM32.083 49.771Q32.083 57.104 37.333 62.354T50 67.604T62.667 62.354T67.917 49.771Q67.917 42.354 62.667 37.104T50 31.854T37.333 37.104T32.083 49.771z" />
    <glyph glyph-name="collapse-down"
      unicode="&#xEA4A;"
      horiz-adv-x="100" d=" M3.125 37.708V62.708Q3.125 76.291 12.917 86.166T36.459 96.041H61.459Q75.042 96.041 84.917 86.124T94.792 62.707V37.707Q94.792 23.957 85 14.165T61.458 4.373H36.458Q22.708 4.373 12.916 14.165T3.124 37.707zM19.792 29.375Q19.792 25.958 22.25 23.5T28.125 21.042H69.792Q73.209 21.042 75.667 23.5T78.125 29.375V71.042Q78.125 74.459 75.667 76.917T69.792 79.375H28.125Q24.708 79.375 22.25 76.917T19.792 71.042V29.375zM28.125 62.708L48.958 34.958L69.791 62.708H28.124z" />
    <glyph glyph-name="collapse-up"
      unicode="&#xEA4B;"
      horiz-adv-x="100" d=" M3.125 37.708V62.708Q3.125 76.458 12.917 86.25T36.459 96.042H61.459Q75.209 96.042 85.001 86.25T94.793 62.708V37.708Q94.793 24.208 84.918 14.291T61.46 4.374H36.46Q22.71 4.374 12.918 14.249T3.126 37.707zM19.792 29.375Q19.792 25.958 22.25 23.5T28.125 21.042H69.792Q73.209 21.042 75.667 23.5T78.125 29.375V71.042Q78.125 74.459 75.667 76.917T69.792 79.375H28.125Q24.708 79.375 22.25 76.917T19.792 71.042V29.375zM28.125 37.708H69.792L48.959 65.458z" />
    <glyph glyph-name="comment"
      unicode="&#xEA4C;"
      horiz-adv-x="100" d=" M0 36.667V86.667Q0 90.084 2.458 92.542T8.333 95H91.666Q95.083 95 97.541 92.542T99.999 86.667V36.667Q99.999 33.25 97.541 30.792T91.666 28.334H41.999L16.666 3.334V28.334H8.333Q4.916 28.334 2.458 30.792T0 36.667z" />
    <glyph glyph-name="compressed"
      unicode="&#xEA4D;"
      horiz-adv-x="100" d=" M0 29.375Q0 25.958 2.458 23.5T8.333 21.042H33.333Q36.75 21.042 39.208 23.5T41.666 29.375V71.042Q41.666 74.459 39.208 76.917T33.333 79.375H8.333Q4.916 79.375 2.458 76.917T0 71.042V29.375zM8.333 12.708H41.666L58.333 29.375H67.083L91.666 37.542V12.709H56.249L47.916 4.376H16.666zM8.333 29.375V46.042H33.333V29.375H8.333zM8.333 54.375V71.042H33.333V54.375H8.333zM8.333 87.708H41.666L58.333 71.041V62.874L82.916 71.041H91.666V87.708H56.249L47.916 96.041H16.666zM58.333 37.875V51.458L91.666 62.541V48.958z" />
    <glyph glyph-name="console"
      unicode="&#xEA4E;"
      horiz-adv-x="100" d=" M57.675 66.111V51.524L2.213 25.637V43.351L35.315 58.817L2.213 74.287V92L57.675 66.111zM97.75 6.72H33.631V22.749H97.75V6.72z" />
    <glyph glyph-name="copy"
      unicode="&#xEA4F;"
      horiz-adv-x="100" d=" M58.823 98.541H67.648C68.884 98.541 69.931 98.115 70.783 97.262C71.638 96.407 72.065 95.363 72.065 94.127V89.715H76.476C77.713 89.715 78.754 89.288 79.609 88.435C80.463 87.581 80.89 86.536 80.89 85.3V76.473C80.89 75.239 80.463 74.194 79.609 73.34C78.755 72.485 77.713 72.058 76.476 72.058H49.999C48.761 72.058 47.72 72.485 46.866 73.34C46.011 74.194 45.583 75.238 45.583 76.473V85.3C45.583 86.535 46.011 87.58 46.866 88.435C47.72 89.289 48.761 89.715 49.999 89.715H54.41V94.127C54.41 95.362 54.837 96.406 55.69 97.262C56.544 98.116 57.589 98.541 58.825 98.541H58.823zM89.714 76.479V89.719C92.126 89.719 94.202 88.85 95.937 87.114C97.676 85.378 98.542 83.304 98.542 80.891V10.284C98.542 7.872 97.676 5.802 95.937 4.066C94.203 2.328 92.126 1.461 89.714 1.461H36.76C36.698 1.461 36.111 1.577 34.995 1.813L56.706 23.525L27.936 52.296V80.891C27.936 83.304 28.805 85.377 30.541 87.114C32.276 88.85 34.352 89.719 36.762 89.719V76.479C36.762 72.833 38.055 69.713 40.644 67.125C43.233 64.532 46.352 63.239 50.001 63.239H76.479C80.125 63.239 83.248 64.536 85.835 67.125C88.425 69.712 89.718 72.831 89.718 76.479H89.714zM37.817 23.523L19.11 4.813V19.114H1.458V27.937H19.11V42.236L37.817 23.523z" />
    <glyph glyph-name="copyright-mark"
      unicode="&#xEA50;"
      horiz-adv-x="100" d=" M50 99.024C56.636 99.024 62.98 97.725 69.04 95.127C75.096 92.527 80.31 89.043 84.677 84.676C89.045 80.306 92.532 75.094 95.13 69.039C97.73 62.984 99.026 56.637 99.026 50.001C99.026 43.364 97.73 37.017 95.13 30.961C92.532 24.908 89.045 19.694 84.677 15.323C80.31 10.952 75.096 7.469 69.04 4.87C62.987 2.274 56.643 0.975 50.003 0.975C43.363 0.968 37.019 2.271 30.967 4.87C24.91 7.474 19.697 10.956 15.326 15.323C10.955 19.691 7.471 24.901 4.875 30.958C2.277 37.014 0.978 43.361 0.975 49.997C0.975 56.634 2.274 62.981 4.875 69.036C7.474 75.094 10.961 80.306 15.326 84.676C19.693 89.043 24.906 92.528 30.967 95.127C37.023 97.726 43.37 99.024 50.003 99.024H50zM50 84.923C43.694 84.923 37.861 83.361 32.496 80.236C27.133 77.115 22.889 72.87 19.762 67.503C16.639 62.139 15.076 56.303 15.076 50.001C15.079 43.698 16.64 37.862 19.762 32.497C22.885 27.131 27.13 22.887 32.496 19.769C37.865 16.646 43.7 15.083 50 15.077C56.299 15.073 62.135 16.639 67.504 19.769C72.87 22.898 77.114 27.14 80.232 32.497C83.355 37.856 84.918 43.688 84.924 50.001C84.931 56.313 83.368 62.146 80.232 67.503C77.102 72.86 72.857 77.106 67.504 80.236C62.147 83.37 56.313 84.932 50 84.923zM66.59 58.297H41.705V41.706H66.59V33.41H41.705L33.409 41.706V58.297L41.705 66.592H66.59V58.297z" />
    <glyph glyph-name="credit-card"
      unicode="&#xEA51;"
      horiz-adv-x="100" d=" M0 15.833Q0 14.083 1.208 12.875T4.166 11.667H95.833Q97.583 11.667 98.791 12.875T99.999 15.833V61.666H-0.001V15.833zM0 70H100V82.5Q100 84.25 98.792 85.458T95.834 86.666H4.167Q2.417 86.666 1.209 85.458T0.001 82.5V70zM8.333 20V36.667H41.666V20H8.333z" />
    <glyph glyph-name="cutlery"
      unicode="&#xEA52;"
      horiz-adv-x="100" d=" M8.008 58.984V90.234L11.914 98.047L15.82 90.234V66.796H23.633V90.234L27.539 98.047L31.445 90.234V66.796H39.258V90.234L43.164 98.047L47.07 90.234V58.984L39.257 43.125V8.203Q39.257 6.562 38.124 5.43T35.351 4.297H19.726Q18.085 4.297 16.953 5.43T15.82 8.203V43.125zM62.695 50.937Q62.695 48.671 63.515 46.601T65.468 43.242T67.734 41.015T69.726 39.609L70.507 39.218V8.202Q70.507 6.561 71.64 5.429T74.413 4.296H90.038Q91.679 4.296 92.811 5.429T93.944 8.202V94.608Q93.944 97.03 92.538 97.772T89.1 97.186L67.537 88.123Q65.584 86.795 64.139 84.1T62.694 78.983V50.936z" />
    <glyph glyph-name="dashboard"
      unicode="&#xEA53;"
      horiz-adv-x="100" d=" M3.125 49.687Q3.125 62.343 9.375 73.046T26.328 89.999T49.687 96.249T73.046 89.999T89.999 73.046T96.249 49.687T89.999 26.328T73.046 9.375T49.687 3.125T26.328 9.375T9.375 26.328T3.125 49.687zM17.344 49.687Q17.344 36.249 26.836 26.796T49.688 17.343T72.54 26.796T82.032 49.687Q82.032 63.046 72.54 72.539T49.688 82.031T26.836 72.539T17.344 49.687zM25.859 54.297Q25.859 56.094 27.07 57.305T30.078 58.516T33.125 57.266T34.375 54.297Q34.375 52.5 33.125 51.25T30.078 50Q28.359 50 27.109 51.25T25.859 54.297zM34.375 69.531Q34.375 71.25 35.625 72.539T38.672 73.828Q40.391 73.828 41.641 72.578T42.891 69.531T41.641 66.484T38.672 65.234Q36.875 65.234 35.625 66.523T34.375 69.531zM43.281 50.703Q43.281 53.203 44.883 55.117T48.906 57.422L58.515 67.344Q57.812 68.438 57.812 69.532Q57.812 71.251 59.062 72.54T62.109 73.829Q63.828 73.829 65.078 72.579T66.328 69.532T65.078 66.485T62.109 65.235Q61.015 65.235 59.843 66.016L55.546 54.688Q56.874 52.969 56.874 50.704Q56.874 47.891 54.882 45.899T50.077 43.907T45.272 45.899T43.28 50.704zM65.625 54.297Q65.625 56.016 66.875 57.266T69.922 58.516T72.93 57.305T74.141 54.297T72.891 51.25T69.922 50Q68.125 50 66.875 51.25T65.625 54.297z" />
    <glyph glyph-name="download-alt"
      unicode="&#xEA54;"
      horiz-adv-x="100" d=" M41.707 99.746H58.288C59.451 99.746 60.432 99.344 61.231 98.543C62.031 97.738 62.433 96.758 62.433 95.6V58.295H78.268C79.376 58.295 80.08 57.978 80.379 57.343C80.684 56.708 80.477 55.947 79.758 55.059L52.646 21.896C51.93 21.013 51.046 20.572 49.997 20.572C48.945 20.572 48.061 21.013 47.343 21.896L20.233 55.058C19.515 55.943 19.307 56.704 19.609 57.342C19.914 57.977 20.619 58.294 21.726 58.294H37.563V95.599C37.563 96.761 37.964 97.741 38.764 98.542C39.566 99.342 40.547 99.744 41.707 99.746L41.707 99.746zM89.377 33.424H93.523C94.077 33.424 94.559 33.215 94.976 32.799C95.394 32.381 95.602 31.897 95.602 31.344V2.328C95.602 1.775 95.394 1.291 94.976 0.877C94.559 0.461 94.077 0.254 93.523 0.254H6.472C5.922 0.254 5.436 0.461 5.022 0.877C4.607 1.291 4.4 1.775 4.4 2.328V31.344C4.4 31.897 4.607 32.381 5.022 32.799C5.436 33.215 5.922 33.424 6.472 33.424H10.618C11.171 33.424 11.655 33.215 12.072 32.799C12.489 32.381 12.697 31.897 12.697 31.344V16.834H87.311V31.344C87.311 31.897 87.518 32.381 87.933 32.799C88.348 33.215 88.832 33.424 89.384 33.424H89.377z" />
    <glyph glyph-name="download"
      unicode="&#xEA55;"
      horiz-adv-x="100" d=" M1.643 49.697Q1.643 59.546 5.478 68.507T15.771 83.926T31.19 94.219T50 98.054T68.81 94.219T84.229 83.926T94.522 68.507T98.357 49.697T94.522 30.887T84.229 15.468T68.81 5.175T50 1.34T31.19 5.175T15.771 15.468T5.478 30.887T1.643 49.697zM16.74 49.697Q16.74 35.973 26.508 26.205T50 16.437T73.492 26.205T83.26 49.697T73.492 73.189T50 82.957T26.508 73.189T16.74 49.697zM29.818 49.697H41.927V73.916H58.073V49.697H70.182L50 25.478z" />
    <glyph glyph-name="duplicate"
      unicode="&#xEA56;"
      horiz-adv-x="100" d=" M74.377 66.252H98.751V19.536C98.751 18.994 98.548 18.52 98.142 18.111C97.733 17.702 97.26 17.499 96.717 17.499H66.249V65.517L41.876 89.891V96.716C41.876 97.257 42.079 97.732 42.487 98.139C42.893 98.547 43.37 98.75 43.909 98.75H74.377V66.252zM98.751 74.376H82.502V90.625L98.751 74.376zM33.754 50.004H58.128V3.287C58.128 2.744 57.925 2.271 57.519 1.862C57.11 1.453 56.636 1.25 56.094 1.25H3.283C2.741 1.25 2.267 1.453 1.858 1.862C1.452 2.271 1.249 2.744 1.249 3.287V80.47C1.249 81.011 1.452 81.486 1.858 81.893C2.267 82.301 2.741 82.504 3.283 82.504H33.751V50.004H33.754zM58.128 58.129H41.878V74.376L58.128 58.129z" />
    <glyph glyph-name="earphone"
      unicode="&#xEA57;"
      horiz-adv-x="100" d=" M1.375 82.458Q1.417 80.666 2.708 74.958T6.583 63.291T15.25 48.499T29.833 31.166Q38.416 22.583 47.125 16.499T62.125 7.874T73.542 3.957T81.25 2.582L83.833 2.665L97.416 16.165Q98.833 17.665 98.541 19.582T96.666 22.665L80.666 33.998Q79.083 35.165 76.916 34.998T73.416 33.415L63.583 23.582Q51.75 31.999 41.25 42.499T22.333 64.832L32.166 74.665Q33.583 76.082 33.833 78.123T32.916 81.831L21.333 97.998Q20.166 99.581 18.291 99.831T14.916 98.664L1.416 85.164Q1.333 84.247 1.374 82.456z" />
    <glyph glyph-name="edit"
      unicode="&#xEA58;"
      horiz-adv-x="103" d=" M0 37.708V62.708Q0 76.458 9.792 86.25T33.334 96.042Q63.834 95.542 66.417 94.875L50.917 79.375H25Q21.583 79.375 19.125 76.917T16.667 71.042V29.375Q16.667 25.958 19.125 23.5T25 21.042H66.667Q70.084 21.042 72.542 23.5T75 29.375V39.792L91.667 56.459V37.709Q91.667 23.959 81.875 14.167T58.333 4.375H33.333Q19.583 4.375 9.791 14.167T-0.001 37.709zM36.333 32.792L49.75 36.959L84.083 71.292L74.583 80.709L40.833 46.959zM82.917 88.958L92.334 79.541L101.751 88.958L100.001 96.041L92.334 98.374z" />
    <glyph glyph-name="education"
      unicode="&#xEA59;"
      horiz-adv-x="100" d=" M99 67.536L50.767 46.141L22.193 58.991L16.297 54.454V37.52L23.86 26.18V11.135L12.515 22.324L1.172 11.062V26.182L8.735 37.524V56.424C8.735 56.625 8.719 56.89 8.694 57.218C8.669 57.545 8.669 57.784 8.694 57.936S8.745 58.292 8.769 58.54C8.794 58.792 8.87 58.994 8.997 59.148C9.122 59.302 9.286 59.454 9.487 59.604L13.041 62.629L1.928 67.542L50.464 88.938L99 67.536zM76.773 38.279L50.313 25.729L23.853 38.28V49.392L50.313 36.918L76.774 49.392V38.279z" />
    <glyph glyph-name="eject"
      unicode="&#xEA5A;"
      horiz-adv-x="100" d=" M5.208 18.958V27.291Q5.208 29.041 6.416 30.249T9.374 31.457H92.707Q94.457 31.457 95.665 30.249T96.873 27.291V18.958Q96.873 17.208 95.665 16T92.707 14.792H9.374Q7.624 14.792 6.416 16T5.208 18.958zM5.208 39.792H96.875L51.042 86.792z" />
    <glyph glyph-name="envelope"
      unicode="&#xEA5B;"
      horiz-adv-x="100" d=" M0 8.021L33.333 41.354L50 24.687L66.667 41.354L100 8.021H0zM0 24.687V74.687L25 49.687zM0 91.354L50 41.104L100 91.354H0zM75 49.687L100 74.687V24.687z" />
    <glyph glyph-name="equalizer"
      unicode="&#xEA5C;"
      horiz-adv-x="100" d=" M38.867 98.976H61.129C61.723 98.976 62.244 98.755 62.688 98.31C63.131 97.863 63.358 97.345 63.358 96.749V83.393C63.358 82.799 63.131 82.279 62.688 81.833C62.245 81.389 61.723 81.165 61.129 81.165H38.867C38.271 81.165 37.756 81.389 37.308 81.833C36.862 82.278 36.64 82.799 36.64 83.393V96.749C36.64 97.345 36.862 97.862 37.308 98.31C37.755 98.755 38.271 98.976 38.867 98.976zM38.867 72.263H61.129C61.723 72.263 62.244 72.041 62.688 71.597C63.131 71.15 63.358 70.631 63.358 70.036V56.681C63.358 56.087 63.131 55.566 62.688 55.122C62.245 54.675 61.723 54.45 61.129 54.45H38.867C38.271 54.45 37.756 54.675 37.308 55.122C36.862 55.565 36.64 56.087 36.64 56.681V70.036C36.64 70.631 36.862 71.149 37.308 71.597C37.755 72.041 38.271 72.263 38.867 72.263zM74.486 72.263H96.748C97.344 72.263 97.859 72.041 98.307 71.597C98.754 71.15 98.975 70.631 98.975 70.036V56.681C98.975 56.087 98.754 55.566 98.307 55.122C97.86 54.675 97.344 54.45 96.748 54.45H74.486C73.892 54.45 73.371 54.675 72.927 55.122C72.484 55.565 72.257 56.087 72.257 56.681V70.036C72.257 70.631 72.484 71.149 72.927 71.597C73.371 72.041 73.893 72.263 74.486 72.263zM3.251 45.548H25.514C26.107 45.548 26.629 45.326 27.073 44.883C27.516 44.437 27.742 43.918 27.742 43.324V29.968C27.742 29.374 27.516 28.853 27.073 28.409C26.63 27.962 26.107 27.737 25.514 27.737H3.251C2.655 27.737 2.14 27.962 1.692 28.409C1.246 28.852 1.024 29.374 1.024 29.968V43.324C1.024 43.918 1.246 44.436 1.692 44.883C2.14 45.326 2.656 45.548 3.251 45.548L3.251 45.548zM38.867 45.548H61.129C61.723 45.548 62.244 45.326 62.688 44.883C63.131 44.437 63.358 43.918 63.358 43.324V29.968C63.358 29.374 63.131 28.853 62.688 28.409C62.245 27.962 61.723 27.737 61.129 27.737H38.867C38.271 27.737 37.756 27.962 37.308 28.409C36.862 28.852 36.64 29.374 36.64 29.968V43.324C36.64 43.918 36.862 44.436 37.308 44.883C37.755 45.326 38.271 45.548 38.867 45.548zM74.486 45.548H96.748C97.344 45.548 97.859 45.326 98.307 44.883C98.754 44.437 98.975 43.918 98.975 43.324V29.968C98.975 29.374 98.754 28.853 98.307 28.409C97.86 27.962 97.344 27.737 96.748 27.737H74.486C73.892 27.737 73.371 27.962 72.927 28.409C72.484 28.852 72.257 29.374 72.257 29.968V43.324C72.257 43.918 72.484 44.436 72.927 44.883C73.371 45.326 73.893 45.548 74.486 45.548zM3.251 18.835H25.514C26.107 18.835 26.629 18.613 27.073 18.17C27.516 17.724 27.742 17.205 27.742 16.611V3.255C27.742 2.661 27.516 2.14 27.073 1.696C26.63 1.249 26.107 1.024 25.514 1.024H3.251C2.655 1.024 2.14 1.249 1.692 1.696C1.246 2.139 1.024 2.661 1.024 3.255V16.611C1.024 17.205 1.246 17.723 1.692 18.17C2.14 18.613 2.656 18.835 3.251 18.835L3.251 18.835zM38.867 18.835H61.129C61.723 18.835 62.244 18.613 62.688 18.17C63.131 17.724 63.358 17.205 63.358 16.611V3.255C63.358 2.661 63.131 2.14 62.688 1.696C62.245 1.249 61.723 1.024 61.129 1.024H38.867C38.271 1.024 37.756 1.249 37.308 1.696C36.862 2.139 36.64 2.661 36.64 3.255V16.611C36.64 17.205 36.862 17.723 37.308 18.17C37.755 18.613 38.271 18.835 38.867 18.835zM74.486 18.835H96.748C97.344 18.835 97.859 18.613 98.307 18.17C98.754 17.724 98.975 17.205 98.975 16.611V3.255C98.975 2.661 98.754 2.14 98.307 1.696C97.86 1.249 97.344 1.024 96.748 1.024H74.486C73.892 1.024 73.371 1.249 72.927 1.696C72.484 2.139 72.257 2.661 72.257 3.255V16.611C72.257 17.205 72.484 17.723 72.927 18.17C73.371 18.613 73.893 18.835 74.486 18.835z" />
    <glyph glyph-name="erase"
      unicode="&#xEA5D;"
      horiz-adv-x="100" d=" M40.271 97.143L96.976 40.355C98.694 38.636 99.555 36.544 99.555 34.08C99.555 31.613 98.694 29.521 96.976 27.801L86.085 16.912H46.091L3.105 59.981C1.329 61.7 0.445 63.791 0.445 66.256C0.445 68.721 1.329 70.814 3.105 72.532L27.633 97.142C29.352 98.861 31.443 99.72 33.908 99.72C36.373 99.72 38.494 98.861 40.266 97.142H40.271zM9.342 66.296L37.777 37.859L62.97 63.138L34.616 91.489L9.342 66.296zM21.147 8.594H87.663C88.826 8.594 89.811 8.192 90.612 7.385C91.418 6.58 91.821 5.598 91.821 4.436V0.28H16.991V4.436C16.991 5.598 17.391 6.584 18.192 7.385C18.997 8.191 19.981 8.594 21.147 8.594z" />
    <glyph glyph-name="euro-symbol"
      unicode="&#xEA5E;"
      horiz-adv-x="100" d=" M2.083 41.354L10.416 49.687H19.833Q19.833 53.604 20.25 58.02H2.083L10.416 66.353H21.666Q24.749 80.27 30.999 87.77Q40.749 99.52 55.749 99.52Q75.916 99.52 85.249 83.77Q90.249 75.187 90.749 66.353H75.666Q75.666 70.936 73.541 74.603T68.249 80.27T61.999 83.312T56.416 84.354Q54.416 84.354 52.041 83.521T46.833 80.854T41.375 75.271T37.167 66.354H68.75L60.417 58.021H35.417Q34.917 54.188 34.917 49.688H68.75L60.417 41.355H35.417Q36.167 35.188 38.167 30.355T42.542 22.772T47.709 18.23T52.626 15.813T56.501 15.188Q58.918 15.188 62.001 16.271T68.251 19.354T73.543 24.979T75.668 33.021H90.168Q87.585 18.688 79.501 9.854Q70.584 0.104 56.668 0.104Q39.585 0.104 29.668 13.271Q26.668 17.104 23.918 24.229T20.168 41.354H2.085z" />
    <glyph glyph-name="exclamation-sign"
      unicode="&#xEA5F;"
      horiz-adv-x="100" d=" M4.922 51.172Q4.922 60.391 8.477 68.711T18.086 83.086T32.461 92.695T50 96.25T67.539 92.695T81.914 83.086T91.523 68.711T95.078 51.172T91.523 33.633T81.914 19.258T67.539 9.649T50 6.094T32.461 9.649T18.086 19.258T8.477 33.633T4.922 51.172zM38.75 70.781L43.281 47.187Q43.594 45.624 44.961 44.492T47.891 43.359H52.11Q53.673 43.359 55.04 44.492T56.72 47.187L61.251 70.781Q61.564 72.344 60.626 73.476T58.126 74.609H41.954Q40.313 74.609 39.376 73.476T38.751 70.781zM42.188 27.734H57.813V35.547H42.188V27.734z" />
    <glyph glyph-name="expand"
      unicode="&#xEA60;"
      horiz-adv-x="100" d=" M3.125 37.708V62.708Q3.125 76.291 13.042 86.166T36.459 96.041H61.459Q75.209 96.041 85.001 86.249T94.793 62.707V37.707Q94.793 23.957 85.001 14.165T61.459 4.373H36.459Q22.876 4.373 13.001 14.165T3.126 37.707zM19.792 29.375Q19.792 25.958 22.25 23.5T28.125 21.042H69.792Q73.209 21.042 75.667 23.5T78.125 29.375V71.042Q78.125 74.459 75.667 76.917T69.792 79.375H28.125Q24.708 79.375 22.25 76.917T19.792 71.042V29.375zM36.458 29.375L64.208 50.208L36.458 71.041V29.374z" />
    <glyph glyph-name="export"
      unicode="&#xEA61;"
      horiz-adv-x="100" d=" M3.125 -1.875V21.042Q3.125 21.959 3.708 22.542T5.208 23.125H92.541Q93.458 23.125 94.124 22.5T94.791 21.042V-1.875H3.124zM19.792 49.125L37.459 31.458L45.626 39.541L27.876 57.208zM28.125 98.125L48.042 77.292L35.625 64.875L53.292 47.208L65.709 59.541L86.459 39.791L86.376 97.874zM78.125 10.625H86.458V14.792H78.125V10.625z" />
    <glyph glyph-name="eye-close"
      unicode="&#xEA62;"
      horiz-adv-x="119" d=" M4.292 51.25L6.459 54.583Q6.959 55.416 8.126 57.083T12.209 62.375T18.417 69.5T26.5 77T36.208 83.958T47.25 88.875T59.375 90.833Q64.458 90.833 69.458 89.416L72.541 101.249H84.874L58.707 1.249H46.374L49.457 13.166Q42.624 14.916 35.707 19.124T24.04 27.624T14.915 36.957T8.915 44.332T6.457 47.915zM19.375 51.25Q36.875 27.75 52.125 23.25L55.208 35Q46.291 36.5 40.333 43.458T34.375 59.583Q34.375 66.666 38.208 72.75Q29.708 65.5 19.375 51.25zM40.792 55.917Q44.875 45.584 53.625 40L57.542 43.917L59.459 51.167Q56.959 53.5 54.542 56.917T50.875 62.584L49.708 64.751zM74.375 14.667L77.542 26.75Q79.375 28 81.25 29.583T85.083 33.25T88.458 36.917T91.875 41.125T94.667 44.75T97.417 48.417T99.459 51.25Q91.376 61.833 87.792 65.833L91.042 78Q96.625 73.5 102 67.542T109.292 58.917T112.292 54.584L114.459 51.251L112.292 47.918Q111.709 46.918 110.167 44.751T104.875 38.126T96.917 29.584T86.584 21.251T74.376 14.668z" />
    <glyph glyph-name="eye-open"
      unicode="&#xEA63;"
      horiz-adv-x="113" d=" M1.167 51.25L3.334 54.583Q3.834 55.416 5.001 57.083T9.084 62.375T15.292 69.5T23.375 77T33.083 83.958T44.125 88.875T56.25 90.833T68.375 88.875T79.417 83.958T89.125 77T97.208 69.5T103.416 62.375T107.499 57.083T109.166 54.583L111.333 51.25L109.166 47.917Q108.666 47.084 107.499 45.417T103.416 40.125T97.208 33T89.125 25.5T79.417 18.542T68.375 13.625T56.25 11.667T44.125 13.625T33.083 18.542T23.375 25.5T15.292 33T9.084 40.125T5.001 45.417T3.334 47.917zM16.25 51.25Q16.833 50.417 19.625 46.417T24.292 39.875T29.959 33.417T37.251 27.167T45.834 23.042T56.251 21.25T66.543 22.917T74.918 26.709T82.043 32.667T87.585 38.959T92.418 45.751T96.335 51.251Q96.252 51.334 93.96 54.376T90.46 58.959T86.835 63.376T82.043 68.668T77.168 73.168Q81.251 67.001 81.251 59.585Q81.251 49.252 73.918 41.918T56.251 34.585T38.584 41.918T31.251 59.585Q31.251 66.668 35.084 72.752Q26.584 65.502 16.251 51.252zM37.667 55.917Q41.75 45.584 50.5 40L59.25 48.75Q56.167 50.75 53 54.75T48.25 61.75L46.583 64.75z" />
    <glyph glyph-name="facebook"
      unicode="&#xEA64;"
      horiz-adv-x="100" d=" M74 98L61.5 98C47.5 98 38.4 88.7 38.4 74.3V63.4H26C24.9 63.4 24 62.5 24 61.4V45.6C24 44.5 24.9 43.6 26 43.6H38.5V3.7C38.5 2.6 39.4 1.7 40.5 1.7H56.9C58 1.7 58.9 2.6 58.9 3.7V43.8H73.6C74.7 43.8 75.6 44.7 75.6 45.8L75.6 61.6C75.6 62.1 75.4 62.6 75 63C74.6 63.4 74.1 63.6 73.6 63.6H58.8V72.8C58.8 77.2 59.9 79.5 65.6 79.5L74 79.5C75.1 79.5 76 80.4 76 81.5V96.1C76 97.2 75.1 98 74 98z" />
    <glyph glyph-name="facetime-video"
      unicode="&#xEA65;"
      horiz-adv-x="100" d=" M0 22.604V76.771Q0 79.354 1.833 81.188T6.25 83.021H68.75Q71.333 83.021 73.167 81.188T75 76.771V22.604Q75 20.021 73.167 18.187T68.75 16.354H6.25Q3.667 16.354 1.833 18.187T0 22.604zM75 49.687L100 74.687V24.687z" />
    <glyph glyph-name="fast-backward"
      unicode="&#xEA66;"
      horiz-adv-x="100" d=" M0 8.542V91.875Q0 93.625 1.208 94.833T4.166 96.041H12.499Q14.249 96.041 15.457 94.833T16.665 91.875V55.458L58.332 96.041V55.458L99.999 96.041V4.374L58.332 45.041V4.374L16.665 45.041V8.541Q16.665 6.791 15.457 5.583T12.499 4.375H4.166Q2.416 4.375 1.208 5.583T0 8.541z" />
    <glyph glyph-name="fast-forward"
      unicode="&#xEA67;"
      horiz-adv-x="100" d=" M0 4.375V96.042L41.667 55.459V96.042L83.334 55.459V91.876Q83.334 93.626 84.542 94.834T87.5 96.042H95.833Q97.583 96.042 98.791 94.834T99.999 91.876V8.543Q99.999 6.793 98.791 5.585T95.833 4.377H87.5Q85.75 4.377 84.542 5.585T83.334 8.543V45.043L41.667 4.376V45.043z" />
    <glyph glyph-name="file-doc"
      unicode="&#xEA68;"
      horiz-adv-x="100" d=" M32.903 37.396H38.947C40.31 37.396 41.349 37.282 42.064 37.054C43.024 36.744 43.848 36.196 44.533 35.407C45.219 34.617 45.74 33.65 46.097 32.508C46.454 31.364 46.633 29.954 46.633 28.279C46.633 26.805 46.466 25.536 46.13 24.47C45.72 23.167 45.136 22.114 44.376 21.308C43.802 20.698 43.028 20.222 42.052 19.88C41.322 19.627 40.346 19.501 39.125 19.501H32.902V37.396zM36.21 34.368V22.515H38.679C39.602 22.515 40.269 22.572 40.679 22.685C41.216 22.831 41.66 23.081 42.014 23.43C42.368 23.78 42.656 24.356 42.88 25.158C43.104 25.959 43.215 27.052 43.215 28.435S43.104 30.88 42.88 31.621C42.656 32.362 42.344 32.939 41.942 33.355C41.54 33.769 41.029 34.05 40.411 34.197C39.949 34.311 39.044 34.368 37.696 34.368H36.21z M48.768 28.338C48.768 30.161 49.018 31.691 49.517 32.928C49.89 33.839 50.398 34.657 51.042 35.381C51.687 36.106 52.393 36.643 53.159 36.992C54.18 37.465 55.356 37.701 56.689 37.701C59.103 37.701 61.034 36.883 62.482 35.247C63.931 33.611 64.656 31.337 64.656 28.424C64.656 25.534 63.936 23.274 62.5 21.643C61.062 20.011 59.141 19.196 56.734 19.196C54.298 19.196 52.362 20.008 50.924 21.631C49.486 23.254 48.768 25.489 48.768 28.338zM52.176 28.46C52.176 26.434 52.604 24.897 53.46 23.852S55.404 22.284 56.723 22.284S59.123 22.803 59.968 23.841C60.814 24.878 61.237 26.435 61.237 28.51C61.237 30.561 60.825 32.091 60.003 33.1C59.18 34.109 58.087 34.614 56.724 34.614S54.262 34.103 53.428 33.082S52.176 30.519 52.176 28.46z M77.716 26.08L80.922 24.969C80.431 23.016 79.613 21.565 78.47 20.617C77.326 19.669 75.876 19.195 74.118 19.195C71.943 19.195 70.155 20.007 68.756 21.63C67.356 23.254 66.655 25.474 66.655 28.289C66.655 31.268 67.358 33.581 68.766 35.228C70.173 36.876 72.025 37.701 74.319 37.701C76.322 37.701 77.95 37.054 79.201 35.76C79.946 34.995 80.505 33.897 80.877 32.464L77.604 31.61C77.411 32.538 77.006 33.27 76.392 33.807S75.031 34.613 74.152 34.613C72.938 34.613 71.953 34.137 71.197 33.184C70.441 32.233 70.063 30.69 70.063 28.558C70.063 26.295 70.435 24.684 71.18 23.724S72.893 22.284 74.085 22.284C74.963 22.284 75.72 22.589 76.353 23.2C76.985 23.809 77.44 24.77 77.716 26.08z M29 14.25V42.75H82.291V57.769H49.999V98.134H11.653C11.061 98.134 10.577 97.946 10.2 97.569C9.823 97.192 9.635 96.708 9.635 96.116V3.277C9.635 2.685 9.823 2.201 10.2 1.824C10.576 1.447 11.061 1.259 11.653 1.259H80.274C80.866 1.259 81.35 1.447 81.727 1.824C82.103 2.201 82.291 2.685 82.291 3.277V14.25H29z M58.072 90.062L58.072 65.843L82.292 65.843z" />
    <glyph glyph-name="file-pdf"
      unicode="&#xEA69;"
      horiz-adv-x="100" d=" M33.068 19.5V37.396H38.867C41.064 37.396 42.497 37.306 43.164 37.127C44.189 36.858 45.048 36.274 45.74 35.375C46.431 34.476 46.777 33.314 46.777 31.891C46.777 30.791 46.578 29.869 46.179 29.12C45.78 28.371 45.273 27.783 44.658 27.356C44.044 26.928 43.419 26.646 42.784 26.507C41.922 26.336 40.673 26.25 39.037 26.25H36.681V19.5H33.068zM36.682 34.368V29.29H38.661C40.085 29.29 41.037 29.384 41.516 29.57C41.996 29.758 42.372 30.05 42.646 30.449C42.918 30.848 43.055 31.312 43.055 31.842C43.055 32.492 42.864 33.03 42.481 33.453C42.098 33.876 41.614 34.141 41.028 34.246C40.597 34.327 39.73 34.368 38.428 34.368H36.682z M49.731 37.396H56.335C57.823 37.396 58.959 37.282 59.74 37.054C60.79 36.744 61.689 36.196 62.438 35.407C63.186 34.617 63.756 33.65 64.147 32.508C64.538 31.364 64.733 29.954 64.733 28.279C64.733 26.805 64.549 25.536 64.183 24.47C63.736 23.167 63.096 22.114 62.266 21.308C61.64 20.698 60.793 20.222 59.727 19.88C58.93 19.627 57.864 19.501 56.53 19.501H49.73V37.396zM53.345 34.368V22.515H56.043C57.052 22.515 57.78 22.572 58.228 22.685C58.814 22.831 59.3 23.081 59.687 23.43C60.073 23.78 60.389 24.356 60.633 25.158C60.877 25.959 60.998 27.052 60.998 28.435S60.877 30.88 60.633 31.621C60.389 32.362 60.047 32.939 59.608 33.355C59.169 33.769 58.611 34.05 57.935 34.197C57.43 34.311 56.442 34.368 54.969 34.368H53.345z M67.822 19.5V37.396H80.09V34.369H71.436V30.134H78.907V27.107H71.436V19.5H67.822z M29 14.25V42.75H82.291V57.769H49.999V98.134H11.653C11.061 98.134 10.577 97.946 10.2 97.569C9.823 97.192 9.635 96.708 9.635 96.116V3.277C9.635 2.685 9.823 2.201 10.2 1.824C10.576 1.447 11.061 1.259 11.653 1.259H80.274C80.866 1.259 81.35 1.447 81.727 1.824C82.103 2.201 82.291 2.685 82.291 3.277V14.25H29z M58.072 90.062L58.072 65.843L82.292 65.843z" />
    <glyph glyph-name="file-xls"
      unicode="&#xEA6A;"
      horiz-adv-x="100" d=" M34.25 19.5L40.365 28.838L34.824 37.396H39.047L42.637 31.647L46.153 37.396H50.34L44.774 28.705L50.89 19.501H46.53L42.562 25.69L38.584 19.5H34.25z M52.842 19.5V37.249H56.455V22.516H65.439V19.5H52.842z M67.099 25.322L70.615 25.664C70.827 24.484 71.256 23.618 71.903 23.064C72.549 22.51 73.423 22.234 74.521 22.234C75.685 22.234 76.561 22.48 77.152 22.972C77.742 23.464 78.037 24.04 78.037 24.7C78.037 25.123 77.913 25.483 77.665 25.78C77.416 26.077 76.983 26.336 76.364 26.555C75.941 26.701 74.977 26.962 73.471 27.336C71.534 27.816 70.175 28.406 69.394 29.107C68.295 30.091 67.747 31.292 67.747 32.708C67.747 33.619 68.005 34.472 68.521 35.266C69.038 36.059 69.783 36.663 70.755 37.079C71.727 37.494 72.901 37.702 74.276 37.702C76.522 37.702 78.213 37.209 79.348 36.224C80.483 35.24 81.079 33.925 81.136 32.282L77.523 32.123C77.369 33.043 77.037 33.704 76.528 34.106C76.019 34.509 75.257 34.71 74.24 34.71C73.189 34.71 72.368 34.494 71.773 34.063C71.391 33.787 71.2 33.417 71.2 32.953C71.2 32.53 71.379 32.168 71.737 31.866C72.193 31.484 73.3 31.085 75.057 30.671C76.815 30.255 78.115 29.826 78.957 29.383C79.799 28.939 80.458 28.333 80.935 27.564C81.411 26.795 81.649 25.845 81.649 24.714C81.649 23.689 81.364 22.728 80.795 21.833C80.226 20.937 79.42 20.271 78.378 19.837C77.336 19.401 76.038 19.184 74.484 19.184C72.221 19.184 70.484 19.706 69.271 20.752S67.335 23.32 67.099 25.322z M29 14.25V42.75H82.291V57.769H49.999V98.134H11.653C11.061 98.134 10.577 97.946 10.2 97.569C9.823 97.192 9.635 96.708 9.635 96.116V3.277C9.635 2.685 9.823 2.201 10.2 1.824C10.576 1.447 11.061 1.259 11.653 1.259H80.274C80.866 1.259 81.35 1.447 81.727 1.824C82.103 2.201 82.291 2.685 82.291 3.277V14.25H29z M58.072 90.062L58.072 65.843L82.292 65.843z" />
    <glyph glyph-name="file"
      unicode="&#xEA6B;"
      horiz-adv-x="100" d=" M9.635 3.278V96.116Q9.635 97.004 10.2 97.569T11.653 98.134H49.999V57.769H82.291V3.277Q82.291 2.389 81.726 1.824T80.273 1.259H11.653Q10.765 1.259 10.2 1.824T9.635 3.277zM58.073 65.843V90.062L82.292 65.843H58.073z" />
    <glyph glyph-name="film"
      unicode="&#xEA6C;"
      horiz-adv-x="100" d=" M0 4.375V96.042H100V4.375H0zM8.333 12.708H16.666V21.041H8.333V12.708zM8.333 29.375H16.666V37.708H8.333V29.375zM8.333 46.042H16.666V54.375H8.333V46.042zM8.333 62.708H16.666V71.041H8.333V62.708zM8.333 79.375H16.666V87.708H8.333V79.375zM25 12.708H75V46.041H25V12.708zM25 54.375H75V87.708H25V54.375zM83.333 12.708H91.666V21.041H83.333V12.708zM83.333 29.375H91.666V37.708H83.333V29.375zM83.333 46.042H91.666V54.375H83.333V46.042zM83.333 62.708H91.666V71.041H83.333V62.708zM83.333 79.375H91.666V87.708H83.333V79.375z" />
    <glyph glyph-name="filter"
      unicode="&#xEA6D;"
      horiz-adv-x="100" d=" M8.333 92.917V101.25H91.666V92.917H8.333zM12.5 84.583H87.5L58.333 42.916V17.916L41.666 1.249V42.916z" />
    <glyph glyph-name="fire"
      unicode="&#xEA6E;"
      horiz-adv-x="100" d=" M11.797 33.242Q11.797 30.664 12.188 28.32Q12.891 23.945 15.626 18.984T23.829 10.507Q26.251 8.866 28.829 9.257T33.673 11.093T38.126 14.96T41.876 19.765T44.61 24.492Q47.11 29.648 47.657 38.906T46.641 51.211Q52.813 44.961 56.172 38.398T58.203 24.023Q57.812 21.445 56.601 18.593T53.671 12.304Q52.89 10.82 52.538 10.038T51.6 8.007T50.897 6.171T50.663 4.687T50.858 3.476T51.717 2.734T53.24 2.343T55.623 2.538T58.904 3.163Q63.357 4.726 66.013 5.819T72.849 9.296T79.646 14.296T84.763 21.21T88.435 30.741Q91.404 44.179 84.958 57.421T65.7 79.179Q67.419 75.741 69.059 69.101Q72.106 56.679 66.559 57.07Q65.387 57.226 63.981 57.773Q57.809 60.351 54.567 65.586T51.129 79.297T54.918 99.414Q53.902 98.789 52.262 97.578T46.598 92.383T39.684 84.141T34.996 73.36T34.371 60.352Q34.527 59.414 34.996 57.11T35.621 53.751T36.09 50.665T36.363 47.579T36.285 44.962T35.816 42.501T34.761 40.626T33.12 39.024T30.698 38.086Q27.729 37.305 25.464 39.102T22.3 43.907T21.128 50.274T21.948 56.133Q17.886 52.539 15.425 48.242T12.378 39.883T11.792 33.242z" />
    <glyph glyph-name="flag"
      unicode="&#xEA6F;"
      horiz-adv-x="100" d=" M8.333 4.375V96.042H16.666V4.375H8.333zM25 37.708Q30 42.708 35.625 44.708T46.25 46.166T56.417 44.249T66.334 41.749T75.501 40.832T84.084 44.332T91.667 54.374V96.041Q88.334 89.291 83.209 86.416T72.584 83.958T61.084 86.041T49.459 89.374T39.001 91.457T30.418 88.999T25.001 79.374V37.707z" />
    <glyph glyph-name="flash"
      unicode="&#xEA70;"
      horiz-adv-x="100" d=" M18.083 44.5Q18.75 42.917 20.666 42.917H45.833Q32.916 6.417 32.5 4.75Q32.083 3 32.833 2.083L33.583 1.416H34.333Q35.5 1.416 36.5 2.666Q37.417 3.749 59.375 29.458T81.417 55.166Q82.584 56.749 81.834 58.166Q81.167 59.583 79.251 59.583L54.168 59.5Q54.251 59.833 60.668 77.792T67.251 96.75Q67.418 98 66.834 99L66.084 99.75H65.334Q64.084 99.75 63.251 98.417Q62.918 97.917 55.084 89.125T36.042 67.708T18.584 47.916Q17.251 46.333 18.084 44.499z" />
    <glyph glyph-name="floppy-disk"
      unicode="&#xEA71;"
      horiz-adv-x="100" d=" M3.125 7.5V90.833Q3.125 92.5 4.333 93.75T7.291 95H28.124V70H69.791V95H78.124L94.791 78.333V7.5Q94.791 5.75 93.541 4.542T90.624 3.334H78.124V36.667H19.791V3.334H7.291Q5.541 3.334 4.333 4.542T3.125 7.5zM53.125 78.333H61.458V95H53.125V78.333z" />
    <glyph glyph-name="floppy-open"
      unicode="&#xEA72;"
      horiz-adv-x="100" d=" M3.125 14.844V92.969Q3.125 94.532 4.258 95.703T7.031 96.875H26.562V73.437H65.625V96.875H73.438L89.063 81.25V49.844L73.438 65.469L50.157 42.188H18.751V10.938H7.032Q5.391 10.938 4.259 12.071T3.126 14.844zM50 26.562H65.625V3.124H81.25V26.562H96.875L73.437 50zM50 81.25V96.875H57.813V81.25H50z" />
    <glyph glyph-name="floppy-remove"
      unicode="&#xEA73;"
      horiz-adv-x="109" d=" M0 13.75V97.083Q0 98.75 1.208 100T4.166 101.25H24.999V76.25H66.666V101.25H74.999L91.666 84.583V62.166L83.083 53.583L68.916 67.75L44.083 42.917H16.666V9.584H4.166Q2.416 9.584 1.208 10.792T0 13.75zM50 84.583H58.333V101.25H50V84.583zM58.333 12.333L72.5 26.5L58.333 40.667L68.916 51.25L83.083 37.083L97.25 51.25L107.833 40.583L93.666 26.5L107.833 12.333L97.25 1.75L83.083 15.917L68.916 1.75z" />
    <glyph glyph-name="floppy-save"
      unicode="&#xEA74;"
      horiz-adv-x="100" d=" M3.125 16.016V94.141Q3.125 95.704 4.258 96.875T7.031 98.047H26.562V74.609H65.625V98.047H73.438L89.063 82.422V58.984H57.813V43.359H18.75V12.109H7.031Q5.39 12.109 4.258 13.242T3.125 16.015zM50 27.734L73.438 4.296L96.876 27.734H81.251V51.172H65.626V27.734H50.001zM50 82.422V98.047H57.813V82.422H50z" />
    <glyph glyph-name="floppy-saved"
      unicode="&#xEA75;"
      horiz-adv-x="109" d=" M0 7.5V90.833Q0 92.5 1.208 93.75T4.166 95H24.999V70H66.666V95H74.999L91.666 78.333V60.166L68.666 37.249L58.666 47.249L48.166 36.666H16.666V3.333H4.166Q2.416 3.333 1.208 4.541T0 7.499zM48.417 20.5L58.667 30.75L68.667 20.75L98.084 50.083L108.334 39.833L68.751 0.166zM50 78.333H58.333V95H50V78.333z" />
    <glyph glyph-name="folder-close"
      unicode="&#xEA76;"
      horiz-adv-x="100" d=" M0 3.333V70H100V3.333H0zM0 78.333V86.666H16.667Q16.667 90.083 19.125 92.541T25 94.999H50Q53.417 94.999 55.875 92.541T58.333 86.666H100V78.333H0z" />
    <glyph glyph-name="folder-open"
      unicode="&#xEA77;"
      horiz-adv-x="100" d=" M0.083 4.375L25.083 62.708H125.083L100.083 4.375H0.083zM0.083 37.708V87.708H16.75Q16.75 91.125 19.208 93.583T25.083 96.041H50.083Q53.5 96.041 55.958 93.583T58.416 87.708H100.083V71.041H16.75z" />
    <glyph glyph-name="font"
      unicode="&#xEA78;"
      horiz-adv-x="100" d=" M5.841 1.26H35.307V6.588Q31.997 6.588 29.494 7.476T25.538 10.544T25.619 16.276L33.046 35.167H64.611L71.231 17.245Q72.523 13.612 70.787 10.1T64.773 6.588V1.26H98.437V6.588Q95.692 6.669 92.463 10.059Q91.01 11.593 89.799 13.45T88.104 16.437L87.62 17.486L56.539 98.054H49.031L16.82 16.841Q14.882 12.966 12.622 10.786Q11.653 9.817 9.958 8.768T7.052 7.153L5.841 6.588V1.26zM35.146 43.32L49.516 80.213L53.229 68.911L62.594 43.32H35.146z" />
    <glyph glyph-name="forward"
      unicode="&#xEA79;"
      horiz-adv-x="100" d=" M0 4.375V96.042L41.667 55.459V96.042L88.667 50.209L41.667 4.376V45.043z" />
    <glyph glyph-name="france"
      unicode="&#xEA7A;"
      horiz-adv-x="100" d=" M59.87 1.047L48.332 2.813L30.341 6.335L22.3 14.375L26.297 18.811L28.272 42.331L21.719 47.294L18.517 55.895L5.019 59.989L2.934 68.777L11.351 73.325L18.855 70.194L23.756 70.532L22.523 83.863L28.423 83.61L32.463 79.773L38.048 80.131L40.972 84.235L47.749 88.42L49.604 96.457L56.751 99L68.768 89.462L75.294 87.99L77.331 83.301L85.213 81.489L87.645 77.433L97.067 75.725L93.178 58.653L83.346 45.468L88.75 40.841L89.353 23.689L93.263 21.923L94.84 17.985L83.242 9.668L64.57 14.128L59.648 9.574L59.87 1.047zM31.131 7.813L48.609 4.391L58.22 2.918L58.027 10.255L64.105 15.885L82.9 11.397L92.887 18.555L92.017 20.73L87.784 22.636L87.172 40.082L81.167 45.223L91.691 59.341L95.135 74.448L86.643 75.989L84.187 80.082L76.183 81.924L74.148 86.608L68.056 87.982L56.453 97.193L50.97 95.242L49.16 87.408L42.09 83.041L38.912 78.581L31.867 78.127L27.755 82.034L24.287 82.184L25.503 69.044L18.587 68.569L11.44 71.55L4.775 67.95L6.365 61.254L19.742 57.2L23.059 48.291L29.943 43.076L27.847 18.138L24.508 14.432L31.131 7.813z" />
    <glyph glyph-name="fullscreen"
      unicode="&#xEA7B;"
      horiz-adv-x="100" d=" M3.125 4.297V35.547L13.203 25.469L28.828 41.094L39.922 30L24.297 14.375L34.375 4.297H3.125zM3.125 66.797L13.203 76.875L28.828 61.25L39.922 72.344L24.297 87.969L34.375 98.047H3.125V66.797zM60.078 30L71.172 41.094L86.797 25.469L96.875 35.547V4.297H65.625L75.703 14.375zM60.078 72.344L75.703 87.969L65.625 98.047H96.875V66.797L86.797 76.875L71.172 61.25z" />
    <glyph glyph-name="gbp"
      unicode="&#xEA7C;"
      horiz-adv-x="100" d=" M54.746 98.975C59.754 98.975 64.54 97.782 69.103 95.396C73.663 93.01 77.344 89.745 80.15 85.601C82.951 81.456 84.352 77.059 84.352 72.407H70.666C70.666 74.794 70.085 76.927 68.92 78.805C67.76 80.684 66.283 82.128 64.495 83.143C62.702 84.155 60.93 84.929 59.171 85.467C57.409 86.004 55.757 86.272 54.204 86.272C51.996 86.272 49.641 85.838 47.135 84.973C44.633 84.109 42.785 83.049 41.592 81.797C39.149 79.174 37.924 76.163 37.924 72.762C37.924 71.213 38.33 69.334 39.136 67.127C39.938 64.92 40.728 63.1 41.508 61.67C42.28 60.238 43.385 58.27 44.817 55.768C45.173 55.231 45.442 54.811 45.623 54.516H67.182V45.566H49.559C50.038 42.586 49.959 39.158 49.338 35.279C48.707 31.402 47.771 28.572 46.517 26.783C43.834 23.088 40.882 19.746 37.663 16.765C39.69 17.361 42.163 17.882 45.086 18.331C48.006 18.777 50.123 19 51.433 19C53.34 19.063 56.384 18.584 60.56 17.568C64.734 16.554 67.833 16.045 69.86 16.052C74.81 16.052 78.866 16.943 82.027 18.73L86.499 5.582C84.651 4.449 82.921 3.541 81.31 2.857C79.699 2.169 78.06 1.709 76.39 1.47C74.719 1.23 73.468 1.095 72.632 1.066C71.798 1.041 70.427 1.025 68.514 1.025C67.146 1.025 64.879 1.533 61.717 2.545C58.556 3.557 55.247 4.527 51.788 5.449C48.329 6.377 45.466 6.722 43.198 6.482C40.873 6.302 38.428 5.824 35.864 5.05C33.3 4.275 31.301 3.527 29.869 2.81L27.815 1.828L22.891 14.799C23.13 14.981 23.608 15.307 24.323 15.783C25.04 16.262 25.503 16.574 25.712 16.722C25.919 16.872 26.306 17.142 26.872 17.529C27.442 17.916 27.903 18.271 28.261 18.599C28.615 18.931 29.047 19.345 29.558 19.851C30.07 20.359 30.591 20.908 31.124 21.509C33.987 24.788 35.599 28.558 35.952 32.823C36.312 37.081 35.415 41.333 33.272 45.565H13.502V54.515H28.352C26.983 57.316 25.672 60.419 24.418 63.816C24.002 65.007 23.641 66.247 23.346 67.529C23.045 68.813 22.867 70.467 22.809 72.494C22.747 74.519 22.928 76.503 23.346 78.443C23.762 80.381 24.643 82.483 25.987 84.748C27.327 87.014 29.073 89.131 31.216 91.099C37.005 96.348 44.843 98.971 54.742 98.971L54.746 98.975z" />
    <glyph glyph-name="gift"
      unicode="&#xEA7D;"
      horiz-adv-x="100" d=" M3.125 66.797H10.938V51.172H42.188V74.61H57.813V51.172H89.063V66.797H96.876V74.61H88.204Q88.282 74.688 88.282 75.118T88.165 76.29T87.892 77.657L85.236 91.094Q84.377 94.141 81.994 96.016T76.564 97.891Q74.064 97.891 71.798 96.563L53.126 85.313Q51.407 84.297 50.001 82.579Q48.517 84.454 46.876 85.392L28.282 96.642Q25.704 98.048 23.438 98.048Q20.391 98.048 18.008 96.251T14.844 91.485L12.11 77.657Q11.954 77.032 11.876 76.251T11.798 75.079V74.61H3.126V66.797zM10.938 4.297H42.188V35.547H10.938V4.297zM18.75 74.609Q18.516 74.609 19.844 78.359T22.657 85.859L24.063 89.531L40.704 74.609H18.751zM57.813 4.297V35.547H89.063V4.297H57.813zM60.234 74.609L76.015 90Q76.406 89.062 76.953 87.461T78.75 82.461T80.703 76.836T81.25 74.609H60.234z" />
    <glyph glyph-name="glass"
      unicode="&#xEA7E;"
      horiz-adv-x="100" d=" M1.563 98.135H98.438L58.073 53.734V9.333H82.292V1.26H17.709V9.333H41.928V53.734z" />
    <glyph glyph-name="globe"
      unicode="&#xEA7F;"
      horiz-adv-x="100" d=" M3.516 49.766Q3.516 59.297 7.227 67.93T17.188 82.813T32.071 92.774T50.235 96.485Q59.688 96.485 68.321 92.774T83.204 82.813T93.165 67.93T96.876 49.766Q96.876 37.11 90.626 26.368T73.634 9.376T50.236 3.126T26.798 9.376T9.767 26.368T3.517 49.766zM22.969 64.062Q22.344 61.484 23.399 56.835T23.985 49.999Q23.985 49.296 25.313 46.561T26.563 41.873Q27.501 41.873 28.36 41.443T30.157 40.271T31.72 39.216Q33.595 38.278 40.157 35.935Q41.876 35.31 44.298 33.474T48.946 30.466T53.438 29.607Q54.063 28.201 52.266 25.31T50.703 20.857Q53.984 15.31 57.5 14.607Q57.5 14.138 57.266 13.396T56.993 12.263T57.345 10.935Q65.47 10.701 74.611 19.685Q76.955 21.951 78.283 23.357T80.978 27.185T82.58 32.029Q81.486 32.732 79.689 32.771T76.876 33.357Q75.782 33.904 73.048 34.529T68.985 36.013Q68.282 36.013 65.899 35.974T62.266 35.857T59.219 35.349T56.172 34.06Q52.266 31.326 51.016 33.122Q50.703 33.278 50.743 35.114T50.782 37.106Q50.313 38.122 48.712 38.434T46.798 38.981Q46.954 40.7 46.642 42.184T45.353 44.372T42.345 42.809Q40.548 40.856 39.064 43.122Q37.58 45.31 38.439 47.653Q38.908 48.903 40.158 49.372Q40.627 49.294 42.189 49.255T44.806 48.942T46.329 47.887Q47.267 46.403 48.829 44.957T51.485 42.809L52.579 42.184Q52.579 42.418 53.321 45.27T53.751 49.762Q53.438 51.559 54.884 53.239T56.642 55.7Q57.033 56.794 57.423 58.434T58.087 60.856T59.298 62.614T61.954 64.294Q61.485 65.7 62.735 67.185Q63.36 67.185 64.571 67.068T66.485 66.951T68.087 67.303T69.689 68.514Q68.908 70.311 67.306 71.834T64.337 74.178T60.509 76.248T57.111 78.045Q57.97 81.092 57.267 81.483Q59.689 80.467 61.798 80.35T64.845 80.623L65.704 80.936Q66.251 83.749 64.415 85.116T59.376 87.343T55.001 89.14Q53.517 88.906 52.11 89.14Q50.938 88.203 49.258 87.499T46.563 86.561T43.125 85.936T40.078 85.467Q38.906 85.233 36.523 85.506T32.968 85.311Q31.327 84.764 28.905 83.241T26.249 80.546Q26.015 79.687 26.757 78.788T27.421 77.343Q27.187 74.687 25.273 70.273T22.968 64.062zM43.594 74.687Q43.828 75.625 44.844 77.031T46.094 78.984Q46.875 78.203 47.539 78.203T48.633 78.672T49.766 79.805T51.016 80.782Q51.016 78.907 52.344 75.587T53.672 72.189Q52.969 72.345 51.25 72.58T48.437 72.971T45.937 73.596T43.593 74.69zM57.188 81.484V81.484z" />
    <glyph glyph-name="grain"
      unicode="&#xEA80;"
      horiz-adv-x="100" d=" M49.999 99.135C54.823 95.421 58.106 91.098 59.85 86.165C61.596 81.232 61.596 76.299 59.85 71.365C58.106 66.431 54.823 62.135 49.999 58.482C45.177 62.138 41.892 66.432 40.146 71.365C38.401 76.297 38.401 81.23 40.146 86.165S45.176 95.422 49.999 99.135zM20.901 66.959C27.776 66.959 33.649 64.521 38.524 59.642C43.401 54.764 45.842 48.892 45.842 42.017C38.968 42.017 33.094 44.458 28.22 49.336C23.342 54.213 20.901 60.089 20.901 66.959zM79.1 66.959C79.1 60.086 76.661 54.213 71.784 49.336C66.905 44.458 61.03 42.023 54.159 42.017C54.159 48.892 56.597 54.768 61.475 59.642C66.352 64.52 72.227 66.958 79.1 66.959zM20.901 42.017C27.776 42.017 33.649 39.581 38.524 34.701C43.401 29.824 45.842 23.951 45.842 17.075C38.968 17.075 33.094 19.517 28.22 24.394C23.342 29.271 20.901 35.147 20.901 42.017zM79.1 42.017C79.1 35.145 76.661 29.272 71.784 24.394C66.905 19.517 61.03 17.081 54.159 17.075C54.159 23.951 56.597 29.826 61.475 34.701C66.352 39.577 72.227 42.017 79.1 42.017zM54.158 16.995V5.024C54.158 3.86 53.756 2.874 52.949 2.07C52.144 1.266 51.164 0.865 49.998 0.865C48.832 0.865 47.852 1.266 47.047 2.07C46.241 2.874 45.84 3.86 45.84 5.024V16.831C48.059 16.606 49.248 16.497 49.416 16.497C50.354 16.497 51.937 16.664 54.154 16.995H54.158z" />
    <glyph glyph-name="hand-down"
      unicode="&#xEA81;"
      horiz-adv-x="100" d=" M12.451 44.604Q11.279 42.333 12.89 40.722L21.093 32.665Q22.045 31.713 23.437 31.676T25.927 32.445L34.789 38.671Q34.789 34.936 34.752 27.428T34.715 16.552Q34.715 10.4 37.535 6.445T45.628 2.49T53.758 6.518T56.614 16.699V24.463L81.443 34.058Q82.908 34.497 84.409 35.486T85.91 37.573V62.622Q85.91 63.135 79.977 69.214T73.092 75.293H34.64Q33.395 75.293 32.04 74.268T29.953 72.217L29.221 71.118zM17.944 43.14L35.229 67.969H72.07L78.589 60.645V39.112L53.687 29.591Q52.222 29.152 50.757 28.126T49.292 26.002V11.207Q49.292 9.596 47.461 8.936T43.799 8.936T41.968 11.207V45.667T41.858 46.509T41.492 47.388T40.796 47.901Q39.038 48.853 37.427 47.535L23.95 36.842zM34.644 82.617V97.265H78.589V82.617H34.644z" />
    <glyph glyph-name="hand-left"
      unicode="&#xEA82;"
      horiz-adv-x="109" d=" M0.958 52.375Q0.958 58.375 5.458 61.542T17.041 64.709L42.208 64.626L35.125 74.709Q34.208 76.042 34.208 77.376Q34.208 79.126 35.375 80.209L44.458 89.626Q45.541 90.626 46.875 90.626Q47.792 90.626 48.958 90.126L79.375 70.959Q79.958 70.626 80.792 70.084T83 67.917T84.375 64.875V21.042Q84.375 19.959 77.208 13.25T69.375 6.542H40.958Q39.625 6.542 38.5 8.209T36.875 11.626L26.042 39.876H17.125Q10.125 39.876 5.542 43.126T0.959 52.376zM9.292 48.208H27.792Q29.042 48.208 30.167 46.5T31.792 43.125L42.709 14.875H67.126L76.043 22.292V64.125L47.46 83.875L40.21 76.958L52.293 61.625Q53.126 60.708 53.126 59.458Q53.126 58.541 52.709 57.791Q52.626 57.541 52.417 57.333L52.084 57T51.667 56.792T51.209 56.667T50.667 56.584T50.125 56.542H9.292V48.209zM92.708 14.875V64.875H109.375V14.875H92.708z" />
    <glyph glyph-name="hand-right"
      unicode="&#xEA83;"
      horiz-adv-x="109" d=" M0.667 14.792V64.792H17.334V14.792H0.667zM25.667 21.042V64.792Q25.667 66.209 26.834 67.75T29.167 70.125L30.334 70.875L60.501 90.042Q61.668 90.542 62.584 90.542Q64.001 90.542 65.001 89.542L74.084 80.209Q75.251 79.042 75.251 77.376Q75.251 75.876 74.334 74.709L67.251 64.626H92.418Q99.501 64.626 103.96 61.459T108.418 52.292T103.876 43.042T92.334 39.792H83.417L72.584 11.542Q72.001 9.709 70.876 8.084T68.501 6.459H40.084Q39.501 6.459 32.584 13.209T25.667 21.042zM34 22.208L42.333 14.791H66.75L77.667 43.041Q78.167 44.791 79.292 46.458T81.667 48.125H98.584Q99.917 48.125 100.667 49.375T101.417 52.375Q101.417 54.042 100.667 55.25T98.584 56.458H59.334T58.792 56.5T58.292 56.583T57.875 56.708T57.417 56.916T57.084 57.249T56.751 57.707Q56.334 58.707 56.334 59.374Q56.334 60.541 57.167 61.624L69.417 76.874L62.25 83.791L34 64.124V22.207z" />
    <glyph glyph-name="hand-up"
      unicode="&#xEA84;"
      horiz-adv-x="97" d=" M10.034 57.068L26.88 30.481Q27.173 30.042 27.649 29.346T29.553 27.515T32.226 26.38H70.678Q71.63 26.38 77.563 32.459T83.496 39.051V64.1Q83.496 65.199 82.031 66.187T79.028 67.615L54.199 77.21V84.974Q54.199 91.126 51.343 95.155T43.213 99.183T35.156 95.265T32.373 85.121V63.002L23.511 69.154Q22.412 70.033 21.057 69.996T18.677 69.007L10.474 60.95Q8.863 59.339 10.035 57.068zM15.527 58.533L21.606 64.832L35.009 54.139Q36.62 52.821 38.451 53.773Q38.671 53.846 38.854 54.029L39.147 54.322T39.33 54.688T39.44 55.091T39.513 55.567T39.55 56.043V90.467Q39.55 92.078 41.381 92.738T45.043 92.701T46.874 90.467V75.672Q46.874 74.5 48.339 73.511T51.342 72.083L76.171 62.562V41.029L69.652 33.705H32.811zM32.227 4.407V19.055H76.172V4.407H32.227z" />
    <glyph glyph-name="hd-video"
      unicode="&#xEA85;"
      horiz-adv-x="100" d=" M23.58 91.517H76.416C82.655 91.517 87.989 89.301 92.418 84.871C96.85 80.442 99.063 75.109 99.063 68.87V31.131C99.063 24.89 96.85 19.557 92.418 15.125C87.989 10.697 82.655 8.483 76.416 8.483H23.58C17.342 8.483 12.007 10.697 7.58 15.125C3.151 19.557 0.937 24.89 0.937 31.131V68.87C0.937 75.109 3.151 80.442 7.58 84.871C12.007 89.301 17.342 91.517 23.58 91.517zM16.033 76.423V23.585H83.964V76.423H16.033zM46.225 31.134H38.677V46.229H31.129V31.133H23.58V68.873H31.129V53.776H38.677V68.873H46.225V31.134zM76.416 61.325V38.681L68.868 31.133H53.772V68.873H68.868L76.416 61.325zM61.32 61.325V38.681H68.868V61.325H61.32z" />
    </font>
</defs>
</svg>
