<?xml version="1.0" encoding="utf-8"?>
<!-- Generator: Adobe Illustrator 21.0.0, SVG Export Plug-In . SVG Version: 6.00 Build 0)  -->
<svg version="1.1" id="Calque_1" xmlns="http://www.w3.org/2000/svg" xmlns:xlink="http://www.w3.org/1999/xlink" x="0px" y="0px"
	 viewBox="0 0 100 100" style="enable-background:new 0 0 100 100;" xml:space="preserve">
<g>
	<path d="M57.4,94.4l0,0.2V27.6l21.1,21c1,1,2.4,1.6,3.9,1.6s2.8-0.6,3.9-1.6l3.3-3.3c1-1,1.6-2.4,1.6-3.9s-0.6-2.8-1.6-3.9
		L53.4,1.6c-1-1-2.4-1.6-3.9-1.6s-2.8,0.6-3.9,1.6L9.6,37.7c-1,1-1.6,2.4-1.6,3.9s0.6,2.8,1.6,3.9l3.3,3.3c1,1,2.4,1.6,3.9,1.6
		c1.5,0,2.8-0.6,3.8-1.6l21.2-21.3v67.1c0,3,2.6,5.5,5.6,5.5H52C55,100,57.4,97.4,57.4,94.4z"/>
</g>
</svg>
