<?xml version="1.0" encoding="utf-8"?>
<!-- Generator: Adobe Illustrator 21.0.0, SVG Export Plug-In . SVG Version: 6.00 Build 0)  -->
<svg version="1.1" id="Calque_1" xmlns="http://www.w3.org/2000/svg" xmlns:xlink="http://www.w3.org/1999/xlink" x="0px" y="0px"
	 viewBox="0 0 100 100" style="enable-background:new 0 0 100 100;" xml:space="preserve">
<g>
	<path d="M94.4,42.2l0.2,0H27.6l21-21.1c1-1,1.6-2.4,1.6-3.9s-0.6-2.8-1.6-3.9l-3.3-3.3c-1-1-2.4-1.6-3.9-1.6s-2.8,0.6-3.9,1.6
		L1.6,46.1c-1,1-1.6,2.4-1.6,3.9c0,1.5,0.6,2.8,1.6,3.9l36.1,36.1c1,1,2.4,1.6,3.9,1.6s2.8-0.6,3.9-1.6l3.3-3.3c1-1,1.6-2.4,1.6-3.9
		c0-1.5-0.6-2.8-1.6-3.8L27.4,57.8h67.1c3,0,5.5-2.6,5.5-5.6v-4.6C100,44.6,97.4,42.2,94.4,42.2z"/>
</g>
</svg>
