<?xml version="1.0" encoding="utf-8"?>
<!-- Generator: Adobe Illustrator 21.0.0, SVG Export Plug-In . SVG Version: 6.00 Build 0)  -->
<svg version="1.1" id="Calque_1" xmlns="http://www.w3.org/2000/svg" xmlns:xlink="http://www.w3.org/1999/xlink" x="0px" y="0px"
	 viewBox="0 0 100 100" style="enable-background:new 0 0 100 100;" xml:space="preserve">
<g>
	<path d="M42.2,5.6l0-0.2v66.9l-21.1-21c-1-1-2.4-1.6-3.9-1.6s-2.8,0.6-3.9,1.6l-3.3,3.3c-1,1-1.6,2.4-1.6,3.9s0.6,2.8,1.6,3.9
		l36.1,36.1c1,1,2.4,1.6,3.9,1.6c1.5,0,2.8-0.6,3.9-1.6l36.1-36.1c1-1,1.6-2.4,1.6-3.9s-0.6-2.8-1.6-3.9l-3.3-3.3
		c-1-1-2.4-1.6-3.9-1.6c-1.5,0-2.8,0.6-3.8,1.6L57.8,72.6V5.5c0-3-2.6-5.5-5.6-5.5l-4.6,0C44.6,0,42.2,2.6,42.2,5.6z"/>
</g>
</svg>
