<?xml version="1.0" encoding="utf-8"?>
<!-- Generator: Adobe Illustrator 21.0.0, SVG Export Plug-In . SVG Version: 6.00 Build 0)  -->
<svg version="1.1" id="Calque_1" xmlns="http://www.w3.org/2000/svg" xmlns:xlink="http://www.w3.org/1999/xlink" x="0px" y="0px"
	 viewBox="0 0 100 100" style="enable-background:new 0 0 100 100;" xml:space="preserve">
<g>
	<path d="M5.6,57.8l-0.2,0h66.9l-21,21.1c-1,1-1.6,2.4-1.6,3.9s0.6,2.8,1.6,3.9l3.3,3.3c1,1,2.4,1.6,3.9,1.6s2.8-0.6,3.9-1.6
		l36.1-36.1c1-1,1.6-2.4,1.6-3.9c0-1.5-0.6-2.8-1.6-3.9L62.3,10.1c-1-1-2.4-1.6-3.9-1.6s-2.8,0.6-3.9,1.6l-3.3,3.3
		c-1,1-1.6,2.4-1.6,3.9c0,1.5,0.6,2.8,1.6,3.8l21.3,21.2H5.5c-3,0-5.5,2.6-5.5,5.6l0,4.6C0,55.4,2.6,57.8,5.6,57.8z"/>
</g>
</svg>
