<svg height="512pt" viewBox="0 -44 512.00002 512" width="512pt" xmlns="http://www.w3.org/2000/svg"><path d="m205.484375 355.09375h101.03125v55.863281h-101.03125zm0 0" fill="#2c6a9b"/><path d="m205.488281 355.09375h101.023438v17.386719h-101.023438zm0 0" fill="#1a5a84"/><path d="m354.214844 424.726562h-196.429688c-5.144531 0-9.316406-4.171874-9.316406-9.316406 0-5.144531 4.171875-9.3125 9.316406-9.3125h196.429688c5.144531 0 9.3125 4.167969 9.3125 9.3125 0 5.144532-4.167969 9.316406-9.3125 9.316406zm0 0" fill="#dceeef"/><path d="m512 15.761719v331.792969c0 5.808593-4.707031 10.507812-10.519531 10.507812h-490.960938c-5.8125 0-10.519531-4.699219-10.519531-10.507812v-331.792969c0-8.703125 7.066406-15.761719 15.773438-15.761719h480.453124c8.714844 0 15.773438 7.058594 15.773438 15.761719zm0 0" fill="#dceeef"/><path d="m512 15.761719v331.789062c0 5.816407-4.707031 10.511719-10.511719 10.511719h-22.875c5.804688 0 10.511719-4.695312 10.511719-10.511719v-331.789062c0-8.699219-7.058594-15.75781275-15.769531-15.75781275h22.875c8.710937 0 15.769531 7.05859375 15.769531 15.75781275zm0 0" fill="#bcdde2"/><path d="m282.320312 77.8125h229.679688v134.550781h-229.679688zm0 0" fill="#3bc3ff"/><path d="m489.125 77.8125h22.875v134.550781h-22.875zm0 0" fill="#009af2"/><path d="m452.0625 151.160156c1.9375 2.660156 2.484375 6.085938 1.476562 9.21875l-14.1875 44.019532-2.574218 7.964843h-118.6875l8.71875-23.089843c.265625-.695313.601562-1.363282 1.007812-1.988282l4.675782-7.164062c3.054687-4.683594 1.8125-10.945313-2.792969-14.113282l-27.335938-18.804687c-1.375-.945313-2.964843-1.542969-4.625-1.742187l-15.417969-1.820313v-65.832031h162.964844l-11.535156 21.8125c-1.667969 3.148437-4.84375 5.214844-8.402344 5.460937l-49.808594 3.421875c-2.097656.144532-4.101562.929688-5.742187 2.246094l-18.152344 14.578125c-3.636719 2.917969-4.859375 7.914063-2.980469 12.183594l4.640626 10.539062c1.898437 4.316407 6.492187 6.792969 11.140624 6.007813l73.632813-12.417969c3.851563-.652344 7.742187.9375 10.042969 4.097656zm0 0" fill="#8dffa2"/><path d="m282.320312 0v358.0625h-271.800781c-5.8125 0-10.519531-4.699219-10.519531-10.507812v-331.792969c0-8.703125 7.066406-15.761719 15.773438-15.761719zm0 0" fill="#4c94c3"/><path d="m512 15.761719v22.5h-512v-22.5c0-8.703125 7.066406-15.761719 15.773438-15.761719h480.453124c8.714844 0 15.773438 7.058594 15.773438 15.761719zm0 0" fill="#8bc1c6"/><path d="m512 307.648438v39.902343c0 5.816407-4.707031 10.511719-10.511719 10.511719h-490.976562c-5.804688 0-10.511719-4.695312-10.511719-10.511719v-39.902343zm0 0" fill="#3b7ca8"/><path d="m512 307.648438v39.902343c0 5.816407-4.707031 10.511719-10.511719 10.511719h-22.875c5.804688 0 10.511719-4.695312 10.511719-10.511719v-39.902343zm0 0" fill="#2c6a9b"/><path d="m49.511719 92.003906h-.472657c-4.265624 0-7.722656-3.460937-7.722656-7.726562s3.457032-7.726563 7.722656-7.726563h.472657c4.269531 0 7.726562 3.460938 7.726562 7.726563s-3.457031 7.726562-7.726562 7.726562zm0 0" fill="#ff8980"/><path d="m102.503906 92.003906h-28.847656c-4.265625 0-7.722656-3.460937-7.722656-7.726562s3.457031-7.726563 7.722656-7.726563h28.847656c4.265625 0 7.726563 3.460938 7.726563 7.726563s-3.460938 7.726562-7.726563 7.726562zm0 0" fill="#ff8980"/><g fill="#8dffa2"><path d="m49.511719 117.484375h-.472657c-4.265624 0-7.722656-3.457031-7.722656-7.726563 0-4.265624 3.457032-7.726562 7.722656-7.726562h.472657c4.269531 0 7.726562 3.460938 7.726562 7.726562 0 4.269532-3.457031 7.726563-7.726562 7.726563zm0 0"/><path d="m138.214844 117.484375h-64.558594c-4.265625 0-7.722656-3.457031-7.722656-7.726563 0-4.265624 3.457031-7.726562 7.722656-7.726562h64.558594c4.269531 0 7.726562 3.460938 7.726562 7.726562 0 4.269532-3.457031 7.726563-7.726562 7.726563zm0 0"/><path d="m49.511719 142.96875h-.472657c-4.265624 0-7.722656-3.460938-7.722656-7.726562 0-4.269532 3.457032-7.726563 7.722656-7.726563h.472657c4.269531 0 7.726562 3.457031 7.726562 7.726563 0 4.265624-3.457031 7.726562-7.726562 7.726562zm0 0"/><path d="m120.359375 142.96875h-46.703125c-4.265625 0-7.722656-3.460938-7.722656-7.726562 0-4.269532 3.457031-7.726563 7.722656-7.726563h46.703125c4.269531 0 7.726563 3.457031 7.726563 7.726563 0 4.265624-3.457032 7.726562-7.726563 7.726562zm0 0"/><path d="m49.511719 168.449219h-.472657c-4.265624 0-7.722656-3.460938-7.722656-7.726563s3.457032-7.726562 7.722656-7.726562h.472657c4.269531 0 7.726562 3.460937 7.726562 7.726562s-3.457031 7.726563-7.726562 7.726563zm0 0"/><path d="m191.785156 168.449219h-74.859375c-4.269531 0-7.726562-3.460938-7.726562-7.726563s3.460937-7.726562 7.726562-7.726562h74.859375c4.269532 0 7.726563 3.460937 7.726563 7.726562s-3.457031 7.726563-7.726563 7.726563zm0 0"/><path d="m95.636719 168.449219h-21.980469c-4.265625 0-7.722656-3.460938-7.722656-7.726563s3.457031-7.726562 7.722656-7.726562h21.980469c4.265625 0 7.722656 3.460937 7.722656 7.726562s-3.457031 7.726563-7.722656 7.726563zm0 0"/></g><path d="m49.511719 193.929688h-.472657c-4.265624 0-7.722656-3.457032-7.722656-7.726563 0-4.265625 3.457032-7.726563 7.722656-7.726563h.472657c4.269531 0 7.726562 3.460938 7.726562 7.726563 0 4.269531-3.457031 7.726563-7.726562 7.726563zm0 0" fill="#8df4ff"/><path d="m138.214844 193.929688h-64.558594c-4.265625 0-7.722656-3.457032-7.722656-7.726563 0-4.265625 3.457031-7.726563 7.722656-7.726563h64.558594c4.269531 0 7.726562 3.460938 7.726562 7.726563 0 4.269531-3.457031 7.726563-7.726562 7.726563zm0 0" fill="#8df4ff"/><path d="m49.511719 219.410156h-.472657c-4.265624 0-7.722656-3.457031-7.722656-7.722656 0-4.269531 3.457032-7.726562 7.722656-7.726562h.472657c4.269531 0 7.726562 3.457031 7.726562 7.726562 0 4.265625-3.457031 7.722656-7.726562 7.722656zm0 0" fill="#8df4ff"/><path d="m138.214844 219.410156h-64.558594c-4.265625 0-7.722656-3.457031-7.722656-7.722656 0-4.269531 3.457031-7.726562 7.722656-7.726562h64.558594c4.269531 0 7.726562 3.457031 7.726562 7.726562 0 4.265625-3.457031 7.722656-7.726562 7.722656zm0 0" fill="#8df4ff"/><path d="m49.511719 244.894531h-.472657c-4.265624 0-7.722656-3.460937-7.722656-7.726562s3.457032-7.726563 7.722656-7.726563h.472657c4.269531 0 7.726562 3.460938 7.726562 7.726563s-3.457031 7.726562-7.726562 7.726562zm0 0" fill="#ff8980"/><path d="m197.519531 244.894531h-24.964843c-4.269532 0-7.726563-3.460937-7.726563-7.726562s3.460937-7.726563 7.726563-7.726563h24.964843c4.269531 0 7.726563 3.460938 7.726563 7.726563s-3.457032 7.726562-7.726563 7.726562zm0 0" fill="#ff8980"/><path d="m149.890625 244.894531h-76.234375c-4.265625 0-7.722656-3.460937-7.722656-7.726562s3.457031-7.726563 7.722656-7.726563h76.234375c4.269531 0 7.726563 3.460938 7.726563 7.726563s-3.457032 7.726562-7.726563 7.726562zm0 0" fill="#ff8980"/><path d="m49.511719 270.375h-.472657c-4.265624 0-7.722656-3.457031-7.722656-7.726562 0-4.265626 3.457032-7.722657 7.722656-7.722657h.472657c4.269531 0 7.726562 3.457031 7.726562 7.722657 0 4.269531-3.457031 7.726562-7.726562 7.726562zm0 0" fill="#ff8980"/><path d="m138.214844 270.375h-64.558594c-4.265625 0-7.722656-3.457031-7.722656-7.726562 0-4.265626 3.457031-7.722657 7.722656-7.722657h64.558594c4.269531 0 7.726562 3.457031 7.726562 7.722657 0 4.269531-3.457031 7.726562-7.726562 7.726562zm0 0" fill="#ff8980"/><path d="m162.832031 270.375h-.472656c-4.265625 0-7.722656-3.457031-7.722656-7.726562 0-4.265626 3.457031-7.722657 7.722656-7.722657h.472656c4.269531 0 7.726563 3.457031 7.726563 7.722657 0 4.269531-3.457032 7.726562-7.726563 7.726562zm0 0" fill="#ff8980"/><path d="m127.011719 92.003906h-.472657c-4.265624 0-7.726562-3.460937-7.726562-7.726562s3.460938-7.726563 7.726562-7.726563h.472657c4.269531 0 7.726562 3.460938 7.726562 7.726563s-3.457031 7.726562-7.726562 7.726562zm0 0" fill="#ff8980"/><path d="m141.394531 142.96875h-.46875c-4.269531 0-7.726562-3.460938-7.726562-7.726562 0-4.269532 3.457031-7.726563 7.726562-7.726563h.46875c4.269531 0 7.726563 3.457031 7.726563 7.726563 0 4.265624-3.457032 7.726562-7.726563 7.726562zm0 0" fill="#8dffa2"/><path d="m183.484375 270.375h-.472656c-4.269531 0-7.726563-3.457031-7.726563-7.726562 0-4.265626 3.460938-7.722657 7.726563-7.722657h.472656c4.269531 0 7.726563 3.457031 7.726563 7.722657 0 4.269531-3.457032 7.726562-7.726563 7.726562zm0 0" fill="#ff8980"/><path d="m224.03125 244.894531h-.472656c-4.269532 0-7.726563-3.460937-7.726563-7.726562s3.460938-7.726563 7.726563-7.726563h.472656c4.269531 0 7.726562 3.460938 7.726562 7.726563s-3.457031 7.726562-7.726562 7.726562zm0 0" fill="#ff8980"/><path d="m162.597656 219.78125h-.472656c-4.269531 0-7.726562-3.457031-7.726562-7.722656 0-4.269532 3.460937-7.726563 7.726562-7.726563h.472656c4.265625 0 7.726563 3.457031 7.726563 7.726563 0 4.265625-3.460938 7.722656-7.726563 7.722656zm0 0" fill="#8df4ff"/><path d="m162.597656 193.929688h-.472656c-4.269531 0-7.726562-3.457032-7.726562-7.726563 0-4.265625 3.460937-7.726563 7.726562-7.726563h.472656c4.265625 0 7.726563 3.460938 7.726563 7.726563 0 4.269531-3.460938 7.726563-7.726563 7.726563zm0 0" fill="#8df4ff"/><path d="m183.484375 219.78125h-.472656c-4.269531 0-7.726563-3.457031-7.726563-7.722656 0-4.269532 3.460938-7.726563 7.726563-7.726563h.472656c4.269531 0 7.726563 3.457031 7.726563 7.726563 0 4.265625-3.457032 7.722656-7.726563 7.722656zm0 0" fill="#8df4ff"/><path d="m204.371094 219.78125h-.472656c-4.265626 0-7.726563-3.457031-7.726563-7.722656 0-4.269532 3.460937-7.726563 7.726563-7.726563h.472656c4.269531 0 7.726562 3.457031 7.726562 7.726563 0 4.265625-3.457031 7.722656-7.726562 7.722656zm0 0" fill="#8df4ff"/><path d="m225.261719 219.78125h-.472657c-4.269531 0-7.726562-3.457031-7.726562-7.722656 0-4.269532 3.457031-7.726563 7.726562-7.726563h.472657c4.265625 0 7.722656 3.457031 7.722656 7.726563 0 4.265625-3.457031 7.722656-7.722656 7.722656zm0 0" fill="#8df4ff"/><path d="m484.386719 244.894531h-145.210938c-4.269531 0-7.726562-3.460937-7.726562-7.726562s3.460937-7.726563 7.726562-7.726563h145.210938c4.265625 0 7.722656 3.460938 7.722656 7.726563.003906 4.265625-3.457031 7.726562-7.722656 7.726562zm0 0" fill="#4c94c3"/><path d="m317.363281 244.894531h-7.429687c-4.265625 0-7.722656-3.460937-7.722656-7.726562s3.457031-7.726563 7.722656-7.726563h7.429687c4.269531 0 7.726563 3.460938 7.726563 7.726563.003906 4.265625-3.457032 7.726562-7.726563 7.726562zm0 0" fill="#4c94c3"/><path d="m455.144531 286.378906h-145.207031c-4.269531 0-7.726562-3.457031-7.726562-7.726562 0-4.265625 3.457031-7.726563 7.726562-7.726563h145.207031c4.269531 0 7.726563 3.460938 7.726563 7.726563s-3.460938 7.726562-7.726563 7.726562zm0 0" fill="#4c94c3"/><path d="m484.386719 286.378906h-7.433594c-4.265625 0-7.722656-3.457031-7.722656-7.726562 0-4.265625 3.457031-7.726563 7.722656-7.726563h7.433594c4.265625 0 7.722656 3.460938 7.722656 7.726563.003906 4.265625-3.457031 7.726562-7.722656 7.726562zm0 0" fill="#4c94c3"/><path d="m484.386719 265.636719h-174.453125c-4.265625 0-7.722656-3.460938-7.722656-7.726563s3.457031-7.726562 7.722656-7.726562h174.453125c4.265625 0 7.722656 3.460937 7.722656 7.726562.003906 4.265625-3.457031 7.726563-7.722656 7.726563zm0 0" fill="#4c94c3"/></svg>