<?xml version="1.0" encoding="utf-8"?>
<!-- Generated by IcoMoon.io -->
<!DOCTYPE svg PUBLIC "-//W3C//DTD SVG 1.1//EN" "http://www.w3.org/Graphics/SVG/1.1/DTD/svg11.dtd">
<svg version="1.1" xmlns="http://www.w3.org/2000/svg" xmlns:xlink="http://www.w3.org/1999/xlink" width="32" height="32" viewBox="0 0 32 32">
<path d="M29.333 20c-1.133 0-2 0.867-2 2v6h-22.667v-6c0-2.6-4-2.6-4 0v8c0 1.133 0.867 2 2 2h26.667c1.133 0 2-0.867 2-2v-8c0-1.133-0.867-2-2-2z"></path>
<path d="M14.6 22.933c0.8 0.8 2.067 0.8 2.867 0l7.533-7.533c1.8-1.8-1-4.667-2.867-2.867l-4.133 4.133v-14.733c0-2.6-4-2.6-4 0v14.733l-4.133-4.133c-1.8-1.8-4.667 1-2.867 2.867l7.6 7.533z"></path>
</svg>
