<svg xmlns="http://www.w3.org/2000/svg" height="512pt" version="1.1" viewBox="0 0 512 512" width="512pt">
<g id="surface1">
<path d="M 0 367 L 512 367 L 512 512 L 0 512 Z M 0 367 " style=" stroke:none;fill-rule:nonzero;fill:rgb(100%,71.764706%,30.980392%);fill-opacity:1;" />
<path d="M 256 367 L 512 367 L 512 512 L 256 512 Z M 256 367 " style=" stroke:none;fill-rule:nonzero;fill:rgb(100%,60.392157%,0%);fill-opacity:1;" />
<path d="M 378.03125 367 L 512 367 L 512 512 L 378.03125 512 Z M 378.03125 367 " style=" stroke:none;fill-rule:nonzero;fill:rgb(22.745098%,30.196078%,89.019608%);fill-opacity:1;" />
<path d="M 64.5 424.5 L 94.5 424.5 L 94.5 454.5 L 64.5 454.5 Z M 64.5 424.5 " style=" stroke:none;fill-rule:nonzero;fill:rgb(42.745098%,46.27451%,90.588235%);fill-opacity:1;" />
<path d="M 120 424.5 L 150 424.5 L 150 454.5 L 120 454.5 Z M 120 424.5 " style=" stroke:none;fill-rule:nonzero;fill:rgb(42.745098%,46.27451%,90.588235%);fill-opacity:1;" />
<path d="M 175.5 424.5 L 205.5 424.5 L 205.5 454.5 L 175.5 454.5 Z M 175.5 424.5 " style=" stroke:none;fill-rule:nonzero;fill:rgb(42.745098%,46.27451%,90.588235%);fill-opacity:1;" />
<path d="M 231 424.5 L 261 424.5 L 261 454.5 L 231 454.5 Z M 231 424.5 " style=" stroke:none;fill-rule:nonzero;fill:rgb(42.745098%,46.27451%,90.588235%);fill-opacity:1;" />
<path d="M 286.5 424.5 L 316.5 424.5 L 316.5 454.5 L 286.5 454.5 Z M 286.5 424.5 " style=" stroke:none;fill-rule:nonzero;fill:rgb(42.745098%,46.27451%,90.588235%);fill-opacity:1;" />
<path d="M 419 163 C 419 204.371094 403.511719 242.179688 378.03125 270.949219 C 348.140625 304.699219 304.511719 326 256 326 C 207.488281 326 163.859375 304.699219 133.96875 270.949219 C 108.488281 242.179688 93 204.371094 93 163 C 93 73.121094 166.121094 0 256 0 C 345.878906 0 419 73.121094 419 163 Z M 419 163 " style=" stroke:none;fill-rule:nonzero;fill:rgb(88.235294%,89.411765%,98.431373%);fill-opacity:1;" />
<path d="M 256 326 L 256 0 C 345.878906 0 419 73.121094 419 163 C 419 204.371094 403.511719 242.179688 378.03125 270.949219 C 348.140625 304.699219 304.511719 326 256 326 Z M 256 326 " style=" stroke:none;fill-rule:nonzero;fill:rgb(77.254902%,78.823529%,96.862745%);fill-opacity:1;" />
<path d="M 256 424.5 L 261 424.5 L 261 454.5 L 256 454.5 Z M 256 424.5 " style=" stroke:none;fill-rule:nonzero;fill:rgb(22.745098%,30.196078%,89.019608%);fill-opacity:1;" />
<path d="M 286.5 424.5 L 316.5 424.5 L 316.5 454.5 L 286.5 454.5 Z M 286.5 424.5 " style=" stroke:none;fill-rule:nonzero;fill:rgb(22.745098%,30.196078%,89.019608%);fill-opacity:1;" />
<path d="M 378.03125 270.949219 C 348.140625 304.699219 304.511719 326 256 326 C 207.488281 326 163.859375 304.699219 133.96875 270.949219 C 140.539062 255.191406 150.179688 240.800781 162.5 228.480469 C 174.710938 216.269531 188.878906 206.75 204.300781 200.199219 C 187.96875 185.828125 177.628906 164.789062 177.628906 141.371094 C 177.628906 98.160156 212.789062 63 256 63 C 299.210938 63 334.371094 98.160156 334.371094 141.371094 C 334.371094 164.808594 324.019531 185.871094 307.660156 200.238281 C 339.140625 213.601562 364.648438 238.871094 378.03125 270.949219 Z M 378.03125 270.949219 " style=" stroke:none;fill-rule:nonzero;fill:rgb(42.745098%,46.27451%,90.588235%);fill-opacity:1;" />
<path d="M 378.03125 270.949219 C 348.140625 304.699219 304.511719 326 256 326 L 256 63 C 299.210938 63 334.371094 98.160156 334.371094 141.371094 C 334.371094 164.808594 324.019531 185.871094 307.660156 200.238281 C 339.140625 213.601562 364.648438 238.871094 378.03125 270.949219 Z M 378.03125 270.949219 " style=" stroke:none;fill-rule:nonzero;fill:rgb(22.745098%,30.196078%,89.019608%);fill-opacity:1;" />
</g>
</svg>