<?xml version="1.0" encoding="utf-8"?>
<!-- Generated by IcoMoon.io -->
<!DOCTYPE svg PUBLIC "-//W3C//DTD SVG 1.1//EN" "http://www.w3.org/Graphics/SVG/1.1/DTD/svg11.dtd">
<svg version="1.1" xmlns="http://www.w3.org/2000/svg" xmlns:xlink="http://www.w3.org/1999/xlink" width="32" height="32" viewBox="0 0 32 32">
<path d="M30.933 29.067l-6.6-6.6c3.667-4.467 4-10.933 0.8-15.733-2.867-4.333-8.067-6.667-13.2-5.867-5 0.733-9.267 4.467-10.733 9.333-1.467 4.933 0.133 10.4 4 13.8 4.867 4.267 12.2 4.4 17.2 0.267l6.6 6.6c1.267 1.267 3.133-0.6 1.933-1.8zM3.333 14c0-4.4 2.867-8.533 7-10 4.2-1.533 9.067-0.2 11.867 3.267s3.2 8.4 0.933 12.267c-2.267 3.8-6.867 5.8-11.267 4.933-4.867-1-8.533-5.467-8.533-10.467z"></path>
</svg>
