<svg xmlns="http://www.w3.org/2000/svg" width="512" height="512"><path d="M256.282 4.142C117.404 4.142 4.423 117.125 4.423 256.003c0 138.875 112.981 251.855 251.859 251.855 138.878 0 251.859-112.98 251.859-251.855C508.142 117.125 395.16 4.142 256.282 4.142zm135.692 219.296v43.805h27.377v56.508c0 21.904-12.046 29.788-31.208 29.788s-31.208-7.884-31.208-29.788V158.167c0-21.901 12.046-30.224 31.208-30.224s31.208 8.323 31.208 30.224v32.855h56.939v-7.586c7.555 22.844 11.703 47.222 11.703 72.568 0 25.734-4.282 50.477-12.06 73.625.236-2.897.356-5.877.356-8.94v-97.25h-84.315zm22.172-136.834c-8.406-1.592-17.58-2.466-27.646-2.466-32.29 0-56.024 8.415-70.979 23.994-12.275-46.36-51.995-72.191-117.949-72.191-5.215 0-10.258.167-15.145.489 23.215-7.831 48.035-12.14 73.854-12.14 60.954 0 116.452 23.696 157.865 62.314zm-255.76 51.227c0-30.145 15.074-41.6 41.448-41.6 26.375 0 41.441 11.456 41.441 41.6v17.484h55.671c-.103 1.954-.237 3.891-.237 5.919v128.861c-44.978-61.092-138.323-86.36-138.323-152.264zM24.571 256.003c0-57.455 21.067-110.052 55.819-150.586-3.236 11.033-4.89 23.256-4.89 36.637 0 120.578 162.009 136.857 162.009 223.676 0 30.145-16.58 40.996-42.954 40.996-26.371 0-42.947-10.852-42.947-40.996v-30.145h-78.37v25.926c0 17.604 2.894 33.219 8.58 46.72-35.604-40.752-57.247-93.996-57.247-152.228zM256.282 487.71c-37.431 0-72.784-8.975-104.108-24.805 13.261 3.099 28.13 4.714 44.643 4.714 74.635 0 116.285-32.474 122.685-89.933 15.056 13.103 37.477 20.096 66.999 20.096 29.346 0 51.663-6.922 66.716-19.876-40.912 65.847-113.872 109.804-196.935 109.804z"/></svg>