<?xml version="1.0" encoding="utf-8"?>
<!-- Generated by IcoMoon.io -->
<!DOCTYPE svg PUBLIC "-//W3C//DTD SVG 1.1//EN" "http://www.w3.org/Graphics/SVG/1.1/DTD/svg11.dtd">
<svg version="1.1" xmlns="http://www.w3.org/2000/svg" xmlns:xlink="http://www.w3.org/1999/xlink" width="32" height="32" viewBox="0 0 32 32">
<path d="M24.733 19.133c-1.6 0-3.067 0.667-4.067 1.733l-8-4c0.133-0.667 0.133-1.267 0-1.933l8-4c3.2 3.4 9.067 1.467 9.6-3.133 0.533-4.4-4.267-7.667-8.133-5.6-2.133 1.133-3.267 3.6-2.867 5.933l-8 4c-2.533-2.733-7.133-2.133-8.933 1.133-1.667 3-0.133 6.933 3.2 8 2 0.667 4.333 0.067 5.8-1.467l8 4c-0.667 3.8 2.8 7.2 6.6 6.4 3.6-0.733 5.6-4.933 3.8-8.133-1.067-1.8-2.933-2.933-5-2.933z"></path>
</svg>
