<?xml version="1.0" encoding="utf-8"?>
<!-- Generator: Adobe Illustrator 15.0.0, SVG Export Plug-In . SVG Version: 6.00 Build 0)  -->
<!DOCTYPE svg PUBLIC "-//W3C//DTD SVG 1.1//EN" "http://www.w3.org/Graphics/SVG/1.1/DTD/svg11.dtd">
<svg version="1.1" id="Calque_1" xmlns="http://www.w3.org/2000/svg" xmlns:xlink="http://www.w3.org/1999/xlink" x="0px" y="0px"
	 width="100px" height="100px" viewBox="0 0 100 100" enable-background="new 0 0 100 100" xml:space="preserve">
<path d="M90.316,19.549H66.908c0-2.076,0-5.079,0-7.802c0-4.772-2.774-7.804-7.805-7.804H38.298c-5.03,0-7.802,3.031-7.802,7.804
	c0,2.723,0,5.726,0,7.802H9.686c-4.641,0-5.201,2.129-5.201,5.203v52.02c0,4.049,2.104,5.203,5.201,5.203h80.628
	c2.283,0,5.203,0.799,5.203-2.604V24.752c0-3.4-1.453-5.203-5.203-5.203H90.316z M38.298,14.021c0-2.383,2.688-4.876,5.2-4.876
	h10.404c2.513,0,5.201,2.49,5.201,4.876c0,2.388,0,5.527,0,5.527H38.298C38.298,19.549,38.298,16.406,38.298,14.021z M69.51,55.966
	H53.902V71.57H43.498V55.966H27.894V45.561h15.604V29.953h10.404v15.607H69.51V55.966z"/>
</svg>
