<?xml version="1.0" standalone="no"?>
<!DOCTYPE svg PUBLIC "-//W3C//DTD SVG 20010904//EN"
 "http://www.w3.org/TR/2001/REC-SVG-20010904/DTD/svg10.dtd">
<svg version="1.0" xmlns="http://www.w3.org/2000/svg"
 width="671.000000pt" height="671.000000pt" viewBox="0 0 671.000000 671.000000"
 preserveAspectRatio="xMidYMid meet">
<metadata>
Created by potrace 1.11, written by Peter Selinger 2001-2013
</metadata>
<g transform="translate(0.000000,671.000000) scale(0.100000,-0.100000)"
fill="#000000" stroke="none">
<path d="M0 3798 c0 -2856 0 -2912 19 -2893 69 72 862 1098 1264 1634 214 286
268 368 347 529 l54 112 262 0 261 0 7 -81 c4 -45 16 -113 26 -153 24 -87 328
-1077 333 -1082 6 -7 167 200 167 215 0 13 -149 478 -260 813 -27 80 -65 178
-85 217 l-35 71 299 0 299 0 6 -47 c7 -58 169 -643 177 -643 3 0 80 93 171
208 295 372 290 364 303 440 l7 42 246 0 247 0 -76 -77 c-93 -96 -128 -138
-472 -582 -249 -321 -274 -356 -266 -380 4 -14 22 -72 39 -128 17 -57 35 -103
40 -103 24 0 797 1033 870 1163 l54 97 243 0 242 0 6 -47 c3 -27 8 -67 11 -89
10 -82 315 -1138 448 -1549 169 -526 252 -749 285 -769 35 -22 -10 -26 -297
-26 l-308 0 -12 88 c-11 85 -61 255 -213 729 l-74 233 -501 0 -500 0 -71 -111
-70 -111 102 -316 c70 -220 118 -349 154 -420 l51 -102 -301 2 -302 3 -17 86
c-21 103 -60 229 -71 229 -14 0 -143 -167 -185 -241 l-42 -74 -241 -3 -241 -2
0 22 c-1 56 -66 308 -80 308 -12 0 -128 -168 -172 -247 l-40 -73 -235 0 -236
0 109 113 c90 93 299 353 409 507 l24 35 -57 195 -57 195 -496 3 -495 2 -234
-307 c-129 -168 -272 -354 -318 -411 -87 -110 -222 -306 -222 -323 0 -5 -62
-9 -150 -9 l-150 0 0 -335 0 -335 3345 0 3345 0 0 3345 0 3345 -3345 0 -3345
0 0 -2912z"/>
<path d="M4336 2645 c-43 -74 -141 -208 -295 -404 -75 -95 -142 -182 -150
-192 -13 -19 -5 -19 317 -19 l329 0 -74 233 c-55 171 -77 258 -86 332 l-12
100 -29 -50z"/>
<path d="M1756 2611 c-37 -61 -242 -334 -368 -491 l-68 -85 165 -3 c91 -1 238
-1 328 0 l163 3 -77 242 c-43 134 -82 275 -89 315 -6 40 -12 74 -14 76 -2 2
-20 -24 -40 -57z"/>
<path d="M2790 1599 c-46 -61 -83 -116 -83 -122 1 -14 92 -308 100 -320 3 -6
148 175 178 222 6 10 -82 279 -103 317 -6 10 -32 -18 -92 -97z"/>
</g>
</svg>
