<?xml version="1.0" encoding="utf-8"?><!DOCTYPE svg PUBLIC "-//W3C//DTD SVG 1.1//EN" "http://www.w3.org/Graphics/SVG/1.1/DTD/svg11.dtd"><svg xmlns="http://www.w3.org/2000/svg" xmlns:xlink="http://www.w3.org/1999/xlink"><symbol viewBox="0 0 102 100" id="banque" xmlns="http://www.w3.org/2000/svg"><path d="M54.4 31.1h-4v8.1h4v-8.1zM43.6 45.9h-8.1V50h8.1v-4.1zM18.7 96h12.4v-5H18.7v5zm52.2 0h12.4v-5H70.9v5zm-5.3-58.6l-2.8-2.9-5.7 5.7 2.8 2.9 5.7-5.7zM39.1 58.5l2.8 2.9 5.7-5.7-2.8-2.9-5.7 5.7zm41.7-42.1H21.2v59.7h59.7l-.1-59.7zM52.2 68.6c-11.7 0-21.1-9.5-21.1-21.1s9.5-21.1 21.1-21.1c11.7 0 21.1 9.5 21.1 21.1s-9.4 21.1-21.1 21.1zM61.1 50h8.1v-4.1h-8.1V50zM87.3 4H14.7c-3.3 0-6 2.7-6 6v72.9c0 3.3 1.7 5.6 5 5.6h74.6c3.3 0 5-2.3 5-5.6V10c0-3.3-2.7-6-6-6zm-1.5 77.1H16.2V11.5h69.6v69.6zM57.1 55.6l5.7 5.7 2.8-2.9-5.7-5.7-2.8 2.9zm-6.8 9.3h4v-8.1h-4v8.1zm1.9-23.6c-3.4 0-6.2 2.8-6.2 6.2s2.8 6.2 6.2 6.2 6.2-2.8 6.2-6.2-2.7-6.2-6.2-6.2zm-4.6-1l-5.7-5.7-2.8 2.9 5.7 5.7 2.8-2.9z"/></symbol><symbol viewBox="0 0 102 100" id="epargne" xmlns="http://www.w3.org/2000/svg"><path d="M93.5 40h-2.9c-1.9-5.2-5.4-9.9-10.2-13.7-2.4-1.8-1.8-3.9-1.4-5 .6-1.5 1.4-2.9 2.3-4.1 2.6-3.2.8-4.1-.9-4.1-3.3 0-7.2 1.1-11.1 4.3-1.3.9-2.3 1.6-5.4.8-4.7-1.3-9.8-2.1-15.2-2.1C26.7 16 8.4 28.6 6 44.8l-.2 1.7c0 .7-.1 1.3-.1 2 0 10.8 7.1 20.4 18 26.3 1.3.7 4.2 3.2 4.2 5.8v5c0 .8.6 1.5 1.4 1.5h9.2c.8 0 1.4-.7 1.4-1.5 0 0 .9-.3.9-1.7s1.6-3.5 2.1-3.3c1.9.2 3.9.3 6 .3 1.9 0 3.9-.1 5.7-.3 1.3.1 3.7 2.8 3.7 3.3 0 2.2-.3 1.7-.3 1.7 0 .8.6 1.5 1.4 1.5h9.2c.8 0 1.4-.7 1.4-1.5v-4.8c0-3 1-4.6 3.2-5.7 8.2-4.2 14.4-10.5 17.2-17.9h3c1.5 0 2.8-.9 2.8-2V42c.1-1.1-1.1-2-2.7-2zM65.2 29.9c-.8 1.4-2.9 2.2-3.9 2.2 0 0-5.6-1.9-12.2-2.1-6.8-.2-13.7 2.1-13.7 2.1-1.1 0-3.1-2-3.5-3.2-.4-1.5 1.8-1.9 1.8-2 0 0 11.4-2.5 16.9-2.3 5.4.2 12.3 2.8 12.3 2.8s2.9.9 2.3 2.5z"/></symbol><symbol viewBox="0 0 100 100" id="sante" xmlns="http://www.w3.org/2000/svg"><path d="M90.316 19.549H66.908v-7.802c0-4.772-2.774-7.804-7.805-7.804H38.298c-5.03 0-7.802 3.031-7.802 7.804v7.802H9.686c-4.641 0-5.201 2.129-5.201 5.203v52.02c0 4.049 2.104 5.203 5.201 5.203h80.628c2.283 0 5.203.799 5.203-2.604V24.752c0-3.4-1.453-5.203-5.203-5.203h.002zm-52.018-5.528c0-2.383 2.688-4.876 5.2-4.876h10.404c2.513 0 5.201 2.49 5.201 4.876v5.527H38.298v-5.527zM69.51 55.966H53.902V71.57H43.498V55.966H27.894V45.561h15.604V29.953h10.404V45.56H69.51v10.406z"/></symbol></svg>