<?xml version="1.0" encoding="utf-8"?>
<!-- Generator: Adobe Illustrator 16.0.0, SVG Export Plug-In . SVG Version: 6.00 Build 0)  -->
<!DOCTYPE svg PUBLIC "-//W3C//DTD SVG 1.1//EN" "http://www.w3.org/Graphics/SVG/1.1/DTD/svg11.dtd">
<svg version="1.1" id="Calque_1" xmlns="http://www.w3.org/2000/svg" xmlns:xlink="http://www.w3.org/1999/xlink" x="0px" y="0px"
	 width="1064.89px" height="122px" viewBox="0 0 1064.89 122" enable-background="new 0 0 1064.89 122" xml:space="preserve">
<g>
	
		<linearGradient id="SVGID_1_" gradientUnits="userSpaceOnUse" x1="-1021.3252" y1="605.6055" x2="43.5649" y2="605.6055" gradientTransform="matrix(1 0 0 -1 1021.3252 666.6055)">
		<stop  offset="0" style="stop-color:#848484;stop-opacity:0.03"/>
		<stop  offset="0.0027" style="stop-color:#A0A0A0;stop-opacity:0.0835"/>
		<stop  offset="0.006" style="stop-color:#BBBBBB;stop-opacity:0.1492"/>
		<stop  offset="0.0098" style="stop-color:#D1D1D1;stop-opacity:0.2247"/>
		<stop  offset="0.0143" style="stop-color:#E2E2E2;stop-opacity:0.3129"/>
		<stop  offset="0.0198" style="stop-color:#EDEDED;stop-opacity:0.422"/>
		<stop  offset="0.0275" style="stop-color:#F4F4F4;stop-opacity:0.5751"/>
		<stop  offset="0.049" style="stop-color:#F6F6F6"/>
	</linearGradient>
	<rect fill="url(#SVGID_1_)" width="1064.89" height="122"/>
	<g>
		<path fill="#E62A49" d="M163.345,72.5c0,6.627-5.373,12-12,12h-86c-6.628,0-12-5.373-12-12v-23c0-6.627,5.372-12,12-12h86
			c6.627,0,12,5.373,12,12V72.5z"/>
		<g enable-background="new    ">
			<path fill="#FFFFFF" d="M94.602,65.102H89.03v-9.994h5.571v1.032h-4.409v3.22h4.143v1.025h-4.143v3.678h4.409V65.102z"/>
			<path fill="#FFFFFF" d="M100.063,57.473c0.333,0,0.631,0.027,0.896,0.082l-0.157,1.053c-0.31-0.068-0.583-0.103-0.82-0.103
				c-0.606,0-1.125,0.246-1.555,0.738s-0.646,1.105-0.646,1.839v4.02h-1.135v-7.492h0.937l0.13,1.388h0.055
				c0.278-0.487,0.613-0.863,1.005-1.128S99.594,57.473,100.063,57.473z"/>
			<path fill="#FFFFFF" d="M105.778,57.473c0.333,0,0.631,0.027,0.896,0.082l-0.157,1.053c-0.31-0.068-0.583-0.103-0.82-0.103
				c-0.606,0-1.125,0.246-1.555,0.738s-0.646,1.105-0.646,1.839v4.02h-1.135v-7.492h0.937l0.13,1.388h0.055
				c0.278-0.487,0.613-0.863,1.005-1.128S105.309,57.473,105.778,57.473z"/>
			<path fill="#FFFFFF" d="M111.24,65.238c-1.107,0-1.981-0.337-2.622-1.012s-0.96-1.611-0.96-2.81c0-1.208,0.297-2.167,0.892-2.878
				s1.394-1.066,2.396-1.066c0.939,0,1.682,0.309,2.229,0.926c0.547,0.618,0.82,1.433,0.82,2.444v0.718h-5.161
				c0.023,0.88,0.245,1.547,0.667,2.003s1.015,0.684,1.781,0.684c0.807,0,1.604-0.169,2.393-0.506v1.012
				c-0.401,0.173-0.78,0.298-1.138,0.372C112.178,65.201,111.746,65.238,111.24,65.238z M110.933,58.423
				c-0.602,0-1.081,0.196-1.439,0.588s-0.568,0.935-0.632,1.627h3.917c0-0.716-0.16-1.264-0.479-1.644
				C111.981,58.613,111.525,58.423,110.933,58.423z"/>
			<path fill="#FFFFFF" d="M116.996,57.609v4.86c0,0.61,0.139,1.066,0.417,1.367s0.713,0.451,1.306,0.451
				c0.784,0,1.357-0.214,1.719-0.643s0.543-1.128,0.543-2.099v-3.938h1.135v7.492h-0.937l-0.164-1.005h-0.062
				c-0.232,0.369-0.555,0.651-0.967,0.848s-0.883,0.294-1.412,0.294c-0.912,0-1.594-0.217-2.047-0.649s-0.68-1.126-0.68-2.078
				v-4.901H116.996z"/>
			<path fill="#FFFFFF" d="M127.94,57.473c0.333,0,0.631,0.027,0.896,0.082l-0.157,1.053c-0.31-0.068-0.583-0.103-0.82-0.103
				c-0.606,0-1.125,0.246-1.555,0.738s-0.646,1.105-0.646,1.839v4.02h-1.135v-7.492h0.937l0.13,1.388h0.055
				c0.278-0.487,0.613-0.863,1.005-1.128S127.471,57.473,127.94,57.473z"/>
		</g>
	</g>
	<g>
		<path fill="#1DA854" d="M367.485,72.5c0,6.627-5.373,12-12,12h-86c-6.627,0-12-5.373-12-12v-23c0-6.627,5.373-12,12-12h86
			c6.627,0,12,5.373,12,12V72.5z"/>
		<g enable-background="new    ">
			<path fill="#FFFFFF" d="M294.088,62.442c0,0.88-0.319,1.565-0.957,2.058s-1.504,0.738-2.598,0.738
				c-1.185,0-2.096-0.152-2.734-0.458v-1.121c0.41,0.173,0.857,0.31,1.34,0.41s0.961,0.15,1.436,0.15c0.775,0,1.358-0.147,1.75-0.44
				c0.392-0.295,0.588-0.703,0.588-1.228c0-0.347-0.069-0.63-0.208-0.851c-0.139-0.222-0.372-0.426-0.697-0.612
				s-0.821-0.398-1.487-0.636c-0.93-0.333-1.594-0.727-1.993-1.183s-0.598-1.051-0.598-1.784c0-0.771,0.29-1.383,0.868-1.839
				s1.344-0.684,2.297-0.684c0.994,0,1.907,0.183,2.741,0.547l-0.362,1.012c-0.825-0.347-1.627-0.52-2.406-0.52
				c-0.615,0-1.096,0.132-1.442,0.396s-0.52,0.631-0.52,1.101c0,0.347,0.064,0.63,0.191,0.852c0.127,0.221,0.343,0.424,0.646,0.607
				c0.303,0.186,0.767,0.389,1.391,0.612c1.048,0.374,1.77,0.774,2.164,1.203S294.088,61.759,294.088,62.442z"/>
			<path fill="#FFFFFF" d="M297.027,57.609v4.86c0,0.61,0.139,1.066,0.417,1.367s0.713,0.451,1.306,0.451
				c0.784,0,1.357-0.214,1.719-0.643s0.543-1.128,0.543-2.099v-3.938h1.135v7.492h-0.937l-0.164-1.005h-0.062
				c-0.232,0.369-0.555,0.651-0.967,0.848s-0.883,0.294-1.412,0.294c-0.912,0-1.594-0.217-2.047-0.649s-0.68-1.126-0.68-2.078
				v-4.901H297.027z"/>
			<path fill="#FFFFFF" d="M307.548,65.238c-1.084,0-1.924-0.334-2.519-1.002c-0.595-0.667-0.892-1.611-0.892-2.833
				c0-1.253,0.302-2.222,0.906-2.905s1.464-1.025,2.581-1.025c0.36,0,0.72,0.039,1.08,0.116s0.643,0.169,0.848,0.273l-0.349,0.964
				c-0.25-0.101-0.524-0.184-0.82-0.25c-0.296-0.065-0.558-0.099-0.786-0.099c-1.522,0-2.283,0.971-2.283,2.912
				c0,0.921,0.186,1.627,0.557,2.119s0.922,0.738,1.651,0.738c0.625,0,1.265-0.135,1.921-0.403v1.005
				C308.94,65.108,308.309,65.238,307.548,65.238z"/>
			<path fill="#FFFFFF" d="M314.213,65.238c-1.084,0-1.924-0.334-2.519-1.002c-0.595-0.667-0.892-1.611-0.892-2.833
				c0-1.253,0.302-2.222,0.906-2.905s1.464-1.025,2.581-1.025c0.36,0,0.72,0.039,1.08,0.116s0.643,0.169,0.848,0.273l-0.349,0.964
				c-0.25-0.101-0.524-0.184-0.82-0.25c-0.296-0.065-0.558-0.099-0.786-0.099c-1.522,0-2.283,0.971-2.283,2.912
				c0,0.921,0.186,1.627,0.557,2.119s0.922,0.738,1.651,0.738c0.625,0,1.265-0.135,1.921-0.403v1.005
				C315.605,65.108,314.974,65.238,314.213,65.238z"/>
			<path fill="#FFFFFF" d="M321.049,65.238c-1.107,0-1.981-0.337-2.622-1.012s-0.96-1.611-0.96-2.81
				c0-1.208,0.297-2.167,0.892-2.878s1.394-1.066,2.396-1.066c0.939,0,1.682,0.309,2.229,0.926c0.547,0.618,0.82,1.433,0.82,2.444
				v0.718h-5.161c0.023,0.88,0.245,1.547,0.667,2.003s1.015,0.684,1.781,0.684c0.807,0,1.604-0.169,2.393-0.506v1.012
				c-0.401,0.173-0.78,0.298-1.138,0.372C321.986,65.201,321.555,65.238,321.049,65.238z M320.741,58.423
				c-0.602,0-1.081,0.196-1.439,0.588s-0.568,0.935-0.632,1.627h3.917c0-0.716-0.16-1.264-0.479-1.644
				C321.79,58.613,321.333,58.423,320.741,58.423z"/>
			<path fill="#FFFFFF" d="M330.571,63.058c0,0.697-0.26,1.235-0.779,1.613s-1.249,0.567-2.188,0.567
				c-0.994,0-1.768-0.157-2.324-0.472v-1.053c0.36,0.183,0.746,0.326,1.159,0.431s0.81,0.157,1.193,0.157
				c0.592,0,1.048-0.095,1.367-0.284c0.319-0.188,0.479-0.477,0.479-0.864c0-0.292-0.126-0.541-0.379-0.749
				c-0.253-0.207-0.746-0.452-1.48-0.734c-0.697-0.26-1.193-0.486-1.487-0.68c-0.294-0.194-0.513-0.414-0.656-0.66
				s-0.215-0.54-0.215-0.882c0-0.61,0.249-1.093,0.745-1.446c0.497-0.353,1.178-0.529,2.044-0.529c0.807,0,1.595,0.164,2.365,0.492
				l-0.403,0.923c-0.752-0.31-1.433-0.465-2.044-0.465c-0.538,0-0.943,0.084-1.217,0.253s-0.41,0.401-0.41,0.697
				c0,0.2,0.051,0.371,0.154,0.513s0.268,0.275,0.496,0.403s0.666,0.313,1.313,0.554c0.889,0.323,1.489,0.649,1.801,0.978
				S330.571,62.561,330.571,63.058z"/>
			<path fill="#FFFFFF" d="M337.25,63.058c0,0.697-0.26,1.235-0.779,1.613s-1.249,0.567-2.188,0.567
				c-0.994,0-1.768-0.157-2.324-0.472v-1.053c0.36,0.183,0.746,0.326,1.159,0.431s0.81,0.157,1.193,0.157
				c0.592,0,1.048-0.095,1.367-0.284c0.319-0.188,0.479-0.477,0.479-0.864c0-0.292-0.126-0.541-0.379-0.749
				c-0.253-0.207-0.746-0.452-1.48-0.734c-0.697-0.26-1.193-0.486-1.487-0.68c-0.294-0.194-0.513-0.414-0.656-0.66
				s-0.215-0.54-0.215-0.882c0-0.61,0.249-1.093,0.745-1.446c0.497-0.353,1.178-0.529,2.044-0.529c0.807,0,1.595,0.164,2.365,0.492
				l-0.403,0.923c-0.752-0.31-1.433-0.465-2.044-0.465c-0.538,0-0.943,0.084-1.217,0.253s-0.41,0.401-0.41,0.697
				c0,0.2,0.051,0.371,0.154,0.513s0.268,0.275,0.496,0.403s0.666,0.313,1.313,0.554c0.889,0.323,1.489,0.649,1.801,0.978
				S337.25,62.561,337.25,63.058z"/>
		</g>
	</g>
	<g>
		<path fill="#F0B62D" d="M583.625,72.5c0,6.627-6.545,12-14.617,12H464.244c-8.074,0-14.619-5.373-14.619-12v-23
			c0-6.627,6.545-12,14.619-12h104.763c8.072,0,14.617,5.373,14.617,12V72.5z"/>
		<g enable-background="new    ">
			<path fill="#FFFFFF" d="M477.508,65.102l-1.244-3.179h-4.006l-1.23,3.179h-1.176l3.951-10.035h0.978l3.931,10.035H477.508z
				 M475.901,60.877l-1.162-3.097c-0.15-0.392-0.305-0.873-0.465-1.442c-0.1,0.438-0.244,0.918-0.431,1.442l-1.176,3.097H475.901z"
				/>
			<path fill="#FFFFFF" d="M481.555,65.102l-2.844-7.492h1.217l1.613,4.443c0.365,1.039,0.579,1.714,0.643,2.023h0.055
				c0.05-0.241,0.208-0.742,0.475-1.5c0.267-0.76,0.865-2.415,1.794-4.967h1.217l-2.844,7.492H481.555z"/>
			<path fill="#FFFFFF" d="M490.093,65.238c-1.107,0-1.981-0.337-2.622-1.012s-0.96-1.611-0.96-2.81
				c0-1.208,0.297-2.167,0.892-2.878s1.394-1.066,2.396-1.066c0.939,0,1.682,0.309,2.229,0.926c0.547,0.618,0.82,1.433,0.82,2.444
				v0.718h-5.161c0.023,0.88,0.245,1.547,0.667,2.003s1.015,0.684,1.781,0.684c0.807,0,1.604-0.169,2.393-0.506v1.012
				c-0.401,0.173-0.78,0.298-1.138,0.372C491.03,65.201,490.599,65.238,490.093,65.238z M489.785,58.423
				c-0.602,0-1.081,0.196-1.439,0.588s-0.568,0.935-0.632,1.627h3.917c0-0.716-0.16-1.264-0.479-1.644
				C490.833,58.613,490.377,58.423,489.785,58.423z"/>
			<path fill="#FFFFFF" d="M498.2,57.473c0.333,0,0.631,0.027,0.896,0.082l-0.157,1.053c-0.31-0.068-0.583-0.103-0.82-0.103
				c-0.606,0-1.125,0.246-1.555,0.738s-0.646,1.105-0.646,1.839v4.02h-1.135v-7.492h0.937l0.13,1.388h0.055
				c0.278-0.487,0.613-0.863,1.005-1.128S497.731,57.473,498.2,57.473z"/>
			<path fill="#FFFFFF" d="M502.917,64.302c0.201,0,0.394-0.015,0.581-0.044c0.187-0.03,0.335-0.061,0.444-0.093v0.868
				c-0.123,0.06-0.304,0.108-0.543,0.146c-0.239,0.039-0.455,0.059-0.646,0.059c-1.449,0-2.174-0.764-2.174-2.29v-4.457h-1.073
				v-0.547l1.073-0.472l0.479-1.6h0.656v1.736h2.174v0.882h-2.174V62.9c0,0.451,0.107,0.798,0.321,1.039
				S502.543,64.302,502.917,64.302z"/>
			<path fill="#FFFFFF" d="M505.344,55.579c0-0.26,0.064-0.45,0.191-0.571c0.127-0.12,0.287-0.181,0.479-0.181
				c0.182,0,0.339,0.062,0.472,0.185s0.198,0.313,0.198,0.567s-0.066,0.445-0.198,0.571c-0.132,0.125-0.29,0.188-0.472,0.188
				c-0.191,0-0.351-0.063-0.479-0.188C505.408,56.024,505.344,55.834,505.344,55.579z M506.574,65.102h-1.135v-7.492h1.135V65.102z"
				/>
			<path fill="#FFFFFF" d="M513.813,63.058c0,0.697-0.26,1.235-0.779,1.613s-1.249,0.567-2.188,0.567
				c-0.994,0-1.768-0.157-2.324-0.472v-1.053c0.36,0.183,0.746,0.326,1.159,0.431s0.81,0.157,1.193,0.157
				c0.592,0,1.048-0.095,1.367-0.284c0.319-0.188,0.479-0.477,0.479-0.864c0-0.292-0.126-0.541-0.379-0.749
				c-0.253-0.207-0.746-0.452-1.48-0.734c-0.697-0.26-1.193-0.486-1.487-0.68c-0.294-0.194-0.513-0.414-0.656-0.66
				s-0.215-0.54-0.215-0.882c0-0.61,0.249-1.093,0.745-1.446c0.497-0.353,1.178-0.529,2.044-0.529c0.807,0,1.595,0.164,2.365,0.492
				l-0.403,0.923c-0.752-0.31-1.433-0.465-2.044-0.465c-0.538,0-0.943,0.084-1.217,0.253s-0.41,0.401-0.41,0.697
				c0,0.2,0.051,0.371,0.154,0.513s0.268,0.275,0.496,0.403s0.666,0.313,1.313,0.554c0.889,0.323,1.489,0.649,1.801,0.978
				S513.813,62.561,513.813,63.058z"/>
			<path fill="#FFFFFF" d="M520.492,63.058c0,0.697-0.26,1.235-0.779,1.613s-1.249,0.567-2.188,0.567
				c-0.994,0-1.768-0.157-2.324-0.472v-1.053c0.36,0.183,0.746,0.326,1.159,0.431s0.81,0.157,1.193,0.157
				c0.592,0,1.048-0.095,1.367-0.284c0.319-0.188,0.479-0.477,0.479-0.864c0-0.292-0.126-0.541-0.379-0.749
				c-0.253-0.207-0.746-0.452-1.48-0.734c-0.697-0.26-1.193-0.486-1.487-0.68c-0.294-0.194-0.513-0.414-0.656-0.66
				s-0.215-0.54-0.215-0.882c0-0.61,0.249-1.093,0.745-1.446c0.497-0.353,1.178-0.529,2.044-0.529c0.807,0,1.595,0.164,2.365,0.492
				l-0.403,0.923c-0.752-0.31-1.433-0.465-2.044-0.465c-0.538,0-0.943,0.084-1.217,0.253s-0.41,0.401-0.41,0.697
				c0,0.2,0.051,0.371,0.154,0.513s0.268,0.275,0.496,0.403s0.666,0.313,1.313,0.554c0.889,0.323,1.489,0.649,1.801,0.978
				S520.492,62.561,520.492,63.058z"/>
			<path fill="#FFFFFF" d="M525.503,65.238c-1.107,0-1.981-0.337-2.622-1.012s-0.96-1.611-0.96-2.81
				c0-1.208,0.297-2.167,0.892-2.878s1.394-1.066,2.396-1.066c0.939,0,1.682,0.309,2.229,0.926c0.547,0.618,0.82,1.433,0.82,2.444
				v0.718h-5.161c0.023,0.88,0.245,1.547,0.667,2.003s1.015,0.684,1.781,0.684c0.807,0,1.604-0.169,2.393-0.506v1.012
				c-0.401,0.173-0.78,0.298-1.138,0.372C526.44,65.201,526.009,65.238,525.503,65.238z M525.195,58.423
				c-0.602,0-1.081,0.196-1.439,0.588s-0.568,0.935-0.632,1.627h3.917c0-0.716-0.16-1.264-0.479-1.644
				C526.244,58.613,525.788,58.423,525.195,58.423z"/>
			<path fill="#FFFFFF" d="M539.742,65.102v-4.874c0-0.597-0.127-1.045-0.383-1.343c-0.255-0.299-0.651-0.448-1.189-0.448
				c-0.706,0-1.228,0.203-1.564,0.608c-0.338,0.405-0.506,1.03-0.506,1.873v4.184h-1.135v-4.874c0-0.597-0.128-1.045-0.383-1.343
				c-0.256-0.299-0.654-0.448-1.197-0.448c-0.71,0-1.231,0.213-1.562,0.64c-0.331,0.426-0.496,1.124-0.496,2.095v3.931h-1.135
				v-7.492h0.923l0.185,1.025h0.055c0.214-0.364,0.516-0.649,0.906-0.854s0.826-0.308,1.31-0.308c1.171,0,1.937,0.424,2.297,1.271
				h0.055c0.223-0.392,0.547-0.702,0.971-0.93s0.906-0.342,1.449-0.342c0.848,0,1.482,0.218,1.903,0.652
				c0.421,0.436,0.632,1.132,0.632,2.089v4.888H539.742z"/>
			<path fill="#FFFFFF" d="M546.38,65.238c-1.107,0-1.982-0.337-2.622-1.012s-0.96-1.611-0.96-2.81c0-1.208,0.297-2.167,0.892-2.878
				s1.394-1.066,2.396-1.066c0.939,0,1.682,0.309,2.229,0.926c0.547,0.618,0.82,1.433,0.82,2.444v0.718h-5.16
				c0.022,0.88,0.244,1.547,0.666,2.003s1.016,0.684,1.781,0.684c0.807,0,1.604-0.169,2.393-0.506v1.012
				c-0.401,0.173-0.781,0.298-1.139,0.372C547.318,65.201,546.886,65.238,546.38,65.238z M546.072,58.423
				c-0.602,0-1.08,0.196-1.438,0.588s-0.568,0.935-0.632,1.627h3.916c0-0.716-0.159-1.264-0.479-1.644
				C547.121,58.613,546.665,58.423,546.072,58.423z"/>
			<path fill="#FFFFFF" d="M556.197,65.102v-4.847c0-0.61-0.14-1.066-0.418-1.367c-0.277-0.301-0.713-0.451-1.305-0.451
				c-0.784,0-1.358,0.212-1.723,0.636c-0.365,0.424-0.547,1.123-0.547,2.099v3.931h-1.135v-7.492h0.922l0.186,1.025h0.055
				c0.232-0.369,0.558-0.655,0.977-0.857c0.42-0.203,0.887-0.305,1.402-0.305c0.902,0,1.581,0.218,2.037,0.652
				c0.455,0.436,0.684,1.132,0.684,2.089v4.888H556.197z"/>
			<path fill="#FFFFFF" d="M562.082,64.302c0.201,0,0.395-0.015,0.582-0.044c0.187-0.03,0.334-0.061,0.443-0.093v0.868
				c-0.123,0.06-0.304,0.108-0.543,0.146c-0.239,0.039-0.455,0.059-0.646,0.059c-1.449,0-2.174-0.764-2.174-2.29v-4.457h-1.072
				v-0.547l1.072-0.472l0.479-1.6h0.656v1.736h2.174v0.882h-2.174V62.9c0,0.451,0.107,0.798,0.322,1.039
				C561.415,64.181,561.708,64.302,562.082,64.302z"/>
		</g>
	</g>
	<g>
		<path fill="#019AC0" d="M775.765,72.5c0,6.627-5.371,12-12,12h-86c-6.627,0-12-5.373-12-12v-23c0-6.627,5.373-12,12-12h86
			c6.629,0,12,5.373,12,12V72.5z"/>
		<g enable-background="new    ">
			<path fill="#FFFFFF" d="M683.263,65.102v-9.994h1.162v9.994H683.263z"/>
			<path fill="#FFFFFF" d="M692.123,65.102v-4.847c0-0.61-0.139-1.066-0.416-1.367c-0.278-0.301-0.714-0.451-1.307-0.451
				c-0.783,0-1.357,0.212-1.723,0.636c-0.364,0.424-0.547,1.123-0.547,2.099v3.931h-1.135v-7.492h0.924l0.184,1.025h0.055
				c0.232-0.369,0.559-0.655,0.979-0.857c0.419-0.203,0.886-0.305,1.4-0.305c0.902,0,1.582,0.218,2.037,0.652
				c0.456,0.436,0.684,1.132,0.684,2.089v4.888H692.123z"/>
			<path fill="#FFFFFF" d="M698.966,58.491h-1.908v6.61h-1.135v-6.61h-1.34v-0.513l1.34-0.41v-0.417
				c0-1.841,0.805-2.762,2.414-2.762c0.396,0,0.861,0.08,1.395,0.239l-0.295,0.909c-0.438-0.142-0.811-0.212-1.121-0.212
				c-0.428,0-0.744,0.143-0.949,0.428c-0.205,0.284-0.309,0.741-0.309,1.37v0.485h1.908V58.491z"/>
			<path fill="#FFFFFF" d="M706.8,61.349c0,1.222-0.309,2.175-0.924,2.86c-0.615,0.687-1.465,1.029-2.549,1.029
				c-0.67,0-1.266-0.157-1.785-0.472s-0.92-0.766-1.203-1.354c-0.282-0.588-0.424-1.276-0.424-2.064
				c0-1.222,0.306-2.173,0.916-2.854c0.611-0.681,1.459-1.021,2.543-1.021c1.049,0,1.881,0.349,2.499,1.046
				S706.8,60.159,706.8,61.349z M701.091,61.349c0,0.957,0.191,1.687,0.574,2.188s0.946,0.752,1.689,0.752
				c0.742,0,1.307-0.249,1.691-0.749c0.385-0.498,0.578-1.229,0.578-2.19c0-0.952-0.193-1.676-0.578-2.171
				c-0.385-0.494-0.953-0.741-1.705-0.741c-0.743,0-1.304,0.244-1.682,0.731C701.281,59.655,701.091,60.383,701.091,61.349z"/>
			<path fill="#FFFFFF" d="M712.207,57.473c0.333,0,0.632,0.027,0.896,0.082l-0.158,1.053c-0.31-0.068-0.583-0.103-0.82-0.103
				c-0.605,0-1.124,0.246-1.555,0.738s-0.646,1.105-0.646,1.839v4.02h-1.135v-7.492h0.938l0.129,1.388h0.055
				c0.278-0.487,0.613-0.863,1.006-1.128C711.307,57.604,711.738,57.473,712.207,57.473z"/>
			<path fill="#FFFFFF" d="M724.054,65.102v-4.874c0-0.597-0.128-1.045-0.383-1.343c-0.256-0.299-0.652-0.448-1.189-0.448
				c-0.707,0-1.229,0.203-1.566,0.608c-0.337,0.405-0.506,1.03-0.506,1.873v4.184h-1.135v-4.874c0-0.597-0.127-1.045-0.383-1.343
				c-0.255-0.299-0.653-0.448-1.195-0.448c-0.711,0-1.232,0.213-1.563,0.64c-0.33,0.426-0.496,1.124-0.496,2.095v3.931h-1.135
				v-7.492h0.924l0.184,1.025h0.055c0.215-0.364,0.517-0.649,0.906-0.854s0.826-0.308,1.309-0.308c1.172,0,1.938,0.424,2.297,1.271
				h0.055c0.224-0.392,0.547-0.702,0.971-0.93s0.907-0.342,1.449-0.342c0.848,0,1.482,0.218,1.904,0.652
				c0.422,0.436,0.633,1.132,0.633,2.089v4.888H724.054z"/>
			<path fill="#FFFFFF" d="M732.134,65.102l-0.227-1.066h-0.055c-0.373,0.47-0.746,0.787-1.117,0.953
				c-0.371,0.167-0.835,0.25-1.391,0.25c-0.743,0-1.326-0.191-1.747-0.574s-0.632-0.928-0.632-1.634
				c0-1.513,1.209-2.306,3.629-2.379l1.271-0.041v-0.465c0-0.588-0.126-1.022-0.379-1.302c-0.253-0.281-0.657-0.421-1.213-0.421
				c-0.625,0-1.331,0.191-2.119,0.574l-0.35-0.868c0.369-0.2,0.773-0.357,1.214-0.472s0.881-0.171,1.323-0.171
				c0.893,0,1.555,0.198,1.985,0.595s0.646,1.032,0.646,1.907v5.113H732.134z M729.57,64.302c0.707,0,1.262-0.193,1.665-0.581
				s0.604-0.93,0.604-1.627v-0.677l-1.135,0.048c-0.902,0.032-1.553,0.172-1.951,0.42c-0.398,0.249-0.598,0.635-0.598,1.159
				c0,0.41,0.123,0.723,0.372,0.937S729.124,64.302,729.57,64.302z"/>
			<path fill="#FFFFFF" d="M737.732,64.302c0.201,0,0.395-0.015,0.582-0.044c0.187-0.03,0.334-0.061,0.443-0.093v0.868
				c-0.123,0.06-0.304,0.108-0.543,0.146c-0.239,0.039-0.455,0.059-0.646,0.059c-1.449,0-2.174-0.764-2.174-2.29v-4.457h-1.072
				v-0.547l1.072-0.472l0.479-1.6h0.656v1.736h2.174v0.882h-2.174V62.9c0,0.451,0.107,0.798,0.322,1.039
				C737.065,64.181,737.359,64.302,737.732,64.302z"/>
			<path fill="#FFFFFF" d="M740.16,55.579c0-0.26,0.063-0.45,0.191-0.571c0.127-0.12,0.287-0.181,0.479-0.181
				c0.182,0,0.339,0.062,0.471,0.185c0.133,0.123,0.199,0.313,0.199,0.567s-0.066,0.445-0.199,0.571
				c-0.132,0.125-0.289,0.188-0.471,0.188c-0.191,0-0.352-0.063-0.479-0.188C740.223,56.024,740.16,55.834,740.16,55.579z
				 M741.39,65.102h-1.135v-7.492h1.135V65.102z"/>
			<path fill="#FFFFFF" d="M750.263,61.349c0,1.222-0.309,2.175-0.924,2.86c-0.615,0.687-1.465,1.029-2.549,1.029
				c-0.67,0-1.266-0.157-1.785-0.472s-0.92-0.766-1.203-1.354c-0.282-0.588-0.424-1.276-0.424-2.064
				c0-1.222,0.306-2.173,0.916-2.854c0.611-0.681,1.459-1.021,2.543-1.021c1.049,0,1.881,0.349,2.499,1.046
				S750.263,60.159,750.263,61.349z M744.554,61.349c0,0.957,0.191,1.687,0.574,2.188s0.946,0.752,1.689,0.752
				c0.742,0,1.307-0.249,1.691-0.749c0.385-0.498,0.578-1.229,0.578-2.19c0-0.952-0.193-1.676-0.578-2.171
				c-0.385-0.494-0.953-0.741-1.705-0.741c-0.743,0-1.304,0.244-1.682,0.731C744.744,59.655,744.554,60.383,744.554,61.349z"/>
			<path fill="#FFFFFF" d="M757.378,65.102v-4.847c0-0.61-0.139-1.066-0.416-1.367c-0.278-0.301-0.714-0.451-1.307-0.451
				c-0.783,0-1.357,0.212-1.723,0.636c-0.364,0.424-0.547,1.123-0.547,2.099v3.931h-1.135v-7.492h0.924l0.184,1.025h0.055
				c0.232-0.369,0.559-0.655,0.979-0.857c0.419-0.203,0.886-0.305,1.4-0.305c0.902,0,1.582,0.218,2.037,0.652
				c0.456,0.436,0.684,1.132,0.684,2.089v4.888H757.378z"/>
		</g>
	</g>
</g>
</svg>
