<?xml version="1.0" encoding="utf-8"?>
<!-- Generator: Adobe Illustrator 16.0.0, SVG Export Plug-In . SVG Version: 6.00 Build 0)  -->
<!DOCTYPE svg PUBLIC "-//W3C//DTD SVG 1.1//EN" "http://www.w3.org/Graphics/SVG/1.1/DTD/svg11.dtd">
<svg version="1.1" id="Calque_1" xmlns="http://www.w3.org/2000/svg" xmlns:xlink="http://www.w3.org/1999/xlink" x="0px" y="0px"
	 width="1064.89px" height="122px" viewBox="0 0 1064.89 122" enable-background="new 0 0 1064.89 122" xml:space="preserve">
<g>
	
		<linearGradient id="SVGID_1_" gradientUnits="userSpaceOnUse" x1="-2042.6504" y1="550.7891" x2="-977.7603" y2="550.7891" gradientTransform="matrix(1 0 0 1 2042.6504 -489.7891)">
		<stop  offset="0" style="stop-color:#848484;stop-opacity:0.03"/>
		<stop  offset="0.0027" style="stop-color:#A0A0A0;stop-opacity:0.0835"/>
		<stop  offset="0.006" style="stop-color:#BBBBBB;stop-opacity:0.1492"/>
		<stop  offset="0.0098" style="stop-color:#D1D1D1;stop-opacity:0.2247"/>
		<stop  offset="0.0143" style="stop-color:#E2E2E2;stop-opacity:0.3129"/>
		<stop  offset="0.0198" style="stop-color:#EDEDED;stop-opacity:0.422"/>
		<stop  offset="0.0275" style="stop-color:#F4F4F4;stop-opacity:0.5751"/>
		<stop  offset="0.049" style="stop-color:#F6F6F6"/>
	</linearGradient>
	<rect fill="url(#SVGID_1_)" width="1064.89" height="122"/>
	<g>
		<path fill="#00008F" d="M163.345,72.5c0,6.627-5.373,12-12,12h-86c-6.628,0-12-5.373-12-12v-23c0-6.627,5.372-12,12-12h86
			c6.627,0,12,5.373,12,12V72.5z"/>
		<g enable-background="new    ">
			<path fill="#FFFFFF" d="M82.03,55.107h2.823c1.326,0,2.286,0.198,2.878,0.595s0.889,1.023,0.889,1.88
				c0,0.593-0.165,1.081-0.496,1.467c-0.331,0.385-0.813,0.634-1.446,0.748v0.068c1.518,0.26,2.276,1.058,2.276,2.393
				c0,0.894-0.302,1.591-0.906,2.092s-1.448,0.752-2.533,0.752H82.03V55.107z M83.192,59.387h1.914c0.82,0,1.411-0.129,1.771-0.387
				c0.36-0.257,0.54-0.691,0.54-1.302c0-0.561-0.201-0.965-0.602-1.214c-0.401-0.248-1.039-0.372-1.914-0.372h-1.709V59.387z
				 M83.192,60.371v3.739h2.085c0.807,0,1.414-0.156,1.822-0.468c0.408-0.313,0.612-0.802,0.612-1.467
				c0-0.62-0.208-1.075-0.625-1.367s-1.052-0.438-1.904-0.438H83.192z"/>
			<path fill="#FFFFFF" d="M92.065,65.102h-1.135V54.465h1.135V65.102z"/>
			<path fill="#FFFFFF" d="M97.637,65.238c-1.107,0-1.981-0.337-2.622-1.012s-0.96-1.611-0.96-2.81c0-1.208,0.297-2.167,0.892-2.878
				s1.394-1.066,2.396-1.066c0.939,0,1.682,0.309,2.229,0.926c0.547,0.618,0.82,1.433,0.82,2.444v0.718H95.23
				c0.023,0.88,0.245,1.547,0.667,2.003s1.015,0.684,1.781,0.684c0.807,0,1.604-0.169,2.393-0.506v1.012
				c-0.401,0.173-0.78,0.298-1.138,0.372C98.574,65.201,98.143,65.238,97.637,65.238z M97.329,58.423
				c-0.602,0-1.081,0.196-1.439,0.588s-0.568,0.935-0.632,1.627h3.917c0-0.716-0.16-1.264-0.479-1.644
				C98.377,58.613,97.921,58.423,97.329,58.423z"/>
			<path fill="#FFFFFF" d="M103.393,57.609v4.86c0,0.61,0.139,1.066,0.417,1.367s0.713,0.451,1.306,0.451
				c0.784,0,1.357-0.214,1.719-0.643s0.543-1.128,0.543-2.099v-3.938h1.135v7.492h-0.937l-0.164-1.005h-0.062
				c-0.232,0.369-0.555,0.651-0.967,0.848s-0.883,0.294-1.412,0.294c-0.912,0-1.594-0.217-2.047-0.649s-0.68-1.126-0.68-2.078
				v-4.901H103.393z"/>
			<path fill="#FFFFFF" d="M121.009,65.102l-1.244-3.179h-4.006l-1.23,3.179h-1.176l3.951-10.035h0.978l3.931,10.035H121.009z
				 M119.402,60.877l-1.162-3.097c-0.15-0.392-0.305-0.873-0.465-1.442c-0.1,0.438-0.244,0.918-0.431,1.442l-1.176,3.097H119.402z"
				/>
			<path fill="#FFFFFF" d="M125.22,61.267l-2.604-3.657h1.292l1.976,2.871l1.969-2.871h1.278l-2.604,3.657l2.741,3.835h-1.285
				l-2.099-3.035l-2.119,3.035h-1.285L125.22,61.267z"/>
			<path fill="#FFFFFF" d="M135.357,65.102l-0.226-1.066h-0.055c-0.374,0.47-0.746,0.787-1.118,0.953
				c-0.372,0.167-0.835,0.25-1.391,0.25c-0.743,0-1.325-0.191-1.747-0.574s-0.632-0.928-0.632-1.634c0-1.513,1.21-2.306,3.63-2.379
				l1.271-0.041v-0.465c0-0.588-0.126-1.022-0.379-1.302c-0.253-0.281-0.657-0.421-1.213-0.421c-0.625,0-1.331,0.191-2.119,0.574
				l-0.349-0.868c0.369-0.2,0.773-0.357,1.213-0.472s0.881-0.171,1.323-0.171c0.893,0,1.555,0.198,1.986,0.595
				s0.646,1.032,0.646,1.907v5.113H135.357z M132.794,64.302c0.707,0,1.261-0.193,1.665-0.581s0.605-0.93,0.605-1.627v-0.677
				l-1.135,0.048c-0.902,0.032-1.553,0.172-1.952,0.42c-0.399,0.249-0.598,0.635-0.598,1.159c0,0.41,0.124,0.723,0.373,0.937
				S132.347,64.302,132.794,64.302z"/>
		</g>
	</g>
</g>
</svg>
