<?xml version="1.0" encoding="utf-8"?>
<!-- Generator: Adobe Illustrator 16.0.0, SVG Export Plug-In . SVG Version: 6.00 Build 0)  -->
<!DOCTYPE svg PUBLIC "-//W3C//DTD SVG 1.1//EN" "http://www.w3.org/Graphics/SVG/1.1/DTD/svg11.dtd">
<svg version="1.1" id="Calque_1" xmlns="http://www.w3.org/2000/svg" xmlns:xlink="http://www.w3.org/1999/xlink" x="0px" y="0px"
	 width="1064.89px" height="154.391px" viewBox="0 0 1064.89 154.391" enable-background="new 0 0 1064.89 154.391"
	 xml:space="preserve">
<g>
	
		<linearGradient id="SVGID_1_" gradientUnits="userSpaceOnUse" x1="-1021.3252" y1="745.1912" x2="43.5649" y2="745.1912" gradientTransform="matrix(1 0 0 -1 1021.3252 822.3862)">
		<stop  offset="0" style="stop-color:#848484;stop-opacity:0.03"/>
		<stop  offset="0.0027" style="stop-color:#A0A0A0;stop-opacity:0.0835"/>
		<stop  offset="0.006" style="stop-color:#BBBBBB;stop-opacity:0.1492"/>
		<stop  offset="0.0098" style="stop-color:#D1D1D1;stop-opacity:0.2247"/>
		<stop  offset="0.0143" style="stop-color:#E2E2E2;stop-opacity:0.3129"/>
		<stop  offset="0.0198" style="stop-color:#EDEDED;stop-opacity:0.422"/>
		<stop  offset="0.0275" style="stop-color:#F4F4F4;stop-opacity:0.5751"/>
		<stop  offset="0.049" style="stop-color:#F6F6F6"/>
	</linearGradient>
	<rect y="0" fill="url(#SVGID_1_)" width="1064.89" height="154.391"/>
	<g>
		<path fill="#283273" d="M163.345,72.5c0,6.628-5.373,12-12,12h-86c-6.628,0-12-5.372-12-12v-23c0-6.627,5.372-12,12-12h86
			c6.627,0,12,5.373,12,12V72.5z"/>
		<path fill="#354395" d="M163.345,68c0,6.628-5.373,12-12,12h-86c-6.628,0-12-5.372-12-12V45c0-6.627,5.372-12,12-12h86
			c6.627,0,12,5.373,12,12V68z"/>
		<g enable-background="new    ">
			<path fill="#FFFFFF" d="M95.176,65.102l-0.998-2.775h-3.821l-0.978,2.775h-1.723l3.739-10.035h1.777l3.739,10.035H95.176z
				 M93.747,60.919l-0.937-2.721c-0.068-0.183-0.163-0.47-0.284-0.861s-0.204-0.679-0.25-0.861c-0.123,0.561-0.303,1.174-0.54,1.839
				l-0.902,2.604H93.747z"/>
			<path fill="#FFFFFF" d="M101.109,65.239c-1.144,0-2.013-0.334-2.608-1.002c-0.595-0.667-0.892-1.625-0.892-2.874
				c0-1.271,0.311-2.249,0.933-2.933s1.521-1.025,2.697-1.025c0.797,0,1.515,0.148,2.153,0.444l-0.485,1.292
				c-0.679-0.265-1.24-0.396-1.682-0.396c-1.308,0-1.962,0.868-1.962,2.604c0,0.848,0.163,1.484,0.489,1.911
				c0.326,0.426,0.803,0.639,1.432,0.639c0.715,0,1.392-0.178,2.03-0.533v1.401c-0.287,0.169-0.594,0.289-0.919,0.362
				S101.574,65.239,101.109,65.239z"/>
			<path fill="#FFFFFF" d="M107.809,63.94c0.392,0,0.784-0.062,1.176-0.185v1.21c-0.178,0.077-0.407,0.143-0.687,0.195
				c-0.28,0.052-0.571,0.078-0.872,0.078c-1.522,0-2.283-0.802-2.283-2.406v-4.074h-1.032v-0.711l1.107-0.588l0.547-1.6h0.991v1.682
				h2.153v1.217h-2.153v4.047c0,0.388,0.097,0.674,0.291,0.857C107.24,63.848,107.494,63.94,107.809,63.94z"/>
			<path fill="#FFFFFF" d="M110.399,55.539c0-0.287,0.079-0.508,0.236-0.663s0.382-0.232,0.673-0.232
				c0.283,0,0.502,0.077,0.66,0.232s0.236,0.376,0.236,0.663c0,0.273-0.079,0.489-0.236,0.646c-0.157,0.158-0.377,0.236-0.66,0.236
				c-0.292,0-0.516-0.078-0.673-0.236C110.478,56.028,110.399,55.812,110.399,55.539z M112.102,65.102h-1.606v-7.561h1.606V65.102z"
				/>
			<path fill="#FFFFFF" d="M121.104,61.308c0,1.235-0.317,2.199-0.95,2.892s-1.515,1.039-2.646,1.039
				c-0.707,0-1.331-0.159-1.873-0.479s-0.959-0.777-1.251-1.374s-0.438-1.29-0.438-2.078c0-1.226,0.314-2.183,0.943-2.871
				s1.515-1.032,2.659-1.032c1.094,0,1.959,0.352,2.598,1.057C120.786,59.165,121.104,60.114,121.104,61.308z M115.602,61.308
				c0,1.745,0.645,2.618,1.935,2.618c1.276,0,1.914-0.873,1.914-2.618c0-1.728-0.643-2.591-1.928-2.591
				c-0.674,0-1.163,0.224-1.466,0.67S115.602,60.474,115.602,61.308z"/>
			<path fill="#FFFFFF" d="M129.602,65.102h-1.613v-4.648c0-0.583-0.117-1.019-0.352-1.306s-0.607-0.431-1.118-0.431
				c-0.679,0-1.176,0.2-1.49,0.602s-0.472,1.073-0.472,2.017v3.767h-1.606v-7.561h1.258l0.226,0.991h0.082
				c0.228-0.36,0.551-0.638,0.971-0.834s0.884-0.294,1.395-0.294c1.814,0,2.721,0.923,2.721,2.769V65.102z"/>
		</g>
	</g>
	<g>
		<path fill="#CECDCD" d="M789.765,70.336c0,6.628-5.371,12-12,12h-86c-6.627,0-12-5.372-12-12v-23c0-6.627,5.373-12,12-12h86
			c6.629,0,12,5.373,12,12V70.336z"/>
		<path fill="#F5F5F5" d="M789.765,65.836c0,6.628-5.371,12-12,12h-86c-6.627,0-12-5.372-12-12v-23c0-6.627,5.373-12,12-12h86
			c6.629,0,12,5.373,12,12V65.836z"/>
		<g>
			<text transform="matrix(1 0 0 1 714.0757 62.9382)" fill="#CECDCD" font-family="'OpenSans-Semibold'" font-size="14">Action</text>
		</g>
		<g>
			<text transform="matrix(1 0 0 1 53.3457 119.9382)" fill="#4D4C4C" font-family="'OpenSans-Semibold'" font-size="14">Actif / sélectionné</text>
		</g>
		<g>
			<text transform="matrix(1 0 0 1 257.4844 119.9382)" fill="#4D4C4C" font-family="'OpenSans-Semibold'" font-size="14">Hover</text>
		</g>
		<g>
			<text transform="matrix(1 0 0 1 462.5293 119.9382)" fill="#4D4C4C" font-family="'OpenSans-Semibold'" font-size="14">Focus</text>
		</g>
		<g>
			<text transform="matrix(1 0 0 1 679.7651 119.9382)" fill="#4D4C4C" font-family="'OpenSans-Semibold'" font-size="14">Désactivé </text>
		</g>
	</g>
	<g>
		<path fill="#D5D3EB" d="M579.279,70.838c0,8.217-5.703,14.873-12.736,14.873h-91.277c-7.034,0-12.735-6.656-12.735-14.873V42.334
			c0-8.214,5.701-14.873,12.735-14.873h91.277c7.033,0,12.736,6.659,12.736,14.873V70.838z"/>
		<path fill="#283273" d="M576.011,70.25c0,6.628-5.373,12-12,12h-86c-6.628,0-12-5.372-12-12v-23c0-6.627,5.372-12,12-12h86
			c6.627,0,12,5.373,12,12V70.25z"/>
		<path fill="#354395" d="M576.011,65.75c0,6.628-5.373,12-12,12h-86c-6.628,0-12-5.372-12-12v-23c0-6.627,5.372-12,12-12h86
			c6.627,0,12,5.373,12,12V65.75z"/>
		<g enable-background="new    ">
			<path fill="#FFFFFF" d="M507.842,62.852l-0.998-2.775h-3.821l-0.978,2.775h-1.723l3.739-10.035h1.777l3.739,10.035H507.842z
				 M506.413,58.669l-0.937-2.721c-0.068-0.183-0.163-0.47-0.284-0.861s-0.204-0.679-0.25-0.861
				c-0.123,0.561-0.303,1.174-0.54,1.839l-0.902,2.604H506.413z"/>
			<path fill="#FFFFFF" d="M513.775,62.989c-1.144,0-2.013-0.334-2.608-1.002c-0.595-0.667-0.892-1.625-0.892-2.874
				c0-1.271,0.311-2.249,0.933-2.933s1.521-1.025,2.697-1.025c0.797,0,1.515,0.148,2.153,0.444l-0.485,1.292
				c-0.679-0.265-1.24-0.396-1.682-0.396c-1.308,0-1.962,0.868-1.962,2.604c0,0.848,0.163,1.484,0.489,1.911
				c0.326,0.426,0.803,0.639,1.432,0.639c0.715,0,1.392-0.178,2.03-0.533v1.401c-0.287,0.169-0.594,0.289-0.919,0.362
				S514.24,62.989,513.775,62.989z"/>
			<path fill="#FFFFFF" d="M520.475,61.69c0.392,0,0.784-0.062,1.176-0.185v1.21c-0.178,0.077-0.407,0.143-0.687,0.195
				c-0.28,0.052-0.571,0.078-0.872,0.078c-1.522,0-2.283-0.802-2.283-2.406v-4.074h-1.032v-0.711l1.107-0.588l0.547-1.6h0.991v1.682
				h2.153v1.217h-2.153v4.047c0,0.388,0.097,0.674,0.291,0.857C519.906,61.598,520.16,61.69,520.475,61.69z"/>
			<path fill="#FFFFFF" d="M523.065,53.289c0-0.287,0.079-0.508,0.236-0.663s0.382-0.232,0.673-0.232
				c0.283,0,0.502,0.077,0.66,0.232s0.236,0.376,0.236,0.663c0,0.273-0.079,0.489-0.236,0.646c-0.157,0.158-0.377,0.236-0.66,0.236
				c-0.292,0-0.516-0.078-0.673-0.236C523.144,53.778,523.065,53.562,523.065,53.289z M524.768,62.852h-1.606v-7.561h1.606V62.852z"
				/>
			<path fill="#FFFFFF" d="M533.771,59.058c0,1.235-0.317,2.199-0.951,2.892s-1.515,1.039-2.646,1.039
				c-0.707,0-1.331-0.159-1.873-0.479s-0.959-0.777-1.251-1.374s-0.438-1.29-0.438-2.078c0-1.226,0.314-2.183,0.943-2.871
				s1.515-1.032,2.659-1.032c1.094,0,1.959,0.352,2.598,1.057C533.452,56.915,533.771,57.864,533.771,59.058z M528.268,59.058
				c0,1.745,0.645,2.618,1.935,2.618c1.276,0,1.914-0.873,1.914-2.618c0-1.728-0.643-2.591-1.928-2.591
				c-0.674,0-1.163,0.224-1.466,0.67S528.268,58.224,528.268,59.058z"/>
			<path fill="#FFFFFF" d="M542.267,62.852h-1.613v-4.648c0-0.583-0.117-1.019-0.352-1.306s-0.607-0.431-1.117-0.431
				c-0.68,0-1.176,0.2-1.49,0.602s-0.473,1.073-0.473,2.017v3.767h-1.605v-7.561h1.258l0.225,0.991h0.082
				c0.229-0.36,0.552-0.638,0.971-0.834c0.42-0.196,0.885-0.294,1.395-0.294c1.814,0,2.721,0.923,2.721,2.769V62.852z"/>
		</g>
	</g>
	<g>
		<path fill="#283273" d="M367.485,72.5c0,6.628-5.373,12-12,12h-86c-6.627,0-12-5.372-12-12v-23c0-6.627,5.373-12,12-12h86
			c6.627,0,12,5.373,12,12V72.5z"/>
		<path fill="#283273" d="M367.485,68c0,6.628-5.373,12-12,12h-86c-6.627,0-12-5.372-12-12V45c0-6.627,5.373-12,12-12h86
			c6.627,0,12,5.373,12,12V68z"/>
		<g enable-background="new    ">
			<path fill="#FFFFFF" d="M298.594,65.102l-0.998-2.775h-3.821l-0.978,2.775h-1.723l3.739-10.035h1.777l3.739,10.035H298.594z
				 M297.165,60.919l-0.937-2.721c-0.068-0.183-0.163-0.47-0.284-0.861s-0.204-0.679-0.25-0.861
				c-0.123,0.561-0.303,1.174-0.54,1.839l-0.902,2.604H297.165z"/>
			<path fill="#FFFFFF" d="M304.527,65.239c-1.144,0-2.013-0.334-2.608-1.002c-0.595-0.667-0.892-1.625-0.892-2.874
				c0-1.271,0.311-2.249,0.933-2.933s1.521-1.025,2.697-1.025c0.797,0,1.515,0.148,2.153,0.444l-0.485,1.292
				c-0.679-0.265-1.24-0.396-1.682-0.396c-1.308,0-1.962,0.868-1.962,2.604c0,0.848,0.163,1.484,0.489,1.911
				c0.326,0.426,0.803,0.639,1.432,0.639c0.715,0,1.392-0.178,2.03-0.533v1.401c-0.287,0.169-0.594,0.289-0.919,0.362
				S304.992,65.239,304.527,65.239z"/>
			<path fill="#FFFFFF" d="M311.227,63.94c0.392,0,0.784-0.062,1.176-0.185v1.21c-0.178,0.077-0.407,0.143-0.687,0.195
				c-0.28,0.052-0.571,0.078-0.872,0.078c-1.522,0-2.283-0.802-2.283-2.406v-4.074h-1.032v-0.711l1.107-0.588l0.547-1.6h0.991v1.682
				h2.153v1.217h-2.153v4.047c0,0.388,0.097,0.674,0.291,0.857C310.658,63.848,310.912,63.94,311.227,63.94z"/>
			<path fill="#FFFFFF" d="M313.817,55.539c0-0.287,0.079-0.508,0.236-0.663s0.382-0.232,0.673-0.232
				c0.283,0,0.502,0.077,0.66,0.232s0.236,0.376,0.236,0.663c0,0.273-0.079,0.489-0.236,0.646c-0.157,0.158-0.377,0.236-0.66,0.236
				c-0.292,0-0.516-0.078-0.673-0.236C313.896,56.028,313.817,55.812,313.817,55.539z M315.52,65.102h-1.606v-7.561h1.606V65.102z"
				/>
			<path fill="#FFFFFF" d="M324.522,61.308c0,1.235-0.317,2.199-0.95,2.892s-1.515,1.039-2.646,1.039
				c-0.707,0-1.331-0.159-1.873-0.479s-0.959-0.777-1.251-1.374s-0.438-1.29-0.438-2.078c0-1.226,0.314-2.183,0.943-2.871
				s1.515-1.032,2.659-1.032c1.094,0,1.959,0.352,2.598,1.057C324.204,59.165,324.522,60.114,324.522,61.308z M319.02,61.308
				c0,1.745,0.645,2.618,1.935,2.618c1.276,0,1.914-0.873,1.914-2.618c0-1.728-0.643-2.591-1.928-2.591
				c-0.674,0-1.163,0.224-1.466,0.67S319.02,60.474,319.02,61.308z"/>
			<path fill="#FFFFFF" d="M333.02,65.102h-1.613v-4.648c0-0.583-0.117-1.019-0.352-1.306s-0.607-0.431-1.118-0.431
				c-0.679,0-1.176,0.2-1.49,0.602s-0.472,1.073-0.472,2.017v3.767h-1.606v-7.561h1.258l0.226,0.991h0.082
				c0.228-0.36,0.551-0.638,0.971-0.834s0.884-0.294,1.395-0.294c1.814,0,2.721,0.923,2.721,2.769V65.102z"/>
		</g>
	</g>
</g>
</svg>
